M48
; DRILL file {KiCad 7.0.7} date Tue Oct  3 13:09:56 2023
; FORMAT={-:-/ absolute / inch / decimal}
; #@! TF.CreationDate,2023-10-03T13:09:56+02:00
; #@! TF.GenerationSoftware,Kicad,Pcbnew,7.0.7
; #@! TF.FileFunction,Plated,1,4,PTH
FMAT,2
INCH
; #@! TA.AperFunction,Plated,PTH,ViaDrill
T1C0.0118
; #@! TA.AperFunction,Plated,PTH,ComponentDrill
T2C0.0394
; #@! TA.AperFunction,Plated,PTH,ComponentDrill
T3C0.0591
; #@! TA.AperFunction,Plated,PTH,ComponentDrill
T4C0.0669
; #@! TA.AperFunction,Plated,PTH,ComponentDrill
T5C0.1260
%
G90
G05
T1
X6.6142Y-1.8504
X6.6732Y-1.6732
X6.8012Y-1.5748
X6.8209Y-1.7126
X6.8307Y-1.5748
X6.8415Y-2.8898
X6.9291Y-2.372
X6.9291Y-2.7264
X7.0118Y-1.5906
X7.0118Y-1.6142
X7.0118Y-1.6378
X7.0118Y-1.6614
X7.0276Y-1.8701
X7.0276Y-2.2244
X7.0276Y-2.3819
X7.0276Y-2.7362
X7.0354Y-1.5906
X7.0354Y-1.6142
X7.0354Y-1.6378
X7.0354Y-1.6614
X7.0669Y-2.9921
X7.2047Y-2.9429
X7.2697Y-1.7559
X7.2697Y-1.7953
X7.2697Y-1.8346
X7.2697Y-1.874
X7.2697Y-1.9134
X7.2697Y-1.9528
X7.2697Y-1.9921
X7.3091Y-1.7559
X7.3091Y-1.7953
X7.3091Y-1.8346
X7.3091Y-1.874
X7.3091Y-1.9134
X7.3091Y-1.9528
X7.3091Y-1.9921
X7.3484Y-1.7559
X7.3484Y-1.7953
X7.3484Y-1.8346
X7.3484Y-1.874
X7.3484Y-1.9134
X7.3484Y-1.9528
X7.3484Y-1.9921
X7.3622Y-2.126
X7.3622Y-2.2441
X7.3622Y-2.3622
X7.3622Y-2.4803
X7.3622Y-2.5984
X7.3622Y-2.7165
X7.3622Y-2.8346
X7.3878Y-1.7559
X7.3878Y-1.7953
X7.3878Y-1.8346
X7.3878Y-1.874
X7.3878Y-1.9134
X7.3878Y-1.9528
X7.3878Y-1.9921
X7.4272Y-1.7559
X7.4272Y-1.7953
X7.4272Y-1.8346
X7.4272Y-1.874
X7.4272Y-1.9134
X7.4272Y-1.9528
X7.4272Y-1.9921
X7.4606Y-3.0315
X7.4665Y-1.7559
X7.4665Y-1.7953
X7.4665Y-1.8346
X7.4665Y-1.874
X7.4665Y-1.9134
X7.4665Y-1.9528
X7.4665Y-1.9921
X7.6378Y-2.5492
X7.6476Y-1.7618
X7.6476Y-1.7913
X7.6535Y-1.7323
X7.6535Y-1.8209
X7.6772Y-1.7146
X7.6811Y-1.8425
X7.7087Y-1.7126
X7.7126Y-1.8425
X7.7165Y-2.9921
X7.7362Y-2.0472
X7.7362Y-2.2047
X7.7362Y-2.3819
X7.7362Y-2.5591
X7.7362Y-2.7362
X7.7402Y-1.7126
X7.7441Y-1.6772
X7.7441Y-1.8425
X7.7717Y-1.7126
X7.7756Y-1.8425
X7.8071Y-1.7244
X7.8071Y-1.8307
X7.8268Y-1.752
X7.8268Y-1.8031
X7.8543Y-2.8543
X7.8583Y-1.752
X7.8583Y-1.8031
X7.874Y-2.2441
X7.8898Y-1.752
X7.8898Y-1.8031
X7.9035Y-1.9213
X7.9075Y-1.8898
X7.9075Y-1.9528
X7.9213Y-1.752
X7.9213Y-1.8031
X7.9331Y-1.8661
X7.9331Y-1.9764
X7.9528Y-1.752
X7.9528Y-1.811
X7.9528Y-1.9961
X7.9547Y-1.8445
X7.9567Y-2.0276
X7.9567Y-2.063
X7.9567Y-2.1024
X7.9803Y-1.7638
X7.9823Y-2.3524
X8.0039Y-1.7835
X8.0079Y-1.815
X8.0079Y-2.0276
X8.0079Y-2.063
X8.0079Y-2.1024
X8.01Y-2.56
X8.0118Y-1.8465
X8.0118Y-1.9961
X8.0118Y-2.7165
X8.0315Y-1.8661
X8.0315Y-1.9764
X8.0571Y-1.8878
X8.0571Y-1.9547
X8.061Y-1.9213
X8.0787Y-1.6102
X8.0787Y-1.6339
X8.0787Y-1.6575
X8.0787Y-1.6811
X8.0787Y-1.7047
X8.0807Y-2.2441
X8.1063Y-1.6102
X8.1063Y-1.6339
X8.1063Y-1.6575
X8.1063Y-1.6811
X8.1063Y-1.7047
X8.1102Y-2.8346
T2
X6.6043Y-3.0886
X6.6051Y-1.3878
X6.6051Y-1.4878
X6.7043Y-3.0886
X6.7051Y-1.3878
X6.7051Y-1.4878
X6.8043Y-3.0886
X6.8051Y-1.3878
X6.8051Y-1.4878
X6.9043Y-3.0886
X6.9051Y-1.3878
X6.9051Y-1.4878
X7.0043Y-3.0886
X7.0051Y-1.3878
X7.0051Y-1.4878
X7.1043Y-3.0886
X7.1051Y-1.3878
X7.1051Y-1.4878
X7.2043Y-3.0886
X7.2051Y-1.3878
X7.2051Y-1.4878
X7.3043Y-3.0886
X7.3051Y-1.3878
X7.3051Y-1.4878
X7.4043Y-3.0886
X7.4051Y-1.3878
X7.4051Y-1.4878
X7.5043Y-3.0886
X7.5051Y-1.3878
X7.5051Y-1.4878
X7.6043Y-3.0886
X7.6051Y-1.3878
X7.6051Y-1.4878
X7.7043Y-3.0886
X7.7051Y-1.3878
X7.7051Y-1.4878
X7.8043Y-3.0886
X7.8051Y-1.3878
X7.8051Y-1.4878
T3
X7.9803Y-2.2441
T4
X7.8803Y-2.1441
X7.8803Y-2.3441
X8.0803Y-2.1441
X8.0803Y-2.3441
T5
X6.3758Y-1.4545
X6.3758Y-3.0337
X8.0337Y-1.4545
X8.0337Y-3.0337
T0
M30
