%TF.GenerationSoftware,KiCad,Pcbnew,(5.1.9)-1*%
%TF.CreationDate,2021-09-15T13:57:53+03:00*%
%TF.ProjectId,voltlog UHF repeater,766f6c74-6c6f-4672-9055-484620726570,rev?*%
%TF.SameCoordinates,Original*%
%TF.FileFunction,Soldermask,Bot*%
%TF.FilePolarity,Negative*%
%FSLAX46Y46*%
G04 Gerber Fmt 4.6, Leading zero omitted, Abs format (unit mm)*
G04 Created by KiCad (PCBNEW (5.1.9)-1) date 2021-09-15 13:57:53*
%MOMM*%
%LPD*%
G01*
G04 APERTURE LIST*
%ADD10C,5.500000*%
%ADD11C,2.250000*%
%ADD12C,2.050000*%
%ADD13O,1.700000X1.700000*%
%ADD14R,1.700000X1.700000*%
G04 APERTURE END LIST*
D10*
%TO.C,H4*%
X204055501Y-36944588D03*
%TD*%
%TO.C,H3*%
X204055501Y-77055505D03*
%TD*%
%TO.C,H2*%
X161944587Y-36944588D03*
%TD*%
%TO.C,H1*%
X161944587Y-77055505D03*
%TD*%
D11*
%TO.C,J3*%
X200160000Y-59540000D03*
X200160000Y-54460000D03*
X205240000Y-54460000D03*
X205240000Y-59540000D03*
D12*
X202700000Y-57000000D03*
%TD*%
D13*
%TO.C,J1*%
X167770000Y-37790000D03*
X167770000Y-35250000D03*
X170310000Y-37790000D03*
X170310000Y-35250000D03*
X172850000Y-37790000D03*
X172850000Y-35250000D03*
X175390000Y-37790000D03*
X175390000Y-35250000D03*
X177930000Y-37790000D03*
X177930000Y-35250000D03*
X180470000Y-37790000D03*
X180470000Y-35250000D03*
X183010000Y-37790000D03*
X183010000Y-35250000D03*
X185550000Y-37790000D03*
X185550000Y-35250000D03*
X188090000Y-37790000D03*
X188090000Y-35250000D03*
X190630000Y-37790000D03*
X190630000Y-35250000D03*
X193170000Y-37790000D03*
X193170000Y-35250000D03*
X195710000Y-37790000D03*
X195710000Y-35250000D03*
X198250000Y-37790000D03*
D14*
X198250000Y-35250000D03*
%TD*%
D13*
%TO.C,J2*%
X198230000Y-78450000D03*
X195690000Y-78450000D03*
X193150000Y-78450000D03*
X190610000Y-78450000D03*
X188070000Y-78450000D03*
X185530000Y-78450000D03*
X182990000Y-78450000D03*
X180450000Y-78450000D03*
X177910000Y-78450000D03*
X175370000Y-78450000D03*
X172830000Y-78450000D03*
X170290000Y-78450000D03*
D14*
X167750000Y-78450000D03*
%TD*%
M02*
