G04 #@! TF.GenerationSoftware,KiCad,Pcbnew,(7.0.0)*
G04 #@! TF.CreationDate,2023-10-04T12:26:05+03:00*
G04 #@! TF.ProjectId,voltlog UHF repeater,766f6c74-6c6f-4672-9055-484620726570,rev?*
G04 #@! TF.SameCoordinates,Original*
G04 #@! TF.FileFunction,Profile,NP*
%FSLAX46Y46*%
G04 Gerber Fmt 4.6, Leading zero omitted, Abs format (unit mm)*
G04 Created by KiCad (PCBNEW (7.0.0)) date 2023-10-04 12:26:05*
%MOMM*%
%LPD*%
G01*
G04 APERTURE LIST*
G04 #@! TA.AperFunction,Profile*
%ADD10C,0.050000*%
G04 #@! TD*
G04 APERTURE END LIST*
D10*
X204600000Y-80100000D02*
G75*
G03*
X207100000Y-77600000I0J2500000D01*
G01*
X158900000Y-77600000D02*
G75*
G03*
X161400000Y-80100000I2500000J0D01*
G01*
X161400000Y-33900000D02*
G75*
G03*
X158900000Y-36400000I0J-2500000D01*
G01*
X158900000Y-74200000D02*
X158900000Y-77600000D01*
X158900000Y-41300000D02*
X158900000Y-36400000D01*
X167000000Y-42300000D02*
G75*
G03*
X166500000Y-41800000I-500000J0D01*
G01*
X167000000Y-47600000D02*
G75*
G03*
X167500000Y-48100000I500000J0D01*
G01*
X171900000Y-48600000D02*
G75*
G03*
X171400000Y-48100000I-500000J0D01*
G01*
X171400000Y-73700000D02*
G75*
G03*
X171900000Y-73200000I0J500000D01*
G01*
X159400000Y-73700000D02*
G75*
G03*
X158900000Y-74200000I0J-500000D01*
G01*
X171900000Y-72000000D02*
X171900000Y-73200000D01*
X161400000Y-80100000D02*
X204600000Y-80100000D01*
X167500000Y-48100000D02*
X171400000Y-48100000D01*
X171400000Y-73700000D02*
X159400000Y-73700000D01*
X159400000Y-41800000D02*
X166500000Y-41800000D01*
X204600000Y-33900000D02*
X161400000Y-33900000D01*
X207100000Y-36400000D02*
G75*
G03*
X204600000Y-33900000I-2500000J0D01*
G01*
X158900000Y-41300000D02*
G75*
G03*
X159400000Y-41800000I500000J0D01*
G01*
X207100000Y-77600000D02*
X207100000Y-36400000D01*
X167000000Y-42300000D02*
X167000000Y-47600000D01*
X171900000Y-65400000D02*
X171900000Y-72000000D01*
X171900000Y-48600000D02*
X171900000Y-65400000D01*
M02*
