G04 #@! TF.GenerationSoftware,KiCad,Pcbnew,(7.0.0)*
G04 #@! TF.CreationDate,2023-10-04T12:26:05+03:00*
G04 #@! TF.ProjectId,voltlog UHF repeater,766f6c74-6c6f-4672-9055-484620726570,rev?*
G04 #@! TF.SameCoordinates,Original*
G04 #@! TF.FileFunction,Soldermask,Bot*
G04 #@! TF.FilePolarity,Negative*
%FSLAX46Y46*%
G04 Gerber Fmt 4.6, Leading zero omitted, Abs format (unit mm)*
G04 Created by KiCad (PCBNEW (7.0.0)) date 2023-10-04 12:26:05*
%MOMM*%
%LPD*%
G01*
G04 APERTURE LIST*
%ADD10R,1.700000X1.700000*%
%ADD11O,1.700000X1.700000*%
%ADD12C,5.500000*%
%ADD13C,2.050000*%
%ADD14C,2.250000*%
G04 APERTURE END LIST*
D10*
G04 #@! TO.C,J2*
X167749999Y-78449999D03*
D11*
X170289999Y-78449999D03*
X172829999Y-78449999D03*
X175369999Y-78449999D03*
X177909999Y-78449999D03*
X180449999Y-78449999D03*
X182989999Y-78449999D03*
X185529999Y-78449999D03*
X188069999Y-78449999D03*
X190609999Y-78449999D03*
X193149999Y-78449999D03*
X195689999Y-78449999D03*
X198229999Y-78449999D03*
G04 #@! TD*
D10*
G04 #@! TO.C,J1*
X198249999Y-35249999D03*
D11*
X198249999Y-37789999D03*
X195709999Y-35249999D03*
X195709999Y-37789999D03*
X193169999Y-35249999D03*
X193169999Y-37789999D03*
X190629999Y-35249999D03*
X190629999Y-37789999D03*
X188089999Y-35249999D03*
X188089999Y-37789999D03*
X185549999Y-35249999D03*
X185549999Y-37789999D03*
X183009999Y-35249999D03*
X183009999Y-37789999D03*
X180469999Y-35249999D03*
X180469999Y-37789999D03*
X177929999Y-35249999D03*
X177929999Y-37789999D03*
X175389999Y-35249999D03*
X175389999Y-37789999D03*
X172849999Y-35249999D03*
X172849999Y-37789999D03*
X170309999Y-35249999D03*
X170309999Y-37789999D03*
X167769999Y-35249999D03*
X167769999Y-37789999D03*
G04 #@! TD*
D12*
G04 #@! TO.C,H1*
X161944600Y-77055500D03*
G04 #@! TD*
G04 #@! TO.C,H2*
X161944600Y-36944600D03*
G04 #@! TD*
G04 #@! TO.C,H3*
X204055500Y-77055500D03*
G04 #@! TD*
G04 #@! TO.C,H4*
X204055500Y-36944600D03*
G04 #@! TD*
D13*
G04 #@! TO.C,J3*
X202700000Y-57000000D03*
D14*
X200160000Y-54460000D03*
X200160000Y-59540000D03*
X205240000Y-54460000D03*
X205240000Y-59540000D03*
G04 #@! TD*
M02*
