G04 #@! TF.GenerationSoftware,KiCad,Pcbnew,(7.0.0)*
G04 #@! TF.CreationDate,2023-10-04T12:26:05+03:00*
G04 #@! TF.ProjectId,voltlog UHF repeater,766f6c74-6c6f-4672-9055-484620726570,rev?*
G04 #@! TF.SameCoordinates,Original*
G04 #@! TF.FileFunction,Copper,L4,Bot*
G04 #@! TF.FilePolarity,Positive*
%FSLAX46Y46*%
G04 Gerber Fmt 4.6, Leading zero omitted, Abs format (unit mm)*
G04 Created by KiCad (PCBNEW (7.0.0)) date 2023-10-04 12:26:05*
%MOMM*%
%LPD*%
G01*
G04 APERTURE LIST*
G04 #@! TA.AperFunction,ComponentPad*
%ADD10R,1.700000X1.700000*%
G04 #@! TD*
G04 #@! TA.AperFunction,ComponentPad*
%ADD11O,1.700000X1.700000*%
G04 #@! TD*
G04 #@! TA.AperFunction,ComponentPad*
%ADD12C,5.500000*%
G04 #@! TD*
G04 #@! TA.AperFunction,ComponentPad*
%ADD13C,2.050000*%
G04 #@! TD*
G04 #@! TA.AperFunction,ComponentPad*
%ADD14C,2.250000*%
G04 #@! TD*
G04 #@! TA.AperFunction,ViaPad*
%ADD15C,0.600000*%
G04 #@! TD*
G04 #@! TA.AperFunction,Conductor*
%ADD16C,0.300000*%
G04 #@! TD*
G04 APERTURE END LIST*
D10*
G04 #@! TO.P,J2,1,Pin_1*
G04 #@! TO.N,+5V*
X167749999Y-78449999D03*
D11*
G04 #@! TO.P,J2,2,Pin_2*
G04 #@! TO.N,GND*
X170289999Y-78449999D03*
G04 #@! TO.P,J2,3,Pin_3*
G04 #@! TO.N,/USB_DM2*
X172829999Y-78449999D03*
G04 #@! TO.P,J2,4,Pin_4*
G04 #@! TO.N,/USB_DP2*
X175369999Y-78449999D03*
G04 #@! TO.P,J2,5,Pin_5*
G04 #@! TO.N,/USB_DM3*
X177909999Y-78449999D03*
G04 #@! TO.P,J2,6,Pin_6*
G04 #@! TO.N,/USB_DP3*
X180449999Y-78449999D03*
G04 #@! TO.P,J2,7,Pin_7*
G04 #@! TO.N,LINEOUT_R*
X182989999Y-78449999D03*
G04 #@! TO.P,J2,8,Pin_8*
G04 #@! TO.N,/LINEOUT_L*
X185529999Y-78449999D03*
G04 #@! TO.P,J2,9,Pin_9*
G04 #@! TO.N,/TV_OUT*
X188069999Y-78449999D03*
G04 #@! TO.P,J2,10,Pin_10*
G04 #@! TO.N,/MIC_BIAS*
X190609999Y-78449999D03*
G04 #@! TO.P,J2,11,Pin_11*
G04 #@! TO.N,MIC1P*
X193149999Y-78449999D03*
G04 #@! TO.P,J2,12,Pin_12*
G04 #@! TO.N,MIC1N*
X195689999Y-78449999D03*
G04 #@! TO.P,J2,13,Pin_13*
G04 #@! TO.N,/CIR_RX*
X198229999Y-78449999D03*
G04 #@! TD*
D10*
G04 #@! TO.P,J1,1,Pin_1*
G04 #@! TO.N,+3V3*
X198249999Y-35249999D03*
D11*
G04 #@! TO.P,J1,2,Pin_2*
G04 #@! TO.N,+5V*
X198249999Y-37789999D03*
G04 #@! TO.P,J1,3,Pin_3*
G04 #@! TO.N,/GPIO_12*
X195709999Y-35249999D03*
G04 #@! TO.P,J1,4,Pin_4*
G04 #@! TO.N,+5V*
X195709999Y-37789999D03*
G04 #@! TO.P,J1,5,Pin_5*
G04 #@! TO.N,/GPIO_11*
X193169999Y-35249999D03*
G04 #@! TO.P,J1,6,Pin_6*
G04 #@! TO.N,GND*
X193169999Y-37789999D03*
G04 #@! TO.P,J1,7,Pin_7*
G04 #@! TO.N,/GPIO_6*
X190629999Y-35249999D03*
G04 #@! TO.P,J1,8,Pin_8*
G04 #@! TO.N,UART_TX*
X190629999Y-37789999D03*
G04 #@! TO.P,J1,9,Pin_9*
G04 #@! TO.N,GND*
X188089999Y-35249999D03*
G04 #@! TO.P,J1,10,Pin_10*
G04 #@! TO.N,UART_RX*
X188089999Y-37789999D03*
G04 #@! TO.P,J1,11,Pin_11*
G04 #@! TO.N,/GPIO_1*
X185549999Y-35249999D03*
G04 #@! TO.P,J1,12,Pin_12*
G04 #@! TO.N,GPIO_7*
X185549999Y-37789999D03*
G04 #@! TO.P,J1,13,Pin_13*
G04 #@! TO.N,/GPIO_0*
X183009999Y-35249999D03*
G04 #@! TO.P,J1,14,Pin_14*
G04 #@! TO.N,GND*
X183009999Y-37789999D03*
G04 #@! TO.P,J1,15,Pin_15*
G04 #@! TO.N,/GPIO_3*
X180469999Y-35249999D03*
G04 #@! TO.P,J1,16,Pin_16*
G04 #@! TO.N,/GPIO_19*
X180469999Y-37789999D03*
G04 #@! TO.P,J1,17,Pin_17*
G04 #@! TO.N,+3V3*
X177929999Y-35249999D03*
G04 #@! TO.P,J1,18,Pin_18*
G04 #@! TO.N,/GPIO_18*
X177929999Y-37789999D03*
G04 #@! TO.P,J1,19,Pin_19*
G04 #@! TO.N,/GPIO_15*
X175389999Y-35249999D03*
G04 #@! TO.P,J1,20,Pin_20*
G04 #@! TO.N,GND*
X175389999Y-37789999D03*
G04 #@! TO.P,J1,21,Pin_21*
G04 #@! TO.N,/GPIO_16*
X172849999Y-35249999D03*
G04 #@! TO.P,J1,22,Pin_22*
G04 #@! TO.N,/GPIO_2*
X172849999Y-37789999D03*
G04 #@! TO.P,J1,23,Pin_23*
G04 #@! TO.N,/GPIO_14*
X170309999Y-35249999D03*
G04 #@! TO.P,J1,24,Pin_24*
G04 #@! TO.N,/GPIO_13*
X170309999Y-37789999D03*
G04 #@! TO.P,J1,25,Pin_25*
G04 #@! TO.N,GND*
X167769999Y-35249999D03*
G04 #@! TO.P,J1,26,Pin_26*
G04 #@! TO.N,GPIO_10*
X167769999Y-37789999D03*
G04 #@! TD*
D12*
G04 #@! TO.P,H1,1,1*
G04 #@! TO.N,GND*
X161944600Y-77055500D03*
G04 #@! TD*
G04 #@! TO.P,H2,1,1*
G04 #@! TO.N,GND*
X161944600Y-36944600D03*
G04 #@! TD*
G04 #@! TO.P,H3,1,1*
G04 #@! TO.N,GND*
X204055500Y-77055500D03*
G04 #@! TD*
G04 #@! TO.P,H4,1,1*
G04 #@! TO.N,GND*
X204055500Y-36944600D03*
G04 #@! TD*
D13*
G04 #@! TO.P,J3,1,In*
G04 #@! TO.N,/ANT*
X202700000Y-57000000D03*
D14*
G04 #@! TO.P,J3,2,Ext*
G04 #@! TO.N,GND*
X200160000Y-54460000D03*
X200160000Y-59540000D03*
X205240000Y-54460000D03*
X205240000Y-59540000D03*
G04 #@! TD*
D15*
G04 #@! TO.N,LINEOUT_R*
X183000000Y-74100000D03*
G04 #@! TO.N,GND*
X202050000Y-46850000D03*
X187650000Y-44600000D03*
X187650000Y-50600000D03*
X187000000Y-60000000D03*
X203400000Y-51500000D03*
X196500000Y-52000000D03*
X187000000Y-69000000D03*
X196000000Y-76000000D03*
X200000000Y-57000000D03*
X203454000Y-65024000D03*
X185650000Y-49600000D03*
X188650000Y-49600000D03*
X203300000Y-45300000D03*
X198300000Y-43800000D03*
X197500000Y-46800000D03*
X196600000Y-43500000D03*
X201200000Y-45800000D03*
X203500000Y-50700000D03*
X188650000Y-48600000D03*
X184650000Y-45600000D03*
X195000000Y-43550000D03*
X187650000Y-48600000D03*
X185650000Y-48600000D03*
X201200000Y-44500000D03*
X178500000Y-60500000D03*
X173500000Y-40000000D03*
X187000000Y-57000000D03*
X186650000Y-50600000D03*
X196500000Y-60500000D03*
X198300000Y-46500000D03*
X196500000Y-69500000D03*
X178500000Y-47500000D03*
X202100000Y-51500000D03*
X201500000Y-47400000D03*
X187000000Y-54000000D03*
X172750000Y-40000000D03*
X203400000Y-52400000D03*
X187650000Y-46600000D03*
X168000000Y-47000000D03*
X188650000Y-44600000D03*
X195800000Y-43500000D03*
X196500000Y-65000000D03*
X185650000Y-46600000D03*
X169500000Y-42500000D03*
X185650000Y-47600000D03*
X186650000Y-49600000D03*
X199500000Y-72500000D03*
X178500000Y-69500000D03*
X186650000Y-44600000D03*
X184650000Y-50600000D03*
X187650000Y-47600000D03*
X179500000Y-76000000D03*
X186650000Y-46600000D03*
X200400000Y-44500000D03*
X194400000Y-46250000D03*
X187000000Y-63000000D03*
X202750000Y-59750000D03*
X185650000Y-45600000D03*
X196700000Y-46800000D03*
X184650000Y-48600000D03*
X202100000Y-52400000D03*
X199600000Y-44500000D03*
X188650000Y-47600000D03*
X194250000Y-45500000D03*
X200750000Y-48800000D03*
X206000000Y-71700000D03*
X204000000Y-50200000D03*
X204000000Y-47400000D03*
X203400000Y-46100000D03*
X201500000Y-50200000D03*
X187000000Y-66000000D03*
X188650000Y-50600000D03*
X185650000Y-44600000D03*
X202100000Y-53400000D03*
X188650000Y-46600000D03*
X194250000Y-44750000D03*
X189650000Y-47600000D03*
X195900000Y-46800000D03*
X189650000Y-44600000D03*
X187650000Y-45600000D03*
X189650000Y-49600000D03*
X203300000Y-69000000D03*
X196500000Y-56000000D03*
X205250000Y-57000000D03*
X189650000Y-48600000D03*
X200850000Y-49600000D03*
X186650000Y-48600000D03*
X204750000Y-48800000D03*
X198800000Y-45800000D03*
X202000000Y-44500000D03*
X186650000Y-45600000D03*
X187650000Y-49600000D03*
X194400000Y-44000000D03*
X202000000Y-46000000D03*
X202000000Y-50700000D03*
X184650000Y-46600000D03*
X184650000Y-49600000D03*
X189500000Y-77000000D03*
X202700000Y-44800000D03*
X204650000Y-47950000D03*
X204650000Y-49650000D03*
X184650000Y-44600000D03*
X200850000Y-48000000D03*
X186650000Y-47600000D03*
X188650000Y-45600000D03*
X184650000Y-47600000D03*
X185650000Y-50600000D03*
X195100000Y-46800000D03*
X197400000Y-43500000D03*
X189650000Y-50600000D03*
X199600000Y-45800000D03*
X189650000Y-46600000D03*
X178500000Y-56500000D03*
X203400000Y-53400000D03*
X187000000Y-72000000D03*
X200400000Y-45800000D03*
X189650000Y-45600000D03*
X203500000Y-46900000D03*
X198800000Y-44500000D03*
G04 #@! TO.N,Net-(D2-K)*
X205900000Y-42100000D03*
X205200000Y-42100000D03*
X178700000Y-41000000D03*
X205900000Y-43300000D03*
X205900000Y-41500000D03*
X178100000Y-41000000D03*
X205200000Y-40900000D03*
X178700000Y-42200000D03*
X205200000Y-42700000D03*
X205200000Y-43300000D03*
X178100000Y-40400000D03*
X205200000Y-41500000D03*
X178700000Y-40400000D03*
X178100000Y-42200000D03*
X205900000Y-40900000D03*
X205900000Y-42700000D03*
X178700000Y-41600000D03*
X178100000Y-41600000D03*
G04 #@! TO.N,+3V3*
X173775000Y-73400000D03*
G04 #@! TO.N,+5V*
X173250000Y-43500000D03*
X176000000Y-60250000D03*
X196700000Y-42600000D03*
G04 #@! TO.N,GPIO_10*
X176000000Y-69250000D03*
G04 #@! TO.N,UART_RX*
X194000000Y-64750000D03*
G04 #@! TD*
D16*
G04 #@! TO.N,LINEOUT_R*
X183000000Y-78440000D02*
X182990000Y-78450000D01*
X183000000Y-74100000D02*
X183000000Y-78440000D01*
G04 #@! TO.N,GPIO_10*
X169000000Y-47000000D02*
X172250000Y-47000000D01*
X173000000Y-47750000D02*
X173000000Y-66250000D01*
X173000000Y-66250000D02*
X176000000Y-69250000D01*
X167770000Y-37790000D02*
X167770000Y-45770000D01*
X172250000Y-47000000D02*
X173000000Y-47750000D01*
X167770000Y-45770000D02*
X169000000Y-47000000D01*
G04 #@! TO.N,UART_RX*
X188500000Y-39500000D02*
X192750000Y-39500000D01*
X193500000Y-40250000D02*
X193500000Y-64250000D01*
X188090000Y-39090000D02*
X188500000Y-39500000D01*
X193500000Y-64250000D02*
X194000000Y-64750000D01*
X188090000Y-37790000D02*
X188090000Y-39090000D01*
X192750000Y-39500000D02*
X193500000Y-40250000D01*
G04 #@! TD*
G04 #@! TA.AperFunction,Conductor*
G04 #@! TO.N,GND*
G36*
X204602231Y-33925634D02*
G01*
X204893808Y-33943272D01*
X204902660Y-33944347D01*
X205187801Y-33996600D01*
X205196452Y-33998733D01*
X205473197Y-34084970D01*
X205481536Y-34088131D01*
X205745878Y-34207103D01*
X205753790Y-34211256D01*
X206001844Y-34361210D01*
X206009198Y-34366286D01*
X206237373Y-34545049D01*
X206244062Y-34550975D01*
X206449024Y-34755937D01*
X206454950Y-34762626D01*
X206633713Y-34990801D01*
X206638789Y-34998155D01*
X206788743Y-35246209D01*
X206792896Y-35254121D01*
X206911864Y-35518455D01*
X206915032Y-35526811D01*
X206954651Y-35653954D01*
X207001263Y-35803535D01*
X207003402Y-35812211D01*
X207055651Y-36097330D01*
X207056728Y-36106201D01*
X207074365Y-36397768D01*
X207074500Y-36402236D01*
X207074500Y-77597764D01*
X207074365Y-77602232D01*
X207056728Y-77893798D01*
X207055651Y-77902669D01*
X207003402Y-78187788D01*
X207001263Y-78196464D01*
X206915032Y-78473188D01*
X206911864Y-78481544D01*
X206792896Y-78745878D01*
X206788743Y-78753790D01*
X206638789Y-79001844D01*
X206633713Y-79009198D01*
X206454950Y-79237373D01*
X206449024Y-79244062D01*
X206244062Y-79449024D01*
X206237373Y-79454950D01*
X206009198Y-79633713D01*
X206001844Y-79638789D01*
X205753790Y-79788743D01*
X205745878Y-79792896D01*
X205481544Y-79911864D01*
X205473188Y-79915032D01*
X205196464Y-80001263D01*
X205187788Y-80003402D01*
X204902669Y-80055651D01*
X204893798Y-80056728D01*
X204602232Y-80074365D01*
X204597764Y-80074500D01*
X161402236Y-80074500D01*
X161397768Y-80074365D01*
X161106201Y-80056728D01*
X161097330Y-80055651D01*
X160812211Y-80003402D01*
X160803535Y-80001263D01*
X160526811Y-79915032D01*
X160518455Y-79911864D01*
X160254121Y-79792896D01*
X160246209Y-79788743D01*
X159998155Y-79638789D01*
X159990801Y-79633713D01*
X159762626Y-79454950D01*
X159755937Y-79449024D01*
X159626661Y-79319748D01*
X166699500Y-79319748D01*
X166711133Y-79378231D01*
X166755448Y-79444552D01*
X166821769Y-79488867D01*
X166880252Y-79500500D01*
X168616108Y-79500500D01*
X168619748Y-79500500D01*
X168678231Y-79488867D01*
X168744552Y-79444552D01*
X168788867Y-79378231D01*
X168800500Y-79319748D01*
X168800500Y-78711095D01*
X169324204Y-78711095D01*
X169360594Y-78831054D01*
X169363365Y-78837745D01*
X169452793Y-79005052D01*
X169456811Y-79011067D01*
X169577165Y-79157717D01*
X169582282Y-79162834D01*
X169728932Y-79283188D01*
X169734947Y-79287206D01*
X169902254Y-79376634D01*
X169908945Y-79379405D01*
X170028904Y-79415795D01*
X170037400Y-79415656D01*
X170040000Y-79407565D01*
X170540000Y-79407565D01*
X170542599Y-79415656D01*
X170551095Y-79415795D01*
X170671054Y-79379405D01*
X170677745Y-79376634D01*
X170845052Y-79287206D01*
X170851067Y-79283188D01*
X170997717Y-79162834D01*
X171002834Y-79157717D01*
X171123188Y-79011067D01*
X171127206Y-79005052D01*
X171216634Y-78837745D01*
X171219405Y-78831054D01*
X171255795Y-78711095D01*
X171255656Y-78702599D01*
X171247565Y-78700000D01*
X170549743Y-78700000D01*
X170542059Y-78702059D01*
X170540000Y-78709743D01*
X170540000Y-79407565D01*
X170040000Y-79407565D01*
X170040000Y-78709743D01*
X170037940Y-78702059D01*
X170030257Y-78700000D01*
X169332435Y-78700000D01*
X169324343Y-78702599D01*
X169324204Y-78711095D01*
X168800500Y-78711095D01*
X168800500Y-78450000D01*
X171774417Y-78450000D01*
X171794700Y-78655934D01*
X171795752Y-78659402D01*
X171795753Y-78659407D01*
X171821984Y-78745878D01*
X171854768Y-78853954D01*
X171856483Y-78857162D01*
X171950598Y-79033239D01*
X171950601Y-79033244D01*
X171952315Y-79036450D01*
X172083590Y-79196410D01*
X172086400Y-79198716D01*
X172233878Y-79319748D01*
X172243550Y-79327685D01*
X172426046Y-79425232D01*
X172624066Y-79485300D01*
X172830000Y-79505583D01*
X173035934Y-79485300D01*
X173233954Y-79425232D01*
X173416450Y-79327685D01*
X173576410Y-79196410D01*
X173707685Y-79036450D01*
X173805232Y-78853954D01*
X173865300Y-78655934D01*
X173885583Y-78450000D01*
X174314417Y-78450000D01*
X174334700Y-78655934D01*
X174335752Y-78659402D01*
X174335753Y-78659407D01*
X174361984Y-78745878D01*
X174394768Y-78853954D01*
X174396483Y-78857162D01*
X174490598Y-79033239D01*
X174490601Y-79033244D01*
X174492315Y-79036450D01*
X174623590Y-79196410D01*
X174626400Y-79198716D01*
X174773878Y-79319748D01*
X174783550Y-79327685D01*
X174966046Y-79425232D01*
X175164066Y-79485300D01*
X175370000Y-79505583D01*
X175575934Y-79485300D01*
X175773954Y-79425232D01*
X175956450Y-79327685D01*
X176116410Y-79196410D01*
X176247685Y-79036450D01*
X176345232Y-78853954D01*
X176405300Y-78655934D01*
X176425583Y-78450000D01*
X176854417Y-78450000D01*
X176874700Y-78655934D01*
X176875752Y-78659402D01*
X176875753Y-78659407D01*
X176901984Y-78745878D01*
X176934768Y-78853954D01*
X176936483Y-78857162D01*
X177030598Y-79033239D01*
X177030601Y-79033244D01*
X177032315Y-79036450D01*
X177163590Y-79196410D01*
X177166400Y-79198716D01*
X177313878Y-79319748D01*
X177323550Y-79327685D01*
X177506046Y-79425232D01*
X177704066Y-79485300D01*
X177910000Y-79505583D01*
X178115934Y-79485300D01*
X178313954Y-79425232D01*
X178496450Y-79327685D01*
X178656410Y-79196410D01*
X178787685Y-79036450D01*
X178885232Y-78853954D01*
X178945300Y-78655934D01*
X178965583Y-78450000D01*
X179394417Y-78450000D01*
X179414700Y-78655934D01*
X179415752Y-78659402D01*
X179415753Y-78659407D01*
X179441984Y-78745878D01*
X179474768Y-78853954D01*
X179476483Y-78857162D01*
X179570598Y-79033239D01*
X179570601Y-79033244D01*
X179572315Y-79036450D01*
X179703590Y-79196410D01*
X179706400Y-79198716D01*
X179853878Y-79319748D01*
X179863550Y-79327685D01*
X180046046Y-79425232D01*
X180244066Y-79485300D01*
X180450000Y-79505583D01*
X180655934Y-79485300D01*
X180853954Y-79425232D01*
X181036450Y-79327685D01*
X181196410Y-79196410D01*
X181327685Y-79036450D01*
X181425232Y-78853954D01*
X181485300Y-78655934D01*
X181505583Y-78450000D01*
X181934417Y-78450000D01*
X181954700Y-78655934D01*
X181955752Y-78659402D01*
X181955753Y-78659407D01*
X181981984Y-78745878D01*
X182014768Y-78853954D01*
X182016483Y-78857162D01*
X182110598Y-79033239D01*
X182110601Y-79033244D01*
X182112315Y-79036450D01*
X182243590Y-79196410D01*
X182246400Y-79198716D01*
X182393878Y-79319748D01*
X182403550Y-79327685D01*
X182586046Y-79425232D01*
X182784066Y-79485300D01*
X182990000Y-79505583D01*
X183195934Y-79485300D01*
X183393954Y-79425232D01*
X183576450Y-79327685D01*
X183736410Y-79196410D01*
X183867685Y-79036450D01*
X183965232Y-78853954D01*
X184025300Y-78655934D01*
X184045583Y-78450000D01*
X184474417Y-78450000D01*
X184494700Y-78655934D01*
X184495752Y-78659402D01*
X184495753Y-78659407D01*
X184521984Y-78745878D01*
X184554768Y-78853954D01*
X184556483Y-78857162D01*
X184650598Y-79033239D01*
X184650601Y-79033244D01*
X184652315Y-79036450D01*
X184783590Y-79196410D01*
X184786400Y-79198716D01*
X184933878Y-79319748D01*
X184943550Y-79327685D01*
X185126046Y-79425232D01*
X185324066Y-79485300D01*
X185530000Y-79505583D01*
X185735934Y-79485300D01*
X185933954Y-79425232D01*
X186116450Y-79327685D01*
X186276410Y-79196410D01*
X186407685Y-79036450D01*
X186505232Y-78853954D01*
X186565300Y-78655934D01*
X186585583Y-78450000D01*
X187014417Y-78450000D01*
X187034700Y-78655934D01*
X187035752Y-78659402D01*
X187035753Y-78659407D01*
X187061984Y-78745878D01*
X187094768Y-78853954D01*
X187096483Y-78857162D01*
X187190598Y-79033239D01*
X187190601Y-79033244D01*
X187192315Y-79036450D01*
X187323590Y-79196410D01*
X187326400Y-79198716D01*
X187473878Y-79319748D01*
X187483550Y-79327685D01*
X187666046Y-79425232D01*
X187864066Y-79485300D01*
X188070000Y-79505583D01*
X188275934Y-79485300D01*
X188473954Y-79425232D01*
X188656450Y-79327685D01*
X188816410Y-79196410D01*
X188947685Y-79036450D01*
X189045232Y-78853954D01*
X189105300Y-78655934D01*
X189125583Y-78450000D01*
X189554417Y-78450000D01*
X189574700Y-78655934D01*
X189575752Y-78659402D01*
X189575753Y-78659407D01*
X189601984Y-78745878D01*
X189634768Y-78853954D01*
X189636483Y-78857162D01*
X189730598Y-79033239D01*
X189730601Y-79033244D01*
X189732315Y-79036450D01*
X189863590Y-79196410D01*
X189866400Y-79198716D01*
X190013878Y-79319748D01*
X190023550Y-79327685D01*
X190206046Y-79425232D01*
X190404066Y-79485300D01*
X190610000Y-79505583D01*
X190815934Y-79485300D01*
X191013954Y-79425232D01*
X191196450Y-79327685D01*
X191356410Y-79196410D01*
X191487685Y-79036450D01*
X191585232Y-78853954D01*
X191645300Y-78655934D01*
X191665583Y-78450000D01*
X192094417Y-78450000D01*
X192114700Y-78655934D01*
X192115752Y-78659402D01*
X192115753Y-78659407D01*
X192141984Y-78745878D01*
X192174768Y-78853954D01*
X192176483Y-78857162D01*
X192270598Y-79033239D01*
X192270601Y-79033244D01*
X192272315Y-79036450D01*
X192403590Y-79196410D01*
X192406400Y-79198716D01*
X192553878Y-79319748D01*
X192563550Y-79327685D01*
X192746046Y-79425232D01*
X192944066Y-79485300D01*
X193150000Y-79505583D01*
X193355934Y-79485300D01*
X193553954Y-79425232D01*
X193736450Y-79327685D01*
X193896410Y-79196410D01*
X194027685Y-79036450D01*
X194125232Y-78853954D01*
X194185300Y-78655934D01*
X194205583Y-78450000D01*
X194634417Y-78450000D01*
X194654700Y-78655934D01*
X194655752Y-78659402D01*
X194655753Y-78659407D01*
X194681984Y-78745878D01*
X194714768Y-78853954D01*
X194716483Y-78857162D01*
X194810598Y-79033239D01*
X194810601Y-79033244D01*
X194812315Y-79036450D01*
X194943590Y-79196410D01*
X194946400Y-79198716D01*
X195093878Y-79319748D01*
X195103550Y-79327685D01*
X195286046Y-79425232D01*
X195484066Y-79485300D01*
X195690000Y-79505583D01*
X195895934Y-79485300D01*
X196093954Y-79425232D01*
X196276450Y-79327685D01*
X196436410Y-79196410D01*
X196567685Y-79036450D01*
X196665232Y-78853954D01*
X196725300Y-78655934D01*
X196745583Y-78450000D01*
X197174417Y-78450000D01*
X197194700Y-78655934D01*
X197195752Y-78659402D01*
X197195753Y-78659407D01*
X197221984Y-78745878D01*
X197254768Y-78853954D01*
X197256483Y-78857162D01*
X197350598Y-79033239D01*
X197350601Y-79033244D01*
X197352315Y-79036450D01*
X197483590Y-79196410D01*
X197486400Y-79198716D01*
X197633878Y-79319748D01*
X197643550Y-79327685D01*
X197826046Y-79425232D01*
X198024066Y-79485300D01*
X198230000Y-79505583D01*
X198435934Y-79485300D01*
X198633954Y-79425232D01*
X198816450Y-79327685D01*
X198976410Y-79196410D01*
X199107685Y-79036450D01*
X199205232Y-78853954D01*
X199265300Y-78655934D01*
X199285583Y-78450000D01*
X199265300Y-78244066D01*
X199205232Y-78046046D01*
X199107685Y-77863550D01*
X198976410Y-77703590D01*
X198865773Y-77612793D01*
X198819264Y-77574624D01*
X198819261Y-77574622D01*
X198816450Y-77572315D01*
X198813244Y-77570601D01*
X198813239Y-77570598D01*
X198651607Y-77484204D01*
X198633954Y-77474768D01*
X198630473Y-77473712D01*
X198439407Y-77415753D01*
X198439402Y-77415752D01*
X198435934Y-77414700D01*
X198432322Y-77414344D01*
X198432321Y-77414344D01*
X198233614Y-77394773D01*
X198230000Y-77394417D01*
X198226386Y-77394773D01*
X198027678Y-77414344D01*
X198027675Y-77414344D01*
X198024066Y-77414700D01*
X198020599Y-77415751D01*
X198020592Y-77415753D01*
X197829526Y-77473712D01*
X197829522Y-77473713D01*
X197826046Y-77474768D01*
X197822839Y-77476482D01*
X197822837Y-77476483D01*
X197646760Y-77570598D01*
X197646750Y-77570604D01*
X197643550Y-77572315D01*
X197640742Y-77574618D01*
X197640735Y-77574624D01*
X197486400Y-77701283D01*
X197486394Y-77701288D01*
X197483590Y-77703590D01*
X197481288Y-77706394D01*
X197481283Y-77706400D01*
X197354624Y-77860735D01*
X197354618Y-77860742D01*
X197352315Y-77863550D01*
X197350604Y-77866750D01*
X197350598Y-77866760D01*
X197256483Y-78042837D01*
X197254768Y-78046046D01*
X197253713Y-78049522D01*
X197253712Y-78049526D01*
X197195753Y-78240592D01*
X197195751Y-78240599D01*
X197194700Y-78244066D01*
X197174417Y-78450000D01*
X196745583Y-78450000D01*
X196725300Y-78244066D01*
X196665232Y-78046046D01*
X196567685Y-77863550D01*
X196436410Y-77703590D01*
X196325773Y-77612793D01*
X196279264Y-77574624D01*
X196279261Y-77574622D01*
X196276450Y-77572315D01*
X196273244Y-77570601D01*
X196273239Y-77570598D01*
X196111607Y-77484204D01*
X196093954Y-77474768D01*
X196090473Y-77473712D01*
X195899407Y-77415753D01*
X195899402Y-77415752D01*
X195895934Y-77414700D01*
X195892322Y-77414344D01*
X195892321Y-77414344D01*
X195693614Y-77394773D01*
X195690000Y-77394417D01*
X195686386Y-77394773D01*
X195487678Y-77414344D01*
X195487675Y-77414344D01*
X195484066Y-77414700D01*
X195480599Y-77415751D01*
X195480592Y-77415753D01*
X195289526Y-77473712D01*
X195289522Y-77473713D01*
X195286046Y-77474768D01*
X195282839Y-77476482D01*
X195282837Y-77476483D01*
X195106760Y-77570598D01*
X195106750Y-77570604D01*
X195103550Y-77572315D01*
X195100742Y-77574618D01*
X195100735Y-77574624D01*
X194946400Y-77701283D01*
X194946394Y-77701288D01*
X194943590Y-77703590D01*
X194941288Y-77706394D01*
X194941283Y-77706400D01*
X194814624Y-77860735D01*
X194814618Y-77860742D01*
X194812315Y-77863550D01*
X194810604Y-77866750D01*
X194810598Y-77866760D01*
X194716483Y-78042837D01*
X194714768Y-78046046D01*
X194713713Y-78049522D01*
X194713712Y-78049526D01*
X194655753Y-78240592D01*
X194655751Y-78240599D01*
X194654700Y-78244066D01*
X194634417Y-78450000D01*
X194205583Y-78450000D01*
X194185300Y-78244066D01*
X194125232Y-78046046D01*
X194027685Y-77863550D01*
X193896410Y-77703590D01*
X193785773Y-77612793D01*
X193739264Y-77574624D01*
X193739261Y-77574622D01*
X193736450Y-77572315D01*
X193733244Y-77570601D01*
X193733239Y-77570598D01*
X193571607Y-77484204D01*
X193553954Y-77474768D01*
X193550473Y-77473712D01*
X193359407Y-77415753D01*
X193359402Y-77415752D01*
X193355934Y-77414700D01*
X193352322Y-77414344D01*
X193352321Y-77414344D01*
X193153614Y-77394773D01*
X193150000Y-77394417D01*
X193146386Y-77394773D01*
X192947678Y-77414344D01*
X192947675Y-77414344D01*
X192944066Y-77414700D01*
X192940599Y-77415751D01*
X192940592Y-77415753D01*
X192749526Y-77473712D01*
X192749522Y-77473713D01*
X192746046Y-77474768D01*
X192742839Y-77476482D01*
X192742837Y-77476483D01*
X192566760Y-77570598D01*
X192566750Y-77570604D01*
X192563550Y-77572315D01*
X192560742Y-77574618D01*
X192560735Y-77574624D01*
X192406400Y-77701283D01*
X192406394Y-77701288D01*
X192403590Y-77703590D01*
X192401288Y-77706394D01*
X192401283Y-77706400D01*
X192274624Y-77860735D01*
X192274618Y-77860742D01*
X192272315Y-77863550D01*
X192270604Y-77866750D01*
X192270598Y-77866760D01*
X192176483Y-78042837D01*
X192174768Y-78046046D01*
X192173713Y-78049522D01*
X192173712Y-78049526D01*
X192115753Y-78240592D01*
X192115751Y-78240599D01*
X192114700Y-78244066D01*
X192094417Y-78450000D01*
X191665583Y-78450000D01*
X191645300Y-78244066D01*
X191585232Y-78046046D01*
X191487685Y-77863550D01*
X191356410Y-77703590D01*
X191245773Y-77612793D01*
X191199264Y-77574624D01*
X191199261Y-77574622D01*
X191196450Y-77572315D01*
X191193244Y-77570601D01*
X191193239Y-77570598D01*
X191031607Y-77484204D01*
X191013954Y-77474768D01*
X191010473Y-77473712D01*
X190819407Y-77415753D01*
X190819402Y-77415752D01*
X190815934Y-77414700D01*
X190812322Y-77414344D01*
X190812321Y-77414344D01*
X190613614Y-77394773D01*
X190610000Y-77394417D01*
X190606386Y-77394773D01*
X190407678Y-77414344D01*
X190407675Y-77414344D01*
X190404066Y-77414700D01*
X190400599Y-77415751D01*
X190400592Y-77415753D01*
X190209526Y-77473712D01*
X190209522Y-77473713D01*
X190206046Y-77474768D01*
X190202839Y-77476482D01*
X190202837Y-77476483D01*
X190026760Y-77570598D01*
X190026750Y-77570604D01*
X190023550Y-77572315D01*
X190020742Y-77574618D01*
X190020735Y-77574624D01*
X189866400Y-77701283D01*
X189866394Y-77701288D01*
X189863590Y-77703590D01*
X189861288Y-77706394D01*
X189861283Y-77706400D01*
X189734624Y-77860735D01*
X189734618Y-77860742D01*
X189732315Y-77863550D01*
X189730604Y-77866750D01*
X189730598Y-77866760D01*
X189636483Y-78042837D01*
X189634768Y-78046046D01*
X189633713Y-78049522D01*
X189633712Y-78049526D01*
X189575753Y-78240592D01*
X189575751Y-78240599D01*
X189574700Y-78244066D01*
X189554417Y-78450000D01*
X189125583Y-78450000D01*
X189105300Y-78244066D01*
X189045232Y-78046046D01*
X188947685Y-77863550D01*
X188816410Y-77703590D01*
X188705773Y-77612793D01*
X188659264Y-77574624D01*
X188659261Y-77574622D01*
X188656450Y-77572315D01*
X188653244Y-77570601D01*
X188653239Y-77570598D01*
X188491607Y-77484204D01*
X188473954Y-77474768D01*
X188470473Y-77473712D01*
X188279407Y-77415753D01*
X188279402Y-77415752D01*
X188275934Y-77414700D01*
X188272322Y-77414344D01*
X188272321Y-77414344D01*
X188073614Y-77394773D01*
X188070000Y-77394417D01*
X188066386Y-77394773D01*
X187867678Y-77414344D01*
X187867675Y-77414344D01*
X187864066Y-77414700D01*
X187860599Y-77415751D01*
X187860592Y-77415753D01*
X187669526Y-77473712D01*
X187669522Y-77473713D01*
X187666046Y-77474768D01*
X187662839Y-77476482D01*
X187662837Y-77476483D01*
X187486760Y-77570598D01*
X187486750Y-77570604D01*
X187483550Y-77572315D01*
X187480742Y-77574618D01*
X187480735Y-77574624D01*
X187326400Y-77701283D01*
X187326394Y-77701288D01*
X187323590Y-77703590D01*
X187321288Y-77706394D01*
X187321283Y-77706400D01*
X187194624Y-77860735D01*
X187194618Y-77860742D01*
X187192315Y-77863550D01*
X187190604Y-77866750D01*
X187190598Y-77866760D01*
X187096483Y-78042837D01*
X187094768Y-78046046D01*
X187093713Y-78049522D01*
X187093712Y-78049526D01*
X187035753Y-78240592D01*
X187035751Y-78240599D01*
X187034700Y-78244066D01*
X187014417Y-78450000D01*
X186585583Y-78450000D01*
X186565300Y-78244066D01*
X186505232Y-78046046D01*
X186407685Y-77863550D01*
X186276410Y-77703590D01*
X186165773Y-77612793D01*
X186119264Y-77574624D01*
X186119261Y-77574622D01*
X186116450Y-77572315D01*
X186113244Y-77570601D01*
X186113239Y-77570598D01*
X185951607Y-77484204D01*
X185933954Y-77474768D01*
X185930473Y-77473712D01*
X185739407Y-77415753D01*
X185739402Y-77415752D01*
X185735934Y-77414700D01*
X185732322Y-77414344D01*
X185732321Y-77414344D01*
X185533614Y-77394773D01*
X185530000Y-77394417D01*
X185526386Y-77394773D01*
X185327678Y-77414344D01*
X185327675Y-77414344D01*
X185324066Y-77414700D01*
X185320599Y-77415751D01*
X185320592Y-77415753D01*
X185129526Y-77473712D01*
X185129522Y-77473713D01*
X185126046Y-77474768D01*
X185122839Y-77476482D01*
X185122837Y-77476483D01*
X184946760Y-77570598D01*
X184946750Y-77570604D01*
X184943550Y-77572315D01*
X184940742Y-77574618D01*
X184940735Y-77574624D01*
X184786400Y-77701283D01*
X184786394Y-77701288D01*
X184783590Y-77703590D01*
X184781288Y-77706394D01*
X184781283Y-77706400D01*
X184654624Y-77860735D01*
X184654618Y-77860742D01*
X184652315Y-77863550D01*
X184650604Y-77866750D01*
X184650598Y-77866760D01*
X184556483Y-78042837D01*
X184554768Y-78046046D01*
X184553713Y-78049522D01*
X184553712Y-78049526D01*
X184495753Y-78240592D01*
X184495751Y-78240599D01*
X184494700Y-78244066D01*
X184474417Y-78450000D01*
X184045583Y-78450000D01*
X184025300Y-78244066D01*
X183965232Y-78046046D01*
X183867685Y-77863550D01*
X183736410Y-77703590D01*
X183625773Y-77612793D01*
X183579264Y-77574624D01*
X183579261Y-77574622D01*
X183576450Y-77572315D01*
X183573244Y-77570601D01*
X183573239Y-77570598D01*
X183397154Y-77476478D01*
X183397150Y-77476476D01*
X183393954Y-77474768D01*
X183394147Y-77474406D01*
X183362971Y-77448820D01*
X183350500Y-77407709D01*
X183350500Y-74487387D01*
X183355166Y-74461527D01*
X183368575Y-74438927D01*
X183421910Y-74377374D01*
X183421909Y-74377374D01*
X183425377Y-74373373D01*
X183485165Y-74242457D01*
X183505647Y-74100000D01*
X183485165Y-73957543D01*
X183425377Y-73826627D01*
X183389604Y-73785343D01*
X183334593Y-73721856D01*
X183331128Y-73717857D01*
X183303455Y-73700073D01*
X183224874Y-73649572D01*
X183210053Y-73640047D01*
X183204983Y-73638558D01*
X183204978Y-73638556D01*
X183077037Y-73600990D01*
X183077034Y-73600989D01*
X183071961Y-73599500D01*
X182928039Y-73599500D01*
X182922966Y-73600989D01*
X182922962Y-73600990D01*
X182795021Y-73638556D01*
X182795013Y-73638559D01*
X182789947Y-73640047D01*
X182785498Y-73642905D01*
X182785496Y-73642907D01*
X182673324Y-73714995D01*
X182673320Y-73714998D01*
X182668872Y-73717857D01*
X182665409Y-73721852D01*
X182665406Y-73721856D01*
X182578086Y-73822629D01*
X182578082Y-73822634D01*
X182574623Y-73826627D01*
X182572427Y-73831435D01*
X182572426Y-73831437D01*
X182553808Y-73872206D01*
X182514835Y-73957543D01*
X182514082Y-73962778D01*
X182514081Y-73962783D01*
X182505087Y-74025340D01*
X182494353Y-74100000D01*
X182495106Y-74105237D01*
X182508730Y-74200000D01*
X182514835Y-74242457D01*
X182574623Y-74373373D01*
X182578086Y-74377370D01*
X182578089Y-74377374D01*
X182631425Y-74438927D01*
X182644834Y-74461527D01*
X182649500Y-74487387D01*
X182649500Y-77400637D01*
X182634938Y-77444718D01*
X182596982Y-77471450D01*
X182589526Y-77473711D01*
X182589513Y-77473716D01*
X182586046Y-77474768D01*
X182582851Y-77476475D01*
X182582843Y-77476479D01*
X182406760Y-77570598D01*
X182406750Y-77570604D01*
X182403550Y-77572315D01*
X182400742Y-77574618D01*
X182400735Y-77574624D01*
X182246400Y-77701283D01*
X182246394Y-77701288D01*
X182243590Y-77703590D01*
X182241288Y-77706394D01*
X182241283Y-77706400D01*
X182114624Y-77860735D01*
X182114618Y-77860742D01*
X182112315Y-77863550D01*
X182110604Y-77866750D01*
X182110598Y-77866760D01*
X182016483Y-78042837D01*
X182014768Y-78046046D01*
X182013713Y-78049522D01*
X182013712Y-78049526D01*
X181955753Y-78240592D01*
X181955751Y-78240599D01*
X181954700Y-78244066D01*
X181934417Y-78450000D01*
X181505583Y-78450000D01*
X181485300Y-78244066D01*
X181425232Y-78046046D01*
X181327685Y-77863550D01*
X181196410Y-77703590D01*
X181085773Y-77612793D01*
X181039264Y-77574624D01*
X181039261Y-77574622D01*
X181036450Y-77572315D01*
X181033244Y-77570601D01*
X181033239Y-77570598D01*
X180871607Y-77484204D01*
X180853954Y-77474768D01*
X180850473Y-77473712D01*
X180659407Y-77415753D01*
X180659402Y-77415752D01*
X180655934Y-77414700D01*
X180652322Y-77414344D01*
X180652321Y-77414344D01*
X180453614Y-77394773D01*
X180450000Y-77394417D01*
X180446386Y-77394773D01*
X180247678Y-77414344D01*
X180247675Y-77414344D01*
X180244066Y-77414700D01*
X180240599Y-77415751D01*
X180240592Y-77415753D01*
X180049526Y-77473712D01*
X180049522Y-77473713D01*
X180046046Y-77474768D01*
X180042839Y-77476482D01*
X180042837Y-77476483D01*
X179866760Y-77570598D01*
X179866750Y-77570604D01*
X179863550Y-77572315D01*
X179860742Y-77574618D01*
X179860735Y-77574624D01*
X179706400Y-77701283D01*
X179706394Y-77701288D01*
X179703590Y-77703590D01*
X179701288Y-77706394D01*
X179701283Y-77706400D01*
X179574624Y-77860735D01*
X179574618Y-77860742D01*
X179572315Y-77863550D01*
X179570604Y-77866750D01*
X179570598Y-77866760D01*
X179476483Y-78042837D01*
X179474768Y-78046046D01*
X179473713Y-78049522D01*
X179473712Y-78049526D01*
X179415753Y-78240592D01*
X179415751Y-78240599D01*
X179414700Y-78244066D01*
X179394417Y-78450000D01*
X178965583Y-78450000D01*
X178945300Y-78244066D01*
X178885232Y-78046046D01*
X178787685Y-77863550D01*
X178656410Y-77703590D01*
X178545773Y-77612793D01*
X178499264Y-77574624D01*
X178499261Y-77574622D01*
X178496450Y-77572315D01*
X178493244Y-77570601D01*
X178493239Y-77570598D01*
X178331607Y-77484204D01*
X178313954Y-77474768D01*
X178310473Y-77473712D01*
X178119407Y-77415753D01*
X178119402Y-77415752D01*
X178115934Y-77414700D01*
X178112322Y-77414344D01*
X178112321Y-77414344D01*
X177913614Y-77394773D01*
X177910000Y-77394417D01*
X177906386Y-77394773D01*
X177707678Y-77414344D01*
X177707675Y-77414344D01*
X177704066Y-77414700D01*
X177700599Y-77415751D01*
X177700592Y-77415753D01*
X177509526Y-77473712D01*
X177509522Y-77473713D01*
X177506046Y-77474768D01*
X177502839Y-77476482D01*
X177502837Y-77476483D01*
X177326760Y-77570598D01*
X177326750Y-77570604D01*
X177323550Y-77572315D01*
X177320742Y-77574618D01*
X177320735Y-77574624D01*
X177166400Y-77701283D01*
X177166394Y-77701288D01*
X177163590Y-77703590D01*
X177161288Y-77706394D01*
X177161283Y-77706400D01*
X177034624Y-77860735D01*
X177034618Y-77860742D01*
X177032315Y-77863550D01*
X177030604Y-77866750D01*
X177030598Y-77866760D01*
X176936483Y-78042837D01*
X176934768Y-78046046D01*
X176933713Y-78049522D01*
X176933712Y-78049526D01*
X176875753Y-78240592D01*
X176875751Y-78240599D01*
X176874700Y-78244066D01*
X176854417Y-78450000D01*
X176425583Y-78450000D01*
X176405300Y-78244066D01*
X176345232Y-78046046D01*
X176247685Y-77863550D01*
X176116410Y-77703590D01*
X176005773Y-77612793D01*
X175959264Y-77574624D01*
X175959261Y-77574622D01*
X175956450Y-77572315D01*
X175953244Y-77570601D01*
X175953239Y-77570598D01*
X175791607Y-77484204D01*
X175773954Y-77474768D01*
X175770473Y-77473712D01*
X175579407Y-77415753D01*
X175579402Y-77415752D01*
X175575934Y-77414700D01*
X175572322Y-77414344D01*
X175572321Y-77414344D01*
X175373614Y-77394773D01*
X175370000Y-77394417D01*
X175366386Y-77394773D01*
X175167678Y-77414344D01*
X175167675Y-77414344D01*
X175164066Y-77414700D01*
X175160599Y-77415751D01*
X175160592Y-77415753D01*
X174969526Y-77473712D01*
X174969522Y-77473713D01*
X174966046Y-77474768D01*
X174962839Y-77476482D01*
X174962837Y-77476483D01*
X174786760Y-77570598D01*
X174786750Y-77570604D01*
X174783550Y-77572315D01*
X174780742Y-77574618D01*
X174780735Y-77574624D01*
X174626400Y-77701283D01*
X174626394Y-77701288D01*
X174623590Y-77703590D01*
X174621288Y-77706394D01*
X174621283Y-77706400D01*
X174494624Y-77860735D01*
X174494618Y-77860742D01*
X174492315Y-77863550D01*
X174490604Y-77866750D01*
X174490598Y-77866760D01*
X174396483Y-78042837D01*
X174394768Y-78046046D01*
X174393713Y-78049522D01*
X174393712Y-78049526D01*
X174335753Y-78240592D01*
X174335751Y-78240599D01*
X174334700Y-78244066D01*
X174314417Y-78450000D01*
X173885583Y-78450000D01*
X173865300Y-78244066D01*
X173805232Y-78046046D01*
X173707685Y-77863550D01*
X173576410Y-77703590D01*
X173465773Y-77612793D01*
X173419264Y-77574624D01*
X173419261Y-77574622D01*
X173416450Y-77572315D01*
X173413244Y-77570601D01*
X173413239Y-77570598D01*
X173251607Y-77484204D01*
X173233954Y-77474768D01*
X173230473Y-77473712D01*
X173039407Y-77415753D01*
X173039402Y-77415752D01*
X173035934Y-77414700D01*
X173032322Y-77414344D01*
X173032321Y-77414344D01*
X172833614Y-77394773D01*
X172830000Y-77394417D01*
X172826386Y-77394773D01*
X172627678Y-77414344D01*
X172627675Y-77414344D01*
X172624066Y-77414700D01*
X172620599Y-77415751D01*
X172620592Y-77415753D01*
X172429526Y-77473712D01*
X172429522Y-77473713D01*
X172426046Y-77474768D01*
X172422839Y-77476482D01*
X172422837Y-77476483D01*
X172246760Y-77570598D01*
X172246750Y-77570604D01*
X172243550Y-77572315D01*
X172240742Y-77574618D01*
X172240735Y-77574624D01*
X172086400Y-77701283D01*
X172086394Y-77701288D01*
X172083590Y-77703590D01*
X172081288Y-77706394D01*
X172081283Y-77706400D01*
X171954624Y-77860735D01*
X171954618Y-77860742D01*
X171952315Y-77863550D01*
X171950604Y-77866750D01*
X171950598Y-77866760D01*
X171856483Y-78042837D01*
X171854768Y-78046046D01*
X171853713Y-78049522D01*
X171853712Y-78049526D01*
X171795753Y-78240592D01*
X171795751Y-78240599D01*
X171794700Y-78244066D01*
X171774417Y-78450000D01*
X168800500Y-78450000D01*
X168800500Y-78188904D01*
X169324204Y-78188904D01*
X169324343Y-78197400D01*
X169332435Y-78200000D01*
X170030257Y-78200000D01*
X170037940Y-78197940D01*
X170040000Y-78190257D01*
X170540000Y-78190257D01*
X170542059Y-78197940D01*
X170549743Y-78200000D01*
X171247565Y-78200000D01*
X171255656Y-78197400D01*
X171255795Y-78188904D01*
X171219405Y-78068945D01*
X171216634Y-78062254D01*
X171127206Y-77894947D01*
X171123188Y-77888932D01*
X171002834Y-77742282D01*
X170997717Y-77737165D01*
X170851067Y-77616811D01*
X170845052Y-77612793D01*
X170677745Y-77523365D01*
X170671054Y-77520594D01*
X170551095Y-77484204D01*
X170542599Y-77484343D01*
X170540000Y-77492435D01*
X170540000Y-78190257D01*
X170040000Y-78190257D01*
X170040000Y-77492435D01*
X170037400Y-77484343D01*
X170028904Y-77484204D01*
X169908945Y-77520594D01*
X169902254Y-77523365D01*
X169734947Y-77612793D01*
X169728932Y-77616811D01*
X169582282Y-77737165D01*
X169577165Y-77742282D01*
X169456811Y-77888932D01*
X169452793Y-77894947D01*
X169363365Y-78062254D01*
X169360594Y-78068945D01*
X169324204Y-78188904D01*
X168800500Y-78188904D01*
X168800500Y-77580252D01*
X168788867Y-77521769D01*
X168744552Y-77455448D01*
X168678231Y-77411133D01*
X168671080Y-77409710D01*
X168671079Y-77409710D01*
X168623318Y-77400210D01*
X168623316Y-77400209D01*
X168619748Y-77399500D01*
X166880252Y-77399500D01*
X166876684Y-77400209D01*
X166876681Y-77400210D01*
X166828920Y-77409710D01*
X166828917Y-77409711D01*
X166821769Y-77411133D01*
X166815706Y-77415183D01*
X166815706Y-77415184D01*
X166761508Y-77451398D01*
X166761505Y-77451400D01*
X166755448Y-77455448D01*
X166751400Y-77461505D01*
X166751398Y-77461508D01*
X166715184Y-77515706D01*
X166711133Y-77521769D01*
X166709711Y-77528917D01*
X166709710Y-77528920D01*
X166700619Y-77574624D01*
X166699500Y-77580252D01*
X166699500Y-79319748D01*
X159626661Y-79319748D01*
X159550975Y-79244062D01*
X159545049Y-79237373D01*
X159366286Y-79009198D01*
X159361210Y-79001844D01*
X159211256Y-78753790D01*
X159207103Y-78745878D01*
X159088131Y-78481536D01*
X159084970Y-78473197D01*
X158998733Y-78196452D01*
X158996600Y-78187801D01*
X158944347Y-77902660D01*
X158943272Y-77893808D01*
X158925634Y-77602231D01*
X158925500Y-77597764D01*
X158925500Y-74204851D01*
X158926133Y-74195193D01*
X158933295Y-74140790D01*
X158940396Y-74086846D01*
X158945394Y-74068193D01*
X158985346Y-73971742D01*
X158994995Y-73955028D01*
X159058551Y-73872201D01*
X159072201Y-73858551D01*
X159155028Y-73794995D01*
X159171742Y-73785346D01*
X159268193Y-73745394D01*
X159286846Y-73740396D01*
X159364109Y-73730225D01*
X159395193Y-73726133D01*
X159404851Y-73725500D01*
X171455054Y-73725500D01*
X171459210Y-73725500D01*
X171574660Y-73699149D01*
X171681352Y-73647769D01*
X171773936Y-73573936D01*
X171847769Y-73481352D01*
X171886946Y-73400000D01*
X173269353Y-73400000D01*
X173270106Y-73405237D01*
X173288837Y-73535522D01*
X173289835Y-73542457D01*
X173349623Y-73673373D01*
X173353084Y-73677368D01*
X173353086Y-73677370D01*
X173385688Y-73714995D01*
X173443872Y-73782143D01*
X173564947Y-73859953D01*
X173570020Y-73861442D01*
X173570021Y-73861443D01*
X173606677Y-73872206D01*
X173703039Y-73900500D01*
X173841669Y-73900500D01*
X173846961Y-73900500D01*
X173985053Y-73859953D01*
X174106128Y-73782143D01*
X174200377Y-73673373D01*
X174260165Y-73542457D01*
X174280647Y-73400000D01*
X174260165Y-73257543D01*
X174200377Y-73126627D01*
X174106128Y-73017857D01*
X173985053Y-72940047D01*
X173979983Y-72938558D01*
X173979978Y-72938556D01*
X173852037Y-72900990D01*
X173852034Y-72900989D01*
X173846961Y-72899500D01*
X173703039Y-72899500D01*
X173697966Y-72900989D01*
X173697962Y-72900990D01*
X173570021Y-72938556D01*
X173570013Y-72938559D01*
X173564947Y-72940047D01*
X173560498Y-72942905D01*
X173560496Y-72942907D01*
X173448324Y-73014995D01*
X173448320Y-73014998D01*
X173443872Y-73017857D01*
X173440409Y-73021852D01*
X173440406Y-73021856D01*
X173353086Y-73122629D01*
X173353082Y-73122634D01*
X173349623Y-73126627D01*
X173289835Y-73257543D01*
X173289082Y-73262778D01*
X173289081Y-73262783D01*
X173280451Y-73322810D01*
X173269353Y-73400000D01*
X171886946Y-73400000D01*
X171899149Y-73374660D01*
X171925500Y-73259210D01*
X171925500Y-73200000D01*
X171925500Y-73191715D01*
X171925500Y-71994928D01*
X171925500Y-65394928D01*
X171925500Y-48594928D01*
X171925500Y-48540790D01*
X171899149Y-48425340D01*
X171847769Y-48318648D01*
X171773936Y-48226064D01*
X171681352Y-48152231D01*
X171677610Y-48150429D01*
X171677607Y-48150427D01*
X171578403Y-48102653D01*
X171578398Y-48102651D01*
X171574660Y-48100851D01*
X171570614Y-48099927D01*
X171570610Y-48099926D01*
X171463260Y-48075424D01*
X171463256Y-48075423D01*
X171459210Y-48074500D01*
X171455054Y-48074500D01*
X167504851Y-48074500D01*
X167495192Y-48073867D01*
X167386848Y-48059603D01*
X167368188Y-48054603D01*
X167271748Y-48014656D01*
X167255023Y-48005000D01*
X167172205Y-47941451D01*
X167158547Y-47927793D01*
X167157044Y-47925834D01*
X167094998Y-47844974D01*
X167085343Y-47828251D01*
X167071164Y-47794021D01*
X167045395Y-47731808D01*
X167040396Y-47713151D01*
X167038793Y-47700978D01*
X167026133Y-47604808D01*
X167025500Y-47595149D01*
X167025500Y-42244946D01*
X167025500Y-42240790D01*
X166999149Y-42125340D01*
X166947769Y-42018648D01*
X166873936Y-41926064D01*
X166827548Y-41889071D01*
X166784600Y-41854821D01*
X166784598Y-41854820D01*
X166781352Y-41852231D01*
X166777610Y-41850429D01*
X166777607Y-41850427D01*
X166678403Y-41802653D01*
X166678398Y-41802651D01*
X166674660Y-41800851D01*
X166670614Y-41799927D01*
X166670610Y-41799926D01*
X166563260Y-41775424D01*
X166563256Y-41775423D01*
X166559210Y-41774500D01*
X166555054Y-41774500D01*
X159404851Y-41774500D01*
X159395192Y-41773867D01*
X159286848Y-41759603D01*
X159268188Y-41754603D01*
X159171748Y-41714656D01*
X159155023Y-41705000D01*
X159072205Y-41641451D01*
X159058547Y-41627793D01*
X159041239Y-41605237D01*
X158994998Y-41544974D01*
X158985343Y-41528251D01*
X158975810Y-41505237D01*
X158945395Y-41431808D01*
X158940396Y-41413151D01*
X158933075Y-41357543D01*
X158926133Y-41304808D01*
X158925500Y-41295149D01*
X158925500Y-37790000D01*
X166714417Y-37790000D01*
X166734700Y-37995934D01*
X166735752Y-37999402D01*
X166735753Y-37999407D01*
X166787821Y-38171054D01*
X166794768Y-38193954D01*
X166796483Y-38197162D01*
X166890598Y-38373239D01*
X166890601Y-38373244D01*
X166892315Y-38376450D01*
X167023590Y-38536410D01*
X167183550Y-38667685D01*
X167366046Y-38765232D01*
X167369528Y-38766288D01*
X167372885Y-38767679D01*
X167372247Y-38769217D01*
X167404945Y-38792259D01*
X167419500Y-38836330D01*
X167419500Y-45725974D01*
X167417925Y-45741160D01*
X167416215Y-45749312D01*
X167416214Y-45749316D01*
X167414957Y-45755315D01*
X167415715Y-45761396D01*
X167415715Y-45761399D01*
X167418932Y-45787202D01*
X167419407Y-45794872D01*
X167419500Y-45795993D01*
X167419500Y-45799040D01*
X167420002Y-45802052D01*
X167420003Y-45802057D01*
X167422833Y-45819020D01*
X167423273Y-45822042D01*
X167428667Y-45865309D01*
X167428669Y-45865317D01*
X167429427Y-45871393D01*
X167431930Y-45876514D01*
X167431991Y-45876691D01*
X167432915Y-45879575D01*
X167432969Y-45879758D01*
X167433908Y-45885381D01*
X167436825Y-45890771D01*
X167436826Y-45890774D01*
X167457567Y-45929101D01*
X167458967Y-45931819D01*
X167480802Y-45976484D01*
X167484834Y-45980516D01*
X167484934Y-45980644D01*
X167486764Y-45983098D01*
X167486869Y-45983245D01*
X167489582Y-45988258D01*
X167526168Y-46021938D01*
X167528348Y-46024030D01*
X168721031Y-47216713D01*
X168730655Y-47228565D01*
X168735208Y-47235535D01*
X168735210Y-47235537D01*
X168738563Y-47240669D01*
X168763915Y-47260401D01*
X168769690Y-47265500D01*
X168770526Y-47266208D01*
X168772694Y-47268376D01*
X168775186Y-47270155D01*
X168789178Y-47280145D01*
X168791631Y-47281974D01*
X168826031Y-47308748D01*
X168826032Y-47308748D01*
X168830874Y-47312517D01*
X168836271Y-47314369D01*
X168836442Y-47314453D01*
X168839145Y-47315845D01*
X168839285Y-47315921D01*
X168843934Y-47319240D01*
X168891608Y-47333433D01*
X168894468Y-47334349D01*
X168941512Y-47350500D01*
X168947223Y-47350500D01*
X168947382Y-47350520D01*
X168950408Y-47350961D01*
X168950574Y-47350988D01*
X168956046Y-47352617D01*
X169005718Y-47350562D01*
X169008775Y-47350500D01*
X172074166Y-47350500D01*
X172102485Y-47356133D01*
X172126492Y-47372174D01*
X172627826Y-47873508D01*
X172643867Y-47897515D01*
X172649500Y-47925834D01*
X172649500Y-66205974D01*
X172647925Y-66221160D01*
X172646215Y-66229312D01*
X172646214Y-66229316D01*
X172644957Y-66235315D01*
X172645715Y-66241396D01*
X172645715Y-66241399D01*
X172648932Y-66267202D01*
X172649407Y-66274872D01*
X172649500Y-66275993D01*
X172649500Y-66279040D01*
X172650002Y-66282052D01*
X172650003Y-66282057D01*
X172652833Y-66299020D01*
X172653273Y-66302042D01*
X172658667Y-66345309D01*
X172658669Y-66345317D01*
X172659427Y-66351393D01*
X172661930Y-66356514D01*
X172661991Y-66356691D01*
X172662915Y-66359575D01*
X172662969Y-66359758D01*
X172663908Y-66365381D01*
X172666825Y-66370771D01*
X172666826Y-66370774D01*
X172687567Y-66409101D01*
X172688967Y-66411819D01*
X172710802Y-66456484D01*
X172714834Y-66460516D01*
X172714934Y-66460644D01*
X172716764Y-66463098D01*
X172716869Y-66463245D01*
X172719582Y-66468258D01*
X172756168Y-66501938D01*
X172758348Y-66504030D01*
X175475263Y-69220945D01*
X175496184Y-69262739D01*
X175514081Y-69387217D01*
X175514082Y-69387221D01*
X175514835Y-69392457D01*
X175574623Y-69523373D01*
X175668872Y-69632143D01*
X175789947Y-69709953D01*
X175795020Y-69711442D01*
X175795021Y-69711443D01*
X175841350Y-69725046D01*
X175928039Y-69750500D01*
X176066669Y-69750500D01*
X176071961Y-69750500D01*
X176210053Y-69709953D01*
X176331128Y-69632143D01*
X176425377Y-69523373D01*
X176485165Y-69392457D01*
X176505647Y-69250000D01*
X176485165Y-69107543D01*
X176425377Y-68976627D01*
X176331128Y-68867857D01*
X176210053Y-68790047D01*
X176204983Y-68788558D01*
X176204978Y-68788556D01*
X176077037Y-68750990D01*
X176077034Y-68750989D01*
X176071961Y-68749500D01*
X176066669Y-68749500D01*
X176025833Y-68749500D01*
X175997514Y-68743867D01*
X175973507Y-68727826D01*
X173372174Y-66126492D01*
X173356133Y-66102485D01*
X173350500Y-66074166D01*
X173350500Y-60250000D01*
X175494353Y-60250000D01*
X175514835Y-60392457D01*
X175574623Y-60523373D01*
X175668872Y-60632143D01*
X175789947Y-60709953D01*
X175795020Y-60711442D01*
X175795021Y-60711443D01*
X175841350Y-60725046D01*
X175928039Y-60750500D01*
X176066669Y-60750500D01*
X176071961Y-60750500D01*
X176210053Y-60709953D01*
X176331128Y-60632143D01*
X176425377Y-60523373D01*
X176485165Y-60392457D01*
X176505647Y-60250000D01*
X176485165Y-60107543D01*
X176425377Y-59976627D01*
X176331128Y-59867857D01*
X176210053Y-59790047D01*
X176204983Y-59788558D01*
X176204978Y-59788556D01*
X176077037Y-59750990D01*
X176077034Y-59750989D01*
X176071961Y-59749500D01*
X175928039Y-59749500D01*
X175922966Y-59750989D01*
X175922962Y-59750990D01*
X175795021Y-59788556D01*
X175795013Y-59788559D01*
X175789947Y-59790047D01*
X175785498Y-59792905D01*
X175785496Y-59792907D01*
X175673324Y-59864995D01*
X175673320Y-59864998D01*
X175668872Y-59867857D01*
X175665409Y-59871852D01*
X175665406Y-59871856D01*
X175578086Y-59972629D01*
X175578082Y-59972634D01*
X175574623Y-59976627D01*
X175514835Y-60107543D01*
X175514082Y-60112778D01*
X175514081Y-60112783D01*
X175496309Y-60236389D01*
X175494353Y-60250000D01*
X173350500Y-60250000D01*
X173350500Y-47794021D01*
X173352075Y-47778835D01*
X173352950Y-47774660D01*
X173355042Y-47764685D01*
X173351067Y-47732803D01*
X173350591Y-47725132D01*
X173350500Y-47724033D01*
X173350500Y-47720960D01*
X173347163Y-47700969D01*
X173346723Y-47697949D01*
X173340573Y-47648607D01*
X173338066Y-47643479D01*
X173338010Y-47643315D01*
X173337078Y-47640406D01*
X173337030Y-47640247D01*
X173336092Y-47634619D01*
X173333174Y-47629227D01*
X173333173Y-47629224D01*
X173312432Y-47590899D01*
X173311030Y-47588177D01*
X173289198Y-47543516D01*
X173285160Y-47539478D01*
X173285066Y-47539357D01*
X173283240Y-47536908D01*
X173283130Y-47536753D01*
X173280418Y-47531742D01*
X173243857Y-47498085D01*
X173241650Y-47495968D01*
X172528971Y-46783289D01*
X172519346Y-46771436D01*
X172514793Y-46764466D01*
X172514788Y-46764461D01*
X172511437Y-46759331D01*
X172486084Y-46739598D01*
X172480314Y-46734503D01*
X172479470Y-46733788D01*
X172477307Y-46731625D01*
X172460786Y-46719829D01*
X172458367Y-46718026D01*
X172419126Y-46687483D01*
X172413739Y-46685633D01*
X172413569Y-46685551D01*
X172410844Y-46684148D01*
X172410708Y-46684074D01*
X172406066Y-46680760D01*
X172396509Y-46677914D01*
X172358430Y-46666577D01*
X172355521Y-46665645D01*
X172314289Y-46651491D01*
X172314286Y-46651490D01*
X172308488Y-46649500D01*
X172302788Y-46649500D01*
X172302615Y-46649479D01*
X172299601Y-46649040D01*
X172299415Y-46649008D01*
X172293954Y-46647383D01*
X172287829Y-46647636D01*
X172287827Y-46647636D01*
X172244292Y-46649437D01*
X172241234Y-46649500D01*
X169175833Y-46649500D01*
X169147514Y-46643867D01*
X169123507Y-46627826D01*
X168142174Y-45646492D01*
X168126133Y-45622485D01*
X168120500Y-45594166D01*
X168120500Y-43500000D01*
X172744353Y-43500000D01*
X172745106Y-43505237D01*
X172754210Y-43568562D01*
X172764835Y-43642457D01*
X172824623Y-43773373D01*
X172828084Y-43777368D01*
X172828086Y-43777370D01*
X172848128Y-43800500D01*
X172918872Y-43882143D01*
X173039947Y-43959953D01*
X173045020Y-43961442D01*
X173045021Y-43961443D01*
X173091350Y-43975046D01*
X173178039Y-44000500D01*
X173316669Y-44000500D01*
X173321961Y-44000500D01*
X173460053Y-43959953D01*
X173581128Y-43882143D01*
X173675377Y-43773373D01*
X173735165Y-43642457D01*
X173755647Y-43500000D01*
X173735165Y-43357543D01*
X173675377Y-43226627D01*
X173581128Y-43117857D01*
X173460053Y-43040047D01*
X173454983Y-43038558D01*
X173454978Y-43038556D01*
X173327037Y-43000990D01*
X173327034Y-43000989D01*
X173321961Y-42999500D01*
X173178039Y-42999500D01*
X173172966Y-43000989D01*
X173172962Y-43000990D01*
X173045021Y-43038556D01*
X173045013Y-43038559D01*
X173039947Y-43040047D01*
X173035498Y-43042905D01*
X173035496Y-43042907D01*
X172923324Y-43114995D01*
X172923320Y-43114998D01*
X172918872Y-43117857D01*
X172915409Y-43121852D01*
X172915406Y-43121856D01*
X172828086Y-43222629D01*
X172828082Y-43222634D01*
X172824623Y-43226627D01*
X172822427Y-43231435D01*
X172822426Y-43231437D01*
X172788723Y-43305237D01*
X172764835Y-43357543D01*
X172764082Y-43362778D01*
X172764081Y-43362783D01*
X172753380Y-43437216D01*
X172744353Y-43500000D01*
X168120500Y-43500000D01*
X168120500Y-42200000D01*
X177594353Y-42200000D01*
X177595106Y-42205237D01*
X177613250Y-42331437D01*
X177614835Y-42342457D01*
X177674623Y-42473373D01*
X177768872Y-42582143D01*
X177889947Y-42659953D01*
X177895020Y-42661442D01*
X177895021Y-42661443D01*
X177941350Y-42675046D01*
X178028039Y-42700500D01*
X178166669Y-42700500D01*
X178171961Y-42700500D01*
X178310053Y-42659953D01*
X178314504Y-42657092D01*
X178314507Y-42657091D01*
X178359992Y-42627859D01*
X178400000Y-42616111D01*
X178440008Y-42627859D01*
X178485492Y-42657091D01*
X178485497Y-42657093D01*
X178489947Y-42659953D01*
X178495020Y-42661442D01*
X178495021Y-42661443D01*
X178541350Y-42675046D01*
X178628039Y-42700500D01*
X178766669Y-42700500D01*
X178771961Y-42700500D01*
X178910053Y-42659953D01*
X179031128Y-42582143D01*
X179125377Y-42473373D01*
X179185165Y-42342457D01*
X179205647Y-42200000D01*
X179185165Y-42057543D01*
X179182966Y-42052727D01*
X179182964Y-42052721D01*
X179127256Y-41930741D01*
X179120568Y-41900000D01*
X179127256Y-41869259D01*
X179182964Y-41747278D01*
X179182966Y-41747272D01*
X179185165Y-41742457D01*
X179205647Y-41600000D01*
X179185165Y-41457543D01*
X179127254Y-41330738D01*
X179120568Y-41299999D01*
X179127256Y-41269258D01*
X179185165Y-41142457D01*
X179205647Y-41000000D01*
X179185165Y-40857543D01*
X179127254Y-40730738D01*
X179120568Y-40699999D01*
X179127256Y-40669258D01*
X179185165Y-40542457D01*
X179205647Y-40400000D01*
X179185165Y-40257543D01*
X179125377Y-40126627D01*
X179031128Y-40017857D01*
X178910053Y-39940047D01*
X178904983Y-39938558D01*
X178904978Y-39938556D01*
X178777037Y-39900990D01*
X178777034Y-39900989D01*
X178771961Y-39899500D01*
X178628039Y-39899500D01*
X178622966Y-39900989D01*
X178622962Y-39900990D01*
X178495021Y-39938556D01*
X178495013Y-39938559D01*
X178489947Y-39940047D01*
X178485498Y-39942905D01*
X178485496Y-39942907D01*
X178440007Y-39972141D01*
X178400000Y-39983888D01*
X178359993Y-39972141D01*
X178314503Y-39942907D01*
X178310053Y-39940047D01*
X178304983Y-39938558D01*
X178304978Y-39938556D01*
X178177037Y-39900990D01*
X178177034Y-39900989D01*
X178171961Y-39899500D01*
X178028039Y-39899500D01*
X178022966Y-39900989D01*
X178022962Y-39900990D01*
X177895021Y-39938556D01*
X177895013Y-39938559D01*
X177889947Y-39940047D01*
X177885498Y-39942905D01*
X177885496Y-39942907D01*
X177773324Y-40014995D01*
X177773320Y-40014998D01*
X177768872Y-40017857D01*
X177765409Y-40021852D01*
X177765406Y-40021856D01*
X177678086Y-40122629D01*
X177678082Y-40122634D01*
X177674623Y-40126627D01*
X177672427Y-40131435D01*
X177672426Y-40131437D01*
X177629637Y-40225132D01*
X177614835Y-40257543D01*
X177614082Y-40262778D01*
X177614081Y-40262783D01*
X177609590Y-40294021D01*
X177594353Y-40400000D01*
X177595106Y-40405237D01*
X177610886Y-40514995D01*
X177614835Y-40542457D01*
X177672743Y-40669257D01*
X177672744Y-40669258D01*
X177679431Y-40699999D01*
X177672744Y-40730740D01*
X177617034Y-40852727D01*
X177614835Y-40857543D01*
X177614082Y-40862778D01*
X177614081Y-40862783D01*
X177596309Y-40986389D01*
X177594353Y-41000000D01*
X177595106Y-41005237D01*
X177601149Y-41047272D01*
X177614835Y-41142457D01*
X177672743Y-41269257D01*
X177672744Y-41269258D01*
X177679431Y-41299999D01*
X177672744Y-41330740D01*
X177617034Y-41452727D01*
X177614835Y-41457543D01*
X177614082Y-41462778D01*
X177614081Y-41462783D01*
X177604669Y-41528251D01*
X177594353Y-41600000D01*
X177595106Y-41605237D01*
X177610837Y-41714656D01*
X177614835Y-41742457D01*
X177617034Y-41747272D01*
X177672744Y-41869259D01*
X177679431Y-41900000D01*
X177672744Y-41930741D01*
X177634082Y-42015399D01*
X177614835Y-42057543D01*
X177614082Y-42062778D01*
X177614081Y-42062783D01*
X177597633Y-42177190D01*
X177594353Y-42200000D01*
X168120500Y-42200000D01*
X168120500Y-38836330D01*
X168135055Y-38792259D01*
X168167752Y-38769217D01*
X168167115Y-38767679D01*
X168170469Y-38766288D01*
X168173954Y-38765232D01*
X168356450Y-38667685D01*
X168516410Y-38536410D01*
X168647685Y-38376450D01*
X168745232Y-38193954D01*
X168805300Y-37995934D01*
X168825583Y-37790000D01*
X169254417Y-37790000D01*
X169274700Y-37995934D01*
X169275752Y-37999402D01*
X169275753Y-37999407D01*
X169327821Y-38171054D01*
X169334768Y-38193954D01*
X169336483Y-38197162D01*
X169430598Y-38373239D01*
X169430601Y-38373244D01*
X169432315Y-38376450D01*
X169563590Y-38536410D01*
X169723550Y-38667685D01*
X169906046Y-38765232D01*
X170104066Y-38825300D01*
X170310000Y-38845583D01*
X170515934Y-38825300D01*
X170713954Y-38765232D01*
X170896450Y-38667685D01*
X171056410Y-38536410D01*
X171187685Y-38376450D01*
X171285232Y-38193954D01*
X171345300Y-37995934D01*
X171365583Y-37790000D01*
X171794417Y-37790000D01*
X171814700Y-37995934D01*
X171815752Y-37999402D01*
X171815753Y-37999407D01*
X171867821Y-38171054D01*
X171874768Y-38193954D01*
X171876483Y-38197162D01*
X171970598Y-38373239D01*
X171970601Y-38373244D01*
X171972315Y-38376450D01*
X172103590Y-38536410D01*
X172263550Y-38667685D01*
X172446046Y-38765232D01*
X172644066Y-38825300D01*
X172850000Y-38845583D01*
X173055934Y-38825300D01*
X173253954Y-38765232D01*
X173436450Y-38667685D01*
X173596410Y-38536410D01*
X173727685Y-38376450D01*
X173825232Y-38193954D01*
X173868567Y-38051095D01*
X174424204Y-38051095D01*
X174460594Y-38171054D01*
X174463365Y-38177745D01*
X174552793Y-38345052D01*
X174556811Y-38351067D01*
X174677165Y-38497717D01*
X174682282Y-38502834D01*
X174828932Y-38623188D01*
X174834947Y-38627206D01*
X175002254Y-38716634D01*
X175008945Y-38719405D01*
X175128904Y-38755795D01*
X175137400Y-38755656D01*
X175140000Y-38747565D01*
X175640000Y-38747565D01*
X175642599Y-38755656D01*
X175651095Y-38755795D01*
X175771054Y-38719405D01*
X175777745Y-38716634D01*
X175945052Y-38627206D01*
X175951067Y-38623188D01*
X176097717Y-38502834D01*
X176102834Y-38497717D01*
X176223188Y-38351067D01*
X176227206Y-38345052D01*
X176316634Y-38177745D01*
X176319405Y-38171054D01*
X176355795Y-38051095D01*
X176355656Y-38042599D01*
X176347565Y-38040000D01*
X175649743Y-38040000D01*
X175642059Y-38042059D01*
X175640000Y-38049743D01*
X175640000Y-38747565D01*
X175140000Y-38747565D01*
X175140000Y-38049743D01*
X175137940Y-38042059D01*
X175130257Y-38040000D01*
X174432435Y-38040000D01*
X174424343Y-38042599D01*
X174424204Y-38051095D01*
X173868567Y-38051095D01*
X173885300Y-37995934D01*
X173905583Y-37790000D01*
X176874417Y-37790000D01*
X176894700Y-37995934D01*
X176895752Y-37999402D01*
X176895753Y-37999407D01*
X176947821Y-38171054D01*
X176954768Y-38193954D01*
X176956483Y-38197162D01*
X177050598Y-38373239D01*
X177050601Y-38373244D01*
X177052315Y-38376450D01*
X177183590Y-38536410D01*
X177343550Y-38667685D01*
X177526046Y-38765232D01*
X177724066Y-38825300D01*
X177930000Y-38845583D01*
X178135934Y-38825300D01*
X178333954Y-38765232D01*
X178516450Y-38667685D01*
X178676410Y-38536410D01*
X178807685Y-38376450D01*
X178905232Y-38193954D01*
X178965300Y-37995934D01*
X178985583Y-37790000D01*
X179414417Y-37790000D01*
X179434700Y-37995934D01*
X179435752Y-37999402D01*
X179435753Y-37999407D01*
X179487821Y-38171054D01*
X179494768Y-38193954D01*
X179496483Y-38197162D01*
X179590598Y-38373239D01*
X179590601Y-38373244D01*
X179592315Y-38376450D01*
X179723590Y-38536410D01*
X179883550Y-38667685D01*
X180066046Y-38765232D01*
X180264066Y-38825300D01*
X180470000Y-38845583D01*
X180675934Y-38825300D01*
X180873954Y-38765232D01*
X181056450Y-38667685D01*
X181216410Y-38536410D01*
X181347685Y-38376450D01*
X181445232Y-38193954D01*
X181488567Y-38051095D01*
X182044204Y-38051095D01*
X182080594Y-38171054D01*
X182083365Y-38177745D01*
X182172793Y-38345052D01*
X182176811Y-38351067D01*
X182297165Y-38497717D01*
X182302282Y-38502834D01*
X182448932Y-38623188D01*
X182454947Y-38627206D01*
X182622254Y-38716634D01*
X182628945Y-38719405D01*
X182748904Y-38755795D01*
X182757400Y-38755656D01*
X182760000Y-38747565D01*
X183260000Y-38747565D01*
X183262599Y-38755656D01*
X183271095Y-38755795D01*
X183391054Y-38719405D01*
X183397745Y-38716634D01*
X183565052Y-38627206D01*
X183571067Y-38623188D01*
X183717717Y-38502834D01*
X183722834Y-38497717D01*
X183843188Y-38351067D01*
X183847206Y-38345052D01*
X183936634Y-38177745D01*
X183939405Y-38171054D01*
X183975795Y-38051095D01*
X183975656Y-38042599D01*
X183967565Y-38040000D01*
X183269743Y-38040000D01*
X183262059Y-38042059D01*
X183260000Y-38049743D01*
X183260000Y-38747565D01*
X182760000Y-38747565D01*
X182760000Y-38049743D01*
X182757940Y-38042059D01*
X182750257Y-38040000D01*
X182052435Y-38040000D01*
X182044343Y-38042599D01*
X182044204Y-38051095D01*
X181488567Y-38051095D01*
X181505300Y-37995934D01*
X181525583Y-37790000D01*
X184494417Y-37790000D01*
X184514700Y-37995934D01*
X184515752Y-37999402D01*
X184515753Y-37999407D01*
X184567821Y-38171054D01*
X184574768Y-38193954D01*
X184576483Y-38197162D01*
X184670598Y-38373239D01*
X184670601Y-38373244D01*
X184672315Y-38376450D01*
X184803590Y-38536410D01*
X184963550Y-38667685D01*
X185146046Y-38765232D01*
X185344066Y-38825300D01*
X185550000Y-38845583D01*
X185755934Y-38825300D01*
X185953954Y-38765232D01*
X186136450Y-38667685D01*
X186296410Y-38536410D01*
X186427685Y-38376450D01*
X186525232Y-38193954D01*
X186585300Y-37995934D01*
X186605583Y-37790000D01*
X187034417Y-37790000D01*
X187054700Y-37995934D01*
X187055752Y-37999402D01*
X187055753Y-37999407D01*
X187107821Y-38171054D01*
X187114768Y-38193954D01*
X187116483Y-38197162D01*
X187210598Y-38373239D01*
X187210601Y-38373244D01*
X187212315Y-38376450D01*
X187343590Y-38536410D01*
X187503550Y-38667685D01*
X187686046Y-38765232D01*
X187689528Y-38766288D01*
X187692885Y-38767679D01*
X187692247Y-38769217D01*
X187724945Y-38792259D01*
X187739500Y-38836330D01*
X187739500Y-39045974D01*
X187737925Y-39061160D01*
X187736215Y-39069312D01*
X187736214Y-39069316D01*
X187734957Y-39075315D01*
X187735715Y-39081396D01*
X187735715Y-39081399D01*
X187738932Y-39107202D01*
X187739407Y-39114872D01*
X187739500Y-39115993D01*
X187739500Y-39119040D01*
X187740002Y-39122052D01*
X187740003Y-39122057D01*
X187742833Y-39139020D01*
X187743273Y-39142042D01*
X187748667Y-39185309D01*
X187748669Y-39185317D01*
X187749427Y-39191393D01*
X187751930Y-39196514D01*
X187751991Y-39196691D01*
X187752915Y-39199575D01*
X187752969Y-39199758D01*
X187753908Y-39205381D01*
X187756825Y-39210771D01*
X187756826Y-39210774D01*
X187777567Y-39249101D01*
X187778967Y-39251819D01*
X187800802Y-39296484D01*
X187804834Y-39300516D01*
X187804934Y-39300644D01*
X187806764Y-39303098D01*
X187806869Y-39303245D01*
X187809582Y-39308258D01*
X187846168Y-39341938D01*
X187848348Y-39344030D01*
X188221031Y-39716713D01*
X188230655Y-39728565D01*
X188235208Y-39735535D01*
X188235210Y-39735537D01*
X188238563Y-39740669D01*
X188263915Y-39760401D01*
X188269690Y-39765500D01*
X188270526Y-39766208D01*
X188272694Y-39768376D01*
X188275186Y-39770155D01*
X188289178Y-39780145D01*
X188291631Y-39781974D01*
X188326031Y-39808748D01*
X188326032Y-39808748D01*
X188330874Y-39812517D01*
X188336273Y-39814370D01*
X188336431Y-39814448D01*
X188339152Y-39815848D01*
X188339279Y-39815916D01*
X188343934Y-39819240D01*
X188391596Y-39833429D01*
X188394477Y-39834352D01*
X188441512Y-39850500D01*
X188447223Y-39850500D01*
X188447368Y-39850518D01*
X188450416Y-39850962D01*
X188450579Y-39850989D01*
X188456047Y-39852617D01*
X188505718Y-39850562D01*
X188508775Y-39850500D01*
X192574166Y-39850500D01*
X192602485Y-39856133D01*
X192626492Y-39872174D01*
X193127826Y-40373508D01*
X193143867Y-40397515D01*
X193149500Y-40425834D01*
X193149500Y-64205974D01*
X193147925Y-64221160D01*
X193146215Y-64229312D01*
X193146214Y-64229316D01*
X193144957Y-64235315D01*
X193145715Y-64241396D01*
X193145715Y-64241399D01*
X193148932Y-64267202D01*
X193149407Y-64274872D01*
X193149500Y-64275993D01*
X193149500Y-64279040D01*
X193150002Y-64282052D01*
X193150003Y-64282057D01*
X193152833Y-64299020D01*
X193153273Y-64302042D01*
X193158667Y-64345309D01*
X193158669Y-64345317D01*
X193159427Y-64351393D01*
X193161930Y-64356514D01*
X193161991Y-64356691D01*
X193162915Y-64359575D01*
X193162969Y-64359758D01*
X193163908Y-64365381D01*
X193166825Y-64370771D01*
X193166826Y-64370774D01*
X193187567Y-64409101D01*
X193188967Y-64411819D01*
X193210802Y-64456484D01*
X193214834Y-64460516D01*
X193214934Y-64460644D01*
X193216764Y-64463098D01*
X193216869Y-64463246D01*
X193219582Y-64468258D01*
X193233899Y-64481437D01*
X193256143Y-64501914D01*
X193258351Y-64504032D01*
X193475263Y-64720945D01*
X193496184Y-64762739D01*
X193514081Y-64887217D01*
X193514082Y-64887221D01*
X193514835Y-64892457D01*
X193574623Y-65023373D01*
X193668872Y-65132143D01*
X193789947Y-65209953D01*
X193795020Y-65211442D01*
X193795021Y-65211443D01*
X193841350Y-65225046D01*
X193928039Y-65250500D01*
X194066669Y-65250500D01*
X194071961Y-65250500D01*
X194210053Y-65209953D01*
X194331128Y-65132143D01*
X194425377Y-65023373D01*
X194485165Y-64892457D01*
X194505647Y-64750000D01*
X194485165Y-64607543D01*
X194425377Y-64476627D01*
X194418125Y-64468258D01*
X194334593Y-64371856D01*
X194331128Y-64367857D01*
X194313753Y-64356691D01*
X194260550Y-64322499D01*
X194210053Y-64290047D01*
X194204983Y-64288558D01*
X194204978Y-64288556D01*
X194077037Y-64250990D01*
X194077034Y-64250989D01*
X194071961Y-64249500D01*
X194066669Y-64249500D01*
X194025834Y-64249500D01*
X193997515Y-64243867D01*
X193973508Y-64227826D01*
X193872174Y-64126492D01*
X193856133Y-64102485D01*
X193850500Y-64074166D01*
X193850500Y-57000000D01*
X201469819Y-57000000D01*
X201470101Y-57003223D01*
X201488225Y-57210392D01*
X201488226Y-57210399D01*
X201488508Y-57213619D01*
X201489345Y-57216745D01*
X201489346Y-57216747D01*
X201543169Y-57417619D01*
X201543172Y-57417627D01*
X201544008Y-57420747D01*
X201545371Y-57423670D01*
X201545374Y-57423678D01*
X201633266Y-57612162D01*
X201634632Y-57615091D01*
X201757627Y-57790745D01*
X201909255Y-57942373D01*
X202084909Y-58065368D01*
X202279253Y-58155992D01*
X202486381Y-58211492D01*
X202700000Y-58230181D01*
X202913619Y-58211492D01*
X203120747Y-58155992D01*
X203315091Y-58065368D01*
X203490745Y-57942373D01*
X203642373Y-57790745D01*
X203765368Y-57615091D01*
X203855992Y-57420747D01*
X203911492Y-57213619D01*
X203930181Y-57000000D01*
X203911492Y-56786381D01*
X203855992Y-56579253D01*
X203765368Y-56384910D01*
X203642373Y-56209255D01*
X203490745Y-56057627D01*
X203488098Y-56055773D01*
X203488095Y-56055771D01*
X203317739Y-55936486D01*
X203317737Y-55936485D01*
X203315091Y-55934632D01*
X203312162Y-55933266D01*
X203123678Y-55845374D01*
X203123670Y-55845371D01*
X203120747Y-55844008D01*
X203117627Y-55843172D01*
X203117619Y-55843169D01*
X202916747Y-55789346D01*
X202916745Y-55789345D01*
X202913619Y-55788508D01*
X202910399Y-55788226D01*
X202910392Y-55788225D01*
X202703223Y-55770101D01*
X202700000Y-55769819D01*
X202696777Y-55770101D01*
X202489607Y-55788225D01*
X202489598Y-55788226D01*
X202486381Y-55788508D01*
X202483256Y-55789345D01*
X202483252Y-55789346D01*
X202282380Y-55843169D01*
X202282368Y-55843173D01*
X202279253Y-55844008D01*
X202276332Y-55845369D01*
X202276321Y-55845374D01*
X202087838Y-55933266D01*
X202087832Y-55933269D01*
X202084910Y-55934632D01*
X202082267Y-55936482D01*
X202082261Y-55936486D01*
X201911904Y-56055771D01*
X201911895Y-56055777D01*
X201909255Y-56057627D01*
X201906974Y-56059907D01*
X201906968Y-56059913D01*
X201759913Y-56206968D01*
X201759907Y-56206974D01*
X201757627Y-56209255D01*
X201755777Y-56211895D01*
X201755771Y-56211904D01*
X201636486Y-56382261D01*
X201636482Y-56382267D01*
X201634632Y-56384910D01*
X201633269Y-56387832D01*
X201633266Y-56387838D01*
X201545374Y-56576321D01*
X201545369Y-56576332D01*
X201544008Y-56579253D01*
X201543173Y-56582368D01*
X201543169Y-56582380D01*
X201489346Y-56783252D01*
X201488508Y-56786381D01*
X201488226Y-56789598D01*
X201488225Y-56789607D01*
X201470733Y-56989546D01*
X201469819Y-57000000D01*
X193850500Y-57000000D01*
X193850500Y-43300000D01*
X204694353Y-43300000D01*
X204714835Y-43442457D01*
X204774623Y-43573373D01*
X204868872Y-43682143D01*
X204989947Y-43759953D01*
X204995020Y-43761442D01*
X204995021Y-43761443D01*
X205019267Y-43768562D01*
X205128039Y-43800500D01*
X205266669Y-43800500D01*
X205271961Y-43800500D01*
X205410053Y-43759953D01*
X205509995Y-43695723D01*
X205550000Y-43683978D01*
X205590004Y-43695723D01*
X205689947Y-43759953D01*
X205695020Y-43761442D01*
X205695021Y-43761443D01*
X205719267Y-43768562D01*
X205828039Y-43800500D01*
X205966669Y-43800500D01*
X205971961Y-43800500D01*
X206110053Y-43759953D01*
X206231128Y-43682143D01*
X206325377Y-43573373D01*
X206385165Y-43442457D01*
X206405647Y-43300000D01*
X206385165Y-43157543D01*
X206382966Y-43152727D01*
X206382964Y-43152721D01*
X206327256Y-43030741D01*
X206320568Y-43000000D01*
X206327256Y-42969259D01*
X206382964Y-42847278D01*
X206382966Y-42847272D01*
X206385165Y-42842457D01*
X206405647Y-42700000D01*
X206385165Y-42557543D01*
X206327254Y-42430738D01*
X206320568Y-42399999D01*
X206327256Y-42369258D01*
X206385165Y-42242457D01*
X206405647Y-42100000D01*
X206385165Y-41957543D01*
X206327254Y-41830738D01*
X206320568Y-41799999D01*
X206327256Y-41769258D01*
X206385165Y-41642457D01*
X206405647Y-41500000D01*
X206385165Y-41357543D01*
X206382966Y-41352727D01*
X206382964Y-41352721D01*
X206327256Y-41230741D01*
X206320568Y-41200000D01*
X206327256Y-41169259D01*
X206382964Y-41047278D01*
X206382966Y-41047272D01*
X206385165Y-41042457D01*
X206405647Y-40900000D01*
X206385165Y-40757543D01*
X206325377Y-40626627D01*
X206231128Y-40517857D01*
X206209992Y-40504274D01*
X206114503Y-40442907D01*
X206110053Y-40440047D01*
X206104983Y-40438558D01*
X206104978Y-40438556D01*
X205977037Y-40400990D01*
X205977034Y-40400989D01*
X205971961Y-40399500D01*
X205828039Y-40399500D01*
X205822966Y-40400989D01*
X205822962Y-40400990D01*
X205695021Y-40438556D01*
X205695013Y-40438559D01*
X205689947Y-40440047D01*
X205685498Y-40442905D01*
X205685496Y-40442907D01*
X205590007Y-40504274D01*
X205550000Y-40516021D01*
X205509993Y-40504274D01*
X205414503Y-40442907D01*
X205410053Y-40440047D01*
X205404983Y-40438558D01*
X205404978Y-40438556D01*
X205277037Y-40400990D01*
X205277034Y-40400989D01*
X205271961Y-40399500D01*
X205128039Y-40399500D01*
X205122966Y-40400989D01*
X205122962Y-40400990D01*
X204995021Y-40438556D01*
X204995013Y-40438559D01*
X204989947Y-40440047D01*
X204985498Y-40442905D01*
X204985496Y-40442907D01*
X204873324Y-40514995D01*
X204873320Y-40514998D01*
X204868872Y-40517857D01*
X204865409Y-40521852D01*
X204865406Y-40521856D01*
X204778086Y-40622629D01*
X204778082Y-40622634D01*
X204774623Y-40626627D01*
X204772427Y-40631435D01*
X204772426Y-40631437D01*
X204727076Y-40730740D01*
X204714835Y-40757543D01*
X204714082Y-40762778D01*
X204714081Y-40762783D01*
X204701150Y-40852727D01*
X204694353Y-40900000D01*
X204695106Y-40905237D01*
X204709483Y-41005237D01*
X204714835Y-41042457D01*
X204717034Y-41047272D01*
X204772744Y-41169259D01*
X204779431Y-41200000D01*
X204772744Y-41230741D01*
X204727076Y-41330740D01*
X204714835Y-41357543D01*
X204714082Y-41362778D01*
X204714081Y-41362783D01*
X204706840Y-41413151D01*
X204694353Y-41500000D01*
X204695106Y-41505237D01*
X204713837Y-41635522D01*
X204714835Y-41642457D01*
X204772743Y-41769257D01*
X204772744Y-41769258D01*
X204779431Y-41799999D01*
X204772744Y-41830740D01*
X204727075Y-41930741D01*
X204714835Y-41957543D01*
X204714082Y-41962778D01*
X204714081Y-41962783D01*
X204701150Y-42052727D01*
X204694353Y-42100000D01*
X204695106Y-42105237D01*
X204714012Y-42236739D01*
X204714835Y-42242457D01*
X204772743Y-42369257D01*
X204772744Y-42369258D01*
X204779431Y-42399999D01*
X204772744Y-42430740D01*
X204751449Y-42477370D01*
X204714835Y-42557543D01*
X204714082Y-42562778D01*
X204714081Y-42562783D01*
X204696309Y-42686389D01*
X204694353Y-42700000D01*
X204695106Y-42705237D01*
X204701149Y-42747272D01*
X204714835Y-42842457D01*
X204717034Y-42847272D01*
X204772744Y-42969259D01*
X204779431Y-43000000D01*
X204772743Y-43030741D01*
X204714835Y-43157543D01*
X204714082Y-43162778D01*
X204714081Y-43162783D01*
X204696309Y-43286389D01*
X204694353Y-43300000D01*
X193850500Y-43300000D01*
X193850500Y-42600000D01*
X196194353Y-42600000D01*
X196195106Y-42605237D01*
X196209483Y-42705237D01*
X196214835Y-42742457D01*
X196274623Y-42873373D01*
X196368872Y-42982143D01*
X196489947Y-43059953D01*
X196495020Y-43061442D01*
X196495021Y-43061443D01*
X196541350Y-43075046D01*
X196628039Y-43100500D01*
X196766669Y-43100500D01*
X196771961Y-43100500D01*
X196910053Y-43059953D01*
X197031128Y-42982143D01*
X197125377Y-42873373D01*
X197185165Y-42742457D01*
X197205647Y-42600000D01*
X197185165Y-42457543D01*
X197125377Y-42326627D01*
X197031128Y-42217857D01*
X196910053Y-42140047D01*
X196904983Y-42138558D01*
X196904978Y-42138556D01*
X196777037Y-42100990D01*
X196777034Y-42100989D01*
X196771961Y-42099500D01*
X196628039Y-42099500D01*
X196622966Y-42100989D01*
X196622962Y-42100990D01*
X196495021Y-42138556D01*
X196495013Y-42138559D01*
X196489947Y-42140047D01*
X196485498Y-42142905D01*
X196485496Y-42142907D01*
X196373324Y-42214995D01*
X196373320Y-42214998D01*
X196368872Y-42217857D01*
X196365409Y-42221852D01*
X196365406Y-42221856D01*
X196278086Y-42322629D01*
X196278082Y-42322634D01*
X196274623Y-42326627D01*
X196272427Y-42331435D01*
X196272426Y-42331437D01*
X196227076Y-42430740D01*
X196214835Y-42457543D01*
X196214082Y-42462778D01*
X196214081Y-42462783D01*
X196196920Y-42582143D01*
X196194353Y-42600000D01*
X193850500Y-42600000D01*
X193850500Y-40294021D01*
X193852075Y-40278835D01*
X193855042Y-40264685D01*
X193851067Y-40232803D01*
X193850591Y-40225132D01*
X193850500Y-40224033D01*
X193850500Y-40220960D01*
X193847163Y-40200969D01*
X193846723Y-40197949D01*
X193841331Y-40154692D01*
X193840573Y-40148607D01*
X193838066Y-40143479D01*
X193838010Y-40143315D01*
X193837078Y-40140406D01*
X193837030Y-40140247D01*
X193836092Y-40134619D01*
X193833174Y-40129227D01*
X193833173Y-40129224D01*
X193812432Y-40090899D01*
X193811030Y-40088177D01*
X193789198Y-40043516D01*
X193785160Y-40039478D01*
X193785066Y-40039357D01*
X193783240Y-40036908D01*
X193783130Y-40036753D01*
X193780418Y-40031742D01*
X193743857Y-39998085D01*
X193741650Y-39995968D01*
X193028971Y-39283289D01*
X193019346Y-39271436D01*
X193014793Y-39264466D01*
X193014788Y-39264461D01*
X193011437Y-39259331D01*
X192998293Y-39249101D01*
X192986084Y-39239598D01*
X192980314Y-39234503D01*
X192979470Y-39233788D01*
X192977307Y-39231625D01*
X192960786Y-39219829D01*
X192958367Y-39218026D01*
X192932715Y-39198060D01*
X192923965Y-39191249D01*
X192923963Y-39191248D01*
X192919126Y-39187483D01*
X192913739Y-39185633D01*
X192913569Y-39185551D01*
X192910844Y-39184148D01*
X192910708Y-39184074D01*
X192906066Y-39180760D01*
X192896509Y-39177914D01*
X192858430Y-39166577D01*
X192855521Y-39165645D01*
X192814289Y-39151491D01*
X192814286Y-39151490D01*
X192808488Y-39149500D01*
X192802788Y-39149500D01*
X192802615Y-39149479D01*
X192799601Y-39149040D01*
X192799415Y-39149008D01*
X192793954Y-39147383D01*
X192787829Y-39147636D01*
X192787827Y-39147636D01*
X192744292Y-39149437D01*
X192741234Y-39149500D01*
X188675833Y-39149500D01*
X188647514Y-39143867D01*
X188623507Y-39127826D01*
X188462174Y-38966492D01*
X188446133Y-38942484D01*
X188440500Y-38914166D01*
X188440500Y-38836330D01*
X188455055Y-38792259D01*
X188487752Y-38769217D01*
X188487115Y-38767679D01*
X188490469Y-38766288D01*
X188493954Y-38765232D01*
X188676450Y-38667685D01*
X188836410Y-38536410D01*
X188967685Y-38376450D01*
X189065232Y-38193954D01*
X189125300Y-37995934D01*
X189145583Y-37790000D01*
X189574417Y-37790000D01*
X189594700Y-37995934D01*
X189595752Y-37999402D01*
X189595753Y-37999407D01*
X189647821Y-38171054D01*
X189654768Y-38193954D01*
X189656483Y-38197162D01*
X189750598Y-38373239D01*
X189750601Y-38373244D01*
X189752315Y-38376450D01*
X189883590Y-38536410D01*
X190043550Y-38667685D01*
X190226046Y-38765232D01*
X190424066Y-38825300D01*
X190630000Y-38845583D01*
X190835934Y-38825300D01*
X191033954Y-38765232D01*
X191216450Y-38667685D01*
X191376410Y-38536410D01*
X191507685Y-38376450D01*
X191605232Y-38193954D01*
X191648567Y-38051095D01*
X192204204Y-38051095D01*
X192240594Y-38171054D01*
X192243365Y-38177745D01*
X192332793Y-38345052D01*
X192336811Y-38351067D01*
X192457165Y-38497717D01*
X192462282Y-38502834D01*
X192608932Y-38623188D01*
X192614947Y-38627206D01*
X192782254Y-38716634D01*
X192788945Y-38719405D01*
X192908904Y-38755795D01*
X192917400Y-38755656D01*
X192920000Y-38747565D01*
X193420000Y-38747565D01*
X193422599Y-38755656D01*
X193431095Y-38755795D01*
X193551054Y-38719405D01*
X193557745Y-38716634D01*
X193725052Y-38627206D01*
X193731067Y-38623188D01*
X193877717Y-38502834D01*
X193882834Y-38497717D01*
X194003188Y-38351067D01*
X194007206Y-38345052D01*
X194096634Y-38177745D01*
X194099405Y-38171054D01*
X194135795Y-38051095D01*
X194135656Y-38042599D01*
X194127565Y-38040000D01*
X193429743Y-38040000D01*
X193422059Y-38042059D01*
X193420000Y-38049743D01*
X193420000Y-38747565D01*
X192920000Y-38747565D01*
X192920000Y-38049743D01*
X192917940Y-38042059D01*
X192910257Y-38040000D01*
X192212435Y-38040000D01*
X192204343Y-38042599D01*
X192204204Y-38051095D01*
X191648567Y-38051095D01*
X191665300Y-37995934D01*
X191685583Y-37790000D01*
X194654417Y-37790000D01*
X194674700Y-37995934D01*
X194675752Y-37999402D01*
X194675753Y-37999407D01*
X194727821Y-38171054D01*
X194734768Y-38193954D01*
X194736483Y-38197162D01*
X194830598Y-38373239D01*
X194830601Y-38373244D01*
X194832315Y-38376450D01*
X194963590Y-38536410D01*
X195123550Y-38667685D01*
X195306046Y-38765232D01*
X195504066Y-38825300D01*
X195710000Y-38845583D01*
X195915934Y-38825300D01*
X196113954Y-38765232D01*
X196296450Y-38667685D01*
X196456410Y-38536410D01*
X196587685Y-38376450D01*
X196685232Y-38193954D01*
X196745300Y-37995934D01*
X196765583Y-37790000D01*
X197194417Y-37790000D01*
X197214700Y-37995934D01*
X197215752Y-37999402D01*
X197215753Y-37999407D01*
X197267821Y-38171054D01*
X197274768Y-38193954D01*
X197276483Y-38197162D01*
X197370598Y-38373239D01*
X197370601Y-38373244D01*
X197372315Y-38376450D01*
X197503590Y-38536410D01*
X197663550Y-38667685D01*
X197846046Y-38765232D01*
X198044066Y-38825300D01*
X198250000Y-38845583D01*
X198455934Y-38825300D01*
X198653954Y-38765232D01*
X198836450Y-38667685D01*
X198996410Y-38536410D01*
X199127685Y-38376450D01*
X199225232Y-38193954D01*
X199285300Y-37995934D01*
X199305583Y-37790000D01*
X199285300Y-37584066D01*
X199225232Y-37386046D01*
X199127685Y-37203550D01*
X198996410Y-37043590D01*
X198836450Y-36912315D01*
X198833244Y-36910601D01*
X198833239Y-36910598D01*
X198671607Y-36824204D01*
X198653954Y-36814768D01*
X198650473Y-36813712D01*
X198459407Y-36755753D01*
X198459402Y-36755752D01*
X198455934Y-36754700D01*
X198452322Y-36754344D01*
X198452321Y-36754344D01*
X198253614Y-36734773D01*
X198250000Y-36734417D01*
X198246386Y-36734773D01*
X198047678Y-36754344D01*
X198047675Y-36754344D01*
X198044066Y-36754700D01*
X198040599Y-36755751D01*
X198040592Y-36755753D01*
X197849526Y-36813712D01*
X197849522Y-36813713D01*
X197846046Y-36814768D01*
X197842839Y-36816482D01*
X197842837Y-36816483D01*
X197666760Y-36910598D01*
X197666750Y-36910604D01*
X197663550Y-36912315D01*
X197660742Y-36914618D01*
X197660735Y-36914624D01*
X197506400Y-37041283D01*
X197506394Y-37041288D01*
X197503590Y-37043590D01*
X197501288Y-37046394D01*
X197501283Y-37046400D01*
X197374624Y-37200735D01*
X197374618Y-37200742D01*
X197372315Y-37203550D01*
X197370604Y-37206750D01*
X197370598Y-37206760D01*
X197276483Y-37382837D01*
X197274768Y-37386046D01*
X197273713Y-37389522D01*
X197273712Y-37389526D01*
X197215753Y-37580592D01*
X197215751Y-37580599D01*
X197214700Y-37584066D01*
X197194417Y-37790000D01*
X196765583Y-37790000D01*
X196745300Y-37584066D01*
X196685232Y-37386046D01*
X196587685Y-37203550D01*
X196456410Y-37043590D01*
X196296450Y-36912315D01*
X196293244Y-36910601D01*
X196293239Y-36910598D01*
X196131607Y-36824204D01*
X196113954Y-36814768D01*
X196110473Y-36813712D01*
X195919407Y-36755753D01*
X195919402Y-36755752D01*
X195915934Y-36754700D01*
X195912322Y-36754344D01*
X195912321Y-36754344D01*
X195713614Y-36734773D01*
X195710000Y-36734417D01*
X195706386Y-36734773D01*
X195507678Y-36754344D01*
X195507675Y-36754344D01*
X195504066Y-36754700D01*
X195500599Y-36755751D01*
X195500592Y-36755753D01*
X195309526Y-36813712D01*
X195309522Y-36813713D01*
X195306046Y-36814768D01*
X195302839Y-36816482D01*
X195302837Y-36816483D01*
X195126760Y-36910598D01*
X195126750Y-36910604D01*
X195123550Y-36912315D01*
X195120742Y-36914618D01*
X195120735Y-36914624D01*
X194966400Y-37041283D01*
X194966394Y-37041288D01*
X194963590Y-37043590D01*
X194961288Y-37046394D01*
X194961283Y-37046400D01*
X194834624Y-37200735D01*
X194834618Y-37200742D01*
X194832315Y-37203550D01*
X194830604Y-37206750D01*
X194830598Y-37206760D01*
X194736483Y-37382837D01*
X194734768Y-37386046D01*
X194733713Y-37389522D01*
X194733712Y-37389526D01*
X194675753Y-37580592D01*
X194675751Y-37580599D01*
X194674700Y-37584066D01*
X194654417Y-37790000D01*
X191685583Y-37790000D01*
X191665300Y-37584066D01*
X191648567Y-37528904D01*
X192204204Y-37528904D01*
X192204343Y-37537400D01*
X192212435Y-37540000D01*
X192910257Y-37540000D01*
X192917940Y-37537940D01*
X192920000Y-37530257D01*
X193420000Y-37530257D01*
X193422059Y-37537940D01*
X193429743Y-37540000D01*
X194127565Y-37540000D01*
X194135656Y-37537400D01*
X194135795Y-37528904D01*
X194099405Y-37408945D01*
X194096634Y-37402254D01*
X194007206Y-37234947D01*
X194003188Y-37228932D01*
X193882834Y-37082282D01*
X193877717Y-37077165D01*
X193731067Y-36956811D01*
X193725052Y-36952793D01*
X193557745Y-36863365D01*
X193551054Y-36860594D01*
X193431095Y-36824204D01*
X193422599Y-36824343D01*
X193420000Y-36832435D01*
X193420000Y-37530257D01*
X192920000Y-37530257D01*
X192920000Y-36832435D01*
X192917400Y-36824343D01*
X192908904Y-36824204D01*
X192788945Y-36860594D01*
X192782254Y-36863365D01*
X192614947Y-36952793D01*
X192608932Y-36956811D01*
X192462282Y-37077165D01*
X192457165Y-37082282D01*
X192336811Y-37228932D01*
X192332793Y-37234947D01*
X192243365Y-37402254D01*
X192240594Y-37408945D01*
X192204204Y-37528904D01*
X191648567Y-37528904D01*
X191605232Y-37386046D01*
X191507685Y-37203550D01*
X191376410Y-37043590D01*
X191216450Y-36912315D01*
X191213244Y-36910601D01*
X191213239Y-36910598D01*
X191051607Y-36824204D01*
X191033954Y-36814768D01*
X191030473Y-36813712D01*
X190839407Y-36755753D01*
X190839402Y-36755752D01*
X190835934Y-36754700D01*
X190832322Y-36754344D01*
X190832321Y-36754344D01*
X190633614Y-36734773D01*
X190630000Y-36734417D01*
X190626386Y-36734773D01*
X190427678Y-36754344D01*
X190427675Y-36754344D01*
X190424066Y-36754700D01*
X190420599Y-36755751D01*
X190420592Y-36755753D01*
X190229526Y-36813712D01*
X190229522Y-36813713D01*
X190226046Y-36814768D01*
X190222839Y-36816482D01*
X190222837Y-36816483D01*
X190046760Y-36910598D01*
X190046750Y-36910604D01*
X190043550Y-36912315D01*
X190040742Y-36914618D01*
X190040735Y-36914624D01*
X189886400Y-37041283D01*
X189886394Y-37041288D01*
X189883590Y-37043590D01*
X189881288Y-37046394D01*
X189881283Y-37046400D01*
X189754624Y-37200735D01*
X189754618Y-37200742D01*
X189752315Y-37203550D01*
X189750604Y-37206750D01*
X189750598Y-37206760D01*
X189656483Y-37382837D01*
X189654768Y-37386046D01*
X189653713Y-37389522D01*
X189653712Y-37389526D01*
X189595753Y-37580592D01*
X189595751Y-37580599D01*
X189594700Y-37584066D01*
X189574417Y-37790000D01*
X189145583Y-37790000D01*
X189125300Y-37584066D01*
X189065232Y-37386046D01*
X188967685Y-37203550D01*
X188836410Y-37043590D01*
X188676450Y-36912315D01*
X188673244Y-36910601D01*
X188673239Y-36910598D01*
X188511607Y-36824204D01*
X188493954Y-36814768D01*
X188490473Y-36813712D01*
X188299407Y-36755753D01*
X188299402Y-36755752D01*
X188295934Y-36754700D01*
X188292322Y-36754344D01*
X188292321Y-36754344D01*
X188093614Y-36734773D01*
X188090000Y-36734417D01*
X188086386Y-36734773D01*
X187887678Y-36754344D01*
X187887675Y-36754344D01*
X187884066Y-36754700D01*
X187880599Y-36755751D01*
X187880592Y-36755753D01*
X187689526Y-36813712D01*
X187689522Y-36813713D01*
X187686046Y-36814768D01*
X187682839Y-36816482D01*
X187682837Y-36816483D01*
X187506760Y-36910598D01*
X187506750Y-36910604D01*
X187503550Y-36912315D01*
X187500742Y-36914618D01*
X187500735Y-36914624D01*
X187346400Y-37041283D01*
X187346394Y-37041288D01*
X187343590Y-37043590D01*
X187341288Y-37046394D01*
X187341283Y-37046400D01*
X187214624Y-37200735D01*
X187214618Y-37200742D01*
X187212315Y-37203550D01*
X187210604Y-37206750D01*
X187210598Y-37206760D01*
X187116483Y-37382837D01*
X187114768Y-37386046D01*
X187113713Y-37389522D01*
X187113712Y-37389526D01*
X187055753Y-37580592D01*
X187055751Y-37580599D01*
X187054700Y-37584066D01*
X187034417Y-37790000D01*
X186605583Y-37790000D01*
X186585300Y-37584066D01*
X186525232Y-37386046D01*
X186427685Y-37203550D01*
X186296410Y-37043590D01*
X186136450Y-36912315D01*
X186133244Y-36910601D01*
X186133239Y-36910598D01*
X185971607Y-36824204D01*
X185953954Y-36814768D01*
X185950473Y-36813712D01*
X185759407Y-36755753D01*
X185759402Y-36755752D01*
X185755934Y-36754700D01*
X185752322Y-36754344D01*
X185752321Y-36754344D01*
X185553614Y-36734773D01*
X185550000Y-36734417D01*
X185546386Y-36734773D01*
X185347678Y-36754344D01*
X185347675Y-36754344D01*
X185344066Y-36754700D01*
X185340599Y-36755751D01*
X185340592Y-36755753D01*
X185149526Y-36813712D01*
X185149522Y-36813713D01*
X185146046Y-36814768D01*
X185142839Y-36816482D01*
X185142837Y-36816483D01*
X184966760Y-36910598D01*
X184966750Y-36910604D01*
X184963550Y-36912315D01*
X184960742Y-36914618D01*
X184960735Y-36914624D01*
X184806400Y-37041283D01*
X184806394Y-37041288D01*
X184803590Y-37043590D01*
X184801288Y-37046394D01*
X184801283Y-37046400D01*
X184674624Y-37200735D01*
X184674618Y-37200742D01*
X184672315Y-37203550D01*
X184670604Y-37206750D01*
X184670598Y-37206760D01*
X184576483Y-37382837D01*
X184574768Y-37386046D01*
X184573713Y-37389522D01*
X184573712Y-37389526D01*
X184515753Y-37580592D01*
X184515751Y-37580599D01*
X184514700Y-37584066D01*
X184494417Y-37790000D01*
X181525583Y-37790000D01*
X181505300Y-37584066D01*
X181488567Y-37528904D01*
X182044204Y-37528904D01*
X182044343Y-37537400D01*
X182052435Y-37540000D01*
X182750257Y-37540000D01*
X182757940Y-37537940D01*
X182760000Y-37530257D01*
X183260000Y-37530257D01*
X183262059Y-37537940D01*
X183269743Y-37540000D01*
X183967565Y-37540000D01*
X183975656Y-37537400D01*
X183975795Y-37528904D01*
X183939405Y-37408945D01*
X183936634Y-37402254D01*
X183847206Y-37234947D01*
X183843188Y-37228932D01*
X183722834Y-37082282D01*
X183717717Y-37077165D01*
X183571067Y-36956811D01*
X183565052Y-36952793D01*
X183397745Y-36863365D01*
X183391054Y-36860594D01*
X183271095Y-36824204D01*
X183262599Y-36824343D01*
X183260000Y-36832435D01*
X183260000Y-37530257D01*
X182760000Y-37530257D01*
X182760000Y-36832435D01*
X182757400Y-36824343D01*
X182748904Y-36824204D01*
X182628945Y-36860594D01*
X182622254Y-36863365D01*
X182454947Y-36952793D01*
X182448932Y-36956811D01*
X182302282Y-37077165D01*
X182297165Y-37082282D01*
X182176811Y-37228932D01*
X182172793Y-37234947D01*
X182083365Y-37402254D01*
X182080594Y-37408945D01*
X182044204Y-37528904D01*
X181488567Y-37528904D01*
X181445232Y-37386046D01*
X181347685Y-37203550D01*
X181216410Y-37043590D01*
X181056450Y-36912315D01*
X181053244Y-36910601D01*
X181053239Y-36910598D01*
X180891607Y-36824204D01*
X180873954Y-36814768D01*
X180870473Y-36813712D01*
X180679407Y-36755753D01*
X180679402Y-36755752D01*
X180675934Y-36754700D01*
X180672322Y-36754344D01*
X180672321Y-36754344D01*
X180473614Y-36734773D01*
X180470000Y-36734417D01*
X180466386Y-36734773D01*
X180267678Y-36754344D01*
X180267675Y-36754344D01*
X180264066Y-36754700D01*
X180260599Y-36755751D01*
X180260592Y-36755753D01*
X180069526Y-36813712D01*
X180069522Y-36813713D01*
X180066046Y-36814768D01*
X180062839Y-36816482D01*
X180062837Y-36816483D01*
X179886760Y-36910598D01*
X179886750Y-36910604D01*
X179883550Y-36912315D01*
X179880742Y-36914618D01*
X179880735Y-36914624D01*
X179726400Y-37041283D01*
X179726394Y-37041288D01*
X179723590Y-37043590D01*
X179721288Y-37046394D01*
X179721283Y-37046400D01*
X179594624Y-37200735D01*
X179594618Y-37200742D01*
X179592315Y-37203550D01*
X179590604Y-37206750D01*
X179590598Y-37206760D01*
X179496483Y-37382837D01*
X179494768Y-37386046D01*
X179493713Y-37389522D01*
X179493712Y-37389526D01*
X179435753Y-37580592D01*
X179435751Y-37580599D01*
X179434700Y-37584066D01*
X179414417Y-37790000D01*
X178985583Y-37790000D01*
X178965300Y-37584066D01*
X178905232Y-37386046D01*
X178807685Y-37203550D01*
X178676410Y-37043590D01*
X178516450Y-36912315D01*
X178513244Y-36910601D01*
X178513239Y-36910598D01*
X178351607Y-36824204D01*
X178333954Y-36814768D01*
X178330473Y-36813712D01*
X178139407Y-36755753D01*
X178139402Y-36755752D01*
X178135934Y-36754700D01*
X178132322Y-36754344D01*
X178132321Y-36754344D01*
X177933614Y-36734773D01*
X177930000Y-36734417D01*
X177926386Y-36734773D01*
X177727678Y-36754344D01*
X177727675Y-36754344D01*
X177724066Y-36754700D01*
X177720599Y-36755751D01*
X177720592Y-36755753D01*
X177529526Y-36813712D01*
X177529522Y-36813713D01*
X177526046Y-36814768D01*
X177522839Y-36816482D01*
X177522837Y-36816483D01*
X177346760Y-36910598D01*
X177346750Y-36910604D01*
X177343550Y-36912315D01*
X177340742Y-36914618D01*
X177340735Y-36914624D01*
X177186400Y-37041283D01*
X177186394Y-37041288D01*
X177183590Y-37043590D01*
X177181288Y-37046394D01*
X177181283Y-37046400D01*
X177054624Y-37200735D01*
X177054618Y-37200742D01*
X177052315Y-37203550D01*
X177050604Y-37206750D01*
X177050598Y-37206760D01*
X176956483Y-37382837D01*
X176954768Y-37386046D01*
X176953713Y-37389522D01*
X176953712Y-37389526D01*
X176895753Y-37580592D01*
X176895751Y-37580599D01*
X176894700Y-37584066D01*
X176874417Y-37790000D01*
X173905583Y-37790000D01*
X173885300Y-37584066D01*
X173868567Y-37528904D01*
X174424204Y-37528904D01*
X174424343Y-37537400D01*
X174432435Y-37540000D01*
X175130257Y-37540000D01*
X175137940Y-37537940D01*
X175140000Y-37530257D01*
X175640000Y-37530257D01*
X175642059Y-37537940D01*
X175649743Y-37540000D01*
X176347565Y-37540000D01*
X176355656Y-37537400D01*
X176355795Y-37528904D01*
X176319405Y-37408945D01*
X176316634Y-37402254D01*
X176227206Y-37234947D01*
X176223188Y-37228932D01*
X176102834Y-37082282D01*
X176097717Y-37077165D01*
X175951067Y-36956811D01*
X175945052Y-36952793D01*
X175777745Y-36863365D01*
X175771054Y-36860594D01*
X175651095Y-36824204D01*
X175642599Y-36824343D01*
X175640000Y-36832435D01*
X175640000Y-37530257D01*
X175140000Y-37530257D01*
X175140000Y-36832435D01*
X175137400Y-36824343D01*
X175128904Y-36824204D01*
X175008945Y-36860594D01*
X175002254Y-36863365D01*
X174834947Y-36952793D01*
X174828932Y-36956811D01*
X174682282Y-37077165D01*
X174677165Y-37082282D01*
X174556811Y-37228932D01*
X174552793Y-37234947D01*
X174463365Y-37402254D01*
X174460594Y-37408945D01*
X174424204Y-37528904D01*
X173868567Y-37528904D01*
X173825232Y-37386046D01*
X173727685Y-37203550D01*
X173596410Y-37043590D01*
X173436450Y-36912315D01*
X173433244Y-36910601D01*
X173433239Y-36910598D01*
X173271607Y-36824204D01*
X173253954Y-36814768D01*
X173250473Y-36813712D01*
X173059407Y-36755753D01*
X173059402Y-36755752D01*
X173055934Y-36754700D01*
X173052322Y-36754344D01*
X173052321Y-36754344D01*
X172853614Y-36734773D01*
X172850000Y-36734417D01*
X172846386Y-36734773D01*
X172647678Y-36754344D01*
X172647675Y-36754344D01*
X172644066Y-36754700D01*
X172640599Y-36755751D01*
X172640592Y-36755753D01*
X172449526Y-36813712D01*
X172449522Y-36813713D01*
X172446046Y-36814768D01*
X172442839Y-36816482D01*
X172442837Y-36816483D01*
X172266760Y-36910598D01*
X172266750Y-36910604D01*
X172263550Y-36912315D01*
X172260742Y-36914618D01*
X172260735Y-36914624D01*
X172106400Y-37041283D01*
X172106394Y-37041288D01*
X172103590Y-37043590D01*
X172101288Y-37046394D01*
X172101283Y-37046400D01*
X171974624Y-37200735D01*
X171974618Y-37200742D01*
X171972315Y-37203550D01*
X171970604Y-37206750D01*
X171970598Y-37206760D01*
X171876483Y-37382837D01*
X171874768Y-37386046D01*
X171873713Y-37389522D01*
X171873712Y-37389526D01*
X171815753Y-37580592D01*
X171815751Y-37580599D01*
X171814700Y-37584066D01*
X171794417Y-37790000D01*
X171365583Y-37790000D01*
X171345300Y-37584066D01*
X171285232Y-37386046D01*
X171187685Y-37203550D01*
X171056410Y-37043590D01*
X170896450Y-36912315D01*
X170893244Y-36910601D01*
X170893239Y-36910598D01*
X170731607Y-36824204D01*
X170713954Y-36814768D01*
X170710473Y-36813712D01*
X170519407Y-36755753D01*
X170519402Y-36755752D01*
X170515934Y-36754700D01*
X170512322Y-36754344D01*
X170512321Y-36754344D01*
X170313614Y-36734773D01*
X170310000Y-36734417D01*
X170306386Y-36734773D01*
X170107678Y-36754344D01*
X170107675Y-36754344D01*
X170104066Y-36754700D01*
X170100599Y-36755751D01*
X170100592Y-36755753D01*
X169909526Y-36813712D01*
X169909522Y-36813713D01*
X169906046Y-36814768D01*
X169902839Y-36816482D01*
X169902837Y-36816483D01*
X169726760Y-36910598D01*
X169726750Y-36910604D01*
X169723550Y-36912315D01*
X169720742Y-36914618D01*
X169720735Y-36914624D01*
X169566400Y-37041283D01*
X169566394Y-37041288D01*
X169563590Y-37043590D01*
X169561288Y-37046394D01*
X169561283Y-37046400D01*
X169434624Y-37200735D01*
X169434618Y-37200742D01*
X169432315Y-37203550D01*
X169430604Y-37206750D01*
X169430598Y-37206760D01*
X169336483Y-37382837D01*
X169334768Y-37386046D01*
X169333713Y-37389522D01*
X169333712Y-37389526D01*
X169275753Y-37580592D01*
X169275751Y-37580599D01*
X169274700Y-37584066D01*
X169254417Y-37790000D01*
X168825583Y-37790000D01*
X168805300Y-37584066D01*
X168745232Y-37386046D01*
X168647685Y-37203550D01*
X168516410Y-37043590D01*
X168356450Y-36912315D01*
X168353244Y-36910601D01*
X168353239Y-36910598D01*
X168191607Y-36824204D01*
X168173954Y-36814768D01*
X168170473Y-36813712D01*
X167979407Y-36755753D01*
X167979402Y-36755752D01*
X167975934Y-36754700D01*
X167972322Y-36754344D01*
X167972321Y-36754344D01*
X167773614Y-36734773D01*
X167770000Y-36734417D01*
X167766386Y-36734773D01*
X167567678Y-36754344D01*
X167567675Y-36754344D01*
X167564066Y-36754700D01*
X167560599Y-36755751D01*
X167560592Y-36755753D01*
X167369526Y-36813712D01*
X167369522Y-36813713D01*
X167366046Y-36814768D01*
X167362839Y-36816482D01*
X167362837Y-36816483D01*
X167186760Y-36910598D01*
X167186750Y-36910604D01*
X167183550Y-36912315D01*
X167180742Y-36914618D01*
X167180735Y-36914624D01*
X167026400Y-37041283D01*
X167026394Y-37041288D01*
X167023590Y-37043590D01*
X167021288Y-37046394D01*
X167021283Y-37046400D01*
X166894624Y-37200735D01*
X166894618Y-37200742D01*
X166892315Y-37203550D01*
X166890604Y-37206750D01*
X166890598Y-37206760D01*
X166796483Y-37382837D01*
X166794768Y-37386046D01*
X166793713Y-37389522D01*
X166793712Y-37389526D01*
X166735753Y-37580592D01*
X166735751Y-37580599D01*
X166734700Y-37584066D01*
X166714417Y-37790000D01*
X158925500Y-37790000D01*
X158925500Y-36402236D01*
X158925635Y-36397768D01*
X158931233Y-36305227D01*
X158943272Y-36106189D01*
X158944346Y-36097341D01*
X158996601Y-35812194D01*
X158998731Y-35803551D01*
X159084972Y-35526796D01*
X159088129Y-35518469D01*
X159091448Y-35511095D01*
X166804204Y-35511095D01*
X166840594Y-35631054D01*
X166843365Y-35637745D01*
X166932793Y-35805052D01*
X166936811Y-35811067D01*
X167057165Y-35957717D01*
X167062282Y-35962834D01*
X167208932Y-36083188D01*
X167214947Y-36087206D01*
X167382254Y-36176634D01*
X167388945Y-36179405D01*
X167508904Y-36215795D01*
X167517400Y-36215656D01*
X167520000Y-36207565D01*
X168020000Y-36207565D01*
X168022599Y-36215656D01*
X168031095Y-36215795D01*
X168151054Y-36179405D01*
X168157745Y-36176634D01*
X168325052Y-36087206D01*
X168331067Y-36083188D01*
X168477717Y-35962834D01*
X168482834Y-35957717D01*
X168603188Y-35811067D01*
X168607206Y-35805052D01*
X168696634Y-35637745D01*
X168699405Y-35631054D01*
X168735795Y-35511095D01*
X168735656Y-35502599D01*
X168727565Y-35500000D01*
X168029743Y-35500000D01*
X168022059Y-35502059D01*
X168020000Y-35509743D01*
X168020000Y-36207565D01*
X167520000Y-36207565D01*
X167520000Y-35509743D01*
X167517940Y-35502059D01*
X167510257Y-35500000D01*
X166812435Y-35500000D01*
X166804343Y-35502599D01*
X166804204Y-35511095D01*
X159091448Y-35511095D01*
X159207107Y-35254112D01*
X159209266Y-35250000D01*
X169254417Y-35250000D01*
X169274700Y-35455934D01*
X169275752Y-35459402D01*
X169275753Y-35459407D01*
X169293665Y-35518455D01*
X169334768Y-35653954D01*
X169336483Y-35657162D01*
X169430598Y-35833239D01*
X169430601Y-35833244D01*
X169432315Y-35836450D01*
X169563590Y-35996410D01*
X169566400Y-35998716D01*
X169713878Y-36119748D01*
X169723550Y-36127685D01*
X169906046Y-36225232D01*
X170104066Y-36285300D01*
X170310000Y-36305583D01*
X170515934Y-36285300D01*
X170713954Y-36225232D01*
X170896450Y-36127685D01*
X171056410Y-35996410D01*
X171187685Y-35836450D01*
X171285232Y-35653954D01*
X171345300Y-35455934D01*
X171365583Y-35250000D01*
X171794417Y-35250000D01*
X171814700Y-35455934D01*
X171815752Y-35459402D01*
X171815753Y-35459407D01*
X171833665Y-35518455D01*
X171874768Y-35653954D01*
X171876483Y-35657162D01*
X171970598Y-35833239D01*
X171970601Y-35833244D01*
X171972315Y-35836450D01*
X172103590Y-35996410D01*
X172106400Y-35998716D01*
X172253878Y-36119748D01*
X172263550Y-36127685D01*
X172446046Y-36225232D01*
X172644066Y-36285300D01*
X172850000Y-36305583D01*
X173055934Y-36285300D01*
X173253954Y-36225232D01*
X173436450Y-36127685D01*
X173596410Y-35996410D01*
X173727685Y-35836450D01*
X173825232Y-35653954D01*
X173885300Y-35455934D01*
X173905583Y-35250000D01*
X174334417Y-35250000D01*
X174354700Y-35455934D01*
X174355752Y-35459402D01*
X174355753Y-35459407D01*
X174373665Y-35518455D01*
X174414768Y-35653954D01*
X174416483Y-35657162D01*
X174510598Y-35833239D01*
X174510601Y-35833244D01*
X174512315Y-35836450D01*
X174643590Y-35996410D01*
X174646400Y-35998716D01*
X174793878Y-36119748D01*
X174803550Y-36127685D01*
X174986046Y-36225232D01*
X175184066Y-36285300D01*
X175390000Y-36305583D01*
X175595934Y-36285300D01*
X175793954Y-36225232D01*
X175976450Y-36127685D01*
X176136410Y-35996410D01*
X176267685Y-35836450D01*
X176365232Y-35653954D01*
X176425300Y-35455934D01*
X176445583Y-35250000D01*
X176874417Y-35250000D01*
X176894700Y-35455934D01*
X176895752Y-35459402D01*
X176895753Y-35459407D01*
X176913665Y-35518455D01*
X176954768Y-35653954D01*
X176956483Y-35657162D01*
X177050598Y-35833239D01*
X177050601Y-35833244D01*
X177052315Y-35836450D01*
X177183590Y-35996410D01*
X177186400Y-35998716D01*
X177333878Y-36119748D01*
X177343550Y-36127685D01*
X177526046Y-36225232D01*
X177724066Y-36285300D01*
X177930000Y-36305583D01*
X178135934Y-36285300D01*
X178333954Y-36225232D01*
X178516450Y-36127685D01*
X178676410Y-35996410D01*
X178807685Y-35836450D01*
X178905232Y-35653954D01*
X178965300Y-35455934D01*
X178985583Y-35250000D01*
X179414417Y-35250000D01*
X179434700Y-35455934D01*
X179435752Y-35459402D01*
X179435753Y-35459407D01*
X179453665Y-35518455D01*
X179494768Y-35653954D01*
X179496483Y-35657162D01*
X179590598Y-35833239D01*
X179590601Y-35833244D01*
X179592315Y-35836450D01*
X179723590Y-35996410D01*
X179726400Y-35998716D01*
X179873878Y-36119748D01*
X179883550Y-36127685D01*
X180066046Y-36225232D01*
X180264066Y-36285300D01*
X180470000Y-36305583D01*
X180675934Y-36285300D01*
X180873954Y-36225232D01*
X181056450Y-36127685D01*
X181216410Y-35996410D01*
X181347685Y-35836450D01*
X181445232Y-35653954D01*
X181505300Y-35455934D01*
X181525583Y-35250000D01*
X181954417Y-35250000D01*
X181974700Y-35455934D01*
X181975752Y-35459402D01*
X181975753Y-35459407D01*
X181993665Y-35518455D01*
X182034768Y-35653954D01*
X182036483Y-35657162D01*
X182130598Y-35833239D01*
X182130601Y-35833244D01*
X182132315Y-35836450D01*
X182263590Y-35996410D01*
X182266400Y-35998716D01*
X182413878Y-36119748D01*
X182423550Y-36127685D01*
X182606046Y-36225232D01*
X182804066Y-36285300D01*
X183010000Y-36305583D01*
X183215934Y-36285300D01*
X183413954Y-36225232D01*
X183596450Y-36127685D01*
X183756410Y-35996410D01*
X183887685Y-35836450D01*
X183985232Y-35653954D01*
X184045300Y-35455934D01*
X184065583Y-35250000D01*
X184494417Y-35250000D01*
X184514700Y-35455934D01*
X184515752Y-35459402D01*
X184515753Y-35459407D01*
X184533665Y-35518455D01*
X184574768Y-35653954D01*
X184576483Y-35657162D01*
X184670598Y-35833239D01*
X184670601Y-35833244D01*
X184672315Y-35836450D01*
X184803590Y-35996410D01*
X184806400Y-35998716D01*
X184953878Y-36119748D01*
X184963550Y-36127685D01*
X185146046Y-36225232D01*
X185344066Y-36285300D01*
X185550000Y-36305583D01*
X185755934Y-36285300D01*
X185953954Y-36225232D01*
X186136450Y-36127685D01*
X186296410Y-35996410D01*
X186427685Y-35836450D01*
X186525232Y-35653954D01*
X186568567Y-35511095D01*
X187124204Y-35511095D01*
X187160594Y-35631054D01*
X187163365Y-35637745D01*
X187252793Y-35805052D01*
X187256811Y-35811067D01*
X187377165Y-35957717D01*
X187382282Y-35962834D01*
X187528932Y-36083188D01*
X187534947Y-36087206D01*
X187702254Y-36176634D01*
X187708945Y-36179405D01*
X187828904Y-36215795D01*
X187837400Y-36215656D01*
X187840000Y-36207565D01*
X188340000Y-36207565D01*
X188342599Y-36215656D01*
X188351095Y-36215795D01*
X188471054Y-36179405D01*
X188477745Y-36176634D01*
X188645052Y-36087206D01*
X188651067Y-36083188D01*
X188797717Y-35962834D01*
X188802834Y-35957717D01*
X188923188Y-35811067D01*
X188927206Y-35805052D01*
X189016634Y-35637745D01*
X189019405Y-35631054D01*
X189055795Y-35511095D01*
X189055656Y-35502599D01*
X189047565Y-35500000D01*
X188349743Y-35500000D01*
X188342059Y-35502059D01*
X188340000Y-35509743D01*
X188340000Y-36207565D01*
X187840000Y-36207565D01*
X187840000Y-35509743D01*
X187837940Y-35502059D01*
X187830257Y-35500000D01*
X187132435Y-35500000D01*
X187124343Y-35502599D01*
X187124204Y-35511095D01*
X186568567Y-35511095D01*
X186585300Y-35455934D01*
X186605583Y-35250000D01*
X189574417Y-35250000D01*
X189594700Y-35455934D01*
X189595752Y-35459402D01*
X189595753Y-35459407D01*
X189613665Y-35518455D01*
X189654768Y-35653954D01*
X189656483Y-35657162D01*
X189750598Y-35833239D01*
X189750601Y-35833244D01*
X189752315Y-35836450D01*
X189883590Y-35996410D01*
X189886400Y-35998716D01*
X190033878Y-36119748D01*
X190043550Y-36127685D01*
X190226046Y-36225232D01*
X190424066Y-36285300D01*
X190630000Y-36305583D01*
X190835934Y-36285300D01*
X191033954Y-36225232D01*
X191216450Y-36127685D01*
X191376410Y-35996410D01*
X191507685Y-35836450D01*
X191605232Y-35653954D01*
X191665300Y-35455934D01*
X191685583Y-35250000D01*
X192114417Y-35250000D01*
X192134700Y-35455934D01*
X192135752Y-35459402D01*
X192135753Y-35459407D01*
X192153665Y-35518455D01*
X192194768Y-35653954D01*
X192196483Y-35657162D01*
X192290598Y-35833239D01*
X192290601Y-35833244D01*
X192292315Y-35836450D01*
X192423590Y-35996410D01*
X192426400Y-35998716D01*
X192573878Y-36119748D01*
X192583550Y-36127685D01*
X192766046Y-36225232D01*
X192964066Y-36285300D01*
X193170000Y-36305583D01*
X193375934Y-36285300D01*
X193573954Y-36225232D01*
X193756450Y-36127685D01*
X193916410Y-35996410D01*
X194047685Y-35836450D01*
X194145232Y-35653954D01*
X194205300Y-35455934D01*
X194225583Y-35250000D01*
X194654417Y-35250000D01*
X194674700Y-35455934D01*
X194675752Y-35459402D01*
X194675753Y-35459407D01*
X194693665Y-35518455D01*
X194734768Y-35653954D01*
X194736483Y-35657162D01*
X194830598Y-35833239D01*
X194830601Y-35833244D01*
X194832315Y-35836450D01*
X194963590Y-35996410D01*
X194966400Y-35998716D01*
X195113878Y-36119748D01*
X195123550Y-36127685D01*
X195306046Y-36225232D01*
X195504066Y-36285300D01*
X195710000Y-36305583D01*
X195915934Y-36285300D01*
X196113954Y-36225232D01*
X196296450Y-36127685D01*
X196306121Y-36119748D01*
X197199500Y-36119748D01*
X197211133Y-36178231D01*
X197255448Y-36244552D01*
X197321769Y-36288867D01*
X197380252Y-36300500D01*
X199116108Y-36300500D01*
X199119748Y-36300500D01*
X199178231Y-36288867D01*
X199244552Y-36244552D01*
X199288867Y-36178231D01*
X199300500Y-36119748D01*
X199300500Y-34380252D01*
X199288867Y-34321769D01*
X199244552Y-34255448D01*
X199178231Y-34211133D01*
X199171080Y-34209710D01*
X199171079Y-34209710D01*
X199123318Y-34200210D01*
X199123316Y-34200209D01*
X199119748Y-34199500D01*
X197380252Y-34199500D01*
X197376684Y-34200209D01*
X197376681Y-34200210D01*
X197328920Y-34209710D01*
X197328917Y-34209711D01*
X197321769Y-34211133D01*
X197315706Y-34215183D01*
X197315706Y-34215184D01*
X197261508Y-34251398D01*
X197261505Y-34251400D01*
X197255448Y-34255448D01*
X197251400Y-34261505D01*
X197251398Y-34261508D01*
X197215184Y-34315706D01*
X197211133Y-34321769D01*
X197209711Y-34328917D01*
X197209710Y-34328920D01*
X197200619Y-34374624D01*
X197199500Y-34380252D01*
X197199500Y-36119748D01*
X196306121Y-36119748D01*
X196456410Y-35996410D01*
X196587685Y-35836450D01*
X196685232Y-35653954D01*
X196745300Y-35455934D01*
X196765583Y-35250000D01*
X196745300Y-35044066D01*
X196685232Y-34846046D01*
X196587685Y-34663550D01*
X196456410Y-34503590D01*
X196310557Y-34383892D01*
X196299264Y-34374624D01*
X196299261Y-34374622D01*
X196296450Y-34372315D01*
X196293244Y-34370601D01*
X196293239Y-34370598D01*
X196131607Y-34284204D01*
X196113954Y-34274768D01*
X196110473Y-34273712D01*
X195919407Y-34215753D01*
X195919402Y-34215752D01*
X195915934Y-34214700D01*
X195912322Y-34214344D01*
X195912321Y-34214344D01*
X195713614Y-34194773D01*
X195710000Y-34194417D01*
X195706386Y-34194773D01*
X195507678Y-34214344D01*
X195507675Y-34214344D01*
X195504066Y-34214700D01*
X195500599Y-34215751D01*
X195500592Y-34215753D01*
X195309526Y-34273712D01*
X195309522Y-34273713D01*
X195306046Y-34274768D01*
X195302839Y-34276482D01*
X195302837Y-34276483D01*
X195126760Y-34370598D01*
X195126750Y-34370604D01*
X195123550Y-34372315D01*
X195120742Y-34374618D01*
X195120735Y-34374624D01*
X194966400Y-34501283D01*
X194966394Y-34501288D01*
X194963590Y-34503590D01*
X194961288Y-34506394D01*
X194961283Y-34506400D01*
X194834624Y-34660735D01*
X194834618Y-34660742D01*
X194832315Y-34663550D01*
X194830604Y-34666750D01*
X194830598Y-34666760D01*
X194781240Y-34759103D01*
X194734768Y-34846046D01*
X194733713Y-34849522D01*
X194733712Y-34849526D01*
X194675753Y-35040592D01*
X194675751Y-35040599D01*
X194674700Y-35044066D01*
X194654417Y-35250000D01*
X194225583Y-35250000D01*
X194205300Y-35044066D01*
X194145232Y-34846046D01*
X194047685Y-34663550D01*
X193916410Y-34503590D01*
X193770557Y-34383892D01*
X193759264Y-34374624D01*
X193759261Y-34374622D01*
X193756450Y-34372315D01*
X193753244Y-34370601D01*
X193753239Y-34370598D01*
X193591607Y-34284204D01*
X193573954Y-34274768D01*
X193570473Y-34273712D01*
X193379407Y-34215753D01*
X193379402Y-34215752D01*
X193375934Y-34214700D01*
X193372322Y-34214344D01*
X193372321Y-34214344D01*
X193173614Y-34194773D01*
X193170000Y-34194417D01*
X193166386Y-34194773D01*
X192967678Y-34214344D01*
X192967675Y-34214344D01*
X192964066Y-34214700D01*
X192960599Y-34215751D01*
X192960592Y-34215753D01*
X192769526Y-34273712D01*
X192769522Y-34273713D01*
X192766046Y-34274768D01*
X192762839Y-34276482D01*
X192762837Y-34276483D01*
X192586760Y-34370598D01*
X192586750Y-34370604D01*
X192583550Y-34372315D01*
X192580742Y-34374618D01*
X192580735Y-34374624D01*
X192426400Y-34501283D01*
X192426394Y-34501288D01*
X192423590Y-34503590D01*
X192421288Y-34506394D01*
X192421283Y-34506400D01*
X192294624Y-34660735D01*
X192294618Y-34660742D01*
X192292315Y-34663550D01*
X192290604Y-34666750D01*
X192290598Y-34666760D01*
X192241240Y-34759103D01*
X192194768Y-34846046D01*
X192193713Y-34849522D01*
X192193712Y-34849526D01*
X192135753Y-35040592D01*
X192135751Y-35040599D01*
X192134700Y-35044066D01*
X192114417Y-35250000D01*
X191685583Y-35250000D01*
X191665300Y-35044066D01*
X191605232Y-34846046D01*
X191507685Y-34663550D01*
X191376410Y-34503590D01*
X191230557Y-34383892D01*
X191219264Y-34374624D01*
X191219261Y-34374622D01*
X191216450Y-34372315D01*
X191213244Y-34370601D01*
X191213239Y-34370598D01*
X191051607Y-34284204D01*
X191033954Y-34274768D01*
X191030473Y-34273712D01*
X190839407Y-34215753D01*
X190839402Y-34215752D01*
X190835934Y-34214700D01*
X190832322Y-34214344D01*
X190832321Y-34214344D01*
X190633614Y-34194773D01*
X190630000Y-34194417D01*
X190626386Y-34194773D01*
X190427678Y-34214344D01*
X190427675Y-34214344D01*
X190424066Y-34214700D01*
X190420599Y-34215751D01*
X190420592Y-34215753D01*
X190229526Y-34273712D01*
X190229522Y-34273713D01*
X190226046Y-34274768D01*
X190222839Y-34276482D01*
X190222837Y-34276483D01*
X190046760Y-34370598D01*
X190046750Y-34370604D01*
X190043550Y-34372315D01*
X190040742Y-34374618D01*
X190040735Y-34374624D01*
X189886400Y-34501283D01*
X189886394Y-34501288D01*
X189883590Y-34503590D01*
X189881288Y-34506394D01*
X189881283Y-34506400D01*
X189754624Y-34660735D01*
X189754618Y-34660742D01*
X189752315Y-34663550D01*
X189750604Y-34666750D01*
X189750598Y-34666760D01*
X189701240Y-34759103D01*
X189654768Y-34846046D01*
X189653713Y-34849522D01*
X189653712Y-34849526D01*
X189595753Y-35040592D01*
X189595751Y-35040599D01*
X189594700Y-35044066D01*
X189574417Y-35250000D01*
X186605583Y-35250000D01*
X186585300Y-35044066D01*
X186568567Y-34988904D01*
X187124204Y-34988904D01*
X187124343Y-34997400D01*
X187132435Y-35000000D01*
X187830257Y-35000000D01*
X187837940Y-34997940D01*
X187840000Y-34990257D01*
X188340000Y-34990257D01*
X188342059Y-34997940D01*
X188349743Y-35000000D01*
X189047565Y-35000000D01*
X189055656Y-34997400D01*
X189055795Y-34988904D01*
X189019405Y-34868945D01*
X189016634Y-34862254D01*
X188927206Y-34694947D01*
X188923188Y-34688932D01*
X188802834Y-34542282D01*
X188797717Y-34537165D01*
X188651067Y-34416811D01*
X188645052Y-34412793D01*
X188477745Y-34323365D01*
X188471054Y-34320594D01*
X188351095Y-34284204D01*
X188342599Y-34284343D01*
X188340000Y-34292435D01*
X188340000Y-34990257D01*
X187840000Y-34990257D01*
X187840000Y-34292435D01*
X187837400Y-34284343D01*
X187828904Y-34284204D01*
X187708945Y-34320594D01*
X187702254Y-34323365D01*
X187534947Y-34412793D01*
X187528932Y-34416811D01*
X187382282Y-34537165D01*
X187377165Y-34542282D01*
X187256811Y-34688932D01*
X187252793Y-34694947D01*
X187163365Y-34862254D01*
X187160594Y-34868945D01*
X187124204Y-34988904D01*
X186568567Y-34988904D01*
X186525232Y-34846046D01*
X186427685Y-34663550D01*
X186296410Y-34503590D01*
X186150557Y-34383892D01*
X186139264Y-34374624D01*
X186139261Y-34374622D01*
X186136450Y-34372315D01*
X186133244Y-34370601D01*
X186133239Y-34370598D01*
X185971607Y-34284204D01*
X185953954Y-34274768D01*
X185950473Y-34273712D01*
X185759407Y-34215753D01*
X185759402Y-34215752D01*
X185755934Y-34214700D01*
X185752322Y-34214344D01*
X185752321Y-34214344D01*
X185553614Y-34194773D01*
X185550000Y-34194417D01*
X185546386Y-34194773D01*
X185347678Y-34214344D01*
X185347675Y-34214344D01*
X185344066Y-34214700D01*
X185340599Y-34215751D01*
X185340592Y-34215753D01*
X185149526Y-34273712D01*
X185149522Y-34273713D01*
X185146046Y-34274768D01*
X185142839Y-34276482D01*
X185142837Y-34276483D01*
X184966760Y-34370598D01*
X184966750Y-34370604D01*
X184963550Y-34372315D01*
X184960742Y-34374618D01*
X184960735Y-34374624D01*
X184806400Y-34501283D01*
X184806394Y-34501288D01*
X184803590Y-34503590D01*
X184801288Y-34506394D01*
X184801283Y-34506400D01*
X184674624Y-34660735D01*
X184674618Y-34660742D01*
X184672315Y-34663550D01*
X184670604Y-34666750D01*
X184670598Y-34666760D01*
X184621240Y-34759103D01*
X184574768Y-34846046D01*
X184573713Y-34849522D01*
X184573712Y-34849526D01*
X184515753Y-35040592D01*
X184515751Y-35040599D01*
X184514700Y-35044066D01*
X184494417Y-35250000D01*
X184065583Y-35250000D01*
X184045300Y-35044066D01*
X183985232Y-34846046D01*
X183887685Y-34663550D01*
X183756410Y-34503590D01*
X183610557Y-34383892D01*
X183599264Y-34374624D01*
X183599261Y-34374622D01*
X183596450Y-34372315D01*
X183593244Y-34370601D01*
X183593239Y-34370598D01*
X183431607Y-34284204D01*
X183413954Y-34274768D01*
X183410473Y-34273712D01*
X183219407Y-34215753D01*
X183219402Y-34215752D01*
X183215934Y-34214700D01*
X183212322Y-34214344D01*
X183212321Y-34214344D01*
X183013614Y-34194773D01*
X183010000Y-34194417D01*
X183006386Y-34194773D01*
X182807678Y-34214344D01*
X182807675Y-34214344D01*
X182804066Y-34214700D01*
X182800599Y-34215751D01*
X182800592Y-34215753D01*
X182609526Y-34273712D01*
X182609522Y-34273713D01*
X182606046Y-34274768D01*
X182602839Y-34276482D01*
X182602837Y-34276483D01*
X182426760Y-34370598D01*
X182426750Y-34370604D01*
X182423550Y-34372315D01*
X182420742Y-34374618D01*
X182420735Y-34374624D01*
X182266400Y-34501283D01*
X182266394Y-34501288D01*
X182263590Y-34503590D01*
X182261288Y-34506394D01*
X182261283Y-34506400D01*
X182134624Y-34660735D01*
X182134618Y-34660742D01*
X182132315Y-34663550D01*
X182130604Y-34666750D01*
X182130598Y-34666760D01*
X182081240Y-34759103D01*
X182034768Y-34846046D01*
X182033713Y-34849522D01*
X182033712Y-34849526D01*
X181975753Y-35040592D01*
X181975751Y-35040599D01*
X181974700Y-35044066D01*
X181954417Y-35250000D01*
X181525583Y-35250000D01*
X181505300Y-35044066D01*
X181445232Y-34846046D01*
X181347685Y-34663550D01*
X181216410Y-34503590D01*
X181070557Y-34383892D01*
X181059264Y-34374624D01*
X181059261Y-34374622D01*
X181056450Y-34372315D01*
X181053244Y-34370601D01*
X181053239Y-34370598D01*
X180891607Y-34284204D01*
X180873954Y-34274768D01*
X180870473Y-34273712D01*
X180679407Y-34215753D01*
X180679402Y-34215752D01*
X180675934Y-34214700D01*
X180672322Y-34214344D01*
X180672321Y-34214344D01*
X180473614Y-34194773D01*
X180470000Y-34194417D01*
X180466386Y-34194773D01*
X180267678Y-34214344D01*
X180267675Y-34214344D01*
X180264066Y-34214700D01*
X180260599Y-34215751D01*
X180260592Y-34215753D01*
X180069526Y-34273712D01*
X180069522Y-34273713D01*
X180066046Y-34274768D01*
X180062839Y-34276482D01*
X180062837Y-34276483D01*
X179886760Y-34370598D01*
X179886750Y-34370604D01*
X179883550Y-34372315D01*
X179880742Y-34374618D01*
X179880735Y-34374624D01*
X179726400Y-34501283D01*
X179726394Y-34501288D01*
X179723590Y-34503590D01*
X179721288Y-34506394D01*
X179721283Y-34506400D01*
X179594624Y-34660735D01*
X179594618Y-34660742D01*
X179592315Y-34663550D01*
X179590604Y-34666750D01*
X179590598Y-34666760D01*
X179541240Y-34759103D01*
X179494768Y-34846046D01*
X179493713Y-34849522D01*
X179493712Y-34849526D01*
X179435753Y-35040592D01*
X179435751Y-35040599D01*
X179434700Y-35044066D01*
X179414417Y-35250000D01*
X178985583Y-35250000D01*
X178965300Y-35044066D01*
X178905232Y-34846046D01*
X178807685Y-34663550D01*
X178676410Y-34503590D01*
X178530557Y-34383892D01*
X178519264Y-34374624D01*
X178519261Y-34374622D01*
X178516450Y-34372315D01*
X178513244Y-34370601D01*
X178513239Y-34370598D01*
X178351607Y-34284204D01*
X178333954Y-34274768D01*
X178330473Y-34273712D01*
X178139407Y-34215753D01*
X178139402Y-34215752D01*
X178135934Y-34214700D01*
X178132322Y-34214344D01*
X178132321Y-34214344D01*
X177933614Y-34194773D01*
X177930000Y-34194417D01*
X177926386Y-34194773D01*
X177727678Y-34214344D01*
X177727675Y-34214344D01*
X177724066Y-34214700D01*
X177720599Y-34215751D01*
X177720592Y-34215753D01*
X177529526Y-34273712D01*
X177529522Y-34273713D01*
X177526046Y-34274768D01*
X177522839Y-34276482D01*
X177522837Y-34276483D01*
X177346760Y-34370598D01*
X177346750Y-34370604D01*
X177343550Y-34372315D01*
X177340742Y-34374618D01*
X177340735Y-34374624D01*
X177186400Y-34501283D01*
X177186394Y-34501288D01*
X177183590Y-34503590D01*
X177181288Y-34506394D01*
X177181283Y-34506400D01*
X177054624Y-34660735D01*
X177054618Y-34660742D01*
X177052315Y-34663550D01*
X177050604Y-34666750D01*
X177050598Y-34666760D01*
X177001240Y-34759103D01*
X176954768Y-34846046D01*
X176953713Y-34849522D01*
X176953712Y-34849526D01*
X176895753Y-35040592D01*
X176895751Y-35040599D01*
X176894700Y-35044066D01*
X176874417Y-35250000D01*
X176445583Y-35250000D01*
X176425300Y-35044066D01*
X176365232Y-34846046D01*
X176267685Y-34663550D01*
X176136410Y-34503590D01*
X175990557Y-34383892D01*
X175979264Y-34374624D01*
X175979261Y-34374622D01*
X175976450Y-34372315D01*
X175973244Y-34370601D01*
X175973239Y-34370598D01*
X175811607Y-34284204D01*
X175793954Y-34274768D01*
X175790473Y-34273712D01*
X175599407Y-34215753D01*
X175599402Y-34215752D01*
X175595934Y-34214700D01*
X175592322Y-34214344D01*
X175592321Y-34214344D01*
X175393614Y-34194773D01*
X175390000Y-34194417D01*
X175386386Y-34194773D01*
X175187678Y-34214344D01*
X175187675Y-34214344D01*
X175184066Y-34214700D01*
X175180599Y-34215751D01*
X175180592Y-34215753D01*
X174989526Y-34273712D01*
X174989522Y-34273713D01*
X174986046Y-34274768D01*
X174982839Y-34276482D01*
X174982837Y-34276483D01*
X174806760Y-34370598D01*
X174806750Y-34370604D01*
X174803550Y-34372315D01*
X174800742Y-34374618D01*
X174800735Y-34374624D01*
X174646400Y-34501283D01*
X174646394Y-34501288D01*
X174643590Y-34503590D01*
X174641288Y-34506394D01*
X174641283Y-34506400D01*
X174514624Y-34660735D01*
X174514618Y-34660742D01*
X174512315Y-34663550D01*
X174510604Y-34666750D01*
X174510598Y-34666760D01*
X174461240Y-34759103D01*
X174414768Y-34846046D01*
X174413713Y-34849522D01*
X174413712Y-34849526D01*
X174355753Y-35040592D01*
X174355751Y-35040599D01*
X174354700Y-35044066D01*
X174334417Y-35250000D01*
X173905583Y-35250000D01*
X173885300Y-35044066D01*
X173825232Y-34846046D01*
X173727685Y-34663550D01*
X173596410Y-34503590D01*
X173450557Y-34383892D01*
X173439264Y-34374624D01*
X173439261Y-34374622D01*
X173436450Y-34372315D01*
X173433244Y-34370601D01*
X173433239Y-34370598D01*
X173271607Y-34284204D01*
X173253954Y-34274768D01*
X173250473Y-34273712D01*
X173059407Y-34215753D01*
X173059402Y-34215752D01*
X173055934Y-34214700D01*
X173052322Y-34214344D01*
X173052321Y-34214344D01*
X172853614Y-34194773D01*
X172850000Y-34194417D01*
X172846386Y-34194773D01*
X172647678Y-34214344D01*
X172647675Y-34214344D01*
X172644066Y-34214700D01*
X172640599Y-34215751D01*
X172640592Y-34215753D01*
X172449526Y-34273712D01*
X172449522Y-34273713D01*
X172446046Y-34274768D01*
X172442839Y-34276482D01*
X172442837Y-34276483D01*
X172266760Y-34370598D01*
X172266750Y-34370604D01*
X172263550Y-34372315D01*
X172260742Y-34374618D01*
X172260735Y-34374624D01*
X172106400Y-34501283D01*
X172106394Y-34501288D01*
X172103590Y-34503590D01*
X172101288Y-34506394D01*
X172101283Y-34506400D01*
X171974624Y-34660735D01*
X171974618Y-34660742D01*
X171972315Y-34663550D01*
X171970604Y-34666750D01*
X171970598Y-34666760D01*
X171921240Y-34759103D01*
X171874768Y-34846046D01*
X171873713Y-34849522D01*
X171873712Y-34849526D01*
X171815753Y-35040592D01*
X171815751Y-35040599D01*
X171814700Y-35044066D01*
X171794417Y-35250000D01*
X171365583Y-35250000D01*
X171345300Y-35044066D01*
X171285232Y-34846046D01*
X171187685Y-34663550D01*
X171056410Y-34503590D01*
X170910557Y-34383892D01*
X170899264Y-34374624D01*
X170899261Y-34374622D01*
X170896450Y-34372315D01*
X170893244Y-34370601D01*
X170893239Y-34370598D01*
X170731607Y-34284204D01*
X170713954Y-34274768D01*
X170710473Y-34273712D01*
X170519407Y-34215753D01*
X170519402Y-34215752D01*
X170515934Y-34214700D01*
X170512322Y-34214344D01*
X170512321Y-34214344D01*
X170313614Y-34194773D01*
X170310000Y-34194417D01*
X170306386Y-34194773D01*
X170107678Y-34214344D01*
X170107675Y-34214344D01*
X170104066Y-34214700D01*
X170100599Y-34215751D01*
X170100592Y-34215753D01*
X169909526Y-34273712D01*
X169909522Y-34273713D01*
X169906046Y-34274768D01*
X169902839Y-34276482D01*
X169902837Y-34276483D01*
X169726760Y-34370598D01*
X169726750Y-34370604D01*
X169723550Y-34372315D01*
X169720742Y-34374618D01*
X169720735Y-34374624D01*
X169566400Y-34501283D01*
X169566394Y-34501288D01*
X169563590Y-34503590D01*
X169561288Y-34506394D01*
X169561283Y-34506400D01*
X169434624Y-34660735D01*
X169434618Y-34660742D01*
X169432315Y-34663550D01*
X169430604Y-34666750D01*
X169430598Y-34666760D01*
X169381240Y-34759103D01*
X169334768Y-34846046D01*
X169333713Y-34849522D01*
X169333712Y-34849526D01*
X169275753Y-35040592D01*
X169275751Y-35040599D01*
X169274700Y-35044066D01*
X169254417Y-35250000D01*
X159209266Y-35250000D01*
X159211251Y-35246218D01*
X159361210Y-34998153D01*
X159366286Y-34990801D01*
X159367772Y-34988904D01*
X166804204Y-34988904D01*
X166804343Y-34997400D01*
X166812435Y-35000000D01*
X167510257Y-35000000D01*
X167517940Y-34997940D01*
X167520000Y-34990257D01*
X168020000Y-34990257D01*
X168022059Y-34997940D01*
X168029743Y-35000000D01*
X168727565Y-35000000D01*
X168735656Y-34997400D01*
X168735795Y-34988904D01*
X168699405Y-34868945D01*
X168696634Y-34862254D01*
X168607206Y-34694947D01*
X168603188Y-34688932D01*
X168482834Y-34542282D01*
X168477717Y-34537165D01*
X168331067Y-34416811D01*
X168325052Y-34412793D01*
X168157745Y-34323365D01*
X168151054Y-34320594D01*
X168031095Y-34284204D01*
X168022599Y-34284343D01*
X168020000Y-34292435D01*
X168020000Y-34990257D01*
X167520000Y-34990257D01*
X167520000Y-34292435D01*
X167517400Y-34284343D01*
X167508904Y-34284204D01*
X167388945Y-34320594D01*
X167382254Y-34323365D01*
X167214947Y-34412793D01*
X167208932Y-34416811D01*
X167062282Y-34537165D01*
X167057165Y-34542282D01*
X166936811Y-34688932D01*
X166932793Y-34694947D01*
X166843365Y-34862254D01*
X166840594Y-34868945D01*
X166804204Y-34988904D01*
X159367772Y-34988904D01*
X159466996Y-34862254D01*
X159545056Y-34762617D01*
X159550967Y-34755945D01*
X159755945Y-34550967D01*
X159762617Y-34545056D01*
X159990802Y-34366285D01*
X159998155Y-34361210D01*
X160246218Y-34211251D01*
X160254112Y-34207107D01*
X160518469Y-34088129D01*
X160526796Y-34084972D01*
X160803551Y-33998731D01*
X160812194Y-33996601D01*
X161097341Y-33944346D01*
X161106189Y-33943272D01*
X161397768Y-33925634D01*
X161402236Y-33925500D01*
X161408285Y-33925500D01*
X204591715Y-33925500D01*
X204597764Y-33925500D01*
X204602231Y-33925634D01*
G37*
G04 #@! TD.AperFunction*
G04 #@! TD*
M02*
