M48
; DRILL file {KiCad (7.0.0)} date Wed Oct  4 12:26:09 2023
; FORMAT={-:-/ absolute / metric / decimal}
; #@! TF.CreationDate,2023-10-04T12:26:09+03:00
; #@! TF.GenerationSoftware,Kicad,Pcbnew,(7.0.0)
; #@! TF.FileFunction,Plated,1,4,PTH
FMAT,2
METRIC
; #@! TA.AperFunction,Plated,PTH,ViaDrill
T1C0.300
; #@! TA.AperFunction,Plated,PTH,ComponentDrill
T2C1.000
; #@! TA.AperFunction,Plated,PTH,ComponentDrill
T3C1.500
; #@! TA.AperFunction,Plated,PTH,ComponentDrill
T4C1.700
; #@! TA.AperFunction,Plated,PTH,ComponentDrill
T5C3.200
%
G90
G05
T1
X168.0Y-47.0
X169.5Y-42.5
X172.75Y-40.0
X173.25Y-43.5
X173.5Y-40.0
X173.775Y-73.4
X176.0Y-60.25
X176.0Y-69.25
X178.1Y-40.4
X178.1Y-41.0
X178.1Y-41.6
X178.1Y-42.2
X178.5Y-47.5
X178.5Y-56.5
X178.5Y-60.5
X178.5Y-69.5
X178.7Y-40.4
X178.7Y-41.0
X178.7Y-41.6
X178.7Y-42.2
X179.5Y-76.0
X183.0Y-74.1
X184.65Y-44.6
X184.65Y-45.6
X184.65Y-46.6
X184.65Y-47.6
X184.65Y-48.6
X184.65Y-49.6
X184.65Y-50.6
X185.65Y-44.6
X185.65Y-45.6
X185.65Y-46.6
X185.65Y-47.6
X185.65Y-48.6
X185.65Y-49.6
X185.65Y-50.6
X186.65Y-44.6
X186.65Y-45.6
X186.65Y-46.6
X186.65Y-47.6
X186.65Y-48.6
X186.65Y-49.6
X186.65Y-50.6
X187.0Y-54.0
X187.0Y-57.0
X187.0Y-60.0
X187.0Y-63.0
X187.0Y-66.0
X187.0Y-69.0
X187.0Y-72.0
X187.65Y-44.6
X187.65Y-45.6
X187.65Y-46.6
X187.65Y-47.6
X187.65Y-48.6
X187.65Y-49.6
X187.65Y-50.6
X188.65Y-44.6
X188.65Y-45.6
X188.65Y-46.6
X188.65Y-47.6
X188.65Y-48.6
X188.65Y-49.6
X188.65Y-50.6
X189.5Y-77.0
X189.65Y-44.6
X189.65Y-45.6
X189.65Y-46.6
X189.65Y-47.6
X189.65Y-48.6
X189.65Y-49.6
X189.65Y-50.6
X194.0Y-64.75
X194.25Y-44.75
X194.25Y-45.5
X194.4Y-44.0
X194.4Y-46.25
X195.0Y-43.55
X195.1Y-46.8
X195.8Y-43.5
X195.9Y-46.8
X196.0Y-76.0
X196.5Y-52.0
X196.5Y-56.0
X196.5Y-60.5
X196.5Y-65.0
X196.5Y-69.5
X196.6Y-43.5
X196.7Y-42.6
X196.7Y-46.8
X197.4Y-43.5
X197.5Y-46.8
X198.3Y-43.8
X198.3Y-46.5
X198.8Y-44.5
X198.8Y-45.8
X199.5Y-72.5
X199.6Y-44.5
X199.6Y-45.8
X200.0Y-57.0
X200.4Y-44.5
X200.4Y-45.8
X200.75Y-48.8
X200.85Y-48.0
X200.85Y-49.6
X201.2Y-44.5
X201.2Y-45.8
X201.5Y-47.4
X201.5Y-50.2
X202.0Y-44.5
X202.0Y-46.0
X202.0Y-50.7
X202.05Y-46.85
X202.1Y-51.5
X202.1Y-52.4
X202.1Y-53.4
X202.7Y-44.8
X202.75Y-59.75
X203.3Y-45.3
X203.3Y-69.0
X203.4Y-46.1
X203.4Y-51.5
X203.4Y-52.4
X203.4Y-53.4
X203.454Y-65.024
X203.5Y-46.9
X203.5Y-50.7
X204.0Y-47.4
X204.0Y-50.2
X204.65Y-47.95
X204.65Y-49.65
X204.75Y-48.8
X205.2Y-40.9
X205.2Y-41.5
X205.2Y-42.1
X205.2Y-42.7
X205.2Y-43.3
X205.25Y-57.0
X205.9Y-40.9
X205.9Y-41.5
X205.9Y-42.1
X205.9Y-42.7
X205.9Y-43.3
X206.0Y-71.7
T2
X167.75Y-78.45
X167.77Y-35.25
X167.77Y-37.79
X170.29Y-78.45
X170.31Y-35.25
X170.31Y-37.79
X172.83Y-78.45
X172.85Y-35.25
X172.85Y-37.79
X175.37Y-78.45
X175.39Y-35.25
X175.39Y-37.79
X177.91Y-78.45
X177.93Y-35.25
X177.93Y-37.79
X180.45Y-78.45
X180.47Y-35.25
X180.47Y-37.79
X182.99Y-78.45
X183.01Y-35.25
X183.01Y-37.79
X185.53Y-78.45
X185.55Y-35.25
X185.55Y-37.79
X188.07Y-78.45
X188.09Y-35.25
X188.09Y-37.79
X190.61Y-78.45
X190.63Y-35.25
X190.63Y-37.79
X193.15Y-78.45
X193.17Y-35.25
X193.17Y-37.79
X195.69Y-78.45
X195.71Y-35.25
X195.71Y-37.79
X198.23Y-78.45
X198.25Y-35.25
X198.25Y-37.79
T3
X202.7Y-57.0
T4
X200.16Y-54.46
X200.16Y-59.54
X205.24Y-54.46
X205.24Y-59.54
T5
X161.945Y-36.945
X161.945Y-77.055
X204.055Y-36.945
X204.055Y-77.055
T0
M30
