%TF.GenerationSoftware,KiCad,Pcbnew,(5.1.9)-1*%
%TF.CreationDate,2021-09-15T13:57:53+03:00*%
%TF.ProjectId,voltlog UHF repeater,766f6c74-6c6f-4672-9055-484620726570,rev?*%
%TF.SameCoordinates,Original*%
%TF.FileFunction,Paste,Top*%
%TF.FilePolarity,Positive*%
%FSLAX46Y46*%
G04 Gerber Fmt 4.6, Leading zero omitted, Abs format (unit mm)*
G04 Created by KiCad (PCBNEW (5.1.9)-1) date 2021-09-15 13:57:53*
%MOMM*%
%LPD*%
G01*
G04 APERTURE LIST*
%ADD10C,0.100000*%
%ADD11R,0.900000X0.800000*%
%ADD12R,0.350000X1.000000*%
%ADD13R,1.000000X0.350000*%
%ADD14R,2.500000X1.800000*%
G04 APERTURE END LIST*
D10*
%TO.C,U1*%
G36*
X187500000Y-47000000D02*
G01*
X187500000Y-44500000D01*
X190000000Y-44500000D01*
X190000000Y-47000000D01*
X187500000Y-47000000D01*
G37*
X187500000Y-47000000D02*
X187500000Y-44500000D01*
X190000000Y-44500000D01*
X190000000Y-47000000D01*
X187500000Y-47000000D01*
G36*
X187500000Y-50750000D02*
G01*
X187500000Y-48250000D01*
X190000000Y-48250000D01*
X190000000Y-50750000D01*
X187500000Y-50750000D01*
G37*
X187500000Y-50750000D02*
X187500000Y-48250000D01*
X190000000Y-48250000D01*
X190000000Y-50750000D01*
X187500000Y-50750000D01*
G36*
X184250000Y-50750000D02*
G01*
X184250000Y-48250000D01*
X186750000Y-48250000D01*
X186750000Y-50750000D01*
X184250000Y-50750000D01*
G37*
X184250000Y-50750000D02*
X184250000Y-48250000D01*
X186750000Y-48250000D01*
X186750000Y-50750000D01*
X184250000Y-50750000D01*
G36*
X184250000Y-47000000D02*
G01*
X184250000Y-44500000D01*
X186750000Y-44500000D01*
X186750000Y-47000000D01*
X184250000Y-47000000D01*
G37*
X184250000Y-47000000D02*
X184250000Y-44500000D01*
X186750000Y-44500000D01*
X186750000Y-47000000D01*
X184250000Y-47000000D01*
%TD*%
%TO.C,U1*%
G36*
G01*
X179310000Y-42250000D02*
X179310000Y-39950000D01*
G75*
G02*
X179860000Y-39400000I550000J0D01*
G01*
X180960000Y-39400000D01*
G75*
G02*
X181510000Y-39950000I0J-550000D01*
G01*
X181510000Y-42250000D01*
G75*
G02*
X180960000Y-42800000I-550000J0D01*
G01*
X179860000Y-42800000D01*
G75*
G02*
X179310000Y-42250000I0J550000D01*
G01*
G37*
G36*
G01*
X183910000Y-42250000D02*
X183910000Y-39950000D01*
G75*
G02*
X184460000Y-39400000I550000J0D01*
G01*
X185560000Y-39400000D01*
G75*
G02*
X186110000Y-39950000I0J-550000D01*
G01*
X186110000Y-42250000D01*
G75*
G02*
X185560000Y-42800000I-550000J0D01*
G01*
X184460000Y-42800000D01*
G75*
G02*
X183910000Y-42250000I0J550000D01*
G01*
G37*
G36*
G01*
X188390000Y-42250000D02*
X188390000Y-39950000D01*
G75*
G02*
X188940000Y-39400000I550000J0D01*
G01*
X190040000Y-39400000D01*
G75*
G02*
X190590000Y-39950000I0J-550000D01*
G01*
X190590000Y-42250000D01*
G75*
G02*
X190040000Y-42800000I-550000J0D01*
G01*
X188940000Y-42800000D01*
G75*
G02*
X188390000Y-42250000I0J550000D01*
G01*
G37*
G36*
G01*
X192990000Y-42250000D02*
X192990000Y-39950000D01*
G75*
G02*
X193540000Y-39400000I550000J0D01*
G01*
X194640000Y-39400000D01*
G75*
G02*
X195190000Y-39950000I0J-550000D01*
G01*
X195190000Y-42250000D01*
G75*
G02*
X194640000Y-42800000I-550000J0D01*
G01*
X193540000Y-42800000D01*
G75*
G02*
X192990000Y-42250000I0J550000D01*
G01*
G37*
G36*
G01*
X177000000Y-70750000D02*
X179300000Y-70750000D01*
G75*
G02*
X179850000Y-71300000I0J-550000D01*
G01*
X179850000Y-72400000D01*
G75*
G02*
X179300000Y-72950000I-550000J0D01*
G01*
X177000000Y-72950000D01*
G75*
G02*
X176450000Y-72400000I0J550000D01*
G01*
X176450000Y-71300000D01*
G75*
G02*
X177000000Y-70750000I550000J0D01*
G01*
G37*
G36*
G01*
X177000000Y-66300000D02*
X179300000Y-66300000D01*
G75*
G02*
X179850000Y-66850000I0J-550000D01*
G01*
X179850000Y-67950000D01*
G75*
G02*
X179300000Y-68500000I-550000J0D01*
G01*
X177000000Y-68500000D01*
G75*
G02*
X176450000Y-67950000I0J550000D01*
G01*
X176450000Y-66850000D01*
G75*
G02*
X177000000Y-66300000I550000J0D01*
G01*
G37*
G36*
G01*
X177000000Y-61850000D02*
X179300000Y-61850000D01*
G75*
G02*
X179850000Y-62400000I0J-550000D01*
G01*
X179850000Y-63500000D01*
G75*
G02*
X179300000Y-64050000I-550000J0D01*
G01*
X177000000Y-64050000D01*
G75*
G02*
X176450000Y-63500000I0J550000D01*
G01*
X176450000Y-62400000D01*
G75*
G02*
X177000000Y-61850000I550000J0D01*
G01*
G37*
G36*
G01*
X176900000Y-57400000D02*
X179200000Y-57400000D01*
G75*
G02*
X179750000Y-57950000I0J-550000D01*
G01*
X179750000Y-59050000D01*
G75*
G02*
X179200000Y-59600000I-550000J0D01*
G01*
X176900000Y-59600000D01*
G75*
G02*
X176350000Y-59050000I0J550000D01*
G01*
X176350000Y-57950000D01*
G75*
G02*
X176900000Y-57400000I550000J0D01*
G01*
G37*
G36*
G01*
X177000000Y-52950000D02*
X179300000Y-52950000D01*
G75*
G02*
X179850000Y-53500000I0J-550000D01*
G01*
X179850000Y-54600000D01*
G75*
G02*
X179300000Y-55150000I-550000J0D01*
G01*
X177000000Y-55150000D01*
G75*
G02*
X176450000Y-54600000I0J550000D01*
G01*
X176450000Y-53500000D01*
G75*
G02*
X177000000Y-52950000I550000J0D01*
G01*
G37*
G36*
G01*
X177000000Y-48500000D02*
X179300000Y-48500000D01*
G75*
G02*
X179850000Y-49050000I0J-550000D01*
G01*
X179850000Y-50150000D01*
G75*
G02*
X179300000Y-50700000I-550000J0D01*
G01*
X177000000Y-50700000D01*
G75*
G02*
X176450000Y-50150000I0J550000D01*
G01*
X176450000Y-49050000D01*
G75*
G02*
X177000000Y-48500000I550000J0D01*
G01*
G37*
G36*
G01*
X177000000Y-44050000D02*
X179300000Y-44050000D01*
G75*
G02*
X179850000Y-44600000I0J-550000D01*
G01*
X179850000Y-45700000D01*
G75*
G02*
X179300000Y-46250000I-550000J0D01*
G01*
X177000000Y-46250000D01*
G75*
G02*
X176450000Y-45700000I0J550000D01*
G01*
X176450000Y-44600000D01*
G75*
G02*
X177000000Y-44050000I550000J0D01*
G01*
G37*
G36*
G01*
X195300000Y-44050000D02*
X197600000Y-44050000D01*
G75*
G02*
X198150000Y-44600000I0J-550000D01*
G01*
X198150000Y-45700000D01*
G75*
G02*
X197600000Y-46250000I-550000J0D01*
G01*
X195300000Y-46250000D01*
G75*
G02*
X194750000Y-45700000I0J550000D01*
G01*
X194750000Y-44600000D01*
G75*
G02*
X195300000Y-44050000I550000J0D01*
G01*
G37*
G36*
G01*
X195300000Y-48500000D02*
X197600000Y-48500000D01*
G75*
G02*
X198150000Y-49050000I0J-550000D01*
G01*
X198150000Y-50150000D01*
G75*
G02*
X197600000Y-50700000I-550000J0D01*
G01*
X195300000Y-50700000D01*
G75*
G02*
X194750000Y-50150000I0J550000D01*
G01*
X194750000Y-49050000D01*
G75*
G02*
X195300000Y-48500000I550000J0D01*
G01*
G37*
G36*
G01*
X195300000Y-52950000D02*
X197600000Y-52950000D01*
G75*
G02*
X198150000Y-53500000I0J-550000D01*
G01*
X198150000Y-54600000D01*
G75*
G02*
X197600000Y-55150000I-550000J0D01*
G01*
X195300000Y-55150000D01*
G75*
G02*
X194750000Y-54600000I0J550000D01*
G01*
X194750000Y-53500000D01*
G75*
G02*
X195300000Y-52950000I550000J0D01*
G01*
G37*
G36*
G01*
X195300000Y-70750000D02*
X197600000Y-70750000D01*
G75*
G02*
X198150000Y-71300000I0J-550000D01*
G01*
X198150000Y-72400000D01*
G75*
G02*
X197600000Y-72950000I-550000J0D01*
G01*
X195300000Y-72950000D01*
G75*
G02*
X194750000Y-72400000I0J550000D01*
G01*
X194750000Y-71300000D01*
G75*
G02*
X195300000Y-70750000I550000J0D01*
G01*
G37*
G36*
G01*
X195300000Y-66300000D02*
X197600000Y-66300000D01*
G75*
G02*
X198150000Y-66850000I0J-550000D01*
G01*
X198150000Y-67950000D01*
G75*
G02*
X197600000Y-68500000I-550000J0D01*
G01*
X195300000Y-68500000D01*
G75*
G02*
X194750000Y-67950000I0J550000D01*
G01*
X194750000Y-66850000D01*
G75*
G02*
X195300000Y-66300000I550000J0D01*
G01*
G37*
G36*
G01*
X195300000Y-61850000D02*
X197600000Y-61850000D01*
G75*
G02*
X198150000Y-62400000I0J-550000D01*
G01*
X198150000Y-63500000D01*
G75*
G02*
X197600000Y-64050000I-550000J0D01*
G01*
X195300000Y-64050000D01*
G75*
G02*
X194750000Y-63500000I0J550000D01*
G01*
X194750000Y-62400000D01*
G75*
G02*
X195300000Y-61850000I550000J0D01*
G01*
G37*
G36*
G01*
X195300000Y-57400000D02*
X197600000Y-57400000D01*
G75*
G02*
X198150000Y-57950000I0J-550000D01*
G01*
X198150000Y-59050000D01*
G75*
G02*
X197600000Y-59600000I-550000J0D01*
G01*
X195300000Y-59600000D01*
G75*
G02*
X194750000Y-59050000I0J550000D01*
G01*
X194750000Y-57950000D01*
G75*
G02*
X195300000Y-57400000I550000J0D01*
G01*
G37*
%TD*%
D11*
%TO.C,Q2*%
X175000000Y-71750000D03*
X173000000Y-72700000D03*
X173000000Y-70800000D03*
%TD*%
%TO.C,Q1*%
X175000000Y-57750000D03*
X173000000Y-58700000D03*
X173000000Y-56800000D03*
%TD*%
D12*
%TO.C,FL1*%
X202750000Y-47650000D03*
X202750000Y-49950000D03*
D13*
X203650000Y-49450000D03*
X201850000Y-49450000D03*
X203650000Y-48150000D03*
X201850000Y-48150000D03*
X203650000Y-48800000D03*
X201850000Y-48800000D03*
%TD*%
%TO.C,R14*%
G36*
G01*
X170925000Y-76025000D02*
X170925000Y-75475000D01*
G75*
G02*
X171125000Y-75275000I200000J0D01*
G01*
X171525000Y-75275000D01*
G75*
G02*
X171725000Y-75475000I0J-200000D01*
G01*
X171725000Y-76025000D01*
G75*
G02*
X171525000Y-76225000I-200000J0D01*
G01*
X171125000Y-76225000D01*
G75*
G02*
X170925000Y-76025000I0J200000D01*
G01*
G37*
G36*
G01*
X169275000Y-76025000D02*
X169275000Y-75475000D01*
G75*
G02*
X169475000Y-75275000I200000J0D01*
G01*
X169875000Y-75275000D01*
G75*
G02*
X170075000Y-75475000I0J-200000D01*
G01*
X170075000Y-76025000D01*
G75*
G02*
X169875000Y-76225000I-200000J0D01*
G01*
X169475000Y-76225000D01*
G75*
G02*
X169275000Y-76025000I0J200000D01*
G01*
G37*
%TD*%
%TO.C,R13*%
G36*
G01*
X173575000Y-67475000D02*
X173575000Y-68025000D01*
G75*
G02*
X173375000Y-68225000I-200000J0D01*
G01*
X172975000Y-68225000D01*
G75*
G02*
X172775000Y-68025000I0J200000D01*
G01*
X172775000Y-67475000D01*
G75*
G02*
X172975000Y-67275000I200000J0D01*
G01*
X173375000Y-67275000D01*
G75*
G02*
X173575000Y-67475000I0J-200000D01*
G01*
G37*
G36*
G01*
X175225000Y-67475000D02*
X175225000Y-68025000D01*
G75*
G02*
X175025000Y-68225000I-200000J0D01*
G01*
X174625000Y-68225000D01*
G75*
G02*
X174425000Y-68025000I0J200000D01*
G01*
X174425000Y-67475000D01*
G75*
G02*
X174625000Y-67275000I200000J0D01*
G01*
X175025000Y-67275000D01*
G75*
G02*
X175225000Y-67475000I0J-200000D01*
G01*
G37*
%TD*%
%TO.C,R12*%
G36*
G01*
X173575000Y-68975000D02*
X173575000Y-69525000D01*
G75*
G02*
X173375000Y-69725000I-200000J0D01*
G01*
X172975000Y-69725000D01*
G75*
G02*
X172775000Y-69525000I0J200000D01*
G01*
X172775000Y-68975000D01*
G75*
G02*
X172975000Y-68775000I200000J0D01*
G01*
X173375000Y-68775000D01*
G75*
G02*
X173575000Y-68975000I0J-200000D01*
G01*
G37*
G36*
G01*
X175225000Y-68975000D02*
X175225000Y-69525000D01*
G75*
G02*
X175025000Y-69725000I-200000J0D01*
G01*
X174625000Y-69725000D01*
G75*
G02*
X174425000Y-69525000I0J200000D01*
G01*
X174425000Y-68975000D01*
G75*
G02*
X174625000Y-68775000I200000J0D01*
G01*
X175025000Y-68775000D01*
G75*
G02*
X175225000Y-68975000I0J-200000D01*
G01*
G37*
%TD*%
%TO.C,R11*%
G36*
G01*
X173575000Y-61475000D02*
X173575000Y-62025000D01*
G75*
G02*
X173375000Y-62225000I-200000J0D01*
G01*
X172975000Y-62225000D01*
G75*
G02*
X172775000Y-62025000I0J200000D01*
G01*
X172775000Y-61475000D01*
G75*
G02*
X172975000Y-61275000I200000J0D01*
G01*
X173375000Y-61275000D01*
G75*
G02*
X173575000Y-61475000I0J-200000D01*
G01*
G37*
G36*
G01*
X175225000Y-61475000D02*
X175225000Y-62025000D01*
G75*
G02*
X175025000Y-62225000I-200000J0D01*
G01*
X174625000Y-62225000D01*
G75*
G02*
X174425000Y-62025000I0J200000D01*
G01*
X174425000Y-61475000D01*
G75*
G02*
X174625000Y-61275000I200000J0D01*
G01*
X175025000Y-61275000D01*
G75*
G02*
X175225000Y-61475000I0J-200000D01*
G01*
G37*
%TD*%
%TO.C,R10*%
G36*
G01*
X173575000Y-64475000D02*
X173575000Y-65025000D01*
G75*
G02*
X173375000Y-65225000I-200000J0D01*
G01*
X172975000Y-65225000D01*
G75*
G02*
X172775000Y-65025000I0J200000D01*
G01*
X172775000Y-64475000D01*
G75*
G02*
X172975000Y-64275000I200000J0D01*
G01*
X173375000Y-64275000D01*
G75*
G02*
X173575000Y-64475000I0J-200000D01*
G01*
G37*
G36*
G01*
X175225000Y-64475000D02*
X175225000Y-65025000D01*
G75*
G02*
X175025000Y-65225000I-200000J0D01*
G01*
X174625000Y-65225000D01*
G75*
G02*
X174425000Y-65025000I0J200000D01*
G01*
X174425000Y-64475000D01*
G75*
G02*
X174625000Y-64275000I200000J0D01*
G01*
X175025000Y-64275000D01*
G75*
G02*
X175225000Y-64475000I0J-200000D01*
G01*
G37*
%TD*%
%TO.C,R9*%
G36*
G01*
X175675000Y-74525000D02*
X175675000Y-73975000D01*
G75*
G02*
X175875000Y-73775000I200000J0D01*
G01*
X176275000Y-73775000D01*
G75*
G02*
X176475000Y-73975000I0J-200000D01*
G01*
X176475000Y-74525000D01*
G75*
G02*
X176275000Y-74725000I-200000J0D01*
G01*
X175875000Y-74725000D01*
G75*
G02*
X175675000Y-74525000I0J200000D01*
G01*
G37*
G36*
G01*
X174025000Y-74525000D02*
X174025000Y-73975000D01*
G75*
G02*
X174225000Y-73775000I200000J0D01*
G01*
X174625000Y-73775000D01*
G75*
G02*
X174825000Y-73975000I0J-200000D01*
G01*
X174825000Y-74525000D01*
G75*
G02*
X174625000Y-74725000I-200000J0D01*
G01*
X174225000Y-74725000D01*
G75*
G02*
X174025000Y-74525000I0J200000D01*
G01*
G37*
%TD*%
%TO.C,R8*%
G36*
G01*
X174825000Y-75475000D02*
X174825000Y-76025000D01*
G75*
G02*
X174625000Y-76225000I-200000J0D01*
G01*
X174225000Y-76225000D01*
G75*
G02*
X174025000Y-76025000I0J200000D01*
G01*
X174025000Y-75475000D01*
G75*
G02*
X174225000Y-75275000I200000J0D01*
G01*
X174625000Y-75275000D01*
G75*
G02*
X174825000Y-75475000I0J-200000D01*
G01*
G37*
G36*
G01*
X176475000Y-75475000D02*
X176475000Y-76025000D01*
G75*
G02*
X176275000Y-76225000I-200000J0D01*
G01*
X175875000Y-76225000D01*
G75*
G02*
X175675000Y-76025000I0J200000D01*
G01*
X175675000Y-75475000D01*
G75*
G02*
X175875000Y-75275000I200000J0D01*
G01*
X176275000Y-75275000D01*
G75*
G02*
X176475000Y-75475000I0J-200000D01*
G01*
G37*
%TD*%
%TO.C,R7*%
G36*
G01*
X174425000Y-42775000D02*
X174425000Y-42225000D01*
G75*
G02*
X174625000Y-42025000I200000J0D01*
G01*
X175025000Y-42025000D01*
G75*
G02*
X175225000Y-42225000I0J-200000D01*
G01*
X175225000Y-42775000D01*
G75*
G02*
X175025000Y-42975000I-200000J0D01*
G01*
X174625000Y-42975000D01*
G75*
G02*
X174425000Y-42775000I0J200000D01*
G01*
G37*
G36*
G01*
X172775000Y-42775000D02*
X172775000Y-42225000D01*
G75*
G02*
X172975000Y-42025000I200000J0D01*
G01*
X173375000Y-42025000D01*
G75*
G02*
X173575000Y-42225000I0J-200000D01*
G01*
X173575000Y-42775000D01*
G75*
G02*
X173375000Y-42975000I-200000J0D01*
G01*
X172975000Y-42975000D01*
G75*
G02*
X172775000Y-42775000I0J200000D01*
G01*
G37*
%TD*%
%TO.C,R6*%
G36*
G01*
X173575000Y-59975000D02*
X173575000Y-60525000D01*
G75*
G02*
X173375000Y-60725000I-200000J0D01*
G01*
X172975000Y-60725000D01*
G75*
G02*
X172775000Y-60525000I0J200000D01*
G01*
X172775000Y-59975000D01*
G75*
G02*
X172975000Y-59775000I200000J0D01*
G01*
X173375000Y-59775000D01*
G75*
G02*
X173575000Y-59975000I0J-200000D01*
G01*
G37*
G36*
G01*
X175225000Y-59975000D02*
X175225000Y-60525000D01*
G75*
G02*
X175025000Y-60725000I-200000J0D01*
G01*
X174625000Y-60725000D01*
G75*
G02*
X174425000Y-60525000I0J200000D01*
G01*
X174425000Y-59975000D01*
G75*
G02*
X174625000Y-59775000I200000J0D01*
G01*
X175025000Y-59775000D01*
G75*
G02*
X175225000Y-59975000I0J-200000D01*
G01*
G37*
%TD*%
%TO.C,R5*%
G36*
G01*
X174425000Y-55525000D02*
X174425000Y-54975000D01*
G75*
G02*
X174625000Y-54775000I200000J0D01*
G01*
X175025000Y-54775000D01*
G75*
G02*
X175225000Y-54975000I0J-200000D01*
G01*
X175225000Y-55525000D01*
G75*
G02*
X175025000Y-55725000I-200000J0D01*
G01*
X174625000Y-55725000D01*
G75*
G02*
X174425000Y-55525000I0J200000D01*
G01*
G37*
G36*
G01*
X172775000Y-55525000D02*
X172775000Y-54975000D01*
G75*
G02*
X172975000Y-54775000I200000J0D01*
G01*
X173375000Y-54775000D01*
G75*
G02*
X173575000Y-54975000I0J-200000D01*
G01*
X173575000Y-55525000D01*
G75*
G02*
X173375000Y-55725000I-200000J0D01*
G01*
X172975000Y-55725000D01*
G75*
G02*
X172775000Y-55525000I0J200000D01*
G01*
G37*
%TD*%
%TO.C,R4*%
G36*
G01*
X201925000Y-70775000D02*
X201925000Y-70225000D01*
G75*
G02*
X202125000Y-70025000I200000J0D01*
G01*
X202525000Y-70025000D01*
G75*
G02*
X202725000Y-70225000I0J-200000D01*
G01*
X202725000Y-70775000D01*
G75*
G02*
X202525000Y-70975000I-200000J0D01*
G01*
X202125000Y-70975000D01*
G75*
G02*
X201925000Y-70775000I0J200000D01*
G01*
G37*
G36*
G01*
X200275000Y-70775000D02*
X200275000Y-70225000D01*
G75*
G02*
X200475000Y-70025000I200000J0D01*
G01*
X200875000Y-70025000D01*
G75*
G02*
X201075000Y-70225000I0J-200000D01*
G01*
X201075000Y-70775000D01*
G75*
G02*
X200875000Y-70975000I-200000J0D01*
G01*
X200475000Y-70975000D01*
G75*
G02*
X200275000Y-70775000I0J200000D01*
G01*
G37*
%TD*%
%TO.C,R3*%
G36*
G01*
X201925000Y-69275000D02*
X201925000Y-68725000D01*
G75*
G02*
X202125000Y-68525000I200000J0D01*
G01*
X202525000Y-68525000D01*
G75*
G02*
X202725000Y-68725000I0J-200000D01*
G01*
X202725000Y-69275000D01*
G75*
G02*
X202525000Y-69475000I-200000J0D01*
G01*
X202125000Y-69475000D01*
G75*
G02*
X201925000Y-69275000I0J200000D01*
G01*
G37*
G36*
G01*
X200275000Y-69275000D02*
X200275000Y-68725000D01*
G75*
G02*
X200475000Y-68525000I200000J0D01*
G01*
X200875000Y-68525000D01*
G75*
G02*
X201075000Y-68725000I0J-200000D01*
G01*
X201075000Y-69275000D01*
G75*
G02*
X200875000Y-69475000I-200000J0D01*
G01*
X200475000Y-69475000D01*
G75*
G02*
X200275000Y-69275000I0J200000D01*
G01*
G37*
%TD*%
%TO.C,R2*%
G36*
G01*
X173575000Y-53475000D02*
X173575000Y-54025000D01*
G75*
G02*
X173375000Y-54225000I-200000J0D01*
G01*
X172975000Y-54225000D01*
G75*
G02*
X172775000Y-54025000I0J200000D01*
G01*
X172775000Y-53475000D01*
G75*
G02*
X172975000Y-53275000I200000J0D01*
G01*
X173375000Y-53275000D01*
G75*
G02*
X173575000Y-53475000I0J-200000D01*
G01*
G37*
G36*
G01*
X175225000Y-53475000D02*
X175225000Y-54025000D01*
G75*
G02*
X175025000Y-54225000I-200000J0D01*
G01*
X174625000Y-54225000D01*
G75*
G02*
X174425000Y-54025000I0J200000D01*
G01*
X174425000Y-53475000D01*
G75*
G02*
X174625000Y-53275000I200000J0D01*
G01*
X175025000Y-53275000D01*
G75*
G02*
X175225000Y-53475000I0J-200000D01*
G01*
G37*
%TD*%
%TO.C,R1*%
G36*
G01*
X174425000Y-51525000D02*
X174425000Y-50975000D01*
G75*
G02*
X174625000Y-50775000I200000J0D01*
G01*
X175025000Y-50775000D01*
G75*
G02*
X175225000Y-50975000I0J-200000D01*
G01*
X175225000Y-51525000D01*
G75*
G02*
X175025000Y-51725000I-200000J0D01*
G01*
X174625000Y-51725000D01*
G75*
G02*
X174425000Y-51525000I0J200000D01*
G01*
G37*
G36*
G01*
X172775000Y-51525000D02*
X172775000Y-50975000D01*
G75*
G02*
X172975000Y-50775000I200000J0D01*
G01*
X173375000Y-50775000D01*
G75*
G02*
X173575000Y-50975000I0J-200000D01*
G01*
X173575000Y-51525000D01*
G75*
G02*
X173375000Y-51725000I-200000J0D01*
G01*
X172975000Y-51725000D01*
G75*
G02*
X172775000Y-51525000I0J200000D01*
G01*
G37*
%TD*%
%TO.C,D4*%
G36*
G01*
X167050000Y-75493750D02*
X167050000Y-76006250D01*
G75*
G02*
X166831250Y-76225000I-218750J0D01*
G01*
X166393750Y-76225000D01*
G75*
G02*
X166175000Y-76006250I0J218750D01*
G01*
X166175000Y-75493750D01*
G75*
G02*
X166393750Y-75275000I218750J0D01*
G01*
X166831250Y-75275000D01*
G75*
G02*
X167050000Y-75493750I0J-218750D01*
G01*
G37*
G36*
G01*
X168625000Y-75493750D02*
X168625000Y-76006250D01*
G75*
G02*
X168406250Y-76225000I-218750J0D01*
G01*
X167968750Y-76225000D01*
G75*
G02*
X167750000Y-76006250I0J218750D01*
G01*
X167750000Y-75493750D01*
G75*
G02*
X167968750Y-75275000I218750J0D01*
G01*
X168406250Y-75275000D01*
G75*
G02*
X168625000Y-75493750I0J-218750D01*
G01*
G37*
%TD*%
%TO.C,D3*%
G36*
G01*
X174350000Y-66506250D02*
X174350000Y-65993750D01*
G75*
G02*
X174568750Y-65775000I218750J0D01*
G01*
X175006250Y-65775000D01*
G75*
G02*
X175225000Y-65993750I0J-218750D01*
G01*
X175225000Y-66506250D01*
G75*
G02*
X175006250Y-66725000I-218750J0D01*
G01*
X174568750Y-66725000D01*
G75*
G02*
X174350000Y-66506250I0J218750D01*
G01*
G37*
G36*
G01*
X172775000Y-66506250D02*
X172775000Y-65993750D01*
G75*
G02*
X172993750Y-65775000I218750J0D01*
G01*
X173431250Y-65775000D01*
G75*
G02*
X173650000Y-65993750I0J-218750D01*
G01*
X173650000Y-66506250D01*
G75*
G02*
X173431250Y-66725000I-218750J0D01*
G01*
X172993750Y-66725000D01*
G75*
G02*
X172775000Y-66506250I0J218750D01*
G01*
G37*
%TD*%
D14*
%TO.C,D2*%
X199000000Y-42000000D03*
X203000000Y-42000000D03*
%TD*%
%TO.C,D1*%
G36*
G01*
X174350000Y-50006250D02*
X174350000Y-49493750D01*
G75*
G02*
X174568750Y-49275000I218750J0D01*
G01*
X175006250Y-49275000D01*
G75*
G02*
X175225000Y-49493750I0J-218750D01*
G01*
X175225000Y-50006250D01*
G75*
G02*
X175006250Y-50225000I-218750J0D01*
G01*
X174568750Y-50225000D01*
G75*
G02*
X174350000Y-50006250I0J218750D01*
G01*
G37*
G36*
G01*
X172775000Y-50006250D02*
X172775000Y-49493750D01*
G75*
G02*
X172993750Y-49275000I218750J0D01*
G01*
X173431250Y-49275000D01*
G75*
G02*
X173650000Y-49493750I0J-218750D01*
G01*
X173650000Y-50006250D01*
G75*
G02*
X173431250Y-50225000I-218750J0D01*
G01*
X172993750Y-50225000D01*
G75*
G02*
X172775000Y-50006250I0J218750D01*
G01*
G37*
%TD*%
%TO.C,C4*%
G36*
G01*
X172750000Y-75325000D02*
X173250000Y-75325000D01*
G75*
G02*
X173475000Y-75550000I0J-225000D01*
G01*
X173475000Y-76000000D01*
G75*
G02*
X173250000Y-76225000I-225000J0D01*
G01*
X172750000Y-76225000D01*
G75*
G02*
X172525000Y-76000000I0J225000D01*
G01*
X172525000Y-75550000D01*
G75*
G02*
X172750000Y-75325000I225000J0D01*
G01*
G37*
G36*
G01*
X172750000Y-73775000D02*
X173250000Y-73775000D01*
G75*
G02*
X173475000Y-74000000I0J-225000D01*
G01*
X173475000Y-74450000D01*
G75*
G02*
X173250000Y-74675000I-225000J0D01*
G01*
X172750000Y-74675000D01*
G75*
G02*
X172525000Y-74450000I0J225000D01*
G01*
X172525000Y-74000000D01*
G75*
G02*
X172750000Y-73775000I225000J0D01*
G01*
G37*
%TD*%
%TO.C,C3*%
G36*
G01*
X174325000Y-63500000D02*
X174325000Y-63000000D01*
G75*
G02*
X174550000Y-62775000I225000J0D01*
G01*
X175000000Y-62775000D01*
G75*
G02*
X175225000Y-63000000I0J-225000D01*
G01*
X175225000Y-63500000D01*
G75*
G02*
X175000000Y-63725000I-225000J0D01*
G01*
X174550000Y-63725000D01*
G75*
G02*
X174325000Y-63500000I0J225000D01*
G01*
G37*
G36*
G01*
X172775000Y-63500000D02*
X172775000Y-63000000D01*
G75*
G02*
X173000000Y-62775000I225000J0D01*
G01*
X173450000Y-62775000D01*
G75*
G02*
X173675000Y-63000000I0J-225000D01*
G01*
X173675000Y-63500000D01*
G75*
G02*
X173450000Y-63725000I-225000J0D01*
G01*
X173000000Y-63725000D01*
G75*
G02*
X172775000Y-63500000I0J225000D01*
G01*
G37*
%TD*%
%TO.C,C2*%
G36*
G01*
X173675000Y-40750000D02*
X173675000Y-41250000D01*
G75*
G02*
X173450000Y-41475000I-225000J0D01*
G01*
X173000000Y-41475000D01*
G75*
G02*
X172775000Y-41250000I0J225000D01*
G01*
X172775000Y-40750000D01*
G75*
G02*
X173000000Y-40525000I225000J0D01*
G01*
X173450000Y-40525000D01*
G75*
G02*
X173675000Y-40750000I0J-225000D01*
G01*
G37*
G36*
G01*
X175225000Y-40750000D02*
X175225000Y-41250000D01*
G75*
G02*
X175000000Y-41475000I-225000J0D01*
G01*
X174550000Y-41475000D01*
G75*
G02*
X174325000Y-41250000I0J225000D01*
G01*
X174325000Y-40750000D01*
G75*
G02*
X174550000Y-40525000I225000J0D01*
G01*
X175000000Y-40525000D01*
G75*
G02*
X175225000Y-40750000I0J-225000D01*
G01*
G37*
%TD*%
%TO.C,C1*%
G36*
G01*
X201175000Y-72000000D02*
X201175000Y-72500000D01*
G75*
G02*
X200950000Y-72725000I-225000J0D01*
G01*
X200500000Y-72725000D01*
G75*
G02*
X200275000Y-72500000I0J225000D01*
G01*
X200275000Y-72000000D01*
G75*
G02*
X200500000Y-71775000I225000J0D01*
G01*
X200950000Y-71775000D01*
G75*
G02*
X201175000Y-72000000I0J-225000D01*
G01*
G37*
G36*
G01*
X202725000Y-72000000D02*
X202725000Y-72500000D01*
G75*
G02*
X202500000Y-72725000I-225000J0D01*
G01*
X202050000Y-72725000D01*
G75*
G02*
X201825000Y-72500000I0J225000D01*
G01*
X201825000Y-72000000D01*
G75*
G02*
X202050000Y-71775000I225000J0D01*
G01*
X202500000Y-71775000D01*
G75*
G02*
X202725000Y-72000000I0J-225000D01*
G01*
G37*
%TD*%
M02*
