%TF.GenerationSoftware,KiCad,Pcbnew,(5.1.9)-1*%
%TF.CreationDate,2021-09-15T13:57:53+03:00*%
%TF.ProjectId,voltlog UHF repeater,766f6c74-6c6f-4672-9055-484620726570,rev?*%
%TF.SameCoordinates,Original*%
%TF.FileFunction,Copper,L3,Inr*%
%TF.FilePolarity,Positive*%
%FSLAX46Y46*%
G04 Gerber Fmt 4.6, Leading zero omitted, Abs format (unit mm)*
G04 Created by KiCad (PCBNEW (5.1.9)-1) date 2021-09-15 13:57:53*
%MOMM*%
%LPD*%
G01*
G04 APERTURE LIST*
%TA.AperFunction,ComponentPad*%
%ADD10C,5.500000*%
%TD*%
%TA.AperFunction,ComponentPad*%
%ADD11C,2.250000*%
%TD*%
%TA.AperFunction,ComponentPad*%
%ADD12C,2.050000*%
%TD*%
%TA.AperFunction,ComponentPad*%
%ADD13O,1.700000X1.700000*%
%TD*%
%TA.AperFunction,ComponentPad*%
%ADD14R,1.700000X1.700000*%
%TD*%
%TA.AperFunction,ViaPad*%
%ADD15C,0.600000*%
%TD*%
%TA.AperFunction,Conductor*%
%ADD16C,1.600000*%
%TD*%
%TA.AperFunction,Conductor*%
%ADD17C,0.500000*%
%TD*%
%TA.AperFunction,Conductor*%
%ADD18C,0.300000*%
%TD*%
%TA.AperFunction,Conductor*%
%ADD19C,0.150000*%
%TD*%
%TA.AperFunction,Conductor*%
%ADD20C,0.100000*%
%TD*%
G04 APERTURE END LIST*
D10*
%TO.N,GND*%
%TO.C,H4*%
X204055501Y-36944588D03*
%TD*%
%TO.N,GND*%
%TO.C,H3*%
X204055501Y-77055505D03*
%TD*%
%TO.N,GND*%
%TO.C,H2*%
X161944587Y-36944588D03*
%TD*%
%TO.N,GND*%
%TO.C,H1*%
X161944587Y-77055505D03*
%TD*%
D11*
%TO.N,GND*%
%TO.C,J3*%
X200160000Y-59540000D03*
X200160000Y-54460000D03*
X205240000Y-54460000D03*
X205240000Y-59540000D03*
D12*
%TO.N,/ANT*%
X202700000Y-57000000D03*
%TD*%
D13*
%TO.N,GPIO_10*%
%TO.C,J1*%
X167770000Y-37790000D03*
%TO.N,GND*%
X167770000Y-35250000D03*
%TO.N,/GPIO_13*%
X170310000Y-37790000D03*
%TO.N,/GPIO_14*%
X170310000Y-35250000D03*
%TO.N,/GPIO_2*%
X172850000Y-37790000D03*
%TO.N,/GPIO_16*%
X172850000Y-35250000D03*
%TO.N,GND*%
X175390000Y-37790000D03*
%TO.N,/GPIO_15*%
X175390000Y-35250000D03*
%TO.N,/GPIO_18*%
X177930000Y-37790000D03*
%TO.N,+3V3*%
X177930000Y-35250000D03*
%TO.N,/GPIO_19*%
X180470000Y-37790000D03*
%TO.N,/GPIO_3*%
X180470000Y-35250000D03*
%TO.N,GND*%
X183010000Y-37790000D03*
%TO.N,/GPIO_0*%
X183010000Y-35250000D03*
%TO.N,GPIO_7*%
X185550000Y-37790000D03*
%TO.N,/GPIO_1*%
X185550000Y-35250000D03*
%TO.N,UART_RX*%
X188090000Y-37790000D03*
%TO.N,GND*%
X188090000Y-35250000D03*
%TO.N,UART_TX*%
X190630000Y-37790000D03*
%TO.N,/GPIO_6*%
X190630000Y-35250000D03*
%TO.N,GND*%
X193170000Y-37790000D03*
%TO.N,/GPIO_11*%
X193170000Y-35250000D03*
%TO.N,+5V*%
X195710000Y-37790000D03*
%TO.N,/GPIO_12*%
X195710000Y-35250000D03*
%TO.N,+5V*%
X198250000Y-37790000D03*
D14*
%TO.N,+3V3*%
X198250000Y-35250000D03*
%TD*%
D13*
%TO.N,/CIR_RX*%
%TO.C,J2*%
X198230000Y-78450000D03*
%TO.N,/MIC1N*%
X195690000Y-78450000D03*
%TO.N,MIC1P*%
X193150000Y-78450000D03*
%TO.N,/MIC_BIAS*%
X190610000Y-78450000D03*
%TO.N,/TV_OUT*%
X188070000Y-78450000D03*
%TO.N,/LINEOUT_L*%
X185530000Y-78450000D03*
%TO.N,LINEOUT_R*%
X182990000Y-78450000D03*
%TO.N,/USB_DP3*%
X180450000Y-78450000D03*
%TO.N,/USB_DM3*%
X177910000Y-78450000D03*
%TO.N,/USB_DP2*%
X175370000Y-78450000D03*
%TO.N,/USB_DM2*%
X172830000Y-78450000D03*
%TO.N,GND*%
X170290000Y-78450000D03*
D14*
%TO.N,+5V*%
X167750000Y-78450000D03*
%TD*%
D15*
%TO.N,GND*%
X184650000Y-45600000D03*
X185650000Y-45600000D03*
X186650000Y-45600000D03*
X187650000Y-45600000D03*
X188650000Y-45600000D03*
X189650000Y-45600000D03*
X189650000Y-44600000D03*
X188650000Y-44600000D03*
X187650000Y-44600000D03*
X186650000Y-44600000D03*
X185650000Y-44600000D03*
X184650000Y-44600000D03*
%TO.N,LINEOUT_R*%
X183000000Y-74750000D03*
%TO.N,GND*%
X204650000Y-47950000D03*
X204750000Y-48800000D03*
X204650000Y-49650000D03*
X200850000Y-48000000D03*
X200850000Y-49600000D03*
X200750000Y-48800000D03*
X201500000Y-47400000D03*
X201500000Y-50200000D03*
X204000000Y-50200000D03*
X204000000Y-47400000D03*
X202050000Y-46850000D03*
X203500000Y-46900000D03*
X202000000Y-50700000D03*
X203500000Y-50700000D03*
X203500000Y-69000000D03*
X189650000Y-46600000D03*
X187650000Y-46600000D03*
X186650000Y-47600000D03*
X185650000Y-46600000D03*
X186650000Y-46600000D03*
X184650000Y-46600000D03*
X188650000Y-46600000D03*
X189650000Y-47600000D03*
X188650000Y-47600000D03*
X187650000Y-47600000D03*
X185650000Y-47600000D03*
X184650000Y-47600000D03*
X185650000Y-49600000D03*
X187650000Y-48600000D03*
X189650000Y-48600000D03*
X184650000Y-48600000D03*
X186650000Y-49600000D03*
X185650000Y-48600000D03*
X187650000Y-49600000D03*
X188650000Y-48600000D03*
X186650000Y-48600000D03*
X189650000Y-49600000D03*
X184650000Y-49600000D03*
X188650000Y-49600000D03*
X187650000Y-50600000D03*
X185650000Y-50600000D03*
X186650000Y-50600000D03*
X184650000Y-50600000D03*
X188650000Y-50600000D03*
X189650000Y-50600000D03*
X198800000Y-45800000D03*
X199600000Y-45800000D03*
X200400000Y-45800000D03*
X201200000Y-45800000D03*
X202000000Y-46000000D03*
X201200000Y-44500000D03*
X199600000Y-44500000D03*
X200400000Y-44500000D03*
X198800000Y-44500000D03*
X202000000Y-44500000D03*
X202700000Y-44800000D03*
X203300000Y-45300000D03*
X203400000Y-46100000D03*
X202100000Y-51500000D03*
X203400000Y-51500000D03*
X203400000Y-52400000D03*
X202100000Y-52400000D03*
X202100000Y-53400000D03*
X203400000Y-53400000D03*
X173500000Y-40000000D03*
X172750000Y-40000000D03*
X194250000Y-45500000D03*
X194250000Y-44750000D03*
X194400000Y-44000000D03*
X195000000Y-43550000D03*
X194400000Y-46250000D03*
X195800000Y-43500000D03*
X195100000Y-46800000D03*
X195900000Y-46800000D03*
X196700000Y-46800000D03*
X197500000Y-46800000D03*
X198300000Y-46500000D03*
X196600000Y-43500000D03*
X197400000Y-43500000D03*
X198300000Y-43800000D03*
X169500000Y-42500000D03*
X168000000Y-47000000D03*
X178500000Y-47500000D03*
X178500000Y-56500000D03*
X178500000Y-60500000D03*
X178500000Y-69500000D03*
X179500000Y-76000000D03*
X189500000Y-77000000D03*
X196000000Y-76000000D03*
X199500000Y-72500000D03*
X206000000Y-72000000D03*
X206000000Y-63500000D03*
X196500000Y-65000000D03*
X196500000Y-69500000D03*
X196500000Y-60500000D03*
X196500000Y-56000000D03*
X196500000Y-52000000D03*
X187000000Y-54000000D03*
X187000000Y-57000000D03*
X187000000Y-60000000D03*
X187000000Y-63000000D03*
X187000000Y-66000000D03*
X187000000Y-69000000D03*
X187000000Y-72000000D03*
X200000000Y-57000000D03*
X205250000Y-57000000D03*
X202750000Y-59750000D03*
%TO.N,Net-(C2-Pad1)*%
X178700000Y-40400000D03*
X178700000Y-41000000D03*
X178700000Y-41600000D03*
X178700000Y-42200000D03*
X205200000Y-40900000D03*
X205900000Y-40900000D03*
X205200000Y-41500000D03*
X205900000Y-41500000D03*
X205900000Y-42700000D03*
X205200000Y-42100000D03*
X205900000Y-42100000D03*
X205200000Y-42700000D03*
X205900000Y-43300000D03*
X205200000Y-43300000D03*
X178100000Y-41000000D03*
X178100000Y-40400000D03*
X178100000Y-41600000D03*
X178100000Y-42200000D03*
%TO.N,+3V3*%
X173775000Y-73400000D03*
%TO.N,+5V*%
X196700000Y-42600000D03*
X173250000Y-43500000D03*
X176000000Y-60250000D03*
%TO.N,GPIO_10*%
X176000000Y-69250000D03*
%TO.N,UART_RX*%
X194000000Y-64750000D03*
%TD*%
D16*
%TO.N,Net-(C2-Pad1)*%
X179200000Y-41100000D02*
X178700000Y-41600000D01*
X204800000Y-41100000D02*
X179200000Y-41100000D01*
X205200000Y-41500000D02*
X204800000Y-41100000D01*
D17*
%TO.N,+3V3*%
X180800000Y-39800000D02*
X180400000Y-39400000D01*
X199100000Y-39800000D02*
X180800000Y-39800000D01*
X200100000Y-38800000D02*
X199100000Y-39800000D01*
X200100000Y-36300000D02*
X200100000Y-38800000D01*
X199050000Y-35250000D02*
X200100000Y-36300000D01*
X198250000Y-35250000D02*
X199050000Y-35250000D01*
X180400000Y-39400000D02*
X177600000Y-39400000D01*
X177600000Y-39400000D02*
X176900000Y-39400000D01*
D18*
X177930000Y-35250000D02*
X176700000Y-36480000D01*
X176700000Y-39200000D02*
X176900000Y-39400000D01*
X176700000Y-36480000D02*
X176700000Y-39200000D01*
D17*
X174500000Y-48800000D02*
X174500000Y-72675000D01*
X172000000Y-46300000D02*
X174500000Y-48800000D01*
X174500000Y-72675000D02*
X173775000Y-73400000D01*
X172000000Y-42750000D02*
X172000000Y-46300000D01*
X172500000Y-42250000D02*
X172000000Y-42750000D01*
X174050000Y-42250000D02*
X172500000Y-42250000D01*
X176900000Y-39400000D02*
X174050000Y-42250000D01*
D18*
%TO.N,+5V*%
X180700000Y-42600000D02*
X196700000Y-42600000D01*
X179600000Y-43700000D02*
X180700000Y-42600000D01*
X173250000Y-43500000D02*
X173450000Y-43700000D01*
X173450000Y-43700000D02*
X173700000Y-43700000D01*
X173700000Y-43700000D02*
X179600000Y-43700000D01*
X167750000Y-75500000D02*
X167750000Y-78450000D01*
X168750000Y-74500000D02*
X167750000Y-75500000D01*
X173637002Y-74500000D02*
X168750000Y-74500000D01*
X175250000Y-72887002D02*
X173637002Y-74500000D01*
X173700000Y-46200000D02*
X175250000Y-47750000D01*
X173700000Y-43700000D02*
X173700000Y-46200000D01*
X176000000Y-60250000D02*
X175250000Y-60250000D01*
X175250000Y-60250000D02*
X175250000Y-72887002D01*
X175250000Y-47750000D02*
X175250000Y-60250000D01*
%TD*%
D19*
%TO.N,Net-(C2-Pad1)*%
X179109830Y-40090106D02*
X179212178Y-40132500D01*
X179300063Y-40199937D01*
X179367500Y-40287822D01*
X179409894Y-40390170D01*
X179425000Y-40504912D01*
X179425000Y-42289284D01*
X179409894Y-42404026D01*
X179367500Y-42506374D01*
X179300063Y-42594259D01*
X179212178Y-42661696D01*
X179109830Y-42704090D01*
X178995088Y-42719196D01*
X178004912Y-42719196D01*
X177890170Y-42704090D01*
X177787822Y-42661696D01*
X177699937Y-42594259D01*
X177632500Y-42506374D01*
X177590106Y-42404026D01*
X177575000Y-42289284D01*
X177575000Y-40504912D01*
X177590106Y-40390170D01*
X177632500Y-40287822D01*
X177699937Y-40199937D01*
X177787822Y-40132500D01*
X177890170Y-40090106D01*
X178004912Y-40075000D01*
X178995088Y-40075000D01*
X179109830Y-40090106D01*
%TA.AperFunction,Conductor*%
D20*
G36*
X179109830Y-40090106D02*
G01*
X179212178Y-40132500D01*
X179300063Y-40199937D01*
X179367500Y-40287822D01*
X179409894Y-40390170D01*
X179425000Y-40504912D01*
X179425000Y-42289284D01*
X179409894Y-42404026D01*
X179367500Y-42506374D01*
X179300063Y-42594259D01*
X179212178Y-42661696D01*
X179109830Y-42704090D01*
X178995088Y-42719196D01*
X178004912Y-42719196D01*
X177890170Y-42704090D01*
X177787822Y-42661696D01*
X177699937Y-42594259D01*
X177632500Y-42506374D01*
X177590106Y-42404026D01*
X177575000Y-42289284D01*
X177575000Y-40504912D01*
X177590106Y-40390170D01*
X177632500Y-40287822D01*
X177699937Y-40199937D01*
X177787822Y-40132500D01*
X177890170Y-40090106D01*
X178004912Y-40075000D01*
X178995088Y-40075000D01*
X179109830Y-40090106D01*
G37*
%TD.AperFunction*%
%TD*%
D19*
%TO.N,Net-(C2-Pad1)*%
X206359830Y-40290106D02*
X206462178Y-40332500D01*
X206550063Y-40399937D01*
X206617500Y-40487822D01*
X206659894Y-40590170D01*
X206675000Y-40704912D01*
X206675000Y-43395088D01*
X206659894Y-43509830D01*
X206617500Y-43612178D01*
X206550063Y-43700063D01*
X206462178Y-43767500D01*
X206359830Y-43809894D01*
X206245088Y-43825000D01*
X205004912Y-43825000D01*
X204890170Y-43809894D01*
X204787822Y-43767500D01*
X204699937Y-43700063D01*
X204632500Y-43612178D01*
X204590106Y-43509830D01*
X204575000Y-43395088D01*
X204575000Y-40704912D01*
X204590106Y-40590170D01*
X204632500Y-40487822D01*
X204699937Y-40399937D01*
X204787822Y-40332500D01*
X204890170Y-40290106D01*
X205004912Y-40275000D01*
X206245088Y-40275000D01*
X206359830Y-40290106D01*
%TA.AperFunction,Conductor*%
D20*
G36*
X206359830Y-40290106D02*
G01*
X206462178Y-40332500D01*
X206550063Y-40399937D01*
X206617500Y-40487822D01*
X206659894Y-40590170D01*
X206675000Y-40704912D01*
X206675000Y-43395088D01*
X206659894Y-43509830D01*
X206617500Y-43612178D01*
X206550063Y-43700063D01*
X206462178Y-43767500D01*
X206359830Y-43809894D01*
X206245088Y-43825000D01*
X205004912Y-43825000D01*
X204890170Y-43809894D01*
X204787822Y-43767500D01*
X204699937Y-43700063D01*
X204632500Y-43612178D01*
X204590106Y-43509830D01*
X204575000Y-43395088D01*
X204575000Y-40704912D01*
X204590106Y-40590170D01*
X204632500Y-40487822D01*
X204699937Y-40399937D01*
X204787822Y-40332500D01*
X204890170Y-40290106D01*
X205004912Y-40275000D01*
X206245088Y-40275000D01*
X206359830Y-40290106D01*
G37*
%TD.AperFunction*%
%TD*%
D19*
%TO.N,GND*%
X167594998Y-34246393D02*
X167431231Y-34229775D01*
X167288132Y-34289039D01*
X167109917Y-34401511D01*
X166957068Y-34546590D01*
X166835460Y-34718701D01*
X166749766Y-34911229D01*
X166765581Y-35075000D01*
X167595000Y-35075000D01*
X167595000Y-35055000D01*
X167945000Y-35055000D01*
X167945000Y-35075000D01*
X168774419Y-35075000D01*
X168790234Y-34911229D01*
X168704540Y-34718701D01*
X168582932Y-34546590D01*
X168430083Y-34401511D01*
X168251868Y-34289039D01*
X168108769Y-34229775D01*
X167945002Y-34246393D01*
X167945002Y-34200000D01*
X169905158Y-34200000D01*
X169777113Y-34253038D01*
X169592855Y-34376156D01*
X169436156Y-34532855D01*
X169313038Y-34717113D01*
X169228233Y-34921850D01*
X169185000Y-35139197D01*
X169185000Y-35360803D01*
X169228233Y-35578150D01*
X169313038Y-35782887D01*
X169436156Y-35967145D01*
X169592855Y-36123844D01*
X169777113Y-36246962D01*
X169981850Y-36331767D01*
X170199197Y-36375000D01*
X170420803Y-36375000D01*
X170638150Y-36331767D01*
X170842887Y-36246962D01*
X171027145Y-36123844D01*
X171183844Y-35967145D01*
X171306962Y-35782887D01*
X171391767Y-35578150D01*
X171435000Y-35360803D01*
X171435000Y-35139197D01*
X171391767Y-34921850D01*
X171306962Y-34717113D01*
X171183844Y-34532855D01*
X171027145Y-34376156D01*
X170842887Y-34253038D01*
X170714842Y-34200000D01*
X172445158Y-34200000D01*
X172317113Y-34253038D01*
X172132855Y-34376156D01*
X171976156Y-34532855D01*
X171853038Y-34717113D01*
X171768233Y-34921850D01*
X171725000Y-35139197D01*
X171725000Y-35360803D01*
X171768233Y-35578150D01*
X171853038Y-35782887D01*
X171976156Y-35967145D01*
X172132855Y-36123844D01*
X172317113Y-36246962D01*
X172521850Y-36331767D01*
X172739197Y-36375000D01*
X172960803Y-36375000D01*
X173178150Y-36331767D01*
X173382887Y-36246962D01*
X173567145Y-36123844D01*
X173723844Y-35967145D01*
X173846962Y-35782887D01*
X173931767Y-35578150D01*
X173975000Y-35360803D01*
X173975000Y-35139197D01*
X173931767Y-34921850D01*
X173846962Y-34717113D01*
X173723844Y-34532855D01*
X173567145Y-34376156D01*
X173382887Y-34253038D01*
X173254842Y-34200000D01*
X174985158Y-34200000D01*
X174857113Y-34253038D01*
X174672855Y-34376156D01*
X174516156Y-34532855D01*
X174393038Y-34717113D01*
X174308233Y-34921850D01*
X174265000Y-35139197D01*
X174265000Y-35360803D01*
X174308233Y-35578150D01*
X174393038Y-35782887D01*
X174516156Y-35967145D01*
X174672855Y-36123844D01*
X174857113Y-36246962D01*
X175061850Y-36331767D01*
X175279197Y-36375000D01*
X175500803Y-36375000D01*
X175718150Y-36331767D01*
X175922887Y-36246962D01*
X176107145Y-36123844D01*
X176263844Y-35967145D01*
X176386962Y-35782887D01*
X176471767Y-35578150D01*
X176515000Y-35360803D01*
X176515000Y-35139197D01*
X176471767Y-34921850D01*
X176386962Y-34717113D01*
X176263844Y-34532855D01*
X176107145Y-34376156D01*
X175922887Y-34253038D01*
X175794842Y-34200000D01*
X177525158Y-34200000D01*
X177397113Y-34253038D01*
X177212855Y-34376156D01*
X177056156Y-34532855D01*
X176933038Y-34717113D01*
X176848233Y-34921850D01*
X176805000Y-35139197D01*
X176805000Y-35360803D01*
X176848233Y-35578150D01*
X176892922Y-35686038D01*
X176414243Y-36164717D01*
X176398026Y-36178026D01*
X176344916Y-36242741D01*
X176305452Y-36316574D01*
X176288936Y-36371020D01*
X176285758Y-36381498D01*
X176281150Y-36396687D01*
X176275000Y-36459127D01*
X176275000Y-36459133D01*
X176272945Y-36480000D01*
X176275000Y-36500867D01*
X176275000Y-37188588D01*
X176202932Y-37086590D01*
X176050083Y-36941511D01*
X175871868Y-36829039D01*
X175728769Y-36769775D01*
X175565000Y-36786393D01*
X175565000Y-37615000D01*
X175585000Y-37615000D01*
X175585000Y-37965000D01*
X175565000Y-37965000D01*
X175565000Y-38793607D01*
X175728769Y-38810225D01*
X175871868Y-38750961D01*
X176050083Y-38638489D01*
X176202932Y-38493410D01*
X176275001Y-38391412D01*
X176275001Y-39179123D01*
X176272945Y-39200000D01*
X176280529Y-39277009D01*
X173832539Y-41725000D01*
X172525780Y-41725000D01*
X172500000Y-41722461D01*
X172474220Y-41725000D01*
X172474212Y-41725000D01*
X172397082Y-41732597D01*
X172298119Y-41762617D01*
X172206914Y-41811367D01*
X172179995Y-41833459D01*
X172147003Y-41860534D01*
X172146999Y-41860538D01*
X172126973Y-41876973D01*
X172110538Y-41896999D01*
X171647009Y-42360530D01*
X171626973Y-42376973D01*
X171561367Y-42456914D01*
X171512617Y-42548120D01*
X171482597Y-42647083D01*
X171475000Y-42724213D01*
X171475000Y-42724220D01*
X171472461Y-42750000D01*
X171475000Y-42775780D01*
X171475001Y-46274210D01*
X171472461Y-46300000D01*
X171482597Y-46402917D01*
X171512617Y-46501880D01*
X171561367Y-46593085D01*
X171600476Y-46640739D01*
X171626974Y-46673027D01*
X171647005Y-46689466D01*
X173975000Y-49017462D01*
X173975001Y-72457536D01*
X173570000Y-72862538D01*
X173502635Y-72890442D01*
X173408459Y-72953368D01*
X173328368Y-73033459D01*
X173265442Y-73127635D01*
X173222097Y-73232279D01*
X173200000Y-73343367D01*
X173200000Y-73456633D01*
X173222097Y-73567721D01*
X173265442Y-73672365D01*
X173328368Y-73766541D01*
X173408459Y-73846632D01*
X173502635Y-73909558D01*
X173590153Y-73945809D01*
X173460962Y-74075000D01*
X168770874Y-74075000D01*
X168750000Y-74072944D01*
X168666686Y-74081150D01*
X168586573Y-74105452D01*
X168512740Y-74144916D01*
X168448026Y-74198026D01*
X168434716Y-74214244D01*
X167464244Y-75184716D01*
X167448026Y-75198026D01*
X167394916Y-75262741D01*
X167355452Y-75336574D01*
X167331150Y-75416687D01*
X167325000Y-75479127D01*
X167325000Y-75479133D01*
X167322945Y-75500000D01*
X167325000Y-75520867D01*
X167325001Y-77323670D01*
X166900000Y-77323670D01*
X166846091Y-77328980D01*
X166794253Y-77344704D01*
X166746479Y-77370240D01*
X166704605Y-77404605D01*
X166670240Y-77446479D01*
X166644704Y-77494253D01*
X166628980Y-77546091D01*
X166623670Y-77600000D01*
X166623670Y-79300000D01*
X166628980Y-79353909D01*
X166644704Y-79405747D01*
X166670240Y-79453521D01*
X166704605Y-79495395D01*
X166746479Y-79529760D01*
X166794253Y-79555296D01*
X166846091Y-79571020D01*
X166900000Y-79576330D01*
X168600000Y-79576330D01*
X168653909Y-79571020D01*
X168705747Y-79555296D01*
X168753521Y-79529760D01*
X168795395Y-79495395D01*
X168829760Y-79453521D01*
X168855296Y-79405747D01*
X168871020Y-79353909D01*
X168876330Y-79300000D01*
X168876330Y-78788771D01*
X169269766Y-78788771D01*
X169355460Y-78981299D01*
X169477068Y-79153410D01*
X169629917Y-79298489D01*
X169808132Y-79410961D01*
X169951231Y-79470225D01*
X170115000Y-79453607D01*
X170115000Y-78625000D01*
X170465000Y-78625000D01*
X170465000Y-79453607D01*
X170628769Y-79470225D01*
X170771868Y-79410961D01*
X170950083Y-79298489D01*
X171102932Y-79153410D01*
X171224540Y-78981299D01*
X171310234Y-78788771D01*
X171294419Y-78625000D01*
X170465000Y-78625000D01*
X170115000Y-78625000D01*
X169285581Y-78625000D01*
X169269766Y-78788771D01*
X168876330Y-78788771D01*
X168876330Y-78339197D01*
X171705000Y-78339197D01*
X171705000Y-78560803D01*
X171748233Y-78778150D01*
X171833038Y-78982887D01*
X171956156Y-79167145D01*
X172112855Y-79323844D01*
X172297113Y-79446962D01*
X172501850Y-79531767D01*
X172719197Y-79575000D01*
X172940803Y-79575000D01*
X173158150Y-79531767D01*
X173362887Y-79446962D01*
X173547145Y-79323844D01*
X173703844Y-79167145D01*
X173826962Y-78982887D01*
X173911767Y-78778150D01*
X173955000Y-78560803D01*
X173955000Y-78339197D01*
X174245000Y-78339197D01*
X174245000Y-78560803D01*
X174288233Y-78778150D01*
X174373038Y-78982887D01*
X174496156Y-79167145D01*
X174652855Y-79323844D01*
X174837113Y-79446962D01*
X175041850Y-79531767D01*
X175259197Y-79575000D01*
X175480803Y-79575000D01*
X175698150Y-79531767D01*
X175902887Y-79446962D01*
X176087145Y-79323844D01*
X176243844Y-79167145D01*
X176366962Y-78982887D01*
X176451767Y-78778150D01*
X176495000Y-78560803D01*
X176495000Y-78339197D01*
X176785000Y-78339197D01*
X176785000Y-78560803D01*
X176828233Y-78778150D01*
X176913038Y-78982887D01*
X177036156Y-79167145D01*
X177192855Y-79323844D01*
X177377113Y-79446962D01*
X177581850Y-79531767D01*
X177799197Y-79575000D01*
X178020803Y-79575000D01*
X178238150Y-79531767D01*
X178442887Y-79446962D01*
X178627145Y-79323844D01*
X178783844Y-79167145D01*
X178906962Y-78982887D01*
X178991767Y-78778150D01*
X179035000Y-78560803D01*
X179035000Y-78339197D01*
X179325000Y-78339197D01*
X179325000Y-78560803D01*
X179368233Y-78778150D01*
X179453038Y-78982887D01*
X179576156Y-79167145D01*
X179732855Y-79323844D01*
X179917113Y-79446962D01*
X180121850Y-79531767D01*
X180339197Y-79575000D01*
X180560803Y-79575000D01*
X180778150Y-79531767D01*
X180982887Y-79446962D01*
X181167145Y-79323844D01*
X181323844Y-79167145D01*
X181446962Y-78982887D01*
X181531767Y-78778150D01*
X181575000Y-78560803D01*
X181575000Y-78339197D01*
X181865000Y-78339197D01*
X181865000Y-78560803D01*
X181908233Y-78778150D01*
X181993038Y-78982887D01*
X182116156Y-79167145D01*
X182272855Y-79323844D01*
X182457113Y-79446962D01*
X182661850Y-79531767D01*
X182879197Y-79575000D01*
X183100803Y-79575000D01*
X183318150Y-79531767D01*
X183522887Y-79446962D01*
X183707145Y-79323844D01*
X183863844Y-79167145D01*
X183986962Y-78982887D01*
X184071767Y-78778150D01*
X184115000Y-78560803D01*
X184115000Y-78339197D01*
X184405000Y-78339197D01*
X184405000Y-78560803D01*
X184448233Y-78778150D01*
X184533038Y-78982887D01*
X184656156Y-79167145D01*
X184812855Y-79323844D01*
X184997113Y-79446962D01*
X185201850Y-79531767D01*
X185419197Y-79575000D01*
X185640803Y-79575000D01*
X185858150Y-79531767D01*
X186062887Y-79446962D01*
X186247145Y-79323844D01*
X186403844Y-79167145D01*
X186526962Y-78982887D01*
X186611767Y-78778150D01*
X186655000Y-78560803D01*
X186655000Y-78339197D01*
X186945000Y-78339197D01*
X186945000Y-78560803D01*
X186988233Y-78778150D01*
X187073038Y-78982887D01*
X187196156Y-79167145D01*
X187352855Y-79323844D01*
X187537113Y-79446962D01*
X187741850Y-79531767D01*
X187959197Y-79575000D01*
X188180803Y-79575000D01*
X188398150Y-79531767D01*
X188602887Y-79446962D01*
X188787145Y-79323844D01*
X188943844Y-79167145D01*
X189066962Y-78982887D01*
X189151767Y-78778150D01*
X189195000Y-78560803D01*
X189195000Y-78339197D01*
X189485000Y-78339197D01*
X189485000Y-78560803D01*
X189528233Y-78778150D01*
X189613038Y-78982887D01*
X189736156Y-79167145D01*
X189892855Y-79323844D01*
X190077113Y-79446962D01*
X190281850Y-79531767D01*
X190499197Y-79575000D01*
X190720803Y-79575000D01*
X190938150Y-79531767D01*
X191142887Y-79446962D01*
X191327145Y-79323844D01*
X191483844Y-79167145D01*
X191606962Y-78982887D01*
X191691767Y-78778150D01*
X191735000Y-78560803D01*
X191735000Y-78339197D01*
X192025000Y-78339197D01*
X192025000Y-78560803D01*
X192068233Y-78778150D01*
X192153038Y-78982887D01*
X192276156Y-79167145D01*
X192432855Y-79323844D01*
X192617113Y-79446962D01*
X192821850Y-79531767D01*
X193039197Y-79575000D01*
X193260803Y-79575000D01*
X193478150Y-79531767D01*
X193682887Y-79446962D01*
X193867145Y-79323844D01*
X194023844Y-79167145D01*
X194146962Y-78982887D01*
X194231767Y-78778150D01*
X194275000Y-78560803D01*
X194275000Y-78339197D01*
X194565000Y-78339197D01*
X194565000Y-78560803D01*
X194608233Y-78778150D01*
X194693038Y-78982887D01*
X194816156Y-79167145D01*
X194972855Y-79323844D01*
X195157113Y-79446962D01*
X195361850Y-79531767D01*
X195579197Y-79575000D01*
X195800803Y-79575000D01*
X196018150Y-79531767D01*
X196222887Y-79446962D01*
X196407145Y-79323844D01*
X196563844Y-79167145D01*
X196686962Y-78982887D01*
X196771767Y-78778150D01*
X196815000Y-78560803D01*
X196815000Y-78339197D01*
X197105000Y-78339197D01*
X197105000Y-78560803D01*
X197148233Y-78778150D01*
X197233038Y-78982887D01*
X197356156Y-79167145D01*
X197512855Y-79323844D01*
X197697113Y-79446962D01*
X197901850Y-79531767D01*
X198119197Y-79575000D01*
X198340803Y-79575000D01*
X198558150Y-79531767D01*
X198762887Y-79446962D01*
X198947145Y-79323844D01*
X199103844Y-79167145D01*
X199226962Y-78982887D01*
X199311767Y-78778150D01*
X199355000Y-78560803D01*
X199355000Y-78339197D01*
X199311767Y-78121850D01*
X199226962Y-77917113D01*
X199103844Y-77732855D01*
X198947145Y-77576156D01*
X198762887Y-77453038D01*
X198558150Y-77368233D01*
X198340803Y-77325000D01*
X198119197Y-77325000D01*
X197901850Y-77368233D01*
X197697113Y-77453038D01*
X197512855Y-77576156D01*
X197356156Y-77732855D01*
X197233038Y-77917113D01*
X197148233Y-78121850D01*
X197105000Y-78339197D01*
X196815000Y-78339197D01*
X196771767Y-78121850D01*
X196686962Y-77917113D01*
X196563844Y-77732855D01*
X196407145Y-77576156D01*
X196222887Y-77453038D01*
X196018150Y-77368233D01*
X195800803Y-77325000D01*
X195579197Y-77325000D01*
X195361850Y-77368233D01*
X195157113Y-77453038D01*
X194972855Y-77576156D01*
X194816156Y-77732855D01*
X194693038Y-77917113D01*
X194608233Y-78121850D01*
X194565000Y-78339197D01*
X194275000Y-78339197D01*
X194231767Y-78121850D01*
X194146962Y-77917113D01*
X194023844Y-77732855D01*
X193867145Y-77576156D01*
X193682887Y-77453038D01*
X193478150Y-77368233D01*
X193260803Y-77325000D01*
X193039197Y-77325000D01*
X192821850Y-77368233D01*
X192617113Y-77453038D01*
X192432855Y-77576156D01*
X192276156Y-77732855D01*
X192153038Y-77917113D01*
X192068233Y-78121850D01*
X192025000Y-78339197D01*
X191735000Y-78339197D01*
X191691767Y-78121850D01*
X191606962Y-77917113D01*
X191483844Y-77732855D01*
X191327145Y-77576156D01*
X191142887Y-77453038D01*
X190938150Y-77368233D01*
X190720803Y-77325000D01*
X190499197Y-77325000D01*
X190281850Y-77368233D01*
X190077113Y-77453038D01*
X189892855Y-77576156D01*
X189736156Y-77732855D01*
X189613038Y-77917113D01*
X189528233Y-78121850D01*
X189485000Y-78339197D01*
X189195000Y-78339197D01*
X189151767Y-78121850D01*
X189066962Y-77917113D01*
X188943844Y-77732855D01*
X188787145Y-77576156D01*
X188602887Y-77453038D01*
X188398150Y-77368233D01*
X188180803Y-77325000D01*
X187959197Y-77325000D01*
X187741850Y-77368233D01*
X187537113Y-77453038D01*
X187352855Y-77576156D01*
X187196156Y-77732855D01*
X187073038Y-77917113D01*
X186988233Y-78121850D01*
X186945000Y-78339197D01*
X186655000Y-78339197D01*
X186611767Y-78121850D01*
X186526962Y-77917113D01*
X186403844Y-77732855D01*
X186247145Y-77576156D01*
X186062887Y-77453038D01*
X185858150Y-77368233D01*
X185640803Y-77325000D01*
X185419197Y-77325000D01*
X185201850Y-77368233D01*
X184997113Y-77453038D01*
X184812855Y-77576156D01*
X184656156Y-77732855D01*
X184533038Y-77917113D01*
X184448233Y-78121850D01*
X184405000Y-78339197D01*
X184115000Y-78339197D01*
X184071767Y-78121850D01*
X183986962Y-77917113D01*
X183863844Y-77732855D01*
X183707145Y-77576156D01*
X183522887Y-77453038D01*
X183318150Y-77368233D01*
X183100803Y-77325000D01*
X182879197Y-77325000D01*
X182661850Y-77368233D01*
X182457113Y-77453038D01*
X182272855Y-77576156D01*
X182116156Y-77732855D01*
X181993038Y-77917113D01*
X181908233Y-78121850D01*
X181865000Y-78339197D01*
X181575000Y-78339197D01*
X181531767Y-78121850D01*
X181446962Y-77917113D01*
X181323844Y-77732855D01*
X181167145Y-77576156D01*
X180982887Y-77453038D01*
X180778150Y-77368233D01*
X180560803Y-77325000D01*
X180339197Y-77325000D01*
X180121850Y-77368233D01*
X179917113Y-77453038D01*
X179732855Y-77576156D01*
X179576156Y-77732855D01*
X179453038Y-77917113D01*
X179368233Y-78121850D01*
X179325000Y-78339197D01*
X179035000Y-78339197D01*
X178991767Y-78121850D01*
X178906962Y-77917113D01*
X178783844Y-77732855D01*
X178627145Y-77576156D01*
X178442887Y-77453038D01*
X178238150Y-77368233D01*
X178020803Y-77325000D01*
X177799197Y-77325000D01*
X177581850Y-77368233D01*
X177377113Y-77453038D01*
X177192855Y-77576156D01*
X177036156Y-77732855D01*
X176913038Y-77917113D01*
X176828233Y-78121850D01*
X176785000Y-78339197D01*
X176495000Y-78339197D01*
X176451767Y-78121850D01*
X176366962Y-77917113D01*
X176243844Y-77732855D01*
X176087145Y-77576156D01*
X175902887Y-77453038D01*
X175698150Y-77368233D01*
X175480803Y-77325000D01*
X175259197Y-77325000D01*
X175041850Y-77368233D01*
X174837113Y-77453038D01*
X174652855Y-77576156D01*
X174496156Y-77732855D01*
X174373038Y-77917113D01*
X174288233Y-78121850D01*
X174245000Y-78339197D01*
X173955000Y-78339197D01*
X173911767Y-78121850D01*
X173826962Y-77917113D01*
X173703844Y-77732855D01*
X173547145Y-77576156D01*
X173362887Y-77453038D01*
X173158150Y-77368233D01*
X172940803Y-77325000D01*
X172719197Y-77325000D01*
X172501850Y-77368233D01*
X172297113Y-77453038D01*
X172112855Y-77576156D01*
X171956156Y-77732855D01*
X171833038Y-77917113D01*
X171748233Y-78121850D01*
X171705000Y-78339197D01*
X168876330Y-78339197D01*
X168876330Y-78111229D01*
X169269766Y-78111229D01*
X169285581Y-78275000D01*
X170115000Y-78275000D01*
X170115000Y-77446393D01*
X170465000Y-77446393D01*
X170465000Y-78275000D01*
X171294419Y-78275000D01*
X171310234Y-78111229D01*
X171224540Y-77918701D01*
X171102932Y-77746590D01*
X170950083Y-77601511D01*
X170771868Y-77489039D01*
X170628769Y-77429775D01*
X170465000Y-77446393D01*
X170115000Y-77446393D01*
X169951231Y-77429775D01*
X169808132Y-77489039D01*
X169629917Y-77601511D01*
X169477068Y-77746590D01*
X169355460Y-77918701D01*
X169269766Y-78111229D01*
X168876330Y-78111229D01*
X168876330Y-77600000D01*
X168871020Y-77546091D01*
X168855296Y-77494253D01*
X168829760Y-77446479D01*
X168795395Y-77404605D01*
X168753521Y-77370240D01*
X168705747Y-77344704D01*
X168653909Y-77328980D01*
X168600000Y-77323670D01*
X168175000Y-77323670D01*
X168175000Y-75676040D01*
X168926040Y-74925000D01*
X173616135Y-74925000D01*
X173637002Y-74927055D01*
X173657869Y-74925000D01*
X173657876Y-74925000D01*
X173720316Y-74918850D01*
X173800429Y-74894548D01*
X173874262Y-74855084D01*
X173938976Y-74801974D01*
X173952286Y-74785756D01*
X174044675Y-74693367D01*
X182425000Y-74693367D01*
X182425000Y-74806633D01*
X182447097Y-74917721D01*
X182490442Y-75022365D01*
X182553368Y-75116541D01*
X182633459Y-75196632D01*
X182727635Y-75259558D01*
X182832279Y-75302903D01*
X182943367Y-75325000D01*
X183056633Y-75325000D01*
X183167721Y-75302903D01*
X183272365Y-75259558D01*
X183366541Y-75196632D01*
X183446632Y-75116541D01*
X183509558Y-75022365D01*
X183552903Y-74917721D01*
X183575000Y-74806633D01*
X183575000Y-74693367D01*
X183552903Y-74582279D01*
X183509558Y-74477635D01*
X183446632Y-74383459D01*
X183366541Y-74303368D01*
X183272365Y-74240442D01*
X183167721Y-74197097D01*
X183056633Y-74175000D01*
X182943367Y-74175000D01*
X182832279Y-74197097D01*
X182727635Y-74240442D01*
X182633459Y-74303368D01*
X182553368Y-74383459D01*
X182490442Y-74477635D01*
X182447097Y-74582279D01*
X182425000Y-74693367D01*
X174044675Y-74693367D01*
X175535756Y-73202286D01*
X175551974Y-73188976D01*
X175605084Y-73124262D01*
X175644548Y-73050429D01*
X175668850Y-72970316D01*
X175675000Y-72907876D01*
X175675000Y-72907869D01*
X175677055Y-72887002D01*
X175675000Y-72866135D01*
X175675000Y-69724389D01*
X175727635Y-69759558D01*
X175832279Y-69802903D01*
X175943367Y-69825000D01*
X176056633Y-69825000D01*
X176167721Y-69802903D01*
X176272365Y-69759558D01*
X176366541Y-69696632D01*
X176446632Y-69616541D01*
X176509558Y-69522365D01*
X176552903Y-69417721D01*
X176575000Y-69306633D01*
X176575000Y-69193367D01*
X176552903Y-69082279D01*
X176509558Y-68977635D01*
X176446632Y-68883459D01*
X176366541Y-68803368D01*
X176272365Y-68740442D01*
X176167721Y-68697097D01*
X176056633Y-68675000D01*
X175943367Y-68675000D01*
X175832279Y-68697097D01*
X175727635Y-68740442D01*
X175675000Y-68775611D01*
X175675000Y-64693367D01*
X193425000Y-64693367D01*
X193425000Y-64806633D01*
X193447097Y-64917721D01*
X193490442Y-65022365D01*
X193553368Y-65116541D01*
X193633459Y-65196632D01*
X193727635Y-65259558D01*
X193832279Y-65302903D01*
X193943367Y-65325000D01*
X194056633Y-65325000D01*
X194167721Y-65302903D01*
X194272365Y-65259558D01*
X194366541Y-65196632D01*
X194446632Y-65116541D01*
X194509558Y-65022365D01*
X194552903Y-64917721D01*
X194575000Y-64806633D01*
X194575000Y-64693367D01*
X194552903Y-64582279D01*
X194509558Y-64477635D01*
X194446632Y-64383459D01*
X194366541Y-64303368D01*
X194272365Y-64240442D01*
X194167721Y-64197097D01*
X194056633Y-64175000D01*
X193943367Y-64175000D01*
X193832279Y-64197097D01*
X193727635Y-64240442D01*
X193633459Y-64303368D01*
X193553368Y-64383459D01*
X193490442Y-64477635D01*
X193447097Y-64582279D01*
X193425000Y-64693367D01*
X175675000Y-64693367D01*
X175675000Y-60724389D01*
X175727635Y-60759558D01*
X175832279Y-60802903D01*
X175943367Y-60825000D01*
X176056633Y-60825000D01*
X176167721Y-60802903D01*
X176272365Y-60759558D01*
X176366541Y-60696632D01*
X176446632Y-60616541D01*
X176509558Y-60522365D01*
X176552903Y-60417721D01*
X176575000Y-60306633D01*
X176575000Y-60193367D01*
X176552903Y-60082279D01*
X176509558Y-59977635D01*
X176446632Y-59883459D01*
X176366541Y-59803368D01*
X176272365Y-59740442D01*
X176167721Y-59697097D01*
X176056633Y-59675000D01*
X175943367Y-59675000D01*
X175832279Y-59697097D01*
X175727635Y-59740442D01*
X175675000Y-59775611D01*
X175675000Y-56871961D01*
X201400000Y-56871961D01*
X201400000Y-57128039D01*
X201449958Y-57379196D01*
X201547955Y-57615781D01*
X201690224Y-57828702D01*
X201871298Y-58009776D01*
X202084219Y-58152045D01*
X202320804Y-58250042D01*
X202571961Y-58300000D01*
X202828039Y-58300000D01*
X203079196Y-58250042D01*
X203315781Y-58152045D01*
X203528702Y-58009776D01*
X203709776Y-57828702D01*
X203852045Y-57615781D01*
X203950042Y-57379196D01*
X204000000Y-57128039D01*
X204000000Y-56871961D01*
X203950042Y-56620804D01*
X203852045Y-56384219D01*
X203709776Y-56171298D01*
X203528702Y-55990224D01*
X203315781Y-55847955D01*
X203079196Y-55749958D01*
X202828039Y-55700000D01*
X202571961Y-55700000D01*
X202320804Y-55749958D01*
X202084219Y-55847955D01*
X201871298Y-55990224D01*
X201690224Y-56171298D01*
X201547955Y-56384219D01*
X201449958Y-56620804D01*
X201400000Y-56871961D01*
X175675000Y-56871961D01*
X175675000Y-47770866D01*
X175677055Y-47749999D01*
X175675000Y-47729132D01*
X175675000Y-47729126D01*
X175668850Y-47666686D01*
X175644548Y-47586573D01*
X175605084Y-47512740D01*
X175551974Y-47448026D01*
X175535763Y-47434722D01*
X174125000Y-46023960D01*
X174125000Y-44125000D01*
X179579133Y-44125000D01*
X179600000Y-44127055D01*
X179620867Y-44125000D01*
X179620874Y-44125000D01*
X179683314Y-44118850D01*
X179763427Y-44094548D01*
X179837260Y-44055084D01*
X179901974Y-44001974D01*
X179915283Y-43985757D01*
X180876041Y-43025000D01*
X196311827Y-43025000D01*
X196333459Y-43046632D01*
X196427635Y-43109558D01*
X196532279Y-43152903D01*
X196643367Y-43175000D01*
X196756633Y-43175000D01*
X196867721Y-43152903D01*
X196972365Y-43109558D01*
X197066541Y-43046632D01*
X197146632Y-42966541D01*
X197209558Y-42872365D01*
X197252903Y-42767721D01*
X197275000Y-42656633D01*
X197275000Y-42543367D01*
X197252903Y-42432279D01*
X197209558Y-42327635D01*
X197146632Y-42233459D01*
X197088173Y-42175000D01*
X204225000Y-42175000D01*
X204225000Y-43400000D01*
X204227353Y-43435894D01*
X204244390Y-43565304D01*
X204262970Y-43634648D01*
X204312920Y-43755238D01*
X204348816Y-43817411D01*
X204428276Y-43920964D01*
X204479036Y-43971724D01*
X204582589Y-44051184D01*
X204644762Y-44087080D01*
X204765352Y-44137030D01*
X204834696Y-44155610D01*
X204964106Y-44172647D01*
X205000000Y-44175000D01*
X206250000Y-44175000D01*
X206285894Y-44172647D01*
X206415304Y-44155610D01*
X206484648Y-44137030D01*
X206605238Y-44087080D01*
X206667411Y-44051184D01*
X206770964Y-43971724D01*
X206800001Y-43942687D01*
X206800000Y-77585330D01*
X206756691Y-78027035D01*
X206632670Y-78437808D01*
X206431229Y-78816664D01*
X206160032Y-79149184D01*
X205829420Y-79422690D01*
X205451974Y-79626774D01*
X205042083Y-79753656D01*
X204601202Y-79799994D01*
X204599523Y-79800000D01*
X161414670Y-79800000D01*
X160972965Y-79756691D01*
X160562192Y-79632670D01*
X160183336Y-79431229D01*
X159850816Y-79160032D01*
X159577310Y-78829420D01*
X159373226Y-78451974D01*
X159246344Y-78042083D01*
X159200006Y-77601202D01*
X159200000Y-77599523D01*
X159200000Y-74214669D01*
X159205220Y-74161433D01*
X159216420Y-74124336D01*
X159234613Y-74090120D01*
X159259106Y-74060088D01*
X159288969Y-74035384D01*
X159323053Y-74016954D01*
X159360073Y-74005494D01*
X159412350Y-74000000D01*
X171414733Y-74000000D01*
X171427603Y-73998732D01*
X171430680Y-73998754D01*
X171434849Y-73998345D01*
X171531898Y-73988145D01*
X171558553Y-73982673D01*
X171585241Y-73977583D01*
X171589251Y-73976372D01*
X171682470Y-73947516D01*
X171707541Y-73936977D01*
X171732748Y-73926793D01*
X171736447Y-73924826D01*
X171822284Y-73878413D01*
X171844848Y-73863194D01*
X171867577Y-73848320D01*
X171870824Y-73845673D01*
X171946013Y-73783471D01*
X171965183Y-73764167D01*
X171984597Y-73745156D01*
X171987267Y-73741928D01*
X172048943Y-73666307D01*
X172063999Y-73643646D01*
X172079354Y-73621221D01*
X172081346Y-73617536D01*
X172127158Y-73531375D01*
X172137520Y-73506236D01*
X172148230Y-73481248D01*
X172149466Y-73477253D01*
X172149470Y-73477243D01*
X172149472Y-73477232D01*
X172177673Y-73383828D01*
X172182951Y-73357173D01*
X172188609Y-73330557D01*
X172189046Y-73326391D01*
X172198568Y-73229273D01*
X172200000Y-73214733D01*
X172200000Y-48585267D01*
X172198732Y-48572397D01*
X172198754Y-48569320D01*
X172198345Y-48565151D01*
X172188145Y-48468103D01*
X172182675Y-48441454D01*
X172177583Y-48414759D01*
X172176372Y-48410749D01*
X172147516Y-48317530D01*
X172136982Y-48292470D01*
X172126793Y-48267252D01*
X172124826Y-48263553D01*
X172078413Y-48177715D01*
X172063194Y-48155151D01*
X172048320Y-48132422D01*
X172045674Y-48129178D01*
X172045673Y-48129176D01*
X172045667Y-48129170D01*
X171983471Y-48053987D01*
X171964147Y-48034798D01*
X171945155Y-48015403D01*
X171941928Y-48012733D01*
X171866307Y-47951057D01*
X171843646Y-47936001D01*
X171821221Y-47920646D01*
X171817536Y-47918654D01*
X171731375Y-47872842D01*
X171706236Y-47862480D01*
X171681248Y-47851770D01*
X171677253Y-47850534D01*
X171677243Y-47850530D01*
X171677232Y-47850528D01*
X171583828Y-47822327D01*
X171557180Y-47817050D01*
X171530557Y-47811391D01*
X171526397Y-47810955D01*
X171526394Y-47810954D01*
X171526391Y-47810954D01*
X171429274Y-47801432D01*
X171429273Y-47801432D01*
X171414733Y-47800000D01*
X167514669Y-47800000D01*
X167461432Y-47794780D01*
X167424336Y-47783580D01*
X167390120Y-47765387D01*
X167360086Y-47740892D01*
X167335385Y-47711033D01*
X167316953Y-47676945D01*
X167305494Y-47639927D01*
X167300000Y-47587651D01*
X167300000Y-42285267D01*
X167298732Y-42272397D01*
X167298754Y-42269320D01*
X167298345Y-42265151D01*
X167288145Y-42168103D01*
X167282675Y-42141454D01*
X167277583Y-42114759D01*
X167276372Y-42110749D01*
X167247516Y-42017530D01*
X167236982Y-41992470D01*
X167226793Y-41967252D01*
X167224826Y-41963553D01*
X167178413Y-41877715D01*
X167163194Y-41855151D01*
X167148320Y-41832422D01*
X167145674Y-41829178D01*
X167145673Y-41829176D01*
X167145667Y-41829170D01*
X167083471Y-41753987D01*
X167064147Y-41734798D01*
X167045155Y-41715403D01*
X167041928Y-41712733D01*
X166966307Y-41651057D01*
X166943646Y-41636001D01*
X166921221Y-41620646D01*
X166917536Y-41618654D01*
X166831375Y-41572842D01*
X166806236Y-41562480D01*
X166781248Y-41551770D01*
X166777253Y-41550534D01*
X166777243Y-41550530D01*
X166777232Y-41550528D01*
X166683828Y-41522327D01*
X166657180Y-41517050D01*
X166630557Y-41511391D01*
X166626397Y-41510955D01*
X166626394Y-41510954D01*
X166626391Y-41510954D01*
X166529274Y-41501432D01*
X166529273Y-41501432D01*
X166514733Y-41500000D01*
X159414669Y-41500000D01*
X159361432Y-41494780D01*
X159324336Y-41483580D01*
X159290120Y-41465387D01*
X159260086Y-41440892D01*
X159235385Y-41411033D01*
X159216953Y-41376945D01*
X159205494Y-41339927D01*
X159200000Y-41287651D01*
X159200000Y-37679197D01*
X166645000Y-37679197D01*
X166645000Y-37900803D01*
X166688233Y-38118150D01*
X166773038Y-38322887D01*
X166896156Y-38507145D01*
X167052855Y-38663844D01*
X167237113Y-38786962D01*
X167441850Y-38871767D01*
X167659197Y-38915000D01*
X167880803Y-38915000D01*
X168098150Y-38871767D01*
X168302887Y-38786962D01*
X168487145Y-38663844D01*
X168643844Y-38507145D01*
X168766962Y-38322887D01*
X168851767Y-38118150D01*
X168895000Y-37900803D01*
X168895000Y-37679197D01*
X169185000Y-37679197D01*
X169185000Y-37900803D01*
X169228233Y-38118150D01*
X169313038Y-38322887D01*
X169436156Y-38507145D01*
X169592855Y-38663844D01*
X169777113Y-38786962D01*
X169981850Y-38871767D01*
X170199197Y-38915000D01*
X170420803Y-38915000D01*
X170638150Y-38871767D01*
X170842887Y-38786962D01*
X171027145Y-38663844D01*
X171183844Y-38507145D01*
X171306962Y-38322887D01*
X171391767Y-38118150D01*
X171435000Y-37900803D01*
X171435000Y-37679197D01*
X171725000Y-37679197D01*
X171725000Y-37900803D01*
X171768233Y-38118150D01*
X171853038Y-38322887D01*
X171976156Y-38507145D01*
X172132855Y-38663844D01*
X172317113Y-38786962D01*
X172521850Y-38871767D01*
X172739197Y-38915000D01*
X172960803Y-38915000D01*
X173178150Y-38871767D01*
X173382887Y-38786962D01*
X173567145Y-38663844D01*
X173723844Y-38507145D01*
X173846962Y-38322887D01*
X173927367Y-38128771D01*
X174369766Y-38128771D01*
X174455460Y-38321299D01*
X174577068Y-38493410D01*
X174729917Y-38638489D01*
X174908132Y-38750961D01*
X175051231Y-38810225D01*
X175215000Y-38793607D01*
X175215000Y-37965000D01*
X174385581Y-37965000D01*
X174369766Y-38128771D01*
X173927367Y-38128771D01*
X173931767Y-38118150D01*
X173975000Y-37900803D01*
X173975000Y-37679197D01*
X173931767Y-37461850D01*
X173927368Y-37451229D01*
X174369766Y-37451229D01*
X174385581Y-37615000D01*
X175215000Y-37615000D01*
X175215000Y-36786393D01*
X175051231Y-36769775D01*
X174908132Y-36829039D01*
X174729917Y-36941511D01*
X174577068Y-37086590D01*
X174455460Y-37258701D01*
X174369766Y-37451229D01*
X173927368Y-37451229D01*
X173846962Y-37257113D01*
X173723844Y-37072855D01*
X173567145Y-36916156D01*
X173382887Y-36793038D01*
X173178150Y-36708233D01*
X172960803Y-36665000D01*
X172739197Y-36665000D01*
X172521850Y-36708233D01*
X172317113Y-36793038D01*
X172132855Y-36916156D01*
X171976156Y-37072855D01*
X171853038Y-37257113D01*
X171768233Y-37461850D01*
X171725000Y-37679197D01*
X171435000Y-37679197D01*
X171391767Y-37461850D01*
X171306962Y-37257113D01*
X171183844Y-37072855D01*
X171027145Y-36916156D01*
X170842887Y-36793038D01*
X170638150Y-36708233D01*
X170420803Y-36665000D01*
X170199197Y-36665000D01*
X169981850Y-36708233D01*
X169777113Y-36793038D01*
X169592855Y-36916156D01*
X169436156Y-37072855D01*
X169313038Y-37257113D01*
X169228233Y-37461850D01*
X169185000Y-37679197D01*
X168895000Y-37679197D01*
X168851767Y-37461850D01*
X168766962Y-37257113D01*
X168643844Y-37072855D01*
X168487145Y-36916156D01*
X168302887Y-36793038D01*
X168098150Y-36708233D01*
X167880803Y-36665000D01*
X167659197Y-36665000D01*
X167441850Y-36708233D01*
X167237113Y-36793038D01*
X167052855Y-36916156D01*
X166896156Y-37072855D01*
X166773038Y-37257113D01*
X166688233Y-37461850D01*
X166645000Y-37679197D01*
X159200000Y-37679197D01*
X159200000Y-36414670D01*
X159243309Y-35972967D01*
X159359304Y-35588771D01*
X166749766Y-35588771D01*
X166835460Y-35781299D01*
X166957068Y-35953410D01*
X167109917Y-36098489D01*
X167288132Y-36210961D01*
X167431231Y-36270225D01*
X167595000Y-36253607D01*
X167595000Y-35425000D01*
X167945000Y-35425000D01*
X167945000Y-36253607D01*
X168108769Y-36270225D01*
X168251868Y-36210961D01*
X168430083Y-36098489D01*
X168582932Y-35953410D01*
X168704540Y-35781299D01*
X168790234Y-35588771D01*
X168774419Y-35425000D01*
X167945000Y-35425000D01*
X167595000Y-35425000D01*
X166765581Y-35425000D01*
X166749766Y-35588771D01*
X159359304Y-35588771D01*
X159367330Y-35562190D01*
X159568769Y-35183339D01*
X159839966Y-34850817D01*
X160170579Y-34577311D01*
X160548023Y-34373228D01*
X160957917Y-34246344D01*
X161398798Y-34200006D01*
X161400476Y-34200000D01*
X167594998Y-34200000D01*
X167594998Y-34246393D01*
%TA.AperFunction,Conductor*%
D20*
G36*
X167594998Y-34246393D02*
G01*
X167431231Y-34229775D01*
X167288132Y-34289039D01*
X167109917Y-34401511D01*
X166957068Y-34546590D01*
X166835460Y-34718701D01*
X166749766Y-34911229D01*
X166765581Y-35075000D01*
X167595000Y-35075000D01*
X167595000Y-35055000D01*
X167945000Y-35055000D01*
X167945000Y-35075000D01*
X168774419Y-35075000D01*
X168790234Y-34911229D01*
X168704540Y-34718701D01*
X168582932Y-34546590D01*
X168430083Y-34401511D01*
X168251868Y-34289039D01*
X168108769Y-34229775D01*
X167945002Y-34246393D01*
X167945002Y-34200000D01*
X169905158Y-34200000D01*
X169777113Y-34253038D01*
X169592855Y-34376156D01*
X169436156Y-34532855D01*
X169313038Y-34717113D01*
X169228233Y-34921850D01*
X169185000Y-35139197D01*
X169185000Y-35360803D01*
X169228233Y-35578150D01*
X169313038Y-35782887D01*
X169436156Y-35967145D01*
X169592855Y-36123844D01*
X169777113Y-36246962D01*
X169981850Y-36331767D01*
X170199197Y-36375000D01*
X170420803Y-36375000D01*
X170638150Y-36331767D01*
X170842887Y-36246962D01*
X171027145Y-36123844D01*
X171183844Y-35967145D01*
X171306962Y-35782887D01*
X171391767Y-35578150D01*
X171435000Y-35360803D01*
X171435000Y-35139197D01*
X171391767Y-34921850D01*
X171306962Y-34717113D01*
X171183844Y-34532855D01*
X171027145Y-34376156D01*
X170842887Y-34253038D01*
X170714842Y-34200000D01*
X172445158Y-34200000D01*
X172317113Y-34253038D01*
X172132855Y-34376156D01*
X171976156Y-34532855D01*
X171853038Y-34717113D01*
X171768233Y-34921850D01*
X171725000Y-35139197D01*
X171725000Y-35360803D01*
X171768233Y-35578150D01*
X171853038Y-35782887D01*
X171976156Y-35967145D01*
X172132855Y-36123844D01*
X172317113Y-36246962D01*
X172521850Y-36331767D01*
X172739197Y-36375000D01*
X172960803Y-36375000D01*
X173178150Y-36331767D01*
X173382887Y-36246962D01*
X173567145Y-36123844D01*
X173723844Y-35967145D01*
X173846962Y-35782887D01*
X173931767Y-35578150D01*
X173975000Y-35360803D01*
X173975000Y-35139197D01*
X173931767Y-34921850D01*
X173846962Y-34717113D01*
X173723844Y-34532855D01*
X173567145Y-34376156D01*
X173382887Y-34253038D01*
X173254842Y-34200000D01*
X174985158Y-34200000D01*
X174857113Y-34253038D01*
X174672855Y-34376156D01*
X174516156Y-34532855D01*
X174393038Y-34717113D01*
X174308233Y-34921850D01*
X174265000Y-35139197D01*
X174265000Y-35360803D01*
X174308233Y-35578150D01*
X174393038Y-35782887D01*
X174516156Y-35967145D01*
X174672855Y-36123844D01*
X174857113Y-36246962D01*
X175061850Y-36331767D01*
X175279197Y-36375000D01*
X175500803Y-36375000D01*
X175718150Y-36331767D01*
X175922887Y-36246962D01*
X176107145Y-36123844D01*
X176263844Y-35967145D01*
X176386962Y-35782887D01*
X176471767Y-35578150D01*
X176515000Y-35360803D01*
X176515000Y-35139197D01*
X176471767Y-34921850D01*
X176386962Y-34717113D01*
X176263844Y-34532855D01*
X176107145Y-34376156D01*
X175922887Y-34253038D01*
X175794842Y-34200000D01*
X177525158Y-34200000D01*
X177397113Y-34253038D01*
X177212855Y-34376156D01*
X177056156Y-34532855D01*
X176933038Y-34717113D01*
X176848233Y-34921850D01*
X176805000Y-35139197D01*
X176805000Y-35360803D01*
X176848233Y-35578150D01*
X176892922Y-35686038D01*
X176414243Y-36164717D01*
X176398026Y-36178026D01*
X176344916Y-36242741D01*
X176305452Y-36316574D01*
X176288936Y-36371020D01*
X176285758Y-36381498D01*
X176281150Y-36396687D01*
X176275000Y-36459127D01*
X176275000Y-36459133D01*
X176272945Y-36480000D01*
X176275000Y-36500867D01*
X176275000Y-37188588D01*
X176202932Y-37086590D01*
X176050083Y-36941511D01*
X175871868Y-36829039D01*
X175728769Y-36769775D01*
X175565000Y-36786393D01*
X175565000Y-37615000D01*
X175585000Y-37615000D01*
X175585000Y-37965000D01*
X175565000Y-37965000D01*
X175565000Y-38793607D01*
X175728769Y-38810225D01*
X175871868Y-38750961D01*
X176050083Y-38638489D01*
X176202932Y-38493410D01*
X176275001Y-38391412D01*
X176275001Y-39179123D01*
X176272945Y-39200000D01*
X176280529Y-39277009D01*
X173832539Y-41725000D01*
X172525780Y-41725000D01*
X172500000Y-41722461D01*
X172474220Y-41725000D01*
X172474212Y-41725000D01*
X172397082Y-41732597D01*
X172298119Y-41762617D01*
X172206914Y-41811367D01*
X172179995Y-41833459D01*
X172147003Y-41860534D01*
X172146999Y-41860538D01*
X172126973Y-41876973D01*
X172110538Y-41896999D01*
X171647009Y-42360530D01*
X171626973Y-42376973D01*
X171561367Y-42456914D01*
X171512617Y-42548120D01*
X171482597Y-42647083D01*
X171475000Y-42724213D01*
X171475000Y-42724220D01*
X171472461Y-42750000D01*
X171475000Y-42775780D01*
X171475001Y-46274210D01*
X171472461Y-46300000D01*
X171482597Y-46402917D01*
X171512617Y-46501880D01*
X171561367Y-46593085D01*
X171600476Y-46640739D01*
X171626974Y-46673027D01*
X171647005Y-46689466D01*
X173975000Y-49017462D01*
X173975001Y-72457536D01*
X173570000Y-72862538D01*
X173502635Y-72890442D01*
X173408459Y-72953368D01*
X173328368Y-73033459D01*
X173265442Y-73127635D01*
X173222097Y-73232279D01*
X173200000Y-73343367D01*
X173200000Y-73456633D01*
X173222097Y-73567721D01*
X173265442Y-73672365D01*
X173328368Y-73766541D01*
X173408459Y-73846632D01*
X173502635Y-73909558D01*
X173590153Y-73945809D01*
X173460962Y-74075000D01*
X168770874Y-74075000D01*
X168750000Y-74072944D01*
X168666686Y-74081150D01*
X168586573Y-74105452D01*
X168512740Y-74144916D01*
X168448026Y-74198026D01*
X168434716Y-74214244D01*
X167464244Y-75184716D01*
X167448026Y-75198026D01*
X167394916Y-75262741D01*
X167355452Y-75336574D01*
X167331150Y-75416687D01*
X167325000Y-75479127D01*
X167325000Y-75479133D01*
X167322945Y-75500000D01*
X167325000Y-75520867D01*
X167325001Y-77323670D01*
X166900000Y-77323670D01*
X166846091Y-77328980D01*
X166794253Y-77344704D01*
X166746479Y-77370240D01*
X166704605Y-77404605D01*
X166670240Y-77446479D01*
X166644704Y-77494253D01*
X166628980Y-77546091D01*
X166623670Y-77600000D01*
X166623670Y-79300000D01*
X166628980Y-79353909D01*
X166644704Y-79405747D01*
X166670240Y-79453521D01*
X166704605Y-79495395D01*
X166746479Y-79529760D01*
X166794253Y-79555296D01*
X166846091Y-79571020D01*
X166900000Y-79576330D01*
X168600000Y-79576330D01*
X168653909Y-79571020D01*
X168705747Y-79555296D01*
X168753521Y-79529760D01*
X168795395Y-79495395D01*
X168829760Y-79453521D01*
X168855296Y-79405747D01*
X168871020Y-79353909D01*
X168876330Y-79300000D01*
X168876330Y-78788771D01*
X169269766Y-78788771D01*
X169355460Y-78981299D01*
X169477068Y-79153410D01*
X169629917Y-79298489D01*
X169808132Y-79410961D01*
X169951231Y-79470225D01*
X170115000Y-79453607D01*
X170115000Y-78625000D01*
X170465000Y-78625000D01*
X170465000Y-79453607D01*
X170628769Y-79470225D01*
X170771868Y-79410961D01*
X170950083Y-79298489D01*
X171102932Y-79153410D01*
X171224540Y-78981299D01*
X171310234Y-78788771D01*
X171294419Y-78625000D01*
X170465000Y-78625000D01*
X170115000Y-78625000D01*
X169285581Y-78625000D01*
X169269766Y-78788771D01*
X168876330Y-78788771D01*
X168876330Y-78339197D01*
X171705000Y-78339197D01*
X171705000Y-78560803D01*
X171748233Y-78778150D01*
X171833038Y-78982887D01*
X171956156Y-79167145D01*
X172112855Y-79323844D01*
X172297113Y-79446962D01*
X172501850Y-79531767D01*
X172719197Y-79575000D01*
X172940803Y-79575000D01*
X173158150Y-79531767D01*
X173362887Y-79446962D01*
X173547145Y-79323844D01*
X173703844Y-79167145D01*
X173826962Y-78982887D01*
X173911767Y-78778150D01*
X173955000Y-78560803D01*
X173955000Y-78339197D01*
X174245000Y-78339197D01*
X174245000Y-78560803D01*
X174288233Y-78778150D01*
X174373038Y-78982887D01*
X174496156Y-79167145D01*
X174652855Y-79323844D01*
X174837113Y-79446962D01*
X175041850Y-79531767D01*
X175259197Y-79575000D01*
X175480803Y-79575000D01*
X175698150Y-79531767D01*
X175902887Y-79446962D01*
X176087145Y-79323844D01*
X176243844Y-79167145D01*
X176366962Y-78982887D01*
X176451767Y-78778150D01*
X176495000Y-78560803D01*
X176495000Y-78339197D01*
X176785000Y-78339197D01*
X176785000Y-78560803D01*
X176828233Y-78778150D01*
X176913038Y-78982887D01*
X177036156Y-79167145D01*
X177192855Y-79323844D01*
X177377113Y-79446962D01*
X177581850Y-79531767D01*
X177799197Y-79575000D01*
X178020803Y-79575000D01*
X178238150Y-79531767D01*
X178442887Y-79446962D01*
X178627145Y-79323844D01*
X178783844Y-79167145D01*
X178906962Y-78982887D01*
X178991767Y-78778150D01*
X179035000Y-78560803D01*
X179035000Y-78339197D01*
X179325000Y-78339197D01*
X179325000Y-78560803D01*
X179368233Y-78778150D01*
X179453038Y-78982887D01*
X179576156Y-79167145D01*
X179732855Y-79323844D01*
X179917113Y-79446962D01*
X180121850Y-79531767D01*
X180339197Y-79575000D01*
X180560803Y-79575000D01*
X180778150Y-79531767D01*
X180982887Y-79446962D01*
X181167145Y-79323844D01*
X181323844Y-79167145D01*
X181446962Y-78982887D01*
X181531767Y-78778150D01*
X181575000Y-78560803D01*
X181575000Y-78339197D01*
X181865000Y-78339197D01*
X181865000Y-78560803D01*
X181908233Y-78778150D01*
X181993038Y-78982887D01*
X182116156Y-79167145D01*
X182272855Y-79323844D01*
X182457113Y-79446962D01*
X182661850Y-79531767D01*
X182879197Y-79575000D01*
X183100803Y-79575000D01*
X183318150Y-79531767D01*
X183522887Y-79446962D01*
X183707145Y-79323844D01*
X183863844Y-79167145D01*
X183986962Y-78982887D01*
X184071767Y-78778150D01*
X184115000Y-78560803D01*
X184115000Y-78339197D01*
X184405000Y-78339197D01*
X184405000Y-78560803D01*
X184448233Y-78778150D01*
X184533038Y-78982887D01*
X184656156Y-79167145D01*
X184812855Y-79323844D01*
X184997113Y-79446962D01*
X185201850Y-79531767D01*
X185419197Y-79575000D01*
X185640803Y-79575000D01*
X185858150Y-79531767D01*
X186062887Y-79446962D01*
X186247145Y-79323844D01*
X186403844Y-79167145D01*
X186526962Y-78982887D01*
X186611767Y-78778150D01*
X186655000Y-78560803D01*
X186655000Y-78339197D01*
X186945000Y-78339197D01*
X186945000Y-78560803D01*
X186988233Y-78778150D01*
X187073038Y-78982887D01*
X187196156Y-79167145D01*
X187352855Y-79323844D01*
X187537113Y-79446962D01*
X187741850Y-79531767D01*
X187959197Y-79575000D01*
X188180803Y-79575000D01*
X188398150Y-79531767D01*
X188602887Y-79446962D01*
X188787145Y-79323844D01*
X188943844Y-79167145D01*
X189066962Y-78982887D01*
X189151767Y-78778150D01*
X189195000Y-78560803D01*
X189195000Y-78339197D01*
X189485000Y-78339197D01*
X189485000Y-78560803D01*
X189528233Y-78778150D01*
X189613038Y-78982887D01*
X189736156Y-79167145D01*
X189892855Y-79323844D01*
X190077113Y-79446962D01*
X190281850Y-79531767D01*
X190499197Y-79575000D01*
X190720803Y-79575000D01*
X190938150Y-79531767D01*
X191142887Y-79446962D01*
X191327145Y-79323844D01*
X191483844Y-79167145D01*
X191606962Y-78982887D01*
X191691767Y-78778150D01*
X191735000Y-78560803D01*
X191735000Y-78339197D01*
X192025000Y-78339197D01*
X192025000Y-78560803D01*
X192068233Y-78778150D01*
X192153038Y-78982887D01*
X192276156Y-79167145D01*
X192432855Y-79323844D01*
X192617113Y-79446962D01*
X192821850Y-79531767D01*
X193039197Y-79575000D01*
X193260803Y-79575000D01*
X193478150Y-79531767D01*
X193682887Y-79446962D01*
X193867145Y-79323844D01*
X194023844Y-79167145D01*
X194146962Y-78982887D01*
X194231767Y-78778150D01*
X194275000Y-78560803D01*
X194275000Y-78339197D01*
X194565000Y-78339197D01*
X194565000Y-78560803D01*
X194608233Y-78778150D01*
X194693038Y-78982887D01*
X194816156Y-79167145D01*
X194972855Y-79323844D01*
X195157113Y-79446962D01*
X195361850Y-79531767D01*
X195579197Y-79575000D01*
X195800803Y-79575000D01*
X196018150Y-79531767D01*
X196222887Y-79446962D01*
X196407145Y-79323844D01*
X196563844Y-79167145D01*
X196686962Y-78982887D01*
X196771767Y-78778150D01*
X196815000Y-78560803D01*
X196815000Y-78339197D01*
X197105000Y-78339197D01*
X197105000Y-78560803D01*
X197148233Y-78778150D01*
X197233038Y-78982887D01*
X197356156Y-79167145D01*
X197512855Y-79323844D01*
X197697113Y-79446962D01*
X197901850Y-79531767D01*
X198119197Y-79575000D01*
X198340803Y-79575000D01*
X198558150Y-79531767D01*
X198762887Y-79446962D01*
X198947145Y-79323844D01*
X199103844Y-79167145D01*
X199226962Y-78982887D01*
X199311767Y-78778150D01*
X199355000Y-78560803D01*
X199355000Y-78339197D01*
X199311767Y-78121850D01*
X199226962Y-77917113D01*
X199103844Y-77732855D01*
X198947145Y-77576156D01*
X198762887Y-77453038D01*
X198558150Y-77368233D01*
X198340803Y-77325000D01*
X198119197Y-77325000D01*
X197901850Y-77368233D01*
X197697113Y-77453038D01*
X197512855Y-77576156D01*
X197356156Y-77732855D01*
X197233038Y-77917113D01*
X197148233Y-78121850D01*
X197105000Y-78339197D01*
X196815000Y-78339197D01*
X196771767Y-78121850D01*
X196686962Y-77917113D01*
X196563844Y-77732855D01*
X196407145Y-77576156D01*
X196222887Y-77453038D01*
X196018150Y-77368233D01*
X195800803Y-77325000D01*
X195579197Y-77325000D01*
X195361850Y-77368233D01*
X195157113Y-77453038D01*
X194972855Y-77576156D01*
X194816156Y-77732855D01*
X194693038Y-77917113D01*
X194608233Y-78121850D01*
X194565000Y-78339197D01*
X194275000Y-78339197D01*
X194231767Y-78121850D01*
X194146962Y-77917113D01*
X194023844Y-77732855D01*
X193867145Y-77576156D01*
X193682887Y-77453038D01*
X193478150Y-77368233D01*
X193260803Y-77325000D01*
X193039197Y-77325000D01*
X192821850Y-77368233D01*
X192617113Y-77453038D01*
X192432855Y-77576156D01*
X192276156Y-77732855D01*
X192153038Y-77917113D01*
X192068233Y-78121850D01*
X192025000Y-78339197D01*
X191735000Y-78339197D01*
X191691767Y-78121850D01*
X191606962Y-77917113D01*
X191483844Y-77732855D01*
X191327145Y-77576156D01*
X191142887Y-77453038D01*
X190938150Y-77368233D01*
X190720803Y-77325000D01*
X190499197Y-77325000D01*
X190281850Y-77368233D01*
X190077113Y-77453038D01*
X189892855Y-77576156D01*
X189736156Y-77732855D01*
X189613038Y-77917113D01*
X189528233Y-78121850D01*
X189485000Y-78339197D01*
X189195000Y-78339197D01*
X189151767Y-78121850D01*
X189066962Y-77917113D01*
X188943844Y-77732855D01*
X188787145Y-77576156D01*
X188602887Y-77453038D01*
X188398150Y-77368233D01*
X188180803Y-77325000D01*
X187959197Y-77325000D01*
X187741850Y-77368233D01*
X187537113Y-77453038D01*
X187352855Y-77576156D01*
X187196156Y-77732855D01*
X187073038Y-77917113D01*
X186988233Y-78121850D01*
X186945000Y-78339197D01*
X186655000Y-78339197D01*
X186611767Y-78121850D01*
X186526962Y-77917113D01*
X186403844Y-77732855D01*
X186247145Y-77576156D01*
X186062887Y-77453038D01*
X185858150Y-77368233D01*
X185640803Y-77325000D01*
X185419197Y-77325000D01*
X185201850Y-77368233D01*
X184997113Y-77453038D01*
X184812855Y-77576156D01*
X184656156Y-77732855D01*
X184533038Y-77917113D01*
X184448233Y-78121850D01*
X184405000Y-78339197D01*
X184115000Y-78339197D01*
X184071767Y-78121850D01*
X183986962Y-77917113D01*
X183863844Y-77732855D01*
X183707145Y-77576156D01*
X183522887Y-77453038D01*
X183318150Y-77368233D01*
X183100803Y-77325000D01*
X182879197Y-77325000D01*
X182661850Y-77368233D01*
X182457113Y-77453038D01*
X182272855Y-77576156D01*
X182116156Y-77732855D01*
X181993038Y-77917113D01*
X181908233Y-78121850D01*
X181865000Y-78339197D01*
X181575000Y-78339197D01*
X181531767Y-78121850D01*
X181446962Y-77917113D01*
X181323844Y-77732855D01*
X181167145Y-77576156D01*
X180982887Y-77453038D01*
X180778150Y-77368233D01*
X180560803Y-77325000D01*
X180339197Y-77325000D01*
X180121850Y-77368233D01*
X179917113Y-77453038D01*
X179732855Y-77576156D01*
X179576156Y-77732855D01*
X179453038Y-77917113D01*
X179368233Y-78121850D01*
X179325000Y-78339197D01*
X179035000Y-78339197D01*
X178991767Y-78121850D01*
X178906962Y-77917113D01*
X178783844Y-77732855D01*
X178627145Y-77576156D01*
X178442887Y-77453038D01*
X178238150Y-77368233D01*
X178020803Y-77325000D01*
X177799197Y-77325000D01*
X177581850Y-77368233D01*
X177377113Y-77453038D01*
X177192855Y-77576156D01*
X177036156Y-77732855D01*
X176913038Y-77917113D01*
X176828233Y-78121850D01*
X176785000Y-78339197D01*
X176495000Y-78339197D01*
X176451767Y-78121850D01*
X176366962Y-77917113D01*
X176243844Y-77732855D01*
X176087145Y-77576156D01*
X175902887Y-77453038D01*
X175698150Y-77368233D01*
X175480803Y-77325000D01*
X175259197Y-77325000D01*
X175041850Y-77368233D01*
X174837113Y-77453038D01*
X174652855Y-77576156D01*
X174496156Y-77732855D01*
X174373038Y-77917113D01*
X174288233Y-78121850D01*
X174245000Y-78339197D01*
X173955000Y-78339197D01*
X173911767Y-78121850D01*
X173826962Y-77917113D01*
X173703844Y-77732855D01*
X173547145Y-77576156D01*
X173362887Y-77453038D01*
X173158150Y-77368233D01*
X172940803Y-77325000D01*
X172719197Y-77325000D01*
X172501850Y-77368233D01*
X172297113Y-77453038D01*
X172112855Y-77576156D01*
X171956156Y-77732855D01*
X171833038Y-77917113D01*
X171748233Y-78121850D01*
X171705000Y-78339197D01*
X168876330Y-78339197D01*
X168876330Y-78111229D01*
X169269766Y-78111229D01*
X169285581Y-78275000D01*
X170115000Y-78275000D01*
X170115000Y-77446393D01*
X170465000Y-77446393D01*
X170465000Y-78275000D01*
X171294419Y-78275000D01*
X171310234Y-78111229D01*
X171224540Y-77918701D01*
X171102932Y-77746590D01*
X170950083Y-77601511D01*
X170771868Y-77489039D01*
X170628769Y-77429775D01*
X170465000Y-77446393D01*
X170115000Y-77446393D01*
X169951231Y-77429775D01*
X169808132Y-77489039D01*
X169629917Y-77601511D01*
X169477068Y-77746590D01*
X169355460Y-77918701D01*
X169269766Y-78111229D01*
X168876330Y-78111229D01*
X168876330Y-77600000D01*
X168871020Y-77546091D01*
X168855296Y-77494253D01*
X168829760Y-77446479D01*
X168795395Y-77404605D01*
X168753521Y-77370240D01*
X168705747Y-77344704D01*
X168653909Y-77328980D01*
X168600000Y-77323670D01*
X168175000Y-77323670D01*
X168175000Y-75676040D01*
X168926040Y-74925000D01*
X173616135Y-74925000D01*
X173637002Y-74927055D01*
X173657869Y-74925000D01*
X173657876Y-74925000D01*
X173720316Y-74918850D01*
X173800429Y-74894548D01*
X173874262Y-74855084D01*
X173938976Y-74801974D01*
X173952286Y-74785756D01*
X174044675Y-74693367D01*
X182425000Y-74693367D01*
X182425000Y-74806633D01*
X182447097Y-74917721D01*
X182490442Y-75022365D01*
X182553368Y-75116541D01*
X182633459Y-75196632D01*
X182727635Y-75259558D01*
X182832279Y-75302903D01*
X182943367Y-75325000D01*
X183056633Y-75325000D01*
X183167721Y-75302903D01*
X183272365Y-75259558D01*
X183366541Y-75196632D01*
X183446632Y-75116541D01*
X183509558Y-75022365D01*
X183552903Y-74917721D01*
X183575000Y-74806633D01*
X183575000Y-74693367D01*
X183552903Y-74582279D01*
X183509558Y-74477635D01*
X183446632Y-74383459D01*
X183366541Y-74303368D01*
X183272365Y-74240442D01*
X183167721Y-74197097D01*
X183056633Y-74175000D01*
X182943367Y-74175000D01*
X182832279Y-74197097D01*
X182727635Y-74240442D01*
X182633459Y-74303368D01*
X182553368Y-74383459D01*
X182490442Y-74477635D01*
X182447097Y-74582279D01*
X182425000Y-74693367D01*
X174044675Y-74693367D01*
X175535756Y-73202286D01*
X175551974Y-73188976D01*
X175605084Y-73124262D01*
X175644548Y-73050429D01*
X175668850Y-72970316D01*
X175675000Y-72907876D01*
X175675000Y-72907869D01*
X175677055Y-72887002D01*
X175675000Y-72866135D01*
X175675000Y-69724389D01*
X175727635Y-69759558D01*
X175832279Y-69802903D01*
X175943367Y-69825000D01*
X176056633Y-69825000D01*
X176167721Y-69802903D01*
X176272365Y-69759558D01*
X176366541Y-69696632D01*
X176446632Y-69616541D01*
X176509558Y-69522365D01*
X176552903Y-69417721D01*
X176575000Y-69306633D01*
X176575000Y-69193367D01*
X176552903Y-69082279D01*
X176509558Y-68977635D01*
X176446632Y-68883459D01*
X176366541Y-68803368D01*
X176272365Y-68740442D01*
X176167721Y-68697097D01*
X176056633Y-68675000D01*
X175943367Y-68675000D01*
X175832279Y-68697097D01*
X175727635Y-68740442D01*
X175675000Y-68775611D01*
X175675000Y-64693367D01*
X193425000Y-64693367D01*
X193425000Y-64806633D01*
X193447097Y-64917721D01*
X193490442Y-65022365D01*
X193553368Y-65116541D01*
X193633459Y-65196632D01*
X193727635Y-65259558D01*
X193832279Y-65302903D01*
X193943367Y-65325000D01*
X194056633Y-65325000D01*
X194167721Y-65302903D01*
X194272365Y-65259558D01*
X194366541Y-65196632D01*
X194446632Y-65116541D01*
X194509558Y-65022365D01*
X194552903Y-64917721D01*
X194575000Y-64806633D01*
X194575000Y-64693367D01*
X194552903Y-64582279D01*
X194509558Y-64477635D01*
X194446632Y-64383459D01*
X194366541Y-64303368D01*
X194272365Y-64240442D01*
X194167721Y-64197097D01*
X194056633Y-64175000D01*
X193943367Y-64175000D01*
X193832279Y-64197097D01*
X193727635Y-64240442D01*
X193633459Y-64303368D01*
X193553368Y-64383459D01*
X193490442Y-64477635D01*
X193447097Y-64582279D01*
X193425000Y-64693367D01*
X175675000Y-64693367D01*
X175675000Y-60724389D01*
X175727635Y-60759558D01*
X175832279Y-60802903D01*
X175943367Y-60825000D01*
X176056633Y-60825000D01*
X176167721Y-60802903D01*
X176272365Y-60759558D01*
X176366541Y-60696632D01*
X176446632Y-60616541D01*
X176509558Y-60522365D01*
X176552903Y-60417721D01*
X176575000Y-60306633D01*
X176575000Y-60193367D01*
X176552903Y-60082279D01*
X176509558Y-59977635D01*
X176446632Y-59883459D01*
X176366541Y-59803368D01*
X176272365Y-59740442D01*
X176167721Y-59697097D01*
X176056633Y-59675000D01*
X175943367Y-59675000D01*
X175832279Y-59697097D01*
X175727635Y-59740442D01*
X175675000Y-59775611D01*
X175675000Y-56871961D01*
X201400000Y-56871961D01*
X201400000Y-57128039D01*
X201449958Y-57379196D01*
X201547955Y-57615781D01*
X201690224Y-57828702D01*
X201871298Y-58009776D01*
X202084219Y-58152045D01*
X202320804Y-58250042D01*
X202571961Y-58300000D01*
X202828039Y-58300000D01*
X203079196Y-58250042D01*
X203315781Y-58152045D01*
X203528702Y-58009776D01*
X203709776Y-57828702D01*
X203852045Y-57615781D01*
X203950042Y-57379196D01*
X204000000Y-57128039D01*
X204000000Y-56871961D01*
X203950042Y-56620804D01*
X203852045Y-56384219D01*
X203709776Y-56171298D01*
X203528702Y-55990224D01*
X203315781Y-55847955D01*
X203079196Y-55749958D01*
X202828039Y-55700000D01*
X202571961Y-55700000D01*
X202320804Y-55749958D01*
X202084219Y-55847955D01*
X201871298Y-55990224D01*
X201690224Y-56171298D01*
X201547955Y-56384219D01*
X201449958Y-56620804D01*
X201400000Y-56871961D01*
X175675000Y-56871961D01*
X175675000Y-47770866D01*
X175677055Y-47749999D01*
X175675000Y-47729132D01*
X175675000Y-47729126D01*
X175668850Y-47666686D01*
X175644548Y-47586573D01*
X175605084Y-47512740D01*
X175551974Y-47448026D01*
X175535763Y-47434722D01*
X174125000Y-46023960D01*
X174125000Y-44125000D01*
X179579133Y-44125000D01*
X179600000Y-44127055D01*
X179620867Y-44125000D01*
X179620874Y-44125000D01*
X179683314Y-44118850D01*
X179763427Y-44094548D01*
X179837260Y-44055084D01*
X179901974Y-44001974D01*
X179915283Y-43985757D01*
X180876041Y-43025000D01*
X196311827Y-43025000D01*
X196333459Y-43046632D01*
X196427635Y-43109558D01*
X196532279Y-43152903D01*
X196643367Y-43175000D01*
X196756633Y-43175000D01*
X196867721Y-43152903D01*
X196972365Y-43109558D01*
X197066541Y-43046632D01*
X197146632Y-42966541D01*
X197209558Y-42872365D01*
X197252903Y-42767721D01*
X197275000Y-42656633D01*
X197275000Y-42543367D01*
X197252903Y-42432279D01*
X197209558Y-42327635D01*
X197146632Y-42233459D01*
X197088173Y-42175000D01*
X204225000Y-42175000D01*
X204225000Y-43400000D01*
X204227353Y-43435894D01*
X204244390Y-43565304D01*
X204262970Y-43634648D01*
X204312920Y-43755238D01*
X204348816Y-43817411D01*
X204428276Y-43920964D01*
X204479036Y-43971724D01*
X204582589Y-44051184D01*
X204644762Y-44087080D01*
X204765352Y-44137030D01*
X204834696Y-44155610D01*
X204964106Y-44172647D01*
X205000000Y-44175000D01*
X206250000Y-44175000D01*
X206285894Y-44172647D01*
X206415304Y-44155610D01*
X206484648Y-44137030D01*
X206605238Y-44087080D01*
X206667411Y-44051184D01*
X206770964Y-43971724D01*
X206800001Y-43942687D01*
X206800000Y-77585330D01*
X206756691Y-78027035D01*
X206632670Y-78437808D01*
X206431229Y-78816664D01*
X206160032Y-79149184D01*
X205829420Y-79422690D01*
X205451974Y-79626774D01*
X205042083Y-79753656D01*
X204601202Y-79799994D01*
X204599523Y-79800000D01*
X161414670Y-79800000D01*
X160972965Y-79756691D01*
X160562192Y-79632670D01*
X160183336Y-79431229D01*
X159850816Y-79160032D01*
X159577310Y-78829420D01*
X159373226Y-78451974D01*
X159246344Y-78042083D01*
X159200006Y-77601202D01*
X159200000Y-77599523D01*
X159200000Y-74214669D01*
X159205220Y-74161433D01*
X159216420Y-74124336D01*
X159234613Y-74090120D01*
X159259106Y-74060088D01*
X159288969Y-74035384D01*
X159323053Y-74016954D01*
X159360073Y-74005494D01*
X159412350Y-74000000D01*
X171414733Y-74000000D01*
X171427603Y-73998732D01*
X171430680Y-73998754D01*
X171434849Y-73998345D01*
X171531898Y-73988145D01*
X171558553Y-73982673D01*
X171585241Y-73977583D01*
X171589251Y-73976372D01*
X171682470Y-73947516D01*
X171707541Y-73936977D01*
X171732748Y-73926793D01*
X171736447Y-73924826D01*
X171822284Y-73878413D01*
X171844848Y-73863194D01*
X171867577Y-73848320D01*
X171870824Y-73845673D01*
X171946013Y-73783471D01*
X171965183Y-73764167D01*
X171984597Y-73745156D01*
X171987267Y-73741928D01*
X172048943Y-73666307D01*
X172063999Y-73643646D01*
X172079354Y-73621221D01*
X172081346Y-73617536D01*
X172127158Y-73531375D01*
X172137520Y-73506236D01*
X172148230Y-73481248D01*
X172149466Y-73477253D01*
X172149470Y-73477243D01*
X172149472Y-73477232D01*
X172177673Y-73383828D01*
X172182951Y-73357173D01*
X172188609Y-73330557D01*
X172189046Y-73326391D01*
X172198568Y-73229273D01*
X172200000Y-73214733D01*
X172200000Y-48585267D01*
X172198732Y-48572397D01*
X172198754Y-48569320D01*
X172198345Y-48565151D01*
X172188145Y-48468103D01*
X172182675Y-48441454D01*
X172177583Y-48414759D01*
X172176372Y-48410749D01*
X172147516Y-48317530D01*
X172136982Y-48292470D01*
X172126793Y-48267252D01*
X172124826Y-48263553D01*
X172078413Y-48177715D01*
X172063194Y-48155151D01*
X172048320Y-48132422D01*
X172045674Y-48129178D01*
X172045673Y-48129176D01*
X172045667Y-48129170D01*
X171983471Y-48053987D01*
X171964147Y-48034798D01*
X171945155Y-48015403D01*
X171941928Y-48012733D01*
X171866307Y-47951057D01*
X171843646Y-47936001D01*
X171821221Y-47920646D01*
X171817536Y-47918654D01*
X171731375Y-47872842D01*
X171706236Y-47862480D01*
X171681248Y-47851770D01*
X171677253Y-47850534D01*
X171677243Y-47850530D01*
X171677232Y-47850528D01*
X171583828Y-47822327D01*
X171557180Y-47817050D01*
X171530557Y-47811391D01*
X171526397Y-47810955D01*
X171526394Y-47810954D01*
X171526391Y-47810954D01*
X171429274Y-47801432D01*
X171429273Y-47801432D01*
X171414733Y-47800000D01*
X167514669Y-47800000D01*
X167461432Y-47794780D01*
X167424336Y-47783580D01*
X167390120Y-47765387D01*
X167360086Y-47740892D01*
X167335385Y-47711033D01*
X167316953Y-47676945D01*
X167305494Y-47639927D01*
X167300000Y-47587651D01*
X167300000Y-42285267D01*
X167298732Y-42272397D01*
X167298754Y-42269320D01*
X167298345Y-42265151D01*
X167288145Y-42168103D01*
X167282675Y-42141454D01*
X167277583Y-42114759D01*
X167276372Y-42110749D01*
X167247516Y-42017530D01*
X167236982Y-41992470D01*
X167226793Y-41967252D01*
X167224826Y-41963553D01*
X167178413Y-41877715D01*
X167163194Y-41855151D01*
X167148320Y-41832422D01*
X167145674Y-41829178D01*
X167145673Y-41829176D01*
X167145667Y-41829170D01*
X167083471Y-41753987D01*
X167064147Y-41734798D01*
X167045155Y-41715403D01*
X167041928Y-41712733D01*
X166966307Y-41651057D01*
X166943646Y-41636001D01*
X166921221Y-41620646D01*
X166917536Y-41618654D01*
X166831375Y-41572842D01*
X166806236Y-41562480D01*
X166781248Y-41551770D01*
X166777253Y-41550534D01*
X166777243Y-41550530D01*
X166777232Y-41550528D01*
X166683828Y-41522327D01*
X166657180Y-41517050D01*
X166630557Y-41511391D01*
X166626397Y-41510955D01*
X166626394Y-41510954D01*
X166626391Y-41510954D01*
X166529274Y-41501432D01*
X166529273Y-41501432D01*
X166514733Y-41500000D01*
X159414669Y-41500000D01*
X159361432Y-41494780D01*
X159324336Y-41483580D01*
X159290120Y-41465387D01*
X159260086Y-41440892D01*
X159235385Y-41411033D01*
X159216953Y-41376945D01*
X159205494Y-41339927D01*
X159200000Y-41287651D01*
X159200000Y-37679197D01*
X166645000Y-37679197D01*
X166645000Y-37900803D01*
X166688233Y-38118150D01*
X166773038Y-38322887D01*
X166896156Y-38507145D01*
X167052855Y-38663844D01*
X167237113Y-38786962D01*
X167441850Y-38871767D01*
X167659197Y-38915000D01*
X167880803Y-38915000D01*
X168098150Y-38871767D01*
X168302887Y-38786962D01*
X168487145Y-38663844D01*
X168643844Y-38507145D01*
X168766962Y-38322887D01*
X168851767Y-38118150D01*
X168895000Y-37900803D01*
X168895000Y-37679197D01*
X169185000Y-37679197D01*
X169185000Y-37900803D01*
X169228233Y-38118150D01*
X169313038Y-38322887D01*
X169436156Y-38507145D01*
X169592855Y-38663844D01*
X169777113Y-38786962D01*
X169981850Y-38871767D01*
X170199197Y-38915000D01*
X170420803Y-38915000D01*
X170638150Y-38871767D01*
X170842887Y-38786962D01*
X171027145Y-38663844D01*
X171183844Y-38507145D01*
X171306962Y-38322887D01*
X171391767Y-38118150D01*
X171435000Y-37900803D01*
X171435000Y-37679197D01*
X171725000Y-37679197D01*
X171725000Y-37900803D01*
X171768233Y-38118150D01*
X171853038Y-38322887D01*
X171976156Y-38507145D01*
X172132855Y-38663844D01*
X172317113Y-38786962D01*
X172521850Y-38871767D01*
X172739197Y-38915000D01*
X172960803Y-38915000D01*
X173178150Y-38871767D01*
X173382887Y-38786962D01*
X173567145Y-38663844D01*
X173723844Y-38507145D01*
X173846962Y-38322887D01*
X173927367Y-38128771D01*
X174369766Y-38128771D01*
X174455460Y-38321299D01*
X174577068Y-38493410D01*
X174729917Y-38638489D01*
X174908132Y-38750961D01*
X175051231Y-38810225D01*
X175215000Y-38793607D01*
X175215000Y-37965000D01*
X174385581Y-37965000D01*
X174369766Y-38128771D01*
X173927367Y-38128771D01*
X173931767Y-38118150D01*
X173975000Y-37900803D01*
X173975000Y-37679197D01*
X173931767Y-37461850D01*
X173927368Y-37451229D01*
X174369766Y-37451229D01*
X174385581Y-37615000D01*
X175215000Y-37615000D01*
X175215000Y-36786393D01*
X175051231Y-36769775D01*
X174908132Y-36829039D01*
X174729917Y-36941511D01*
X174577068Y-37086590D01*
X174455460Y-37258701D01*
X174369766Y-37451229D01*
X173927368Y-37451229D01*
X173846962Y-37257113D01*
X173723844Y-37072855D01*
X173567145Y-36916156D01*
X173382887Y-36793038D01*
X173178150Y-36708233D01*
X172960803Y-36665000D01*
X172739197Y-36665000D01*
X172521850Y-36708233D01*
X172317113Y-36793038D01*
X172132855Y-36916156D01*
X171976156Y-37072855D01*
X171853038Y-37257113D01*
X171768233Y-37461850D01*
X171725000Y-37679197D01*
X171435000Y-37679197D01*
X171391767Y-37461850D01*
X171306962Y-37257113D01*
X171183844Y-37072855D01*
X171027145Y-36916156D01*
X170842887Y-36793038D01*
X170638150Y-36708233D01*
X170420803Y-36665000D01*
X170199197Y-36665000D01*
X169981850Y-36708233D01*
X169777113Y-36793038D01*
X169592855Y-36916156D01*
X169436156Y-37072855D01*
X169313038Y-37257113D01*
X169228233Y-37461850D01*
X169185000Y-37679197D01*
X168895000Y-37679197D01*
X168851767Y-37461850D01*
X168766962Y-37257113D01*
X168643844Y-37072855D01*
X168487145Y-36916156D01*
X168302887Y-36793038D01*
X168098150Y-36708233D01*
X167880803Y-36665000D01*
X167659197Y-36665000D01*
X167441850Y-36708233D01*
X167237113Y-36793038D01*
X167052855Y-36916156D01*
X166896156Y-37072855D01*
X166773038Y-37257113D01*
X166688233Y-37461850D01*
X166645000Y-37679197D01*
X159200000Y-37679197D01*
X159200000Y-36414670D01*
X159243309Y-35972967D01*
X159359304Y-35588771D01*
X166749766Y-35588771D01*
X166835460Y-35781299D01*
X166957068Y-35953410D01*
X167109917Y-36098489D01*
X167288132Y-36210961D01*
X167431231Y-36270225D01*
X167595000Y-36253607D01*
X167595000Y-35425000D01*
X167945000Y-35425000D01*
X167945000Y-36253607D01*
X168108769Y-36270225D01*
X168251868Y-36210961D01*
X168430083Y-36098489D01*
X168582932Y-35953410D01*
X168704540Y-35781299D01*
X168790234Y-35588771D01*
X168774419Y-35425000D01*
X167945000Y-35425000D01*
X167595000Y-35425000D01*
X166765581Y-35425000D01*
X166749766Y-35588771D01*
X159359304Y-35588771D01*
X159367330Y-35562190D01*
X159568769Y-35183339D01*
X159839966Y-34850817D01*
X160170579Y-34577311D01*
X160548023Y-34373228D01*
X160957917Y-34246344D01*
X161398798Y-34200006D01*
X161400476Y-34200000D01*
X167594998Y-34200000D01*
X167594998Y-34246393D01*
G37*
%TD.AperFunction*%
D19*
X205027033Y-34243309D02*
X205437810Y-34367330D01*
X205816661Y-34568769D01*
X206149183Y-34839966D01*
X206422689Y-35170579D01*
X206626772Y-35548023D01*
X206753656Y-35957917D01*
X206799994Y-36398798D01*
X206800001Y-36400762D01*
X206800001Y-40157313D01*
X206770964Y-40128276D01*
X206667411Y-40048816D01*
X206605238Y-40012920D01*
X206484648Y-39962970D01*
X206415304Y-39944390D01*
X206285894Y-39927353D01*
X206250000Y-39925000D01*
X205000000Y-39925000D01*
X204964106Y-39927353D01*
X204834696Y-39944390D01*
X204765352Y-39962970D01*
X204644762Y-40012920D01*
X204623839Y-40025000D01*
X199617461Y-40025000D01*
X200452996Y-39189466D01*
X200473027Y-39173027D01*
X200538633Y-39093086D01*
X200587383Y-39001881D01*
X200617403Y-38902918D01*
X200625000Y-38825788D01*
X200627540Y-38800000D01*
X200625000Y-38774212D01*
X200625000Y-36325779D01*
X200627539Y-36299999D01*
X200625000Y-36274219D01*
X200625000Y-36274212D01*
X200617403Y-36197082D01*
X200587383Y-36098119D01*
X200538633Y-36006914D01*
X200473027Y-35926973D01*
X200452996Y-35910534D01*
X199439471Y-34897010D01*
X199423027Y-34876973D01*
X199376330Y-34838650D01*
X199376330Y-34400000D01*
X199371020Y-34346091D01*
X199355296Y-34294253D01*
X199329760Y-34246479D01*
X199295395Y-34204605D01*
X199289784Y-34200000D01*
X204585330Y-34200000D01*
X205027033Y-34243309D01*
%TA.AperFunction,Conductor*%
D20*
G36*
X205027033Y-34243309D02*
G01*
X205437810Y-34367330D01*
X205816661Y-34568769D01*
X206149183Y-34839966D01*
X206422689Y-35170579D01*
X206626772Y-35548023D01*
X206753656Y-35957917D01*
X206799994Y-36398798D01*
X206800001Y-36400762D01*
X206800001Y-40157313D01*
X206770964Y-40128276D01*
X206667411Y-40048816D01*
X206605238Y-40012920D01*
X206484648Y-39962970D01*
X206415304Y-39944390D01*
X206285894Y-39927353D01*
X206250000Y-39925000D01*
X205000000Y-39925000D01*
X204964106Y-39927353D01*
X204834696Y-39944390D01*
X204765352Y-39962970D01*
X204644762Y-40012920D01*
X204623839Y-40025000D01*
X199617461Y-40025000D01*
X200452996Y-39189466D01*
X200473027Y-39173027D01*
X200538633Y-39093086D01*
X200587383Y-39001881D01*
X200617403Y-38902918D01*
X200625000Y-38825788D01*
X200627540Y-38800000D01*
X200625000Y-38774212D01*
X200625000Y-36325779D01*
X200627539Y-36299999D01*
X200625000Y-36274219D01*
X200625000Y-36274212D01*
X200617403Y-36197082D01*
X200587383Y-36098119D01*
X200538633Y-36006914D01*
X200473027Y-35926973D01*
X200452996Y-35910534D01*
X199439471Y-34897010D01*
X199423027Y-34876973D01*
X199376330Y-34838650D01*
X199376330Y-34400000D01*
X199371020Y-34346091D01*
X199355296Y-34294253D01*
X199329760Y-34246479D01*
X199295395Y-34204605D01*
X199289784Y-34200000D01*
X204585330Y-34200000D01*
X205027033Y-34243309D01*
G37*
%TD.AperFunction*%
D19*
X179937113Y-34253038D02*
X179752855Y-34376156D01*
X179596156Y-34532855D01*
X179473038Y-34717113D01*
X179388233Y-34921850D01*
X179345000Y-35139197D01*
X179345000Y-35360803D01*
X179388233Y-35578150D01*
X179473038Y-35782887D01*
X179596156Y-35967145D01*
X179752855Y-36123844D01*
X179937113Y-36246962D01*
X180141850Y-36331767D01*
X180359197Y-36375000D01*
X180580803Y-36375000D01*
X180798150Y-36331767D01*
X181002887Y-36246962D01*
X181187145Y-36123844D01*
X181343844Y-35967145D01*
X181466962Y-35782887D01*
X181551767Y-35578150D01*
X181595000Y-35360803D01*
X181595000Y-35139197D01*
X181551767Y-34921850D01*
X181466962Y-34717113D01*
X181343844Y-34532855D01*
X181187145Y-34376156D01*
X181002887Y-34253038D01*
X180874842Y-34200000D01*
X182605158Y-34200000D01*
X182477113Y-34253038D01*
X182292855Y-34376156D01*
X182136156Y-34532855D01*
X182013038Y-34717113D01*
X181928233Y-34921850D01*
X181885000Y-35139197D01*
X181885000Y-35360803D01*
X181928233Y-35578150D01*
X182013038Y-35782887D01*
X182136156Y-35967145D01*
X182292855Y-36123844D01*
X182477113Y-36246962D01*
X182681850Y-36331767D01*
X182899197Y-36375000D01*
X183120803Y-36375000D01*
X183338150Y-36331767D01*
X183542887Y-36246962D01*
X183727145Y-36123844D01*
X183883844Y-35967145D01*
X184006962Y-35782887D01*
X184091767Y-35578150D01*
X184135000Y-35360803D01*
X184135000Y-35139197D01*
X184091767Y-34921850D01*
X184006962Y-34717113D01*
X183883844Y-34532855D01*
X183727145Y-34376156D01*
X183542887Y-34253038D01*
X183414842Y-34200000D01*
X185145158Y-34200000D01*
X185017113Y-34253038D01*
X184832855Y-34376156D01*
X184676156Y-34532855D01*
X184553038Y-34717113D01*
X184468233Y-34921850D01*
X184425000Y-35139197D01*
X184425000Y-35360803D01*
X184468233Y-35578150D01*
X184553038Y-35782887D01*
X184676156Y-35967145D01*
X184832855Y-36123844D01*
X185017113Y-36246962D01*
X185221850Y-36331767D01*
X185439197Y-36375000D01*
X185660803Y-36375000D01*
X185878150Y-36331767D01*
X186082887Y-36246962D01*
X186267145Y-36123844D01*
X186423844Y-35967145D01*
X186546962Y-35782887D01*
X186627367Y-35588771D01*
X187069766Y-35588771D01*
X187155460Y-35781299D01*
X187277068Y-35953410D01*
X187429917Y-36098489D01*
X187608132Y-36210961D01*
X187751231Y-36270225D01*
X187915000Y-36253607D01*
X187915000Y-35425000D01*
X188265000Y-35425000D01*
X188265000Y-36253607D01*
X188428769Y-36270225D01*
X188571868Y-36210961D01*
X188750083Y-36098489D01*
X188902932Y-35953410D01*
X189024540Y-35781299D01*
X189110234Y-35588771D01*
X189094419Y-35425000D01*
X188265000Y-35425000D01*
X187915000Y-35425000D01*
X187085581Y-35425000D01*
X187069766Y-35588771D01*
X186627367Y-35588771D01*
X186631767Y-35578150D01*
X186675000Y-35360803D01*
X186675000Y-35139197D01*
X186631767Y-34921850D01*
X186546962Y-34717113D01*
X186423844Y-34532855D01*
X186267145Y-34376156D01*
X186082887Y-34253038D01*
X185954842Y-34200000D01*
X187914998Y-34200000D01*
X187914998Y-34246393D01*
X187751231Y-34229775D01*
X187608132Y-34289039D01*
X187429917Y-34401511D01*
X187277068Y-34546590D01*
X187155460Y-34718701D01*
X187069766Y-34911229D01*
X187085581Y-35075000D01*
X187915000Y-35075000D01*
X187915000Y-35055000D01*
X188265000Y-35055000D01*
X188265000Y-35075000D01*
X189094419Y-35075000D01*
X189110234Y-34911229D01*
X189024540Y-34718701D01*
X188902932Y-34546590D01*
X188750083Y-34401511D01*
X188571868Y-34289039D01*
X188428769Y-34229775D01*
X188265002Y-34246393D01*
X188265002Y-34200000D01*
X190225158Y-34200000D01*
X190097113Y-34253038D01*
X189912855Y-34376156D01*
X189756156Y-34532855D01*
X189633038Y-34717113D01*
X189548233Y-34921850D01*
X189505000Y-35139197D01*
X189505000Y-35360803D01*
X189548233Y-35578150D01*
X189633038Y-35782887D01*
X189756156Y-35967145D01*
X189912855Y-36123844D01*
X190097113Y-36246962D01*
X190301850Y-36331767D01*
X190519197Y-36375000D01*
X190740803Y-36375000D01*
X190958150Y-36331767D01*
X191162887Y-36246962D01*
X191347145Y-36123844D01*
X191503844Y-35967145D01*
X191626962Y-35782887D01*
X191711767Y-35578150D01*
X191755000Y-35360803D01*
X191755000Y-35139197D01*
X191711767Y-34921850D01*
X191626962Y-34717113D01*
X191503844Y-34532855D01*
X191347145Y-34376156D01*
X191162887Y-34253038D01*
X191034842Y-34200000D01*
X192765158Y-34200000D01*
X192637113Y-34253038D01*
X192452855Y-34376156D01*
X192296156Y-34532855D01*
X192173038Y-34717113D01*
X192088233Y-34921850D01*
X192045000Y-35139197D01*
X192045000Y-35360803D01*
X192088233Y-35578150D01*
X192173038Y-35782887D01*
X192296156Y-35967145D01*
X192452855Y-36123844D01*
X192637113Y-36246962D01*
X192841850Y-36331767D01*
X193059197Y-36375000D01*
X193280803Y-36375000D01*
X193498150Y-36331767D01*
X193702887Y-36246962D01*
X193887145Y-36123844D01*
X194043844Y-35967145D01*
X194166962Y-35782887D01*
X194251767Y-35578150D01*
X194295000Y-35360803D01*
X194295000Y-35139197D01*
X194251767Y-34921850D01*
X194166962Y-34717113D01*
X194043844Y-34532855D01*
X193887145Y-34376156D01*
X193702887Y-34253038D01*
X193574842Y-34200000D01*
X195305158Y-34200000D01*
X195177113Y-34253038D01*
X194992855Y-34376156D01*
X194836156Y-34532855D01*
X194713038Y-34717113D01*
X194628233Y-34921850D01*
X194585000Y-35139197D01*
X194585000Y-35360803D01*
X194628233Y-35578150D01*
X194713038Y-35782887D01*
X194836156Y-35967145D01*
X194992855Y-36123844D01*
X195177113Y-36246962D01*
X195381850Y-36331767D01*
X195599197Y-36375000D01*
X195820803Y-36375000D01*
X196038150Y-36331767D01*
X196242887Y-36246962D01*
X196427145Y-36123844D01*
X196583844Y-35967145D01*
X196706962Y-35782887D01*
X196791767Y-35578150D01*
X196835000Y-35360803D01*
X196835000Y-35139197D01*
X196791767Y-34921850D01*
X196706962Y-34717113D01*
X196583844Y-34532855D01*
X196427145Y-34376156D01*
X196242887Y-34253038D01*
X196114842Y-34200000D01*
X197210216Y-34200000D01*
X197204605Y-34204605D01*
X197170240Y-34246479D01*
X197144704Y-34294253D01*
X197128980Y-34346091D01*
X197123670Y-34400000D01*
X197123670Y-36100000D01*
X197128980Y-36153909D01*
X197144704Y-36205747D01*
X197170240Y-36253521D01*
X197204605Y-36295395D01*
X197246479Y-36329760D01*
X197294253Y-36355296D01*
X197346091Y-36371020D01*
X197400000Y-36376330D01*
X199100000Y-36376330D01*
X199153909Y-36371020D01*
X199205747Y-36355296D01*
X199253521Y-36329760D01*
X199295395Y-36295395D01*
X199321331Y-36263792D01*
X199575000Y-36517462D01*
X199575001Y-38582537D01*
X198882539Y-39275000D01*
X181017462Y-39275000D01*
X180789470Y-39047009D01*
X180773027Y-39026973D01*
X180693086Y-38961367D01*
X180601881Y-38912617D01*
X180598278Y-38911524D01*
X180798150Y-38871767D01*
X181002887Y-38786962D01*
X181187145Y-38663844D01*
X181343844Y-38507145D01*
X181466962Y-38322887D01*
X181547367Y-38128771D01*
X181989766Y-38128771D01*
X182075460Y-38321299D01*
X182197068Y-38493410D01*
X182349917Y-38638489D01*
X182528132Y-38750961D01*
X182671231Y-38810225D01*
X182835000Y-38793607D01*
X182835000Y-37965000D01*
X183185000Y-37965000D01*
X183185000Y-38793607D01*
X183348769Y-38810225D01*
X183491868Y-38750961D01*
X183670083Y-38638489D01*
X183822932Y-38493410D01*
X183944540Y-38321299D01*
X184030234Y-38128771D01*
X184014419Y-37965000D01*
X183185000Y-37965000D01*
X182835000Y-37965000D01*
X182005581Y-37965000D01*
X181989766Y-38128771D01*
X181547367Y-38128771D01*
X181551767Y-38118150D01*
X181595000Y-37900803D01*
X181595000Y-37679197D01*
X184425000Y-37679197D01*
X184425000Y-37900803D01*
X184468233Y-38118150D01*
X184553038Y-38322887D01*
X184676156Y-38507145D01*
X184832855Y-38663844D01*
X185017113Y-38786962D01*
X185221850Y-38871767D01*
X185439197Y-38915000D01*
X185660803Y-38915000D01*
X185878150Y-38871767D01*
X186082887Y-38786962D01*
X186267145Y-38663844D01*
X186423844Y-38507145D01*
X186546962Y-38322887D01*
X186631767Y-38118150D01*
X186675000Y-37900803D01*
X186675000Y-37679197D01*
X186965000Y-37679197D01*
X186965000Y-37900803D01*
X187008233Y-38118150D01*
X187093038Y-38322887D01*
X187216156Y-38507145D01*
X187372855Y-38663844D01*
X187557113Y-38786962D01*
X187761850Y-38871767D01*
X187979197Y-38915000D01*
X188200803Y-38915000D01*
X188418150Y-38871767D01*
X188622887Y-38786962D01*
X188807145Y-38663844D01*
X188963844Y-38507145D01*
X189086962Y-38322887D01*
X189171767Y-38118150D01*
X189215000Y-37900803D01*
X189215000Y-37679197D01*
X189505000Y-37679197D01*
X189505000Y-37900803D01*
X189548233Y-38118150D01*
X189633038Y-38322887D01*
X189756156Y-38507145D01*
X189912855Y-38663844D01*
X190097113Y-38786962D01*
X190301850Y-38871767D01*
X190519197Y-38915000D01*
X190740803Y-38915000D01*
X190958150Y-38871767D01*
X191162887Y-38786962D01*
X191347145Y-38663844D01*
X191503844Y-38507145D01*
X191626962Y-38322887D01*
X191707367Y-38128771D01*
X192149766Y-38128771D01*
X192235460Y-38321299D01*
X192357068Y-38493410D01*
X192509917Y-38638489D01*
X192688132Y-38750961D01*
X192831231Y-38810225D01*
X192995000Y-38793607D01*
X192995000Y-37965000D01*
X193345000Y-37965000D01*
X193345000Y-38793607D01*
X193508769Y-38810225D01*
X193651868Y-38750961D01*
X193830083Y-38638489D01*
X193982932Y-38493410D01*
X194104540Y-38321299D01*
X194190234Y-38128771D01*
X194174419Y-37965000D01*
X193345000Y-37965000D01*
X192995000Y-37965000D01*
X192165581Y-37965000D01*
X192149766Y-38128771D01*
X191707367Y-38128771D01*
X191711767Y-38118150D01*
X191755000Y-37900803D01*
X191755000Y-37679197D01*
X194585000Y-37679197D01*
X194585000Y-37900803D01*
X194628233Y-38118150D01*
X194713038Y-38322887D01*
X194836156Y-38507145D01*
X194992855Y-38663844D01*
X195177113Y-38786962D01*
X195381850Y-38871767D01*
X195599197Y-38915000D01*
X195820803Y-38915000D01*
X196038150Y-38871767D01*
X196242887Y-38786962D01*
X196427145Y-38663844D01*
X196583844Y-38507145D01*
X196706962Y-38322887D01*
X196791767Y-38118150D01*
X196835000Y-37900803D01*
X196835000Y-37679197D01*
X197125000Y-37679197D01*
X197125000Y-37900803D01*
X197168233Y-38118150D01*
X197253038Y-38322887D01*
X197376156Y-38507145D01*
X197532855Y-38663844D01*
X197717113Y-38786962D01*
X197921850Y-38871767D01*
X198139197Y-38915000D01*
X198360803Y-38915000D01*
X198578150Y-38871767D01*
X198782887Y-38786962D01*
X198967145Y-38663844D01*
X199123844Y-38507145D01*
X199246962Y-38322887D01*
X199331767Y-38118150D01*
X199375000Y-37900803D01*
X199375000Y-37679197D01*
X199331767Y-37461850D01*
X199246962Y-37257113D01*
X199123844Y-37072855D01*
X198967145Y-36916156D01*
X198782887Y-36793038D01*
X198578150Y-36708233D01*
X198360803Y-36665000D01*
X198139197Y-36665000D01*
X197921850Y-36708233D01*
X197717113Y-36793038D01*
X197532855Y-36916156D01*
X197376156Y-37072855D01*
X197253038Y-37257113D01*
X197168233Y-37461850D01*
X197125000Y-37679197D01*
X196835000Y-37679197D01*
X196791767Y-37461850D01*
X196706962Y-37257113D01*
X196583844Y-37072855D01*
X196427145Y-36916156D01*
X196242887Y-36793038D01*
X196038150Y-36708233D01*
X195820803Y-36665000D01*
X195599197Y-36665000D01*
X195381850Y-36708233D01*
X195177113Y-36793038D01*
X194992855Y-36916156D01*
X194836156Y-37072855D01*
X194713038Y-37257113D01*
X194628233Y-37461850D01*
X194585000Y-37679197D01*
X191755000Y-37679197D01*
X191711767Y-37461850D01*
X191707368Y-37451229D01*
X192149766Y-37451229D01*
X192165581Y-37615000D01*
X192995000Y-37615000D01*
X192995000Y-36786393D01*
X193345000Y-36786393D01*
X193345000Y-37615000D01*
X194174419Y-37615000D01*
X194190234Y-37451229D01*
X194104540Y-37258701D01*
X193982932Y-37086590D01*
X193830083Y-36941511D01*
X193651868Y-36829039D01*
X193508769Y-36769775D01*
X193345000Y-36786393D01*
X192995000Y-36786393D01*
X192831231Y-36769775D01*
X192688132Y-36829039D01*
X192509917Y-36941511D01*
X192357068Y-37086590D01*
X192235460Y-37258701D01*
X192149766Y-37451229D01*
X191707368Y-37451229D01*
X191626962Y-37257113D01*
X191503844Y-37072855D01*
X191347145Y-36916156D01*
X191162887Y-36793038D01*
X190958150Y-36708233D01*
X190740803Y-36665000D01*
X190519197Y-36665000D01*
X190301850Y-36708233D01*
X190097113Y-36793038D01*
X189912855Y-36916156D01*
X189756156Y-37072855D01*
X189633038Y-37257113D01*
X189548233Y-37461850D01*
X189505000Y-37679197D01*
X189215000Y-37679197D01*
X189171767Y-37461850D01*
X189086962Y-37257113D01*
X188963844Y-37072855D01*
X188807145Y-36916156D01*
X188622887Y-36793038D01*
X188418150Y-36708233D01*
X188200803Y-36665000D01*
X187979197Y-36665000D01*
X187761850Y-36708233D01*
X187557113Y-36793038D01*
X187372855Y-36916156D01*
X187216156Y-37072855D01*
X187093038Y-37257113D01*
X187008233Y-37461850D01*
X186965000Y-37679197D01*
X186675000Y-37679197D01*
X186631767Y-37461850D01*
X186546962Y-37257113D01*
X186423844Y-37072855D01*
X186267145Y-36916156D01*
X186082887Y-36793038D01*
X185878150Y-36708233D01*
X185660803Y-36665000D01*
X185439197Y-36665000D01*
X185221850Y-36708233D01*
X185017113Y-36793038D01*
X184832855Y-36916156D01*
X184676156Y-37072855D01*
X184553038Y-37257113D01*
X184468233Y-37461850D01*
X184425000Y-37679197D01*
X181595000Y-37679197D01*
X181551767Y-37461850D01*
X181547368Y-37451229D01*
X181989766Y-37451229D01*
X182005581Y-37615000D01*
X182835000Y-37615000D01*
X182835000Y-36786393D01*
X183185000Y-36786393D01*
X183185000Y-37615000D01*
X184014419Y-37615000D01*
X184030234Y-37451229D01*
X183944540Y-37258701D01*
X183822932Y-37086590D01*
X183670083Y-36941511D01*
X183491868Y-36829039D01*
X183348769Y-36769775D01*
X183185000Y-36786393D01*
X182835000Y-36786393D01*
X182671231Y-36769775D01*
X182528132Y-36829039D01*
X182349917Y-36941511D01*
X182197068Y-37086590D01*
X182075460Y-37258701D01*
X181989766Y-37451229D01*
X181547368Y-37451229D01*
X181466962Y-37257113D01*
X181343844Y-37072855D01*
X181187145Y-36916156D01*
X181002887Y-36793038D01*
X180798150Y-36708233D01*
X180580803Y-36665000D01*
X180359197Y-36665000D01*
X180141850Y-36708233D01*
X179937113Y-36793038D01*
X179752855Y-36916156D01*
X179596156Y-37072855D01*
X179473038Y-37257113D01*
X179388233Y-37461850D01*
X179345000Y-37679197D01*
X179345000Y-37900803D01*
X179388233Y-38118150D01*
X179473038Y-38322887D01*
X179596156Y-38507145D01*
X179752855Y-38663844D01*
X179937113Y-38786962D01*
X180141850Y-38871767D01*
X180158103Y-38875000D01*
X178241897Y-38875000D01*
X178258150Y-38871767D01*
X178462887Y-38786962D01*
X178647145Y-38663844D01*
X178803844Y-38507145D01*
X178926962Y-38322887D01*
X179011767Y-38118150D01*
X179055000Y-37900803D01*
X179055000Y-37679197D01*
X179011767Y-37461850D01*
X178926962Y-37257113D01*
X178803844Y-37072855D01*
X178647145Y-36916156D01*
X178462887Y-36793038D01*
X178258150Y-36708233D01*
X178040803Y-36665000D01*
X177819197Y-36665000D01*
X177601850Y-36708233D01*
X177397113Y-36793038D01*
X177212855Y-36916156D01*
X177125000Y-37004011D01*
X177125000Y-36656040D01*
X177493962Y-36287078D01*
X177601850Y-36331767D01*
X177819197Y-36375000D01*
X178040803Y-36375000D01*
X178258150Y-36331767D01*
X178462887Y-36246962D01*
X178647145Y-36123844D01*
X178803844Y-35967145D01*
X178926962Y-35782887D01*
X179011767Y-35578150D01*
X179055000Y-35360803D01*
X179055000Y-35139197D01*
X179011767Y-34921850D01*
X178926962Y-34717113D01*
X178803844Y-34532855D01*
X178647145Y-34376156D01*
X178462887Y-34253038D01*
X178334842Y-34200000D01*
X180065158Y-34200000D01*
X179937113Y-34253038D01*
%TA.AperFunction,Conductor*%
D20*
G36*
X179937113Y-34253038D02*
G01*
X179752855Y-34376156D01*
X179596156Y-34532855D01*
X179473038Y-34717113D01*
X179388233Y-34921850D01*
X179345000Y-35139197D01*
X179345000Y-35360803D01*
X179388233Y-35578150D01*
X179473038Y-35782887D01*
X179596156Y-35967145D01*
X179752855Y-36123844D01*
X179937113Y-36246962D01*
X180141850Y-36331767D01*
X180359197Y-36375000D01*
X180580803Y-36375000D01*
X180798150Y-36331767D01*
X181002887Y-36246962D01*
X181187145Y-36123844D01*
X181343844Y-35967145D01*
X181466962Y-35782887D01*
X181551767Y-35578150D01*
X181595000Y-35360803D01*
X181595000Y-35139197D01*
X181551767Y-34921850D01*
X181466962Y-34717113D01*
X181343844Y-34532855D01*
X181187145Y-34376156D01*
X181002887Y-34253038D01*
X180874842Y-34200000D01*
X182605158Y-34200000D01*
X182477113Y-34253038D01*
X182292855Y-34376156D01*
X182136156Y-34532855D01*
X182013038Y-34717113D01*
X181928233Y-34921850D01*
X181885000Y-35139197D01*
X181885000Y-35360803D01*
X181928233Y-35578150D01*
X182013038Y-35782887D01*
X182136156Y-35967145D01*
X182292855Y-36123844D01*
X182477113Y-36246962D01*
X182681850Y-36331767D01*
X182899197Y-36375000D01*
X183120803Y-36375000D01*
X183338150Y-36331767D01*
X183542887Y-36246962D01*
X183727145Y-36123844D01*
X183883844Y-35967145D01*
X184006962Y-35782887D01*
X184091767Y-35578150D01*
X184135000Y-35360803D01*
X184135000Y-35139197D01*
X184091767Y-34921850D01*
X184006962Y-34717113D01*
X183883844Y-34532855D01*
X183727145Y-34376156D01*
X183542887Y-34253038D01*
X183414842Y-34200000D01*
X185145158Y-34200000D01*
X185017113Y-34253038D01*
X184832855Y-34376156D01*
X184676156Y-34532855D01*
X184553038Y-34717113D01*
X184468233Y-34921850D01*
X184425000Y-35139197D01*
X184425000Y-35360803D01*
X184468233Y-35578150D01*
X184553038Y-35782887D01*
X184676156Y-35967145D01*
X184832855Y-36123844D01*
X185017113Y-36246962D01*
X185221850Y-36331767D01*
X185439197Y-36375000D01*
X185660803Y-36375000D01*
X185878150Y-36331767D01*
X186082887Y-36246962D01*
X186267145Y-36123844D01*
X186423844Y-35967145D01*
X186546962Y-35782887D01*
X186627367Y-35588771D01*
X187069766Y-35588771D01*
X187155460Y-35781299D01*
X187277068Y-35953410D01*
X187429917Y-36098489D01*
X187608132Y-36210961D01*
X187751231Y-36270225D01*
X187915000Y-36253607D01*
X187915000Y-35425000D01*
X188265000Y-35425000D01*
X188265000Y-36253607D01*
X188428769Y-36270225D01*
X188571868Y-36210961D01*
X188750083Y-36098489D01*
X188902932Y-35953410D01*
X189024540Y-35781299D01*
X189110234Y-35588771D01*
X189094419Y-35425000D01*
X188265000Y-35425000D01*
X187915000Y-35425000D01*
X187085581Y-35425000D01*
X187069766Y-35588771D01*
X186627367Y-35588771D01*
X186631767Y-35578150D01*
X186675000Y-35360803D01*
X186675000Y-35139197D01*
X186631767Y-34921850D01*
X186546962Y-34717113D01*
X186423844Y-34532855D01*
X186267145Y-34376156D01*
X186082887Y-34253038D01*
X185954842Y-34200000D01*
X187914998Y-34200000D01*
X187914998Y-34246393D01*
X187751231Y-34229775D01*
X187608132Y-34289039D01*
X187429917Y-34401511D01*
X187277068Y-34546590D01*
X187155460Y-34718701D01*
X187069766Y-34911229D01*
X187085581Y-35075000D01*
X187915000Y-35075000D01*
X187915000Y-35055000D01*
X188265000Y-35055000D01*
X188265000Y-35075000D01*
X189094419Y-35075000D01*
X189110234Y-34911229D01*
X189024540Y-34718701D01*
X188902932Y-34546590D01*
X188750083Y-34401511D01*
X188571868Y-34289039D01*
X188428769Y-34229775D01*
X188265002Y-34246393D01*
X188265002Y-34200000D01*
X190225158Y-34200000D01*
X190097113Y-34253038D01*
X189912855Y-34376156D01*
X189756156Y-34532855D01*
X189633038Y-34717113D01*
X189548233Y-34921850D01*
X189505000Y-35139197D01*
X189505000Y-35360803D01*
X189548233Y-35578150D01*
X189633038Y-35782887D01*
X189756156Y-35967145D01*
X189912855Y-36123844D01*
X190097113Y-36246962D01*
X190301850Y-36331767D01*
X190519197Y-36375000D01*
X190740803Y-36375000D01*
X190958150Y-36331767D01*
X191162887Y-36246962D01*
X191347145Y-36123844D01*
X191503844Y-35967145D01*
X191626962Y-35782887D01*
X191711767Y-35578150D01*
X191755000Y-35360803D01*
X191755000Y-35139197D01*
X191711767Y-34921850D01*
X191626962Y-34717113D01*
X191503844Y-34532855D01*
X191347145Y-34376156D01*
X191162887Y-34253038D01*
X191034842Y-34200000D01*
X192765158Y-34200000D01*
X192637113Y-34253038D01*
X192452855Y-34376156D01*
X192296156Y-34532855D01*
X192173038Y-34717113D01*
X192088233Y-34921850D01*
X192045000Y-35139197D01*
X192045000Y-35360803D01*
X192088233Y-35578150D01*
X192173038Y-35782887D01*
X192296156Y-35967145D01*
X192452855Y-36123844D01*
X192637113Y-36246962D01*
X192841850Y-36331767D01*
X193059197Y-36375000D01*
X193280803Y-36375000D01*
X193498150Y-36331767D01*
X193702887Y-36246962D01*
X193887145Y-36123844D01*
X194043844Y-35967145D01*
X194166962Y-35782887D01*
X194251767Y-35578150D01*
X194295000Y-35360803D01*
X194295000Y-35139197D01*
X194251767Y-34921850D01*
X194166962Y-34717113D01*
X194043844Y-34532855D01*
X193887145Y-34376156D01*
X193702887Y-34253038D01*
X193574842Y-34200000D01*
X195305158Y-34200000D01*
X195177113Y-34253038D01*
X194992855Y-34376156D01*
X194836156Y-34532855D01*
X194713038Y-34717113D01*
X194628233Y-34921850D01*
X194585000Y-35139197D01*
X194585000Y-35360803D01*
X194628233Y-35578150D01*
X194713038Y-35782887D01*
X194836156Y-35967145D01*
X194992855Y-36123844D01*
X195177113Y-36246962D01*
X195381850Y-36331767D01*
X195599197Y-36375000D01*
X195820803Y-36375000D01*
X196038150Y-36331767D01*
X196242887Y-36246962D01*
X196427145Y-36123844D01*
X196583844Y-35967145D01*
X196706962Y-35782887D01*
X196791767Y-35578150D01*
X196835000Y-35360803D01*
X196835000Y-35139197D01*
X196791767Y-34921850D01*
X196706962Y-34717113D01*
X196583844Y-34532855D01*
X196427145Y-34376156D01*
X196242887Y-34253038D01*
X196114842Y-34200000D01*
X197210216Y-34200000D01*
X197204605Y-34204605D01*
X197170240Y-34246479D01*
X197144704Y-34294253D01*
X197128980Y-34346091D01*
X197123670Y-34400000D01*
X197123670Y-36100000D01*
X197128980Y-36153909D01*
X197144704Y-36205747D01*
X197170240Y-36253521D01*
X197204605Y-36295395D01*
X197246479Y-36329760D01*
X197294253Y-36355296D01*
X197346091Y-36371020D01*
X197400000Y-36376330D01*
X199100000Y-36376330D01*
X199153909Y-36371020D01*
X199205747Y-36355296D01*
X199253521Y-36329760D01*
X199295395Y-36295395D01*
X199321331Y-36263792D01*
X199575000Y-36517462D01*
X199575001Y-38582537D01*
X198882539Y-39275000D01*
X181017462Y-39275000D01*
X180789470Y-39047009D01*
X180773027Y-39026973D01*
X180693086Y-38961367D01*
X180601881Y-38912617D01*
X180598278Y-38911524D01*
X180798150Y-38871767D01*
X181002887Y-38786962D01*
X181187145Y-38663844D01*
X181343844Y-38507145D01*
X181466962Y-38322887D01*
X181547367Y-38128771D01*
X181989766Y-38128771D01*
X182075460Y-38321299D01*
X182197068Y-38493410D01*
X182349917Y-38638489D01*
X182528132Y-38750961D01*
X182671231Y-38810225D01*
X182835000Y-38793607D01*
X182835000Y-37965000D01*
X183185000Y-37965000D01*
X183185000Y-38793607D01*
X183348769Y-38810225D01*
X183491868Y-38750961D01*
X183670083Y-38638489D01*
X183822932Y-38493410D01*
X183944540Y-38321299D01*
X184030234Y-38128771D01*
X184014419Y-37965000D01*
X183185000Y-37965000D01*
X182835000Y-37965000D01*
X182005581Y-37965000D01*
X181989766Y-38128771D01*
X181547367Y-38128771D01*
X181551767Y-38118150D01*
X181595000Y-37900803D01*
X181595000Y-37679197D01*
X184425000Y-37679197D01*
X184425000Y-37900803D01*
X184468233Y-38118150D01*
X184553038Y-38322887D01*
X184676156Y-38507145D01*
X184832855Y-38663844D01*
X185017113Y-38786962D01*
X185221850Y-38871767D01*
X185439197Y-38915000D01*
X185660803Y-38915000D01*
X185878150Y-38871767D01*
X186082887Y-38786962D01*
X186267145Y-38663844D01*
X186423844Y-38507145D01*
X186546962Y-38322887D01*
X186631767Y-38118150D01*
X186675000Y-37900803D01*
X186675000Y-37679197D01*
X186965000Y-37679197D01*
X186965000Y-37900803D01*
X187008233Y-38118150D01*
X187093038Y-38322887D01*
X187216156Y-38507145D01*
X187372855Y-38663844D01*
X187557113Y-38786962D01*
X187761850Y-38871767D01*
X187979197Y-38915000D01*
X188200803Y-38915000D01*
X188418150Y-38871767D01*
X188622887Y-38786962D01*
X188807145Y-38663844D01*
X188963844Y-38507145D01*
X189086962Y-38322887D01*
X189171767Y-38118150D01*
X189215000Y-37900803D01*
X189215000Y-37679197D01*
X189505000Y-37679197D01*
X189505000Y-37900803D01*
X189548233Y-38118150D01*
X189633038Y-38322887D01*
X189756156Y-38507145D01*
X189912855Y-38663844D01*
X190097113Y-38786962D01*
X190301850Y-38871767D01*
X190519197Y-38915000D01*
X190740803Y-38915000D01*
X190958150Y-38871767D01*
X191162887Y-38786962D01*
X191347145Y-38663844D01*
X191503844Y-38507145D01*
X191626962Y-38322887D01*
X191707367Y-38128771D01*
X192149766Y-38128771D01*
X192235460Y-38321299D01*
X192357068Y-38493410D01*
X192509917Y-38638489D01*
X192688132Y-38750961D01*
X192831231Y-38810225D01*
X192995000Y-38793607D01*
X192995000Y-37965000D01*
X193345000Y-37965000D01*
X193345000Y-38793607D01*
X193508769Y-38810225D01*
X193651868Y-38750961D01*
X193830083Y-38638489D01*
X193982932Y-38493410D01*
X194104540Y-38321299D01*
X194190234Y-38128771D01*
X194174419Y-37965000D01*
X193345000Y-37965000D01*
X192995000Y-37965000D01*
X192165581Y-37965000D01*
X192149766Y-38128771D01*
X191707367Y-38128771D01*
X191711767Y-38118150D01*
X191755000Y-37900803D01*
X191755000Y-37679197D01*
X194585000Y-37679197D01*
X194585000Y-37900803D01*
X194628233Y-38118150D01*
X194713038Y-38322887D01*
X194836156Y-38507145D01*
X194992855Y-38663844D01*
X195177113Y-38786962D01*
X195381850Y-38871767D01*
X195599197Y-38915000D01*
X195820803Y-38915000D01*
X196038150Y-38871767D01*
X196242887Y-38786962D01*
X196427145Y-38663844D01*
X196583844Y-38507145D01*
X196706962Y-38322887D01*
X196791767Y-38118150D01*
X196835000Y-37900803D01*
X196835000Y-37679197D01*
X197125000Y-37679197D01*
X197125000Y-37900803D01*
X197168233Y-38118150D01*
X197253038Y-38322887D01*
X197376156Y-38507145D01*
X197532855Y-38663844D01*
X197717113Y-38786962D01*
X197921850Y-38871767D01*
X198139197Y-38915000D01*
X198360803Y-38915000D01*
X198578150Y-38871767D01*
X198782887Y-38786962D01*
X198967145Y-38663844D01*
X199123844Y-38507145D01*
X199246962Y-38322887D01*
X199331767Y-38118150D01*
X199375000Y-37900803D01*
X199375000Y-37679197D01*
X199331767Y-37461850D01*
X199246962Y-37257113D01*
X199123844Y-37072855D01*
X198967145Y-36916156D01*
X198782887Y-36793038D01*
X198578150Y-36708233D01*
X198360803Y-36665000D01*
X198139197Y-36665000D01*
X197921850Y-36708233D01*
X197717113Y-36793038D01*
X197532855Y-36916156D01*
X197376156Y-37072855D01*
X197253038Y-37257113D01*
X197168233Y-37461850D01*
X197125000Y-37679197D01*
X196835000Y-37679197D01*
X196791767Y-37461850D01*
X196706962Y-37257113D01*
X196583844Y-37072855D01*
X196427145Y-36916156D01*
X196242887Y-36793038D01*
X196038150Y-36708233D01*
X195820803Y-36665000D01*
X195599197Y-36665000D01*
X195381850Y-36708233D01*
X195177113Y-36793038D01*
X194992855Y-36916156D01*
X194836156Y-37072855D01*
X194713038Y-37257113D01*
X194628233Y-37461850D01*
X194585000Y-37679197D01*
X191755000Y-37679197D01*
X191711767Y-37461850D01*
X191707368Y-37451229D01*
X192149766Y-37451229D01*
X192165581Y-37615000D01*
X192995000Y-37615000D01*
X192995000Y-36786393D01*
X193345000Y-36786393D01*
X193345000Y-37615000D01*
X194174419Y-37615000D01*
X194190234Y-37451229D01*
X194104540Y-37258701D01*
X193982932Y-37086590D01*
X193830083Y-36941511D01*
X193651868Y-36829039D01*
X193508769Y-36769775D01*
X193345000Y-36786393D01*
X192995000Y-36786393D01*
X192831231Y-36769775D01*
X192688132Y-36829039D01*
X192509917Y-36941511D01*
X192357068Y-37086590D01*
X192235460Y-37258701D01*
X192149766Y-37451229D01*
X191707368Y-37451229D01*
X191626962Y-37257113D01*
X191503844Y-37072855D01*
X191347145Y-36916156D01*
X191162887Y-36793038D01*
X190958150Y-36708233D01*
X190740803Y-36665000D01*
X190519197Y-36665000D01*
X190301850Y-36708233D01*
X190097113Y-36793038D01*
X189912855Y-36916156D01*
X189756156Y-37072855D01*
X189633038Y-37257113D01*
X189548233Y-37461850D01*
X189505000Y-37679197D01*
X189215000Y-37679197D01*
X189171767Y-37461850D01*
X189086962Y-37257113D01*
X188963844Y-37072855D01*
X188807145Y-36916156D01*
X188622887Y-36793038D01*
X188418150Y-36708233D01*
X188200803Y-36665000D01*
X187979197Y-36665000D01*
X187761850Y-36708233D01*
X187557113Y-36793038D01*
X187372855Y-36916156D01*
X187216156Y-37072855D01*
X187093038Y-37257113D01*
X187008233Y-37461850D01*
X186965000Y-37679197D01*
X186675000Y-37679197D01*
X186631767Y-37461850D01*
X186546962Y-37257113D01*
X186423844Y-37072855D01*
X186267145Y-36916156D01*
X186082887Y-36793038D01*
X185878150Y-36708233D01*
X185660803Y-36665000D01*
X185439197Y-36665000D01*
X185221850Y-36708233D01*
X185017113Y-36793038D01*
X184832855Y-36916156D01*
X184676156Y-37072855D01*
X184553038Y-37257113D01*
X184468233Y-37461850D01*
X184425000Y-37679197D01*
X181595000Y-37679197D01*
X181551767Y-37461850D01*
X181547368Y-37451229D01*
X181989766Y-37451229D01*
X182005581Y-37615000D01*
X182835000Y-37615000D01*
X182835000Y-36786393D01*
X183185000Y-36786393D01*
X183185000Y-37615000D01*
X184014419Y-37615000D01*
X184030234Y-37451229D01*
X183944540Y-37258701D01*
X183822932Y-37086590D01*
X183670083Y-36941511D01*
X183491868Y-36829039D01*
X183348769Y-36769775D01*
X183185000Y-36786393D01*
X182835000Y-36786393D01*
X182671231Y-36769775D01*
X182528132Y-36829039D01*
X182349917Y-36941511D01*
X182197068Y-37086590D01*
X182075460Y-37258701D01*
X181989766Y-37451229D01*
X181547368Y-37451229D01*
X181466962Y-37257113D01*
X181343844Y-37072855D01*
X181187145Y-36916156D01*
X181002887Y-36793038D01*
X180798150Y-36708233D01*
X180580803Y-36665000D01*
X180359197Y-36665000D01*
X180141850Y-36708233D01*
X179937113Y-36793038D01*
X179752855Y-36916156D01*
X179596156Y-37072855D01*
X179473038Y-37257113D01*
X179388233Y-37461850D01*
X179345000Y-37679197D01*
X179345000Y-37900803D01*
X179388233Y-38118150D01*
X179473038Y-38322887D01*
X179596156Y-38507145D01*
X179752855Y-38663844D01*
X179937113Y-38786962D01*
X180141850Y-38871767D01*
X180158103Y-38875000D01*
X178241897Y-38875000D01*
X178258150Y-38871767D01*
X178462887Y-38786962D01*
X178647145Y-38663844D01*
X178803844Y-38507145D01*
X178926962Y-38322887D01*
X179011767Y-38118150D01*
X179055000Y-37900803D01*
X179055000Y-37679197D01*
X179011767Y-37461850D01*
X178926962Y-37257113D01*
X178803844Y-37072855D01*
X178647145Y-36916156D01*
X178462887Y-36793038D01*
X178258150Y-36708233D01*
X178040803Y-36665000D01*
X177819197Y-36665000D01*
X177601850Y-36708233D01*
X177397113Y-36793038D01*
X177212855Y-36916156D01*
X177125000Y-37004011D01*
X177125000Y-36656040D01*
X177493962Y-36287078D01*
X177601850Y-36331767D01*
X177819197Y-36375000D01*
X178040803Y-36375000D01*
X178258150Y-36331767D01*
X178462887Y-36246962D01*
X178647145Y-36123844D01*
X178803844Y-35967145D01*
X178926962Y-35782887D01*
X179011767Y-35578150D01*
X179055000Y-35360803D01*
X179055000Y-35139197D01*
X179011767Y-34921850D01*
X178926962Y-34717113D01*
X178803844Y-34532855D01*
X178647145Y-34376156D01*
X178462887Y-34253038D01*
X178334842Y-34200000D01*
X180065158Y-34200000D01*
X179937113Y-34253038D01*
G37*
%TD.AperFunction*%
%TD*%
M02*
