G04 #@! TF.GenerationSoftware,KiCad,Pcbnew,(7.0.0)*
G04 #@! TF.CreationDate,2023-10-04T12:26:05+03:00*
G04 #@! TF.ProjectId,voltlog UHF repeater,766f6c74-6c6f-4672-9055-484620726570,rev?*
G04 #@! TF.SameCoordinates,Original*
G04 #@! TF.FileFunction,Copper,L3,Inr*
G04 #@! TF.FilePolarity,Positive*
%FSLAX46Y46*%
G04 Gerber Fmt 4.6, Leading zero omitted, Abs format (unit mm)*
G04 Created by KiCad (PCBNEW (7.0.0)) date 2023-10-04 12:26:05*
%MOMM*%
%LPD*%
G01*
G04 APERTURE LIST*
G04 #@! TA.AperFunction,ComponentPad*
%ADD10R,1.700000X1.700000*%
G04 #@! TD*
G04 #@! TA.AperFunction,ComponentPad*
%ADD11O,1.700000X1.700000*%
G04 #@! TD*
G04 #@! TA.AperFunction,ComponentPad*
%ADD12C,5.500000*%
G04 #@! TD*
G04 #@! TA.AperFunction,ComponentPad*
%ADD13C,2.050000*%
G04 #@! TD*
G04 #@! TA.AperFunction,ComponentPad*
%ADD14C,2.250000*%
G04 #@! TD*
G04 #@! TA.AperFunction,ViaPad*
%ADD15C,0.600000*%
G04 #@! TD*
G04 #@! TA.AperFunction,Conductor*
%ADD16C,1.600000*%
G04 #@! TD*
G04 #@! TA.AperFunction,Conductor*
%ADD17C,0.500000*%
G04 #@! TD*
G04 #@! TA.AperFunction,Conductor*
%ADD18C,0.300000*%
G04 #@! TD*
G04 APERTURE END LIST*
D10*
G04 #@! TO.N,+5V*
G04 #@! TO.C,J2*
X167749999Y-78449999D03*
D11*
G04 #@! TO.N,GND*
X170289999Y-78449999D03*
G04 #@! TO.N,/USB_DM2*
X172829999Y-78449999D03*
G04 #@! TO.N,/USB_DP2*
X175369999Y-78449999D03*
G04 #@! TO.N,/USB_DM3*
X177909999Y-78449999D03*
G04 #@! TO.N,/USB_DP3*
X180449999Y-78449999D03*
G04 #@! TO.N,LINEOUT_R*
X182989999Y-78449999D03*
G04 #@! TO.N,/LINEOUT_L*
X185529999Y-78449999D03*
G04 #@! TO.N,/TV_OUT*
X188069999Y-78449999D03*
G04 #@! TO.N,/MIC_BIAS*
X190609999Y-78449999D03*
G04 #@! TO.N,MIC1P*
X193149999Y-78449999D03*
G04 #@! TO.N,MIC1N*
X195689999Y-78449999D03*
G04 #@! TO.N,/CIR_RX*
X198229999Y-78449999D03*
G04 #@! TD*
D10*
G04 #@! TO.N,+3V3*
G04 #@! TO.C,J1*
X198249999Y-35249999D03*
D11*
G04 #@! TO.N,+5V*
X198249999Y-37789999D03*
G04 #@! TO.N,/GPIO_12*
X195709999Y-35249999D03*
G04 #@! TO.N,+5V*
X195709999Y-37789999D03*
G04 #@! TO.N,/GPIO_11*
X193169999Y-35249999D03*
G04 #@! TO.N,GND*
X193169999Y-37789999D03*
G04 #@! TO.N,/GPIO_6*
X190629999Y-35249999D03*
G04 #@! TO.N,UART_TX*
X190629999Y-37789999D03*
G04 #@! TO.N,GND*
X188089999Y-35249999D03*
G04 #@! TO.N,UART_RX*
X188089999Y-37789999D03*
G04 #@! TO.N,/GPIO_1*
X185549999Y-35249999D03*
G04 #@! TO.N,GPIO_7*
X185549999Y-37789999D03*
G04 #@! TO.N,/GPIO_0*
X183009999Y-35249999D03*
G04 #@! TO.N,GND*
X183009999Y-37789999D03*
G04 #@! TO.N,/GPIO_3*
X180469999Y-35249999D03*
G04 #@! TO.N,/GPIO_19*
X180469999Y-37789999D03*
G04 #@! TO.N,+3V3*
X177929999Y-35249999D03*
G04 #@! TO.N,/GPIO_18*
X177929999Y-37789999D03*
G04 #@! TO.N,/GPIO_15*
X175389999Y-35249999D03*
G04 #@! TO.N,GND*
X175389999Y-37789999D03*
G04 #@! TO.N,/GPIO_16*
X172849999Y-35249999D03*
G04 #@! TO.N,/GPIO_2*
X172849999Y-37789999D03*
G04 #@! TO.N,/GPIO_14*
X170309999Y-35249999D03*
G04 #@! TO.N,/GPIO_13*
X170309999Y-37789999D03*
G04 #@! TO.N,GND*
X167769999Y-35249999D03*
G04 #@! TO.N,GPIO_10*
X167769999Y-37789999D03*
G04 #@! TD*
D12*
G04 #@! TO.N,GND*
G04 #@! TO.C,H1*
X161944600Y-77055500D03*
G04 #@! TD*
G04 #@! TO.N,GND*
G04 #@! TO.C,H2*
X161944600Y-36944600D03*
G04 #@! TD*
G04 #@! TO.N,GND*
G04 #@! TO.C,H3*
X204055500Y-77055500D03*
G04 #@! TD*
G04 #@! TO.N,GND*
G04 #@! TO.C,H4*
X204055500Y-36944600D03*
G04 #@! TD*
D13*
G04 #@! TO.N,/ANT*
G04 #@! TO.C,J3*
X202700000Y-57000000D03*
D14*
G04 #@! TO.N,GND*
X200160000Y-54460000D03*
X200160000Y-59540000D03*
X205240000Y-54460000D03*
X205240000Y-59540000D03*
G04 #@! TD*
D15*
G04 #@! TO.N,LINEOUT_R*
X183000000Y-74100000D03*
G04 #@! TO.N,GND*
X202050000Y-46850000D03*
X187650000Y-44600000D03*
X187650000Y-50600000D03*
X187000000Y-60000000D03*
X203400000Y-51500000D03*
X196500000Y-52000000D03*
X187000000Y-69000000D03*
X196000000Y-76000000D03*
X200000000Y-57000000D03*
X203454000Y-65024000D03*
X185650000Y-49600000D03*
X188650000Y-49600000D03*
X203300000Y-45300000D03*
X198300000Y-43800000D03*
X197500000Y-46800000D03*
X196600000Y-43500000D03*
X201200000Y-45800000D03*
X203500000Y-50700000D03*
X188650000Y-48600000D03*
X184650000Y-45600000D03*
X195000000Y-43550000D03*
X187650000Y-48600000D03*
X185650000Y-48600000D03*
X201200000Y-44500000D03*
X178500000Y-60500000D03*
X173500000Y-40000000D03*
X187000000Y-57000000D03*
X186650000Y-50600000D03*
X196500000Y-60500000D03*
X198300000Y-46500000D03*
X196500000Y-69500000D03*
X178500000Y-47500000D03*
X202100000Y-51500000D03*
X201500000Y-47400000D03*
X187000000Y-54000000D03*
X172750000Y-40000000D03*
X203400000Y-52400000D03*
X187650000Y-46600000D03*
X168000000Y-47000000D03*
X188650000Y-44600000D03*
X195800000Y-43500000D03*
X196500000Y-65000000D03*
X185650000Y-46600000D03*
X169500000Y-42500000D03*
X185650000Y-47600000D03*
X186650000Y-49600000D03*
X199500000Y-72500000D03*
X178500000Y-69500000D03*
X186650000Y-44600000D03*
X184650000Y-50600000D03*
X187650000Y-47600000D03*
X179500000Y-76000000D03*
X186650000Y-46600000D03*
X200400000Y-44500000D03*
X194400000Y-46250000D03*
X187000000Y-63000000D03*
X202750000Y-59750000D03*
X185650000Y-45600000D03*
X196700000Y-46800000D03*
X184650000Y-48600000D03*
X202100000Y-52400000D03*
X199600000Y-44500000D03*
X188650000Y-47600000D03*
X194250000Y-45500000D03*
X200750000Y-48800000D03*
X206000000Y-71700000D03*
X204000000Y-50200000D03*
X204000000Y-47400000D03*
X203400000Y-46100000D03*
X201500000Y-50200000D03*
X187000000Y-66000000D03*
X188650000Y-50600000D03*
X185650000Y-44600000D03*
X202100000Y-53400000D03*
X188650000Y-46600000D03*
X194250000Y-44750000D03*
X189650000Y-47600000D03*
X195900000Y-46800000D03*
X189650000Y-44600000D03*
X187650000Y-45600000D03*
X189650000Y-49600000D03*
X203300000Y-69000000D03*
X196500000Y-56000000D03*
X205250000Y-57000000D03*
X189650000Y-48600000D03*
X200850000Y-49600000D03*
X186650000Y-48600000D03*
X204750000Y-48800000D03*
X198800000Y-45800000D03*
X202000000Y-44500000D03*
X186650000Y-45600000D03*
X187650000Y-49600000D03*
X194400000Y-44000000D03*
X202000000Y-46000000D03*
X202000000Y-50700000D03*
X184650000Y-46600000D03*
X184650000Y-49600000D03*
X189500000Y-77000000D03*
X202700000Y-44800000D03*
X204650000Y-47950000D03*
X204650000Y-49650000D03*
X184650000Y-44600000D03*
X200850000Y-48000000D03*
X186650000Y-47600000D03*
X188650000Y-45600000D03*
X184650000Y-47600000D03*
X185650000Y-50600000D03*
X195100000Y-46800000D03*
X197400000Y-43500000D03*
X189650000Y-50600000D03*
X199600000Y-45800000D03*
X189650000Y-46600000D03*
X178500000Y-56500000D03*
X203400000Y-53400000D03*
X187000000Y-72000000D03*
X200400000Y-45800000D03*
X189650000Y-45600000D03*
X203500000Y-46900000D03*
X198800000Y-44500000D03*
G04 #@! TO.N,Net-(D2-K)*
X205900000Y-42100000D03*
X205200000Y-42100000D03*
X178700000Y-41000000D03*
X205900000Y-43300000D03*
X205900000Y-41500000D03*
X178100000Y-41000000D03*
X205200000Y-40900000D03*
X178700000Y-42200000D03*
X205200000Y-42700000D03*
X205200000Y-43300000D03*
X178100000Y-40400000D03*
X205200000Y-41500000D03*
X178700000Y-40400000D03*
X178100000Y-42200000D03*
X205900000Y-40900000D03*
X205900000Y-42700000D03*
X178700000Y-41600000D03*
X178100000Y-41600000D03*
G04 #@! TO.N,+3V3*
X173775000Y-73400000D03*
G04 #@! TO.N,+5V*
X173250000Y-43500000D03*
X176000000Y-60250000D03*
X196700000Y-42600000D03*
G04 #@! TO.N,GPIO_10*
X176000000Y-69250000D03*
G04 #@! TO.N,UART_RX*
X194000000Y-64750000D03*
G04 #@! TD*
D16*
G04 #@! TO.N,Net-(D2-K)*
X179200000Y-41100000D02*
X178700000Y-41600000D01*
X204800000Y-41100000D02*
X179200000Y-41100000D01*
X205200000Y-41500000D02*
X204800000Y-41100000D01*
D17*
G04 #@! TO.N,+3V3*
X174500000Y-48800000D02*
X174500000Y-72675000D01*
X180400000Y-39400000D02*
X176900000Y-39400000D01*
X200100000Y-38800000D02*
X199100000Y-39800000D01*
X172500000Y-42250000D02*
X172000000Y-42750000D01*
X200100000Y-36300000D02*
X200100000Y-38800000D01*
X172000000Y-46300000D02*
X174500000Y-48800000D01*
D18*
X177930000Y-35250000D02*
X176700000Y-36480000D01*
D17*
X174050000Y-42250000D02*
X172500000Y-42250000D01*
X199050000Y-35250000D02*
X200100000Y-36300000D01*
D18*
X176700000Y-36480000D02*
X176700000Y-39200000D01*
D17*
X172000000Y-42750000D02*
X172000000Y-46300000D01*
X180800000Y-39800000D02*
X180400000Y-39400000D01*
X198250000Y-35250000D02*
X199050000Y-35250000D01*
X199100000Y-39800000D02*
X180800000Y-39800000D01*
X176900000Y-39400000D02*
X174050000Y-42250000D01*
D18*
X176700000Y-39200000D02*
X176900000Y-39400000D01*
D17*
X174500000Y-72675000D02*
X173775000Y-73400000D01*
D18*
G04 #@! TO.N,+5V*
X173450000Y-43700000D02*
X173700000Y-43700000D01*
X173250000Y-43500000D02*
X173450000Y-43700000D01*
X180700000Y-42600000D02*
X196700000Y-42600000D01*
X173700000Y-43700000D02*
X173700000Y-46200000D01*
X175250000Y-47750000D02*
X175250000Y-60250000D01*
X173700000Y-43700000D02*
X179600000Y-43700000D01*
X173637000Y-74500000D02*
X168750000Y-74500000D01*
X175250000Y-72887000D02*
X173637000Y-74500000D01*
X167750000Y-75500000D02*
X167750000Y-78450000D01*
X168750000Y-74500000D02*
X167750000Y-75500000D01*
X173700000Y-46200000D02*
X175250000Y-47750000D01*
X179600000Y-43700000D02*
X180700000Y-42600000D01*
X175250000Y-60250000D02*
X175250000Y-72887000D01*
X176000000Y-60250000D02*
X175250000Y-60250000D01*
G04 #@! TD*
G04 #@! TA.AperFunction,Conductor*
G04 #@! TO.N,GND*
G36*
X204602231Y-33925634D02*
G01*
X204893808Y-33943272D01*
X204902660Y-33944347D01*
X205187801Y-33996600D01*
X205196452Y-33998733D01*
X205473197Y-34084970D01*
X205481536Y-34088131D01*
X205745878Y-34207103D01*
X205753790Y-34211256D01*
X206001844Y-34361210D01*
X206009198Y-34366286D01*
X206237373Y-34545049D01*
X206244062Y-34550975D01*
X206449024Y-34755937D01*
X206454950Y-34762626D01*
X206633713Y-34990801D01*
X206638789Y-34998155D01*
X206788743Y-35246209D01*
X206792896Y-35254121D01*
X206911864Y-35518455D01*
X206915032Y-35526811D01*
X206954651Y-35653954D01*
X207001263Y-35803535D01*
X207003402Y-35812211D01*
X207055651Y-36097330D01*
X207056728Y-36106201D01*
X207074365Y-36397768D01*
X207074500Y-36402236D01*
X207074500Y-40494061D01*
X207062562Y-40534364D01*
X207030599Y-40561663D01*
X206988925Y-40567150D01*
X206950985Y-40549054D01*
X206929022Y-40513215D01*
X206928049Y-40509584D01*
X206927732Y-40508400D01*
X206919091Y-40482946D01*
X206876598Y-40380359D01*
X206864710Y-40356252D01*
X206855051Y-40339522D01*
X206840116Y-40317170D01*
X206832506Y-40307253D01*
X206773256Y-40230037D01*
X206773255Y-40230035D01*
X206772517Y-40229074D01*
X206754793Y-40208865D01*
X206741134Y-40195206D01*
X206740222Y-40194406D01*
X206721840Y-40178284D01*
X206721831Y-40178276D01*
X206720925Y-40177482D01*
X206719961Y-40176742D01*
X206633776Y-40110609D01*
X206633763Y-40110599D01*
X206632829Y-40109883D01*
X206610482Y-40094951D01*
X206605144Y-40091869D01*
X206594803Y-40085898D01*
X206594797Y-40085894D01*
X206593753Y-40085292D01*
X206592680Y-40084762D01*
X206592671Y-40084758D01*
X206570729Y-40073937D01*
X206570727Y-40073936D01*
X206569640Y-40073400D01*
X206467049Y-40030906D01*
X206465898Y-40030515D01*
X206465892Y-40030513D01*
X206442748Y-40022657D01*
X206442747Y-40022656D01*
X206441599Y-40022267D01*
X206440427Y-40021953D01*
X206440424Y-40021952D01*
X206424110Y-40017580D01*
X206424096Y-40017576D01*
X206422944Y-40017268D01*
X206421783Y-40017037D01*
X206421757Y-40017031D01*
X206397758Y-40012258D01*
X206397748Y-40012256D01*
X206396575Y-40012023D01*
X206395400Y-40011868D01*
X206395380Y-40011865D01*
X206282226Y-39996969D01*
X206282198Y-39996965D01*
X206281630Y-39996891D01*
X206280726Y-39996802D01*
X206268808Y-39995628D01*
X206268792Y-39995626D01*
X206268247Y-39995573D01*
X206267700Y-39995537D01*
X206267686Y-39995536D01*
X206259180Y-39994978D01*
X206259132Y-39994975D01*
X206258588Y-39994940D01*
X206258023Y-39994921D01*
X206257972Y-39994919D01*
X206245776Y-39994520D01*
X206245744Y-39994519D01*
X206245149Y-39994500D01*
X205004851Y-39994500D01*
X205004256Y-39994519D01*
X205004223Y-39994520D01*
X204992029Y-39994919D01*
X204991975Y-39994921D01*
X204991414Y-39994940D01*
X204990872Y-39994975D01*
X204990821Y-39994978D01*
X204982342Y-39995534D01*
X204982313Y-39995536D01*
X204981754Y-39995573D01*
X204981194Y-39995628D01*
X204981159Y-39995631D01*
X204968955Y-39996833D01*
X204968942Y-39996834D01*
X204968368Y-39996891D01*
X204967790Y-39996966D01*
X204967782Y-39996968D01*
X204854626Y-40011865D01*
X204854615Y-40011866D01*
X204853421Y-40012024D01*
X204852231Y-40012260D01*
X204852223Y-40012262D01*
X204828248Y-40017031D01*
X204827062Y-40017267D01*
X204825929Y-40017570D01*
X204825897Y-40017578D01*
X204809590Y-40021947D01*
X204809558Y-40021956D01*
X204808411Y-40022264D01*
X204807282Y-40022646D01*
X204807253Y-40022656D01*
X204784109Y-40030513D01*
X204784101Y-40030515D01*
X204782952Y-40030906D01*
X204781830Y-40031370D01*
X204781824Y-40031373D01*
X204681470Y-40072940D01*
X204681440Y-40072953D01*
X204680355Y-40073403D01*
X204679287Y-40073929D01*
X204679273Y-40073936D01*
X204657315Y-40084764D01*
X204657295Y-40084774D01*
X204656250Y-40085290D01*
X204655244Y-40085870D01*
X204655223Y-40085882D01*
X204648807Y-40089587D01*
X204611808Y-40099500D01*
X199616255Y-40099500D01*
X199575143Y-40087029D01*
X199547888Y-40053819D01*
X199543677Y-40011063D01*
X199563929Y-39973174D01*
X200187602Y-39349500D01*
X200397733Y-39139368D01*
X200403902Y-39133856D01*
X200433970Y-39109879D01*
X200466692Y-39061882D01*
X200468292Y-39059628D01*
X200487721Y-39033303D01*
X200502793Y-39012882D01*
X200504626Y-39007641D01*
X200505961Y-39005116D01*
X200506043Y-39004978D01*
X200506095Y-39004855D01*
X200507346Y-39002256D01*
X200510472Y-38997673D01*
X200527607Y-38942118D01*
X200528453Y-38939544D01*
X200547646Y-38884699D01*
X200547853Y-38879153D01*
X200548388Y-38876328D01*
X200548421Y-38876192D01*
X200548435Y-38876050D01*
X200548864Y-38873204D01*
X200550500Y-38867902D01*
X200550500Y-38809820D01*
X200550552Y-38807052D01*
X200550641Y-38804686D01*
X200552725Y-38748990D01*
X200551289Y-38743633D01*
X200550965Y-38740749D01*
X200550500Y-38732466D01*
X200550500Y-36329459D01*
X200550965Y-36321174D01*
X200551498Y-36316445D01*
X200555270Y-36282965D01*
X200544468Y-36225878D01*
X200544005Y-36223154D01*
X200543850Y-36222127D01*
X200535348Y-36165713D01*
X200532940Y-36160714D01*
X200532092Y-36157964D01*
X200532057Y-36157825D01*
X200532002Y-36157691D01*
X200531054Y-36154983D01*
X200530023Y-36149528D01*
X200502852Y-36098120D01*
X200501625Y-36095688D01*
X200478831Y-36048354D01*
X200478830Y-36048353D01*
X200476425Y-36043358D01*
X200472654Y-36039294D01*
X200471028Y-36036909D01*
X200470957Y-36036792D01*
X200470868Y-36036684D01*
X200469154Y-36034362D01*
X200466565Y-36029462D01*
X200425496Y-35988393D01*
X200423577Y-35986401D01*
X200396962Y-35957717D01*
X200384055Y-35943806D01*
X200379250Y-35941032D01*
X200376991Y-35939230D01*
X200370803Y-35933700D01*
X199389381Y-34952278D01*
X199383851Y-34946090D01*
X199359879Y-34916030D01*
X199355297Y-34912906D01*
X199355294Y-34912903D01*
X199332814Y-34897577D01*
X199309075Y-34871014D01*
X199300500Y-34836436D01*
X199300500Y-34383892D01*
X199300500Y-34380252D01*
X199288867Y-34321769D01*
X199244552Y-34255448D01*
X199178231Y-34211133D01*
X199171080Y-34209710D01*
X199171079Y-34209710D01*
X199123318Y-34200210D01*
X199123316Y-34200209D01*
X199119748Y-34199500D01*
X197380252Y-34199500D01*
X197376684Y-34200209D01*
X197376681Y-34200210D01*
X197328920Y-34209710D01*
X197328917Y-34209711D01*
X197321769Y-34211133D01*
X197315706Y-34215183D01*
X197315706Y-34215184D01*
X197261508Y-34251398D01*
X197261505Y-34251400D01*
X197255448Y-34255448D01*
X197251400Y-34261505D01*
X197251398Y-34261508D01*
X197215184Y-34315706D01*
X197211133Y-34321769D01*
X197209711Y-34328917D01*
X197209710Y-34328920D01*
X197200619Y-34374624D01*
X197199500Y-34380252D01*
X197199500Y-36119748D01*
X197200209Y-36123316D01*
X197200210Y-36123318D01*
X197207101Y-36157964D01*
X197211133Y-36178231D01*
X197255448Y-36244552D01*
X197321769Y-36288867D01*
X197380252Y-36300500D01*
X199116108Y-36300500D01*
X199119748Y-36300500D01*
X199178231Y-36288867D01*
X199244552Y-36244552D01*
X199259704Y-36221874D01*
X199292913Y-36194621D01*
X199335668Y-36190410D01*
X199373558Y-36210662D01*
X199627826Y-36464929D01*
X199643867Y-36488936D01*
X199649500Y-36517255D01*
X199649500Y-38582745D01*
X199643867Y-38611064D01*
X199627826Y-38635071D01*
X198935071Y-39327826D01*
X198911064Y-39343867D01*
X198882745Y-39349500D01*
X181017255Y-39349500D01*
X180988936Y-39343867D01*
X180964929Y-39327826D01*
X180739381Y-39102278D01*
X180733851Y-39096090D01*
X180709879Y-39066030D01*
X180661878Y-39033303D01*
X180659623Y-39031703D01*
X180617345Y-39000501D01*
X180612882Y-38997207D01*
X180607645Y-38995374D01*
X180605098Y-38994028D01*
X180604975Y-38993954D01*
X180604864Y-38993908D01*
X180602253Y-38992650D01*
X180597673Y-38989528D01*
X180592376Y-38987894D01*
X180592374Y-38987893D01*
X180564258Y-38979221D01*
X180524398Y-38949405D01*
X180512443Y-38901084D01*
X180533805Y-38856122D01*
X180578816Y-38834865D01*
X180675934Y-38825300D01*
X180873954Y-38765232D01*
X181056450Y-38667685D01*
X181216410Y-38536410D01*
X181347685Y-38376450D01*
X181445232Y-38193954D01*
X181488567Y-38051095D01*
X182044204Y-38051095D01*
X182080594Y-38171054D01*
X182083365Y-38177745D01*
X182172793Y-38345052D01*
X182176811Y-38351067D01*
X182297165Y-38497717D01*
X182302282Y-38502834D01*
X182448932Y-38623188D01*
X182454947Y-38627206D01*
X182622254Y-38716634D01*
X182628945Y-38719405D01*
X182748904Y-38755795D01*
X182757400Y-38755656D01*
X182760000Y-38747565D01*
X183260000Y-38747565D01*
X183262599Y-38755656D01*
X183271095Y-38755795D01*
X183391054Y-38719405D01*
X183397745Y-38716634D01*
X183565052Y-38627206D01*
X183571067Y-38623188D01*
X183717717Y-38502834D01*
X183722834Y-38497717D01*
X183843188Y-38351067D01*
X183847206Y-38345052D01*
X183936634Y-38177745D01*
X183939405Y-38171054D01*
X183975795Y-38051095D01*
X183975656Y-38042599D01*
X183967565Y-38040000D01*
X183269743Y-38040000D01*
X183262059Y-38042059D01*
X183260000Y-38049743D01*
X183260000Y-38747565D01*
X182760000Y-38747565D01*
X182760000Y-38049743D01*
X182757940Y-38042059D01*
X182750257Y-38040000D01*
X182052435Y-38040000D01*
X182044343Y-38042599D01*
X182044204Y-38051095D01*
X181488567Y-38051095D01*
X181505300Y-37995934D01*
X181525583Y-37790000D01*
X184494417Y-37790000D01*
X184514700Y-37995934D01*
X184515752Y-37999402D01*
X184515753Y-37999407D01*
X184567821Y-38171054D01*
X184574768Y-38193954D01*
X184576483Y-38197162D01*
X184670598Y-38373239D01*
X184670601Y-38373244D01*
X184672315Y-38376450D01*
X184674622Y-38379261D01*
X184674624Y-38379264D01*
X184771836Y-38497717D01*
X184803590Y-38536410D01*
X184963550Y-38667685D01*
X185146046Y-38765232D01*
X185344066Y-38825300D01*
X185550000Y-38845583D01*
X185755934Y-38825300D01*
X185953954Y-38765232D01*
X186136450Y-38667685D01*
X186296410Y-38536410D01*
X186427685Y-38376450D01*
X186525232Y-38193954D01*
X186585300Y-37995934D01*
X186605583Y-37790000D01*
X187034417Y-37790000D01*
X187054700Y-37995934D01*
X187055752Y-37999402D01*
X187055753Y-37999407D01*
X187107821Y-38171054D01*
X187114768Y-38193954D01*
X187116483Y-38197162D01*
X187210598Y-38373239D01*
X187210601Y-38373244D01*
X187212315Y-38376450D01*
X187214622Y-38379261D01*
X187214624Y-38379264D01*
X187311836Y-38497717D01*
X187343590Y-38536410D01*
X187503550Y-38667685D01*
X187686046Y-38765232D01*
X187884066Y-38825300D01*
X188090000Y-38845583D01*
X188295934Y-38825300D01*
X188493954Y-38765232D01*
X188676450Y-38667685D01*
X188836410Y-38536410D01*
X188967685Y-38376450D01*
X189065232Y-38193954D01*
X189125300Y-37995934D01*
X189145583Y-37790000D01*
X189574417Y-37790000D01*
X189594700Y-37995934D01*
X189595752Y-37999402D01*
X189595753Y-37999407D01*
X189647821Y-38171054D01*
X189654768Y-38193954D01*
X189656483Y-38197162D01*
X189750598Y-38373239D01*
X189750601Y-38373244D01*
X189752315Y-38376450D01*
X189754622Y-38379261D01*
X189754624Y-38379264D01*
X189851836Y-38497717D01*
X189883590Y-38536410D01*
X190043550Y-38667685D01*
X190226046Y-38765232D01*
X190424066Y-38825300D01*
X190630000Y-38845583D01*
X190835934Y-38825300D01*
X191033954Y-38765232D01*
X191216450Y-38667685D01*
X191376410Y-38536410D01*
X191507685Y-38376450D01*
X191605232Y-38193954D01*
X191648567Y-38051095D01*
X192204204Y-38051095D01*
X192240594Y-38171054D01*
X192243365Y-38177745D01*
X192332793Y-38345052D01*
X192336811Y-38351067D01*
X192457165Y-38497717D01*
X192462282Y-38502834D01*
X192608932Y-38623188D01*
X192614947Y-38627206D01*
X192782254Y-38716634D01*
X192788945Y-38719405D01*
X192908904Y-38755795D01*
X192917400Y-38755656D01*
X192920000Y-38747565D01*
X193420000Y-38747565D01*
X193422599Y-38755656D01*
X193431095Y-38755795D01*
X193551054Y-38719405D01*
X193557745Y-38716634D01*
X193725052Y-38627206D01*
X193731067Y-38623188D01*
X193877717Y-38502834D01*
X193882834Y-38497717D01*
X194003188Y-38351067D01*
X194007206Y-38345052D01*
X194096634Y-38177745D01*
X194099405Y-38171054D01*
X194135795Y-38051095D01*
X194135656Y-38042599D01*
X194127565Y-38040000D01*
X193429743Y-38040000D01*
X193422059Y-38042059D01*
X193420000Y-38049743D01*
X193420000Y-38747565D01*
X192920000Y-38747565D01*
X192920000Y-38049743D01*
X192917940Y-38042059D01*
X192910257Y-38040000D01*
X192212435Y-38040000D01*
X192204343Y-38042599D01*
X192204204Y-38051095D01*
X191648567Y-38051095D01*
X191665300Y-37995934D01*
X191685583Y-37790000D01*
X194654417Y-37790000D01*
X194674700Y-37995934D01*
X194675752Y-37999402D01*
X194675753Y-37999407D01*
X194727821Y-38171054D01*
X194734768Y-38193954D01*
X194736483Y-38197162D01*
X194830598Y-38373239D01*
X194830601Y-38373244D01*
X194832315Y-38376450D01*
X194834622Y-38379261D01*
X194834624Y-38379264D01*
X194931836Y-38497717D01*
X194963590Y-38536410D01*
X195123550Y-38667685D01*
X195306046Y-38765232D01*
X195504066Y-38825300D01*
X195710000Y-38845583D01*
X195915934Y-38825300D01*
X196113954Y-38765232D01*
X196296450Y-38667685D01*
X196456410Y-38536410D01*
X196587685Y-38376450D01*
X196685232Y-38193954D01*
X196745300Y-37995934D01*
X196765583Y-37790000D01*
X197194417Y-37790000D01*
X197214700Y-37995934D01*
X197215752Y-37999402D01*
X197215753Y-37999407D01*
X197267821Y-38171054D01*
X197274768Y-38193954D01*
X197276483Y-38197162D01*
X197370598Y-38373239D01*
X197370601Y-38373244D01*
X197372315Y-38376450D01*
X197374622Y-38379261D01*
X197374624Y-38379264D01*
X197471836Y-38497717D01*
X197503590Y-38536410D01*
X197663550Y-38667685D01*
X197846046Y-38765232D01*
X198044066Y-38825300D01*
X198250000Y-38845583D01*
X198455934Y-38825300D01*
X198653954Y-38765232D01*
X198836450Y-38667685D01*
X198996410Y-38536410D01*
X199127685Y-38376450D01*
X199225232Y-38193954D01*
X199285300Y-37995934D01*
X199305583Y-37790000D01*
X199285300Y-37584066D01*
X199225232Y-37386046D01*
X199127685Y-37203550D01*
X199105098Y-37176028D01*
X199039533Y-37096136D01*
X198996410Y-37043590D01*
X198993599Y-37041283D01*
X198839264Y-36914624D01*
X198839261Y-36914622D01*
X198836450Y-36912315D01*
X198833244Y-36910601D01*
X198833239Y-36910598D01*
X198671607Y-36824204D01*
X198653954Y-36814768D01*
X198650473Y-36813712D01*
X198459407Y-36755753D01*
X198459402Y-36755752D01*
X198455934Y-36754700D01*
X198452322Y-36754344D01*
X198452321Y-36754344D01*
X198253614Y-36734773D01*
X198250000Y-36734417D01*
X198246386Y-36734773D01*
X198047678Y-36754344D01*
X198047675Y-36754344D01*
X198044066Y-36754700D01*
X198040599Y-36755751D01*
X198040592Y-36755753D01*
X197849526Y-36813712D01*
X197849522Y-36813713D01*
X197846046Y-36814768D01*
X197842839Y-36816482D01*
X197842837Y-36816483D01*
X197666760Y-36910598D01*
X197666750Y-36910604D01*
X197663550Y-36912315D01*
X197660742Y-36914618D01*
X197660735Y-36914624D01*
X197506400Y-37041283D01*
X197506394Y-37041288D01*
X197503590Y-37043590D01*
X197501288Y-37046394D01*
X197501283Y-37046400D01*
X197374624Y-37200735D01*
X197374618Y-37200742D01*
X197372315Y-37203550D01*
X197370604Y-37206750D01*
X197370598Y-37206760D01*
X197276483Y-37382837D01*
X197274768Y-37386046D01*
X197273713Y-37389522D01*
X197273712Y-37389526D01*
X197215753Y-37580592D01*
X197215751Y-37580599D01*
X197214700Y-37584066D01*
X197194417Y-37790000D01*
X196765583Y-37790000D01*
X196745300Y-37584066D01*
X196685232Y-37386046D01*
X196587685Y-37203550D01*
X196565098Y-37176028D01*
X196499533Y-37096136D01*
X196456410Y-37043590D01*
X196453599Y-37041283D01*
X196299264Y-36914624D01*
X196299261Y-36914622D01*
X196296450Y-36912315D01*
X196293244Y-36910601D01*
X196293239Y-36910598D01*
X196131607Y-36824204D01*
X196113954Y-36814768D01*
X196110473Y-36813712D01*
X195919407Y-36755753D01*
X195919402Y-36755752D01*
X195915934Y-36754700D01*
X195912322Y-36754344D01*
X195912321Y-36754344D01*
X195713614Y-36734773D01*
X195710000Y-36734417D01*
X195706386Y-36734773D01*
X195507678Y-36754344D01*
X195507675Y-36754344D01*
X195504066Y-36754700D01*
X195500599Y-36755751D01*
X195500592Y-36755753D01*
X195309526Y-36813712D01*
X195309522Y-36813713D01*
X195306046Y-36814768D01*
X195302839Y-36816482D01*
X195302837Y-36816483D01*
X195126760Y-36910598D01*
X195126750Y-36910604D01*
X195123550Y-36912315D01*
X195120742Y-36914618D01*
X195120735Y-36914624D01*
X194966400Y-37041283D01*
X194966394Y-37041288D01*
X194963590Y-37043590D01*
X194961288Y-37046394D01*
X194961283Y-37046400D01*
X194834624Y-37200735D01*
X194834618Y-37200742D01*
X194832315Y-37203550D01*
X194830604Y-37206750D01*
X194830598Y-37206760D01*
X194736483Y-37382837D01*
X194734768Y-37386046D01*
X194733713Y-37389522D01*
X194733712Y-37389526D01*
X194675753Y-37580592D01*
X194675751Y-37580599D01*
X194674700Y-37584066D01*
X194654417Y-37790000D01*
X191685583Y-37790000D01*
X191665300Y-37584066D01*
X191648567Y-37528904D01*
X192204204Y-37528904D01*
X192204343Y-37537400D01*
X192212435Y-37540000D01*
X192910257Y-37540000D01*
X192917940Y-37537940D01*
X192920000Y-37530257D01*
X193420000Y-37530257D01*
X193422059Y-37537940D01*
X193429743Y-37540000D01*
X194127565Y-37540000D01*
X194135656Y-37537400D01*
X194135795Y-37528904D01*
X194099405Y-37408945D01*
X194096634Y-37402254D01*
X194007206Y-37234947D01*
X194003188Y-37228932D01*
X193882834Y-37082282D01*
X193877717Y-37077165D01*
X193731067Y-36956811D01*
X193725052Y-36952793D01*
X193557745Y-36863365D01*
X193551054Y-36860594D01*
X193431095Y-36824204D01*
X193422599Y-36824343D01*
X193420000Y-36832435D01*
X193420000Y-37530257D01*
X192920000Y-37530257D01*
X192920000Y-36832435D01*
X192917400Y-36824343D01*
X192908904Y-36824204D01*
X192788945Y-36860594D01*
X192782254Y-36863365D01*
X192614947Y-36952793D01*
X192608932Y-36956811D01*
X192462282Y-37077165D01*
X192457165Y-37082282D01*
X192336811Y-37228932D01*
X192332793Y-37234947D01*
X192243365Y-37402254D01*
X192240594Y-37408945D01*
X192204204Y-37528904D01*
X191648567Y-37528904D01*
X191605232Y-37386046D01*
X191507685Y-37203550D01*
X191485098Y-37176028D01*
X191419533Y-37096136D01*
X191376410Y-37043590D01*
X191373599Y-37041283D01*
X191219264Y-36914624D01*
X191219261Y-36914622D01*
X191216450Y-36912315D01*
X191213244Y-36910601D01*
X191213239Y-36910598D01*
X191051607Y-36824204D01*
X191033954Y-36814768D01*
X191030473Y-36813712D01*
X190839407Y-36755753D01*
X190839402Y-36755752D01*
X190835934Y-36754700D01*
X190832322Y-36754344D01*
X190832321Y-36754344D01*
X190633614Y-36734773D01*
X190630000Y-36734417D01*
X190626386Y-36734773D01*
X190427678Y-36754344D01*
X190427675Y-36754344D01*
X190424066Y-36754700D01*
X190420599Y-36755751D01*
X190420592Y-36755753D01*
X190229526Y-36813712D01*
X190229522Y-36813713D01*
X190226046Y-36814768D01*
X190222839Y-36816482D01*
X190222837Y-36816483D01*
X190046760Y-36910598D01*
X190046750Y-36910604D01*
X190043550Y-36912315D01*
X190040742Y-36914618D01*
X190040735Y-36914624D01*
X189886400Y-37041283D01*
X189886394Y-37041288D01*
X189883590Y-37043590D01*
X189881288Y-37046394D01*
X189881283Y-37046400D01*
X189754624Y-37200735D01*
X189754618Y-37200742D01*
X189752315Y-37203550D01*
X189750604Y-37206750D01*
X189750598Y-37206760D01*
X189656483Y-37382837D01*
X189654768Y-37386046D01*
X189653713Y-37389522D01*
X189653712Y-37389526D01*
X189595753Y-37580592D01*
X189595751Y-37580599D01*
X189594700Y-37584066D01*
X189574417Y-37790000D01*
X189145583Y-37790000D01*
X189125300Y-37584066D01*
X189065232Y-37386046D01*
X188967685Y-37203550D01*
X188945098Y-37176028D01*
X188879533Y-37096136D01*
X188836410Y-37043590D01*
X188833599Y-37041283D01*
X188679264Y-36914624D01*
X188679261Y-36914622D01*
X188676450Y-36912315D01*
X188673244Y-36910601D01*
X188673239Y-36910598D01*
X188511607Y-36824204D01*
X188493954Y-36814768D01*
X188490473Y-36813712D01*
X188299407Y-36755753D01*
X188299402Y-36755752D01*
X188295934Y-36754700D01*
X188292322Y-36754344D01*
X188292321Y-36754344D01*
X188093614Y-36734773D01*
X188090000Y-36734417D01*
X188086386Y-36734773D01*
X187887678Y-36754344D01*
X187887675Y-36754344D01*
X187884066Y-36754700D01*
X187880599Y-36755751D01*
X187880592Y-36755753D01*
X187689526Y-36813712D01*
X187689522Y-36813713D01*
X187686046Y-36814768D01*
X187682839Y-36816482D01*
X187682837Y-36816483D01*
X187506760Y-36910598D01*
X187506750Y-36910604D01*
X187503550Y-36912315D01*
X187500742Y-36914618D01*
X187500735Y-36914624D01*
X187346400Y-37041283D01*
X187346394Y-37041288D01*
X187343590Y-37043590D01*
X187341288Y-37046394D01*
X187341283Y-37046400D01*
X187214624Y-37200735D01*
X187214618Y-37200742D01*
X187212315Y-37203550D01*
X187210604Y-37206750D01*
X187210598Y-37206760D01*
X187116483Y-37382837D01*
X187114768Y-37386046D01*
X187113713Y-37389522D01*
X187113712Y-37389526D01*
X187055753Y-37580592D01*
X187055751Y-37580599D01*
X187054700Y-37584066D01*
X187034417Y-37790000D01*
X186605583Y-37790000D01*
X186585300Y-37584066D01*
X186525232Y-37386046D01*
X186427685Y-37203550D01*
X186405098Y-37176028D01*
X186339533Y-37096136D01*
X186296410Y-37043590D01*
X186293599Y-37041283D01*
X186139264Y-36914624D01*
X186139261Y-36914622D01*
X186136450Y-36912315D01*
X186133244Y-36910601D01*
X186133239Y-36910598D01*
X185971607Y-36824204D01*
X185953954Y-36814768D01*
X185950473Y-36813712D01*
X185759407Y-36755753D01*
X185759402Y-36755752D01*
X185755934Y-36754700D01*
X185752322Y-36754344D01*
X185752321Y-36754344D01*
X185553614Y-36734773D01*
X185550000Y-36734417D01*
X185546386Y-36734773D01*
X185347678Y-36754344D01*
X185347675Y-36754344D01*
X185344066Y-36754700D01*
X185340599Y-36755751D01*
X185340592Y-36755753D01*
X185149526Y-36813712D01*
X185149522Y-36813713D01*
X185146046Y-36814768D01*
X185142839Y-36816482D01*
X185142837Y-36816483D01*
X184966760Y-36910598D01*
X184966750Y-36910604D01*
X184963550Y-36912315D01*
X184960742Y-36914618D01*
X184960735Y-36914624D01*
X184806400Y-37041283D01*
X184806394Y-37041288D01*
X184803590Y-37043590D01*
X184801288Y-37046394D01*
X184801283Y-37046400D01*
X184674624Y-37200735D01*
X184674618Y-37200742D01*
X184672315Y-37203550D01*
X184670604Y-37206750D01*
X184670598Y-37206760D01*
X184576483Y-37382837D01*
X184574768Y-37386046D01*
X184573713Y-37389522D01*
X184573712Y-37389526D01*
X184515753Y-37580592D01*
X184515751Y-37580599D01*
X184514700Y-37584066D01*
X184494417Y-37790000D01*
X181525583Y-37790000D01*
X181505300Y-37584066D01*
X181488567Y-37528904D01*
X182044204Y-37528904D01*
X182044343Y-37537400D01*
X182052435Y-37540000D01*
X182750257Y-37540000D01*
X182757940Y-37537940D01*
X182760000Y-37530257D01*
X183260000Y-37530257D01*
X183262059Y-37537940D01*
X183269743Y-37540000D01*
X183967565Y-37540000D01*
X183975656Y-37537400D01*
X183975795Y-37528904D01*
X183939405Y-37408945D01*
X183936634Y-37402254D01*
X183847206Y-37234947D01*
X183843188Y-37228932D01*
X183722834Y-37082282D01*
X183717717Y-37077165D01*
X183571067Y-36956811D01*
X183565052Y-36952793D01*
X183397745Y-36863365D01*
X183391054Y-36860594D01*
X183271095Y-36824204D01*
X183262599Y-36824343D01*
X183260000Y-36832435D01*
X183260000Y-37530257D01*
X182760000Y-37530257D01*
X182760000Y-36832435D01*
X182757400Y-36824343D01*
X182748904Y-36824204D01*
X182628945Y-36860594D01*
X182622254Y-36863365D01*
X182454947Y-36952793D01*
X182448932Y-36956811D01*
X182302282Y-37077165D01*
X182297165Y-37082282D01*
X182176811Y-37228932D01*
X182172793Y-37234947D01*
X182083365Y-37402254D01*
X182080594Y-37408945D01*
X182044204Y-37528904D01*
X181488567Y-37528904D01*
X181445232Y-37386046D01*
X181347685Y-37203550D01*
X181325098Y-37176028D01*
X181259533Y-37096136D01*
X181216410Y-37043590D01*
X181213599Y-37041283D01*
X181059264Y-36914624D01*
X181059261Y-36914622D01*
X181056450Y-36912315D01*
X181053244Y-36910601D01*
X181053239Y-36910598D01*
X180891607Y-36824204D01*
X180873954Y-36814768D01*
X180870473Y-36813712D01*
X180679407Y-36755753D01*
X180679402Y-36755752D01*
X180675934Y-36754700D01*
X180672322Y-36754344D01*
X180672321Y-36754344D01*
X180473614Y-36734773D01*
X180470000Y-36734417D01*
X180466386Y-36734773D01*
X180267678Y-36754344D01*
X180267675Y-36754344D01*
X180264066Y-36754700D01*
X180260599Y-36755751D01*
X180260592Y-36755753D01*
X180069526Y-36813712D01*
X180069522Y-36813713D01*
X180066046Y-36814768D01*
X180062839Y-36816482D01*
X180062837Y-36816483D01*
X179886760Y-36910598D01*
X179886750Y-36910604D01*
X179883550Y-36912315D01*
X179880742Y-36914618D01*
X179880735Y-36914624D01*
X179726400Y-37041283D01*
X179726394Y-37041288D01*
X179723590Y-37043590D01*
X179721288Y-37046394D01*
X179721283Y-37046400D01*
X179594624Y-37200735D01*
X179594618Y-37200742D01*
X179592315Y-37203550D01*
X179590604Y-37206750D01*
X179590598Y-37206760D01*
X179496483Y-37382837D01*
X179494768Y-37386046D01*
X179493713Y-37389522D01*
X179493712Y-37389526D01*
X179435753Y-37580592D01*
X179435751Y-37580599D01*
X179434700Y-37584066D01*
X179414417Y-37790000D01*
X179434700Y-37995934D01*
X179435752Y-37999402D01*
X179435753Y-37999407D01*
X179487821Y-38171054D01*
X179494768Y-38193954D01*
X179496483Y-38197162D01*
X179590598Y-38373239D01*
X179590601Y-38373244D01*
X179592315Y-38376450D01*
X179594622Y-38379261D01*
X179594624Y-38379264D01*
X179691836Y-38497717D01*
X179723590Y-38536410D01*
X179883550Y-38667685D01*
X180066046Y-38765232D01*
X180196110Y-38804686D01*
X180230899Y-38827441D01*
X180247931Y-38865361D01*
X180241832Y-38906481D01*
X180214525Y-38937824D01*
X180174629Y-38949500D01*
X178225371Y-38949500D01*
X178185475Y-38937824D01*
X178158168Y-38906481D01*
X178152069Y-38865361D01*
X178169101Y-38827441D01*
X178203890Y-38804686D01*
X178333954Y-38765232D01*
X178516450Y-38667685D01*
X178676410Y-38536410D01*
X178807685Y-38376450D01*
X178905232Y-38193954D01*
X178965300Y-37995934D01*
X178985583Y-37790000D01*
X178965300Y-37584066D01*
X178905232Y-37386046D01*
X178807685Y-37203550D01*
X178785098Y-37176028D01*
X178719533Y-37096136D01*
X178676410Y-37043590D01*
X178673599Y-37041283D01*
X178519264Y-36914624D01*
X178519261Y-36914622D01*
X178516450Y-36912315D01*
X178513244Y-36910601D01*
X178513239Y-36910598D01*
X178351607Y-36824204D01*
X178333954Y-36814768D01*
X178330473Y-36813712D01*
X178139407Y-36755753D01*
X178139402Y-36755752D01*
X178135934Y-36754700D01*
X178132322Y-36754344D01*
X178132321Y-36754344D01*
X177933614Y-36734773D01*
X177930000Y-36734417D01*
X177926386Y-36734773D01*
X177727678Y-36754344D01*
X177727675Y-36754344D01*
X177724066Y-36754700D01*
X177720599Y-36755751D01*
X177720592Y-36755753D01*
X177529526Y-36813712D01*
X177529522Y-36813713D01*
X177526046Y-36814768D01*
X177522839Y-36816482D01*
X177522837Y-36816483D01*
X177346760Y-36910598D01*
X177346750Y-36910604D01*
X177343550Y-36912315D01*
X177340742Y-36914618D01*
X177340735Y-36914624D01*
X177186400Y-37041283D01*
X177186394Y-37041288D01*
X177183590Y-37043590D01*
X177181285Y-37046398D01*
X177178713Y-37048971D01*
X177178025Y-37048283D01*
X177144233Y-37070264D01*
X177099568Y-37068617D01*
X177063998Y-37041553D01*
X177050500Y-36998944D01*
X177050500Y-36655834D01*
X177056133Y-36627516D01*
X177072174Y-36603508D01*
X177158427Y-36517255D01*
X177437975Y-36237705D01*
X177479432Y-36216835D01*
X177518844Y-36223666D01*
X177519482Y-36222127D01*
X177522835Y-36223516D01*
X177526046Y-36225232D01*
X177724066Y-36285300D01*
X177930000Y-36305583D01*
X178135934Y-36285300D01*
X178333954Y-36225232D01*
X178516450Y-36127685D01*
X178676410Y-35996410D01*
X178807685Y-35836450D01*
X178905232Y-35653954D01*
X178965300Y-35455934D01*
X178985583Y-35250000D01*
X179414417Y-35250000D01*
X179434700Y-35455934D01*
X179435752Y-35459402D01*
X179435753Y-35459407D01*
X179453665Y-35518455D01*
X179494768Y-35653954D01*
X179496483Y-35657162D01*
X179590598Y-35833239D01*
X179590601Y-35833244D01*
X179592315Y-35836450D01*
X179594622Y-35839261D01*
X179594624Y-35839264D01*
X179676664Y-35939230D01*
X179723590Y-35996410D01*
X179726400Y-35998716D01*
X179873878Y-36119748D01*
X179883550Y-36127685D01*
X179886758Y-36129399D01*
X179886760Y-36129401D01*
X179915240Y-36144624D01*
X180066046Y-36225232D01*
X180264066Y-36285300D01*
X180470000Y-36305583D01*
X180675934Y-36285300D01*
X180873954Y-36225232D01*
X181056450Y-36127685D01*
X181216410Y-35996410D01*
X181347685Y-35836450D01*
X181445232Y-35653954D01*
X181505300Y-35455934D01*
X181525583Y-35250000D01*
X181954417Y-35250000D01*
X181974700Y-35455934D01*
X181975752Y-35459402D01*
X181975753Y-35459407D01*
X181993665Y-35518455D01*
X182034768Y-35653954D01*
X182036483Y-35657162D01*
X182130598Y-35833239D01*
X182130601Y-35833244D01*
X182132315Y-35836450D01*
X182134622Y-35839261D01*
X182134624Y-35839264D01*
X182216664Y-35939230D01*
X182263590Y-35996410D01*
X182266400Y-35998716D01*
X182413878Y-36119748D01*
X182423550Y-36127685D01*
X182426758Y-36129399D01*
X182426760Y-36129401D01*
X182455240Y-36144624D01*
X182606046Y-36225232D01*
X182804066Y-36285300D01*
X183010000Y-36305583D01*
X183215934Y-36285300D01*
X183413954Y-36225232D01*
X183596450Y-36127685D01*
X183756410Y-35996410D01*
X183887685Y-35836450D01*
X183985232Y-35653954D01*
X184045300Y-35455934D01*
X184065583Y-35250000D01*
X184494417Y-35250000D01*
X184514700Y-35455934D01*
X184515752Y-35459402D01*
X184515753Y-35459407D01*
X184533665Y-35518455D01*
X184574768Y-35653954D01*
X184576483Y-35657162D01*
X184670598Y-35833239D01*
X184670601Y-35833244D01*
X184672315Y-35836450D01*
X184674622Y-35839261D01*
X184674624Y-35839264D01*
X184756664Y-35939230D01*
X184803590Y-35996410D01*
X184806400Y-35998716D01*
X184953878Y-36119748D01*
X184963550Y-36127685D01*
X184966758Y-36129399D01*
X184966760Y-36129401D01*
X184995240Y-36144624D01*
X185146046Y-36225232D01*
X185344066Y-36285300D01*
X185550000Y-36305583D01*
X185755934Y-36285300D01*
X185953954Y-36225232D01*
X186136450Y-36127685D01*
X186296410Y-35996410D01*
X186427685Y-35836450D01*
X186525232Y-35653954D01*
X186568567Y-35511095D01*
X187124204Y-35511095D01*
X187160594Y-35631054D01*
X187163365Y-35637745D01*
X187252793Y-35805052D01*
X187256811Y-35811067D01*
X187377165Y-35957717D01*
X187382282Y-35962834D01*
X187528932Y-36083188D01*
X187534947Y-36087206D01*
X187702254Y-36176634D01*
X187708945Y-36179405D01*
X187828904Y-36215795D01*
X187837400Y-36215656D01*
X187840000Y-36207565D01*
X188340000Y-36207565D01*
X188342599Y-36215656D01*
X188351095Y-36215795D01*
X188471054Y-36179405D01*
X188477745Y-36176634D01*
X188645052Y-36087206D01*
X188651067Y-36083188D01*
X188797717Y-35962834D01*
X188802834Y-35957717D01*
X188923188Y-35811067D01*
X188927206Y-35805052D01*
X189016634Y-35637745D01*
X189019405Y-35631054D01*
X189055795Y-35511095D01*
X189055656Y-35502599D01*
X189047565Y-35500000D01*
X188349743Y-35500000D01*
X188342059Y-35502059D01*
X188340000Y-35509743D01*
X188340000Y-36207565D01*
X187840000Y-36207565D01*
X187840000Y-35509743D01*
X187837940Y-35502059D01*
X187830257Y-35500000D01*
X187132435Y-35500000D01*
X187124343Y-35502599D01*
X187124204Y-35511095D01*
X186568567Y-35511095D01*
X186585300Y-35455934D01*
X186605583Y-35250000D01*
X189574417Y-35250000D01*
X189594700Y-35455934D01*
X189595752Y-35459402D01*
X189595753Y-35459407D01*
X189613665Y-35518455D01*
X189654768Y-35653954D01*
X189656483Y-35657162D01*
X189750598Y-35833239D01*
X189750601Y-35833244D01*
X189752315Y-35836450D01*
X189754622Y-35839261D01*
X189754624Y-35839264D01*
X189836664Y-35939230D01*
X189883590Y-35996410D01*
X189886400Y-35998716D01*
X190033878Y-36119748D01*
X190043550Y-36127685D01*
X190046758Y-36129399D01*
X190046760Y-36129401D01*
X190075240Y-36144624D01*
X190226046Y-36225232D01*
X190424066Y-36285300D01*
X190630000Y-36305583D01*
X190835934Y-36285300D01*
X191033954Y-36225232D01*
X191216450Y-36127685D01*
X191376410Y-35996410D01*
X191507685Y-35836450D01*
X191605232Y-35653954D01*
X191665300Y-35455934D01*
X191685583Y-35250000D01*
X192114417Y-35250000D01*
X192134700Y-35455934D01*
X192135752Y-35459402D01*
X192135753Y-35459407D01*
X192153665Y-35518455D01*
X192194768Y-35653954D01*
X192196483Y-35657162D01*
X192290598Y-35833239D01*
X192290601Y-35833244D01*
X192292315Y-35836450D01*
X192294622Y-35839261D01*
X192294624Y-35839264D01*
X192376664Y-35939230D01*
X192423590Y-35996410D01*
X192426400Y-35998716D01*
X192573878Y-36119748D01*
X192583550Y-36127685D01*
X192586758Y-36129399D01*
X192586760Y-36129401D01*
X192615240Y-36144624D01*
X192766046Y-36225232D01*
X192964066Y-36285300D01*
X193170000Y-36305583D01*
X193375934Y-36285300D01*
X193573954Y-36225232D01*
X193756450Y-36127685D01*
X193916410Y-35996410D01*
X194047685Y-35836450D01*
X194145232Y-35653954D01*
X194205300Y-35455934D01*
X194225583Y-35250000D01*
X194654417Y-35250000D01*
X194674700Y-35455934D01*
X194675752Y-35459402D01*
X194675753Y-35459407D01*
X194693665Y-35518455D01*
X194734768Y-35653954D01*
X194736483Y-35657162D01*
X194830598Y-35833239D01*
X194830601Y-35833244D01*
X194832315Y-35836450D01*
X194834622Y-35839261D01*
X194834624Y-35839264D01*
X194916664Y-35939230D01*
X194963590Y-35996410D01*
X194966400Y-35998716D01*
X195113878Y-36119748D01*
X195123550Y-36127685D01*
X195126758Y-36129399D01*
X195126760Y-36129401D01*
X195155240Y-36144624D01*
X195306046Y-36225232D01*
X195504066Y-36285300D01*
X195710000Y-36305583D01*
X195915934Y-36285300D01*
X196113954Y-36225232D01*
X196296450Y-36127685D01*
X196456410Y-35996410D01*
X196587685Y-35836450D01*
X196685232Y-35653954D01*
X196745300Y-35455934D01*
X196765583Y-35250000D01*
X196745300Y-35044066D01*
X196685232Y-34846046D01*
X196587685Y-34663550D01*
X196456410Y-34503590D01*
X196310557Y-34383892D01*
X196299264Y-34374624D01*
X196299261Y-34374622D01*
X196296450Y-34372315D01*
X196293244Y-34370601D01*
X196293239Y-34370598D01*
X196131607Y-34284204D01*
X196113954Y-34274768D01*
X196110473Y-34273712D01*
X195919407Y-34215753D01*
X195919402Y-34215752D01*
X195915934Y-34214700D01*
X195912322Y-34214344D01*
X195912321Y-34214344D01*
X195713614Y-34194773D01*
X195710000Y-34194417D01*
X195706386Y-34194773D01*
X195507678Y-34214344D01*
X195507675Y-34214344D01*
X195504066Y-34214700D01*
X195500599Y-34215751D01*
X195500592Y-34215753D01*
X195309526Y-34273712D01*
X195309522Y-34273713D01*
X195306046Y-34274768D01*
X195302839Y-34276482D01*
X195302837Y-34276483D01*
X195126760Y-34370598D01*
X195126750Y-34370604D01*
X195123550Y-34372315D01*
X195120742Y-34374618D01*
X195120735Y-34374624D01*
X194966400Y-34501283D01*
X194966394Y-34501288D01*
X194963590Y-34503590D01*
X194961288Y-34506394D01*
X194961283Y-34506400D01*
X194834624Y-34660735D01*
X194834618Y-34660742D01*
X194832315Y-34663550D01*
X194830604Y-34666750D01*
X194830598Y-34666760D01*
X194738197Y-34839630D01*
X194734768Y-34846046D01*
X194733713Y-34849522D01*
X194733712Y-34849526D01*
X194675753Y-35040592D01*
X194675751Y-35040599D01*
X194674700Y-35044066D01*
X194654417Y-35250000D01*
X194225583Y-35250000D01*
X194205300Y-35044066D01*
X194145232Y-34846046D01*
X194047685Y-34663550D01*
X193916410Y-34503590D01*
X193770557Y-34383892D01*
X193759264Y-34374624D01*
X193759261Y-34374622D01*
X193756450Y-34372315D01*
X193753244Y-34370601D01*
X193753239Y-34370598D01*
X193591607Y-34284204D01*
X193573954Y-34274768D01*
X193570473Y-34273712D01*
X193379407Y-34215753D01*
X193379402Y-34215752D01*
X193375934Y-34214700D01*
X193372322Y-34214344D01*
X193372321Y-34214344D01*
X193173614Y-34194773D01*
X193170000Y-34194417D01*
X193166386Y-34194773D01*
X192967678Y-34214344D01*
X192967675Y-34214344D01*
X192964066Y-34214700D01*
X192960599Y-34215751D01*
X192960592Y-34215753D01*
X192769526Y-34273712D01*
X192769522Y-34273713D01*
X192766046Y-34274768D01*
X192762839Y-34276482D01*
X192762837Y-34276483D01*
X192586760Y-34370598D01*
X192586750Y-34370604D01*
X192583550Y-34372315D01*
X192580742Y-34374618D01*
X192580735Y-34374624D01*
X192426400Y-34501283D01*
X192426394Y-34501288D01*
X192423590Y-34503590D01*
X192421288Y-34506394D01*
X192421283Y-34506400D01*
X192294624Y-34660735D01*
X192294618Y-34660742D01*
X192292315Y-34663550D01*
X192290604Y-34666750D01*
X192290598Y-34666760D01*
X192198197Y-34839630D01*
X192194768Y-34846046D01*
X192193713Y-34849522D01*
X192193712Y-34849526D01*
X192135753Y-35040592D01*
X192135751Y-35040599D01*
X192134700Y-35044066D01*
X192114417Y-35250000D01*
X191685583Y-35250000D01*
X191665300Y-35044066D01*
X191605232Y-34846046D01*
X191507685Y-34663550D01*
X191376410Y-34503590D01*
X191230557Y-34383892D01*
X191219264Y-34374624D01*
X191219261Y-34374622D01*
X191216450Y-34372315D01*
X191213244Y-34370601D01*
X191213239Y-34370598D01*
X191051607Y-34284204D01*
X191033954Y-34274768D01*
X191030473Y-34273712D01*
X190839407Y-34215753D01*
X190839402Y-34215752D01*
X190835934Y-34214700D01*
X190832322Y-34214344D01*
X190832321Y-34214344D01*
X190633614Y-34194773D01*
X190630000Y-34194417D01*
X190626386Y-34194773D01*
X190427678Y-34214344D01*
X190427675Y-34214344D01*
X190424066Y-34214700D01*
X190420599Y-34215751D01*
X190420592Y-34215753D01*
X190229526Y-34273712D01*
X190229522Y-34273713D01*
X190226046Y-34274768D01*
X190222839Y-34276482D01*
X190222837Y-34276483D01*
X190046760Y-34370598D01*
X190046750Y-34370604D01*
X190043550Y-34372315D01*
X190040742Y-34374618D01*
X190040735Y-34374624D01*
X189886400Y-34501283D01*
X189886394Y-34501288D01*
X189883590Y-34503590D01*
X189881288Y-34506394D01*
X189881283Y-34506400D01*
X189754624Y-34660735D01*
X189754618Y-34660742D01*
X189752315Y-34663550D01*
X189750604Y-34666750D01*
X189750598Y-34666760D01*
X189658197Y-34839630D01*
X189654768Y-34846046D01*
X189653713Y-34849522D01*
X189653712Y-34849526D01*
X189595753Y-35040592D01*
X189595751Y-35040599D01*
X189594700Y-35044066D01*
X189574417Y-35250000D01*
X186605583Y-35250000D01*
X186585300Y-35044066D01*
X186568567Y-34988904D01*
X187124204Y-34988904D01*
X187124343Y-34997400D01*
X187132435Y-35000000D01*
X187830257Y-35000000D01*
X187837940Y-34997940D01*
X187840000Y-34990257D01*
X188340000Y-34990257D01*
X188342059Y-34997940D01*
X188349743Y-35000000D01*
X189047565Y-35000000D01*
X189055656Y-34997400D01*
X189055795Y-34988904D01*
X189019405Y-34868945D01*
X189016634Y-34862254D01*
X188927206Y-34694947D01*
X188923188Y-34688932D01*
X188802834Y-34542282D01*
X188797717Y-34537165D01*
X188651067Y-34416811D01*
X188645052Y-34412793D01*
X188477745Y-34323365D01*
X188471054Y-34320594D01*
X188351095Y-34284204D01*
X188342599Y-34284343D01*
X188340000Y-34292435D01*
X188340000Y-34990257D01*
X187840000Y-34990257D01*
X187840000Y-34292435D01*
X187837400Y-34284343D01*
X187828904Y-34284204D01*
X187708945Y-34320594D01*
X187702254Y-34323365D01*
X187534947Y-34412793D01*
X187528932Y-34416811D01*
X187382282Y-34537165D01*
X187377165Y-34542282D01*
X187256811Y-34688932D01*
X187252793Y-34694947D01*
X187163365Y-34862254D01*
X187160594Y-34868945D01*
X187124204Y-34988904D01*
X186568567Y-34988904D01*
X186525232Y-34846046D01*
X186427685Y-34663550D01*
X186296410Y-34503590D01*
X186150557Y-34383892D01*
X186139264Y-34374624D01*
X186139261Y-34374622D01*
X186136450Y-34372315D01*
X186133244Y-34370601D01*
X186133239Y-34370598D01*
X185971607Y-34284204D01*
X185953954Y-34274768D01*
X185950473Y-34273712D01*
X185759407Y-34215753D01*
X185759402Y-34215752D01*
X185755934Y-34214700D01*
X185752322Y-34214344D01*
X185752321Y-34214344D01*
X185553614Y-34194773D01*
X185550000Y-34194417D01*
X185546386Y-34194773D01*
X185347678Y-34214344D01*
X185347675Y-34214344D01*
X185344066Y-34214700D01*
X185340599Y-34215751D01*
X185340592Y-34215753D01*
X185149526Y-34273712D01*
X185149522Y-34273713D01*
X185146046Y-34274768D01*
X185142839Y-34276482D01*
X185142837Y-34276483D01*
X184966760Y-34370598D01*
X184966750Y-34370604D01*
X184963550Y-34372315D01*
X184960742Y-34374618D01*
X184960735Y-34374624D01*
X184806400Y-34501283D01*
X184806394Y-34501288D01*
X184803590Y-34503590D01*
X184801288Y-34506394D01*
X184801283Y-34506400D01*
X184674624Y-34660735D01*
X184674618Y-34660742D01*
X184672315Y-34663550D01*
X184670604Y-34666750D01*
X184670598Y-34666760D01*
X184578197Y-34839630D01*
X184574768Y-34846046D01*
X184573713Y-34849522D01*
X184573712Y-34849526D01*
X184515753Y-35040592D01*
X184515751Y-35040599D01*
X184514700Y-35044066D01*
X184494417Y-35250000D01*
X184065583Y-35250000D01*
X184045300Y-35044066D01*
X183985232Y-34846046D01*
X183887685Y-34663550D01*
X183756410Y-34503590D01*
X183610557Y-34383892D01*
X183599264Y-34374624D01*
X183599261Y-34374622D01*
X183596450Y-34372315D01*
X183593244Y-34370601D01*
X183593239Y-34370598D01*
X183431607Y-34284204D01*
X183413954Y-34274768D01*
X183410473Y-34273712D01*
X183219407Y-34215753D01*
X183219402Y-34215752D01*
X183215934Y-34214700D01*
X183212322Y-34214344D01*
X183212321Y-34214344D01*
X183013614Y-34194773D01*
X183010000Y-34194417D01*
X183006386Y-34194773D01*
X182807678Y-34214344D01*
X182807675Y-34214344D01*
X182804066Y-34214700D01*
X182800599Y-34215751D01*
X182800592Y-34215753D01*
X182609526Y-34273712D01*
X182609522Y-34273713D01*
X182606046Y-34274768D01*
X182602839Y-34276482D01*
X182602837Y-34276483D01*
X182426760Y-34370598D01*
X182426750Y-34370604D01*
X182423550Y-34372315D01*
X182420742Y-34374618D01*
X182420735Y-34374624D01*
X182266400Y-34501283D01*
X182266394Y-34501288D01*
X182263590Y-34503590D01*
X182261288Y-34506394D01*
X182261283Y-34506400D01*
X182134624Y-34660735D01*
X182134618Y-34660742D01*
X182132315Y-34663550D01*
X182130604Y-34666750D01*
X182130598Y-34666760D01*
X182038197Y-34839630D01*
X182034768Y-34846046D01*
X182033713Y-34849522D01*
X182033712Y-34849526D01*
X181975753Y-35040592D01*
X181975751Y-35040599D01*
X181974700Y-35044066D01*
X181954417Y-35250000D01*
X181525583Y-35250000D01*
X181505300Y-35044066D01*
X181445232Y-34846046D01*
X181347685Y-34663550D01*
X181216410Y-34503590D01*
X181070557Y-34383892D01*
X181059264Y-34374624D01*
X181059261Y-34374622D01*
X181056450Y-34372315D01*
X181053244Y-34370601D01*
X181053239Y-34370598D01*
X180891607Y-34284204D01*
X180873954Y-34274768D01*
X180870473Y-34273712D01*
X180679407Y-34215753D01*
X180679402Y-34215752D01*
X180675934Y-34214700D01*
X180672322Y-34214344D01*
X180672321Y-34214344D01*
X180473614Y-34194773D01*
X180470000Y-34194417D01*
X180466386Y-34194773D01*
X180267678Y-34214344D01*
X180267675Y-34214344D01*
X180264066Y-34214700D01*
X180260599Y-34215751D01*
X180260592Y-34215753D01*
X180069526Y-34273712D01*
X180069522Y-34273713D01*
X180066046Y-34274768D01*
X180062839Y-34276482D01*
X180062837Y-34276483D01*
X179886760Y-34370598D01*
X179886750Y-34370604D01*
X179883550Y-34372315D01*
X179880742Y-34374618D01*
X179880735Y-34374624D01*
X179726400Y-34501283D01*
X179726394Y-34501288D01*
X179723590Y-34503590D01*
X179721288Y-34506394D01*
X179721283Y-34506400D01*
X179594624Y-34660735D01*
X179594618Y-34660742D01*
X179592315Y-34663550D01*
X179590604Y-34666750D01*
X179590598Y-34666760D01*
X179498197Y-34839630D01*
X179494768Y-34846046D01*
X179493713Y-34849522D01*
X179493712Y-34849526D01*
X179435753Y-35040592D01*
X179435751Y-35040599D01*
X179434700Y-35044066D01*
X179414417Y-35250000D01*
X178985583Y-35250000D01*
X178965300Y-35044066D01*
X178905232Y-34846046D01*
X178807685Y-34663550D01*
X178676410Y-34503590D01*
X178530557Y-34383892D01*
X178519264Y-34374624D01*
X178519261Y-34374622D01*
X178516450Y-34372315D01*
X178513244Y-34370601D01*
X178513239Y-34370598D01*
X178351607Y-34284204D01*
X178333954Y-34274768D01*
X178330473Y-34273712D01*
X178139407Y-34215753D01*
X178139402Y-34215752D01*
X178135934Y-34214700D01*
X178132322Y-34214344D01*
X178132321Y-34214344D01*
X177933614Y-34194773D01*
X177930000Y-34194417D01*
X177926386Y-34194773D01*
X177727678Y-34214344D01*
X177727675Y-34214344D01*
X177724066Y-34214700D01*
X177720599Y-34215751D01*
X177720592Y-34215753D01*
X177529526Y-34273712D01*
X177529522Y-34273713D01*
X177526046Y-34274768D01*
X177522839Y-34276482D01*
X177522837Y-34276483D01*
X177346760Y-34370598D01*
X177346750Y-34370604D01*
X177343550Y-34372315D01*
X177340742Y-34374618D01*
X177340735Y-34374624D01*
X177186400Y-34501283D01*
X177186394Y-34501288D01*
X177183590Y-34503590D01*
X177181288Y-34506394D01*
X177181283Y-34506400D01*
X177054624Y-34660735D01*
X177054618Y-34660742D01*
X177052315Y-34663550D01*
X177050604Y-34666750D01*
X177050598Y-34666760D01*
X176958197Y-34839630D01*
X176954768Y-34846046D01*
X176953713Y-34849522D01*
X176953712Y-34849526D01*
X176895753Y-35040592D01*
X176895751Y-35040599D01*
X176894700Y-35044066D01*
X176874417Y-35250000D01*
X176894700Y-35455934D01*
X176895752Y-35459402D01*
X176895753Y-35459407D01*
X176913665Y-35518455D01*
X176954768Y-35653954D01*
X176956483Y-35657162D01*
X176957872Y-35660515D01*
X176956339Y-35661149D01*
X176963161Y-35700582D01*
X176942292Y-35742025D01*
X176483286Y-36201030D01*
X176471439Y-36210651D01*
X176464463Y-36215209D01*
X176464459Y-36215212D01*
X176459331Y-36218563D01*
X176455571Y-36223393D01*
X176455564Y-36223400D01*
X176439590Y-36243923D01*
X176434509Y-36249677D01*
X176433781Y-36250536D01*
X176431625Y-36252693D01*
X176429851Y-36255176D01*
X176429842Y-36255188D01*
X176419848Y-36269186D01*
X176418024Y-36271633D01*
X176396111Y-36299789D01*
X176387483Y-36310874D01*
X176385635Y-36316255D01*
X176385543Y-36316445D01*
X176384151Y-36319150D01*
X176384072Y-36319292D01*
X176380760Y-36323934D01*
X176379012Y-36329802D01*
X176379012Y-36329804D01*
X176366577Y-36371569D01*
X176365645Y-36374476D01*
X176351491Y-36415707D01*
X176351489Y-36415717D01*
X176349500Y-36421512D01*
X176349500Y-36427217D01*
X176349479Y-36427387D01*
X176349041Y-36430394D01*
X176349009Y-36430584D01*
X176347383Y-36436046D01*
X176347636Y-36442169D01*
X176347636Y-36442172D01*
X176349437Y-36485708D01*
X176349500Y-36488766D01*
X176349500Y-37176028D01*
X176336001Y-37218638D01*
X176300430Y-37245702D01*
X176255763Y-37247347D01*
X176218297Y-37222973D01*
X176102834Y-37082282D01*
X176097717Y-37077165D01*
X175951067Y-36956811D01*
X175945052Y-36952793D01*
X175777745Y-36863365D01*
X175771054Y-36860594D01*
X175651095Y-36824204D01*
X175642599Y-36824343D01*
X175640000Y-36832435D01*
X175640000Y-38747565D01*
X175642599Y-38755656D01*
X175651095Y-38755795D01*
X175771054Y-38719405D01*
X175777745Y-38716634D01*
X175945052Y-38627206D01*
X175951067Y-38623188D01*
X176097717Y-38502834D01*
X176102834Y-38497717D01*
X176218297Y-38357027D01*
X176255763Y-38332653D01*
X176300430Y-38334298D01*
X176336001Y-38361362D01*
X176349500Y-38403972D01*
X176349500Y-39155974D01*
X176347925Y-39171160D01*
X176346215Y-39179312D01*
X176346214Y-39179316D01*
X176344957Y-39185315D01*
X176345715Y-39191396D01*
X176345715Y-39191399D01*
X176348932Y-39217202D01*
X176349407Y-39224872D01*
X176349500Y-39225993D01*
X176349500Y-39229040D01*
X176350002Y-39232052D01*
X176350003Y-39232057D01*
X176352833Y-39249020D01*
X176353274Y-39252043D01*
X176355181Y-39267340D01*
X176351740Y-39300521D01*
X176334075Y-39328820D01*
X173885071Y-41777826D01*
X173861064Y-41793867D01*
X173832745Y-41799500D01*
X172529459Y-41799500D01*
X172521174Y-41799035D01*
X172488472Y-41795350D01*
X172488468Y-41795350D01*
X172482965Y-41794730D01*
X172477522Y-41795759D01*
X172477515Y-41795760D01*
X172425864Y-41805532D01*
X172423140Y-41805995D01*
X172371194Y-41813825D01*
X172371188Y-41813826D01*
X172365713Y-41814652D01*
X172360723Y-41817054D01*
X172357955Y-41817908D01*
X172357828Y-41817939D01*
X172357726Y-41817982D01*
X172354972Y-41818945D01*
X172349529Y-41819976D01*
X172344631Y-41822564D01*
X172344624Y-41822567D01*
X172298138Y-41847135D01*
X172295671Y-41848381D01*
X172248350Y-41871170D01*
X172248345Y-41871173D01*
X172243358Y-41873575D01*
X172239298Y-41877341D01*
X172236891Y-41878982D01*
X172236793Y-41879041D01*
X172236705Y-41879114D01*
X172234359Y-41880845D01*
X172229463Y-41883434D01*
X172225546Y-41887350D01*
X172225543Y-41887353D01*
X172188379Y-41924516D01*
X172186388Y-41926434D01*
X172143806Y-41965945D01*
X172141035Y-41970742D01*
X172139224Y-41973014D01*
X172133699Y-41979196D01*
X171702276Y-42410619D01*
X171696090Y-42416147D01*
X171670363Y-42436664D01*
X171670357Y-42436669D01*
X171666030Y-42440121D01*
X171662913Y-42444692D01*
X171662908Y-42444698D01*
X171633298Y-42488128D01*
X171631698Y-42490383D01*
X171609245Y-42520807D01*
X171597207Y-42537118D01*
X171595378Y-42542342D01*
X171594024Y-42544905D01*
X171593957Y-42545015D01*
X171593913Y-42545123D01*
X171592648Y-42547749D01*
X171589528Y-42552327D01*
X171587894Y-42557623D01*
X171587894Y-42557624D01*
X171572405Y-42607837D01*
X171571541Y-42610463D01*
X171554183Y-42660070D01*
X171554181Y-42660078D01*
X171552354Y-42665301D01*
X171552146Y-42670834D01*
X171551606Y-42673691D01*
X171551577Y-42673807D01*
X171551566Y-42673926D01*
X171551132Y-42676802D01*
X171549500Y-42682098D01*
X171549500Y-42687643D01*
X171549500Y-42740197D01*
X171549448Y-42742964D01*
X171547483Y-42795463D01*
X171547483Y-42795466D01*
X171547276Y-42801010D01*
X171548712Y-42806371D01*
X171549035Y-42809232D01*
X171549500Y-42817518D01*
X171549500Y-46270541D01*
X171549035Y-46278826D01*
X171545350Y-46311527D01*
X171545350Y-46311530D01*
X171544730Y-46317035D01*
X171545759Y-46322478D01*
X171545760Y-46322481D01*
X171555533Y-46374132D01*
X171555996Y-46376860D01*
X171563824Y-46428798D01*
X171563825Y-46428802D01*
X171564652Y-46434287D01*
X171567059Y-46439286D01*
X171567907Y-46442033D01*
X171567942Y-46442177D01*
X171567987Y-46442284D01*
X171568946Y-46445026D01*
X171569977Y-46450472D01*
X171597140Y-46501867D01*
X171598366Y-46504295D01*
X171623575Y-46556642D01*
X171627342Y-46560703D01*
X171628972Y-46563093D01*
X171629039Y-46563204D01*
X171629115Y-46563296D01*
X171630844Y-46565638D01*
X171633434Y-46570538D01*
X171637353Y-46574457D01*
X171674513Y-46611617D01*
X171676433Y-46613610D01*
X171715945Y-46656194D01*
X171720748Y-46658967D01*
X171723004Y-46660766D01*
X171729192Y-46666296D01*
X174027826Y-48964929D01*
X174043867Y-48988936D01*
X174049500Y-49017255D01*
X174049500Y-72457744D01*
X174043867Y-72486063D01*
X174027826Y-72510070D01*
X173624880Y-72913015D01*
X173593404Y-72931691D01*
X173570027Y-72938555D01*
X173570024Y-72938556D01*
X173564947Y-72940047D01*
X173560494Y-72942908D01*
X173560491Y-72942910D01*
X173448324Y-73014995D01*
X173448320Y-73014998D01*
X173443872Y-73017857D01*
X173440409Y-73021852D01*
X173440406Y-73021856D01*
X173353086Y-73122629D01*
X173353082Y-73122634D01*
X173349623Y-73126627D01*
X173347427Y-73131435D01*
X173347426Y-73131437D01*
X173339663Y-73148437D01*
X173289835Y-73257543D01*
X173289082Y-73262778D01*
X173289081Y-73262783D01*
X173280451Y-73322810D01*
X173269353Y-73400000D01*
X173270106Y-73405237D01*
X173288837Y-73535522D01*
X173289835Y-73542457D01*
X173349623Y-73673373D01*
X173353084Y-73677368D01*
X173353086Y-73677370D01*
X173385688Y-73714995D01*
X173443872Y-73782143D01*
X173564947Y-73859953D01*
X173570020Y-73861442D01*
X173570021Y-73861443D01*
X173580358Y-73864478D01*
X173606677Y-73872206D01*
X173612573Y-73873937D01*
X173653008Y-73903462D01*
X173665390Y-73951974D01*
X173644051Y-73997266D01*
X173513492Y-74127826D01*
X173489485Y-74143867D01*
X173461166Y-74149500D01*
X168794027Y-74149500D01*
X168778841Y-74147925D01*
X168770688Y-74146215D01*
X168770684Y-74146214D01*
X168764686Y-74144957D01*
X168758604Y-74145715D01*
X168758601Y-74145715D01*
X168732799Y-74148932D01*
X168725123Y-74149408D01*
X168724013Y-74149500D01*
X168720960Y-74149500D01*
X168717949Y-74150002D01*
X168717941Y-74150003D01*
X168700968Y-74152835D01*
X168697946Y-74153276D01*
X168654690Y-74158668D01*
X168654685Y-74158669D01*
X168648608Y-74159427D01*
X168643496Y-74161925D01*
X168643306Y-74161992D01*
X168640421Y-74162917D01*
X168640242Y-74162969D01*
X168634619Y-74163908D01*
X168629230Y-74166824D01*
X168629225Y-74166826D01*
X168590887Y-74187573D01*
X168588171Y-74188971D01*
X168549022Y-74208110D01*
X168549018Y-74208112D01*
X168543517Y-74210802D01*
X168539494Y-74214823D01*
X168539337Y-74214947D01*
X168536898Y-74216766D01*
X168536748Y-74216872D01*
X168531742Y-74219582D01*
X168527592Y-74224089D01*
X168527588Y-74224093D01*
X168498061Y-74256166D01*
X168495945Y-74258372D01*
X167533286Y-75221030D01*
X167521439Y-75230651D01*
X167514463Y-75235209D01*
X167514459Y-75235212D01*
X167509331Y-75238563D01*
X167505571Y-75243393D01*
X167505564Y-75243400D01*
X167489590Y-75263923D01*
X167484509Y-75269677D01*
X167483781Y-75270536D01*
X167481625Y-75272693D01*
X167479851Y-75275176D01*
X167479842Y-75275188D01*
X167469848Y-75289186D01*
X167468024Y-75291633D01*
X167442954Y-75323843D01*
X167437483Y-75330874D01*
X167435635Y-75336255D01*
X167435543Y-75336445D01*
X167434151Y-75339150D01*
X167434072Y-75339292D01*
X167430760Y-75343934D01*
X167429012Y-75349802D01*
X167429012Y-75349804D01*
X167416577Y-75391569D01*
X167415645Y-75394476D01*
X167401491Y-75435707D01*
X167401489Y-75435717D01*
X167399500Y-75441512D01*
X167399500Y-75447217D01*
X167399479Y-75447387D01*
X167399041Y-75450394D01*
X167399009Y-75450584D01*
X167397383Y-75456046D01*
X167397636Y-75462169D01*
X167397636Y-75462172D01*
X167399437Y-75505708D01*
X167399500Y-75508766D01*
X167399500Y-77325500D01*
X167389586Y-77362500D01*
X167362500Y-77389586D01*
X167325500Y-77399500D01*
X166880252Y-77399500D01*
X166876684Y-77400209D01*
X166876681Y-77400210D01*
X166828920Y-77409710D01*
X166828917Y-77409711D01*
X166821769Y-77411133D01*
X166815706Y-77415183D01*
X166815706Y-77415184D01*
X166761508Y-77451398D01*
X166761505Y-77451400D01*
X166755448Y-77455448D01*
X166751400Y-77461505D01*
X166751398Y-77461508D01*
X166715184Y-77515706D01*
X166711133Y-77521769D01*
X166709711Y-77528917D01*
X166709710Y-77528920D01*
X166700619Y-77574624D01*
X166699500Y-77580252D01*
X166699500Y-79319748D01*
X166711133Y-79378231D01*
X166755448Y-79444552D01*
X166821769Y-79488867D01*
X166880252Y-79500500D01*
X168616108Y-79500500D01*
X168619748Y-79500500D01*
X168678231Y-79488867D01*
X168744552Y-79444552D01*
X168788867Y-79378231D01*
X168800500Y-79319748D01*
X168800500Y-78711095D01*
X169324204Y-78711095D01*
X169360594Y-78831054D01*
X169363365Y-78837745D01*
X169452793Y-79005052D01*
X169456811Y-79011067D01*
X169577165Y-79157717D01*
X169582282Y-79162834D01*
X169728932Y-79283188D01*
X169734947Y-79287206D01*
X169902254Y-79376634D01*
X169908945Y-79379405D01*
X170028904Y-79415795D01*
X170037400Y-79415656D01*
X170040000Y-79407565D01*
X170540000Y-79407565D01*
X170542599Y-79415656D01*
X170551095Y-79415795D01*
X170671054Y-79379405D01*
X170677745Y-79376634D01*
X170845052Y-79287206D01*
X170851067Y-79283188D01*
X170997717Y-79162834D01*
X171002834Y-79157717D01*
X171123188Y-79011067D01*
X171127206Y-79005052D01*
X171216634Y-78837745D01*
X171219405Y-78831054D01*
X171255795Y-78711095D01*
X171255656Y-78702599D01*
X171247565Y-78700000D01*
X170549743Y-78700000D01*
X170542059Y-78702059D01*
X170540000Y-78709743D01*
X170540000Y-79407565D01*
X170040000Y-79407565D01*
X170040000Y-78709743D01*
X170037940Y-78702059D01*
X170030257Y-78700000D01*
X169332435Y-78700000D01*
X169324343Y-78702599D01*
X169324204Y-78711095D01*
X168800500Y-78711095D01*
X168800500Y-78450000D01*
X171774417Y-78450000D01*
X171794700Y-78655934D01*
X171795752Y-78659402D01*
X171795753Y-78659407D01*
X171821984Y-78745878D01*
X171854768Y-78853954D01*
X171856483Y-78857162D01*
X171950598Y-79033239D01*
X171950601Y-79033244D01*
X171952315Y-79036450D01*
X172083590Y-79196410D01*
X172086400Y-79198716D01*
X172233878Y-79319748D01*
X172243550Y-79327685D01*
X172426046Y-79425232D01*
X172624066Y-79485300D01*
X172830000Y-79505583D01*
X173035934Y-79485300D01*
X173233954Y-79425232D01*
X173416450Y-79327685D01*
X173576410Y-79196410D01*
X173707685Y-79036450D01*
X173805232Y-78853954D01*
X173865300Y-78655934D01*
X173885583Y-78450000D01*
X174314417Y-78450000D01*
X174334700Y-78655934D01*
X174335752Y-78659402D01*
X174335753Y-78659407D01*
X174361984Y-78745878D01*
X174394768Y-78853954D01*
X174396483Y-78857162D01*
X174490598Y-79033239D01*
X174490601Y-79033244D01*
X174492315Y-79036450D01*
X174623590Y-79196410D01*
X174626400Y-79198716D01*
X174773878Y-79319748D01*
X174783550Y-79327685D01*
X174966046Y-79425232D01*
X175164066Y-79485300D01*
X175370000Y-79505583D01*
X175575934Y-79485300D01*
X175773954Y-79425232D01*
X175956450Y-79327685D01*
X176116410Y-79196410D01*
X176247685Y-79036450D01*
X176345232Y-78853954D01*
X176405300Y-78655934D01*
X176425583Y-78450000D01*
X176854417Y-78450000D01*
X176874700Y-78655934D01*
X176875752Y-78659402D01*
X176875753Y-78659407D01*
X176901984Y-78745878D01*
X176934768Y-78853954D01*
X176936483Y-78857162D01*
X177030598Y-79033239D01*
X177030601Y-79033244D01*
X177032315Y-79036450D01*
X177163590Y-79196410D01*
X177166400Y-79198716D01*
X177313878Y-79319748D01*
X177323550Y-79327685D01*
X177506046Y-79425232D01*
X177704066Y-79485300D01*
X177910000Y-79505583D01*
X178115934Y-79485300D01*
X178313954Y-79425232D01*
X178496450Y-79327685D01*
X178656410Y-79196410D01*
X178787685Y-79036450D01*
X178885232Y-78853954D01*
X178945300Y-78655934D01*
X178965583Y-78450000D01*
X179394417Y-78450000D01*
X179414700Y-78655934D01*
X179415752Y-78659402D01*
X179415753Y-78659407D01*
X179441984Y-78745878D01*
X179474768Y-78853954D01*
X179476483Y-78857162D01*
X179570598Y-79033239D01*
X179570601Y-79033244D01*
X179572315Y-79036450D01*
X179703590Y-79196410D01*
X179706400Y-79198716D01*
X179853878Y-79319748D01*
X179863550Y-79327685D01*
X180046046Y-79425232D01*
X180244066Y-79485300D01*
X180450000Y-79505583D01*
X180655934Y-79485300D01*
X180853954Y-79425232D01*
X181036450Y-79327685D01*
X181196410Y-79196410D01*
X181327685Y-79036450D01*
X181425232Y-78853954D01*
X181485300Y-78655934D01*
X181505583Y-78450000D01*
X181934417Y-78450000D01*
X181954700Y-78655934D01*
X181955752Y-78659402D01*
X181955753Y-78659407D01*
X181981984Y-78745878D01*
X182014768Y-78853954D01*
X182016483Y-78857162D01*
X182110598Y-79033239D01*
X182110601Y-79033244D01*
X182112315Y-79036450D01*
X182243590Y-79196410D01*
X182246400Y-79198716D01*
X182393878Y-79319748D01*
X182403550Y-79327685D01*
X182586046Y-79425232D01*
X182784066Y-79485300D01*
X182990000Y-79505583D01*
X183195934Y-79485300D01*
X183393954Y-79425232D01*
X183576450Y-79327685D01*
X183736410Y-79196410D01*
X183867685Y-79036450D01*
X183965232Y-78853954D01*
X184025300Y-78655934D01*
X184045583Y-78450000D01*
X184474417Y-78450000D01*
X184494700Y-78655934D01*
X184495752Y-78659402D01*
X184495753Y-78659407D01*
X184521984Y-78745878D01*
X184554768Y-78853954D01*
X184556483Y-78857162D01*
X184650598Y-79033239D01*
X184650601Y-79033244D01*
X184652315Y-79036450D01*
X184783590Y-79196410D01*
X184786400Y-79198716D01*
X184933878Y-79319748D01*
X184943550Y-79327685D01*
X185126046Y-79425232D01*
X185324066Y-79485300D01*
X185530000Y-79505583D01*
X185735934Y-79485300D01*
X185933954Y-79425232D01*
X186116450Y-79327685D01*
X186276410Y-79196410D01*
X186407685Y-79036450D01*
X186505232Y-78853954D01*
X186565300Y-78655934D01*
X186585583Y-78450000D01*
X187014417Y-78450000D01*
X187034700Y-78655934D01*
X187035752Y-78659402D01*
X187035753Y-78659407D01*
X187061984Y-78745878D01*
X187094768Y-78853954D01*
X187096483Y-78857162D01*
X187190598Y-79033239D01*
X187190601Y-79033244D01*
X187192315Y-79036450D01*
X187323590Y-79196410D01*
X187326400Y-79198716D01*
X187473878Y-79319748D01*
X187483550Y-79327685D01*
X187666046Y-79425232D01*
X187864066Y-79485300D01*
X188070000Y-79505583D01*
X188275934Y-79485300D01*
X188473954Y-79425232D01*
X188656450Y-79327685D01*
X188816410Y-79196410D01*
X188947685Y-79036450D01*
X189045232Y-78853954D01*
X189105300Y-78655934D01*
X189125583Y-78450000D01*
X189554417Y-78450000D01*
X189574700Y-78655934D01*
X189575752Y-78659402D01*
X189575753Y-78659407D01*
X189601984Y-78745878D01*
X189634768Y-78853954D01*
X189636483Y-78857162D01*
X189730598Y-79033239D01*
X189730601Y-79033244D01*
X189732315Y-79036450D01*
X189863590Y-79196410D01*
X189866400Y-79198716D01*
X190013878Y-79319748D01*
X190023550Y-79327685D01*
X190206046Y-79425232D01*
X190404066Y-79485300D01*
X190610000Y-79505583D01*
X190815934Y-79485300D01*
X191013954Y-79425232D01*
X191196450Y-79327685D01*
X191356410Y-79196410D01*
X191487685Y-79036450D01*
X191585232Y-78853954D01*
X191645300Y-78655934D01*
X191665583Y-78450000D01*
X192094417Y-78450000D01*
X192114700Y-78655934D01*
X192115752Y-78659402D01*
X192115753Y-78659407D01*
X192141984Y-78745878D01*
X192174768Y-78853954D01*
X192176483Y-78857162D01*
X192270598Y-79033239D01*
X192270601Y-79033244D01*
X192272315Y-79036450D01*
X192403590Y-79196410D01*
X192406400Y-79198716D01*
X192553878Y-79319748D01*
X192563550Y-79327685D01*
X192746046Y-79425232D01*
X192944066Y-79485300D01*
X193150000Y-79505583D01*
X193355934Y-79485300D01*
X193553954Y-79425232D01*
X193736450Y-79327685D01*
X193896410Y-79196410D01*
X194027685Y-79036450D01*
X194125232Y-78853954D01*
X194185300Y-78655934D01*
X194205583Y-78450000D01*
X194634417Y-78450000D01*
X194654700Y-78655934D01*
X194655752Y-78659402D01*
X194655753Y-78659407D01*
X194681984Y-78745878D01*
X194714768Y-78853954D01*
X194716483Y-78857162D01*
X194810598Y-79033239D01*
X194810601Y-79033244D01*
X194812315Y-79036450D01*
X194943590Y-79196410D01*
X194946400Y-79198716D01*
X195093878Y-79319748D01*
X195103550Y-79327685D01*
X195286046Y-79425232D01*
X195484066Y-79485300D01*
X195690000Y-79505583D01*
X195895934Y-79485300D01*
X196093954Y-79425232D01*
X196276450Y-79327685D01*
X196436410Y-79196410D01*
X196567685Y-79036450D01*
X196665232Y-78853954D01*
X196725300Y-78655934D01*
X196745583Y-78450000D01*
X197174417Y-78450000D01*
X197194700Y-78655934D01*
X197195752Y-78659402D01*
X197195753Y-78659407D01*
X197221984Y-78745878D01*
X197254768Y-78853954D01*
X197256483Y-78857162D01*
X197350598Y-79033239D01*
X197350601Y-79033244D01*
X197352315Y-79036450D01*
X197483590Y-79196410D01*
X197486400Y-79198716D01*
X197633878Y-79319748D01*
X197643550Y-79327685D01*
X197826046Y-79425232D01*
X198024066Y-79485300D01*
X198230000Y-79505583D01*
X198435934Y-79485300D01*
X198633954Y-79425232D01*
X198816450Y-79327685D01*
X198976410Y-79196410D01*
X199107685Y-79036450D01*
X199205232Y-78853954D01*
X199265300Y-78655934D01*
X199285583Y-78450000D01*
X199265300Y-78244066D01*
X199205232Y-78046046D01*
X199107685Y-77863550D01*
X198976410Y-77703590D01*
X198865773Y-77612793D01*
X198819264Y-77574624D01*
X198819261Y-77574622D01*
X198816450Y-77572315D01*
X198813244Y-77570601D01*
X198813239Y-77570598D01*
X198651607Y-77484204D01*
X198633954Y-77474768D01*
X198630473Y-77473712D01*
X198439407Y-77415753D01*
X198439402Y-77415752D01*
X198435934Y-77414700D01*
X198432322Y-77414344D01*
X198432321Y-77414344D01*
X198233614Y-77394773D01*
X198230000Y-77394417D01*
X198226386Y-77394773D01*
X198027678Y-77414344D01*
X198027675Y-77414344D01*
X198024066Y-77414700D01*
X198020599Y-77415751D01*
X198020592Y-77415753D01*
X197829526Y-77473712D01*
X197829522Y-77473713D01*
X197826046Y-77474768D01*
X197822839Y-77476482D01*
X197822837Y-77476483D01*
X197646760Y-77570598D01*
X197646750Y-77570604D01*
X197643550Y-77572315D01*
X197640742Y-77574618D01*
X197640735Y-77574624D01*
X197486400Y-77701283D01*
X197486394Y-77701288D01*
X197483590Y-77703590D01*
X197481288Y-77706394D01*
X197481283Y-77706400D01*
X197354624Y-77860735D01*
X197354618Y-77860742D01*
X197352315Y-77863550D01*
X197350604Y-77866750D01*
X197350598Y-77866760D01*
X197256483Y-78042837D01*
X197254768Y-78046046D01*
X197253713Y-78049522D01*
X197253712Y-78049526D01*
X197195753Y-78240592D01*
X197195751Y-78240599D01*
X197194700Y-78244066D01*
X197174417Y-78450000D01*
X196745583Y-78450000D01*
X196725300Y-78244066D01*
X196665232Y-78046046D01*
X196567685Y-77863550D01*
X196436410Y-77703590D01*
X196325773Y-77612793D01*
X196279264Y-77574624D01*
X196279261Y-77574622D01*
X196276450Y-77572315D01*
X196273244Y-77570601D01*
X196273239Y-77570598D01*
X196111607Y-77484204D01*
X196093954Y-77474768D01*
X196090473Y-77473712D01*
X195899407Y-77415753D01*
X195899402Y-77415752D01*
X195895934Y-77414700D01*
X195892322Y-77414344D01*
X195892321Y-77414344D01*
X195693614Y-77394773D01*
X195690000Y-77394417D01*
X195686386Y-77394773D01*
X195487678Y-77414344D01*
X195487675Y-77414344D01*
X195484066Y-77414700D01*
X195480599Y-77415751D01*
X195480592Y-77415753D01*
X195289526Y-77473712D01*
X195289522Y-77473713D01*
X195286046Y-77474768D01*
X195282839Y-77476482D01*
X195282837Y-77476483D01*
X195106760Y-77570598D01*
X195106750Y-77570604D01*
X195103550Y-77572315D01*
X195100742Y-77574618D01*
X195100735Y-77574624D01*
X194946400Y-77701283D01*
X194946394Y-77701288D01*
X194943590Y-77703590D01*
X194941288Y-77706394D01*
X194941283Y-77706400D01*
X194814624Y-77860735D01*
X194814618Y-77860742D01*
X194812315Y-77863550D01*
X194810604Y-77866750D01*
X194810598Y-77866760D01*
X194716483Y-78042837D01*
X194714768Y-78046046D01*
X194713713Y-78049522D01*
X194713712Y-78049526D01*
X194655753Y-78240592D01*
X194655751Y-78240599D01*
X194654700Y-78244066D01*
X194634417Y-78450000D01*
X194205583Y-78450000D01*
X194185300Y-78244066D01*
X194125232Y-78046046D01*
X194027685Y-77863550D01*
X193896410Y-77703590D01*
X193785773Y-77612793D01*
X193739264Y-77574624D01*
X193739261Y-77574622D01*
X193736450Y-77572315D01*
X193733244Y-77570601D01*
X193733239Y-77570598D01*
X193571607Y-77484204D01*
X193553954Y-77474768D01*
X193550473Y-77473712D01*
X193359407Y-77415753D01*
X193359402Y-77415752D01*
X193355934Y-77414700D01*
X193352322Y-77414344D01*
X193352321Y-77414344D01*
X193153614Y-77394773D01*
X193150000Y-77394417D01*
X193146386Y-77394773D01*
X192947678Y-77414344D01*
X192947675Y-77414344D01*
X192944066Y-77414700D01*
X192940599Y-77415751D01*
X192940592Y-77415753D01*
X192749526Y-77473712D01*
X192749522Y-77473713D01*
X192746046Y-77474768D01*
X192742839Y-77476482D01*
X192742837Y-77476483D01*
X192566760Y-77570598D01*
X192566750Y-77570604D01*
X192563550Y-77572315D01*
X192560742Y-77574618D01*
X192560735Y-77574624D01*
X192406400Y-77701283D01*
X192406394Y-77701288D01*
X192403590Y-77703590D01*
X192401288Y-77706394D01*
X192401283Y-77706400D01*
X192274624Y-77860735D01*
X192274618Y-77860742D01*
X192272315Y-77863550D01*
X192270604Y-77866750D01*
X192270598Y-77866760D01*
X192176483Y-78042837D01*
X192174768Y-78046046D01*
X192173713Y-78049522D01*
X192173712Y-78049526D01*
X192115753Y-78240592D01*
X192115751Y-78240599D01*
X192114700Y-78244066D01*
X192094417Y-78450000D01*
X191665583Y-78450000D01*
X191645300Y-78244066D01*
X191585232Y-78046046D01*
X191487685Y-77863550D01*
X191356410Y-77703590D01*
X191245773Y-77612793D01*
X191199264Y-77574624D01*
X191199261Y-77574622D01*
X191196450Y-77572315D01*
X191193244Y-77570601D01*
X191193239Y-77570598D01*
X191031607Y-77484204D01*
X191013954Y-77474768D01*
X191010473Y-77473712D01*
X190819407Y-77415753D01*
X190819402Y-77415752D01*
X190815934Y-77414700D01*
X190812322Y-77414344D01*
X190812321Y-77414344D01*
X190613614Y-77394773D01*
X190610000Y-77394417D01*
X190606386Y-77394773D01*
X190407678Y-77414344D01*
X190407675Y-77414344D01*
X190404066Y-77414700D01*
X190400599Y-77415751D01*
X190400592Y-77415753D01*
X190209526Y-77473712D01*
X190209522Y-77473713D01*
X190206046Y-77474768D01*
X190202839Y-77476482D01*
X190202837Y-77476483D01*
X190026760Y-77570598D01*
X190026750Y-77570604D01*
X190023550Y-77572315D01*
X190020742Y-77574618D01*
X190020735Y-77574624D01*
X189866400Y-77701283D01*
X189866394Y-77701288D01*
X189863590Y-77703590D01*
X189861288Y-77706394D01*
X189861283Y-77706400D01*
X189734624Y-77860735D01*
X189734618Y-77860742D01*
X189732315Y-77863550D01*
X189730604Y-77866750D01*
X189730598Y-77866760D01*
X189636483Y-78042837D01*
X189634768Y-78046046D01*
X189633713Y-78049522D01*
X189633712Y-78049526D01*
X189575753Y-78240592D01*
X189575751Y-78240599D01*
X189574700Y-78244066D01*
X189554417Y-78450000D01*
X189125583Y-78450000D01*
X189105300Y-78244066D01*
X189045232Y-78046046D01*
X188947685Y-77863550D01*
X188816410Y-77703590D01*
X188705773Y-77612793D01*
X188659264Y-77574624D01*
X188659261Y-77574622D01*
X188656450Y-77572315D01*
X188653244Y-77570601D01*
X188653239Y-77570598D01*
X188491607Y-77484204D01*
X188473954Y-77474768D01*
X188470473Y-77473712D01*
X188279407Y-77415753D01*
X188279402Y-77415752D01*
X188275934Y-77414700D01*
X188272322Y-77414344D01*
X188272321Y-77414344D01*
X188073614Y-77394773D01*
X188070000Y-77394417D01*
X188066386Y-77394773D01*
X187867678Y-77414344D01*
X187867675Y-77414344D01*
X187864066Y-77414700D01*
X187860599Y-77415751D01*
X187860592Y-77415753D01*
X187669526Y-77473712D01*
X187669522Y-77473713D01*
X187666046Y-77474768D01*
X187662839Y-77476482D01*
X187662837Y-77476483D01*
X187486760Y-77570598D01*
X187486750Y-77570604D01*
X187483550Y-77572315D01*
X187480742Y-77574618D01*
X187480735Y-77574624D01*
X187326400Y-77701283D01*
X187326394Y-77701288D01*
X187323590Y-77703590D01*
X187321288Y-77706394D01*
X187321283Y-77706400D01*
X187194624Y-77860735D01*
X187194618Y-77860742D01*
X187192315Y-77863550D01*
X187190604Y-77866750D01*
X187190598Y-77866760D01*
X187096483Y-78042837D01*
X187094768Y-78046046D01*
X187093713Y-78049522D01*
X187093712Y-78049526D01*
X187035753Y-78240592D01*
X187035751Y-78240599D01*
X187034700Y-78244066D01*
X187014417Y-78450000D01*
X186585583Y-78450000D01*
X186565300Y-78244066D01*
X186505232Y-78046046D01*
X186407685Y-77863550D01*
X186276410Y-77703590D01*
X186165773Y-77612793D01*
X186119264Y-77574624D01*
X186119261Y-77574622D01*
X186116450Y-77572315D01*
X186113244Y-77570601D01*
X186113239Y-77570598D01*
X185951607Y-77484204D01*
X185933954Y-77474768D01*
X185930473Y-77473712D01*
X185739407Y-77415753D01*
X185739402Y-77415752D01*
X185735934Y-77414700D01*
X185732322Y-77414344D01*
X185732321Y-77414344D01*
X185533614Y-77394773D01*
X185530000Y-77394417D01*
X185526386Y-77394773D01*
X185327678Y-77414344D01*
X185327675Y-77414344D01*
X185324066Y-77414700D01*
X185320599Y-77415751D01*
X185320592Y-77415753D01*
X185129526Y-77473712D01*
X185129522Y-77473713D01*
X185126046Y-77474768D01*
X185122839Y-77476482D01*
X185122837Y-77476483D01*
X184946760Y-77570598D01*
X184946750Y-77570604D01*
X184943550Y-77572315D01*
X184940742Y-77574618D01*
X184940735Y-77574624D01*
X184786400Y-77701283D01*
X184786394Y-77701288D01*
X184783590Y-77703590D01*
X184781288Y-77706394D01*
X184781283Y-77706400D01*
X184654624Y-77860735D01*
X184654618Y-77860742D01*
X184652315Y-77863550D01*
X184650604Y-77866750D01*
X184650598Y-77866760D01*
X184556483Y-78042837D01*
X184554768Y-78046046D01*
X184553713Y-78049522D01*
X184553712Y-78049526D01*
X184495753Y-78240592D01*
X184495751Y-78240599D01*
X184494700Y-78244066D01*
X184474417Y-78450000D01*
X184045583Y-78450000D01*
X184025300Y-78244066D01*
X183965232Y-78046046D01*
X183867685Y-77863550D01*
X183736410Y-77703590D01*
X183625773Y-77612793D01*
X183579264Y-77574624D01*
X183579261Y-77574622D01*
X183576450Y-77572315D01*
X183573244Y-77570601D01*
X183573239Y-77570598D01*
X183411607Y-77484204D01*
X183393954Y-77474768D01*
X183390473Y-77473712D01*
X183199407Y-77415753D01*
X183199402Y-77415752D01*
X183195934Y-77414700D01*
X183192322Y-77414344D01*
X183192321Y-77414344D01*
X182993614Y-77394773D01*
X182990000Y-77394417D01*
X182986386Y-77394773D01*
X182787678Y-77414344D01*
X182787675Y-77414344D01*
X182784066Y-77414700D01*
X182780599Y-77415751D01*
X182780592Y-77415753D01*
X182589526Y-77473712D01*
X182589522Y-77473713D01*
X182586046Y-77474768D01*
X182582839Y-77476482D01*
X182582837Y-77476483D01*
X182406760Y-77570598D01*
X182406750Y-77570604D01*
X182403550Y-77572315D01*
X182400742Y-77574618D01*
X182400735Y-77574624D01*
X182246400Y-77701283D01*
X182246394Y-77701288D01*
X182243590Y-77703590D01*
X182241288Y-77706394D01*
X182241283Y-77706400D01*
X182114624Y-77860735D01*
X182114618Y-77860742D01*
X182112315Y-77863550D01*
X182110604Y-77866750D01*
X182110598Y-77866760D01*
X182016483Y-78042837D01*
X182014768Y-78046046D01*
X182013713Y-78049522D01*
X182013712Y-78049526D01*
X181955753Y-78240592D01*
X181955751Y-78240599D01*
X181954700Y-78244066D01*
X181934417Y-78450000D01*
X181505583Y-78450000D01*
X181485300Y-78244066D01*
X181425232Y-78046046D01*
X181327685Y-77863550D01*
X181196410Y-77703590D01*
X181085773Y-77612793D01*
X181039264Y-77574624D01*
X181039261Y-77574622D01*
X181036450Y-77572315D01*
X181033244Y-77570601D01*
X181033239Y-77570598D01*
X180871607Y-77484204D01*
X180853954Y-77474768D01*
X180850473Y-77473712D01*
X180659407Y-77415753D01*
X180659402Y-77415752D01*
X180655934Y-77414700D01*
X180652322Y-77414344D01*
X180652321Y-77414344D01*
X180453614Y-77394773D01*
X180450000Y-77394417D01*
X180446386Y-77394773D01*
X180247678Y-77414344D01*
X180247675Y-77414344D01*
X180244066Y-77414700D01*
X180240599Y-77415751D01*
X180240592Y-77415753D01*
X180049526Y-77473712D01*
X180049522Y-77473713D01*
X180046046Y-77474768D01*
X180042839Y-77476482D01*
X180042837Y-77476483D01*
X179866760Y-77570598D01*
X179866750Y-77570604D01*
X179863550Y-77572315D01*
X179860742Y-77574618D01*
X179860735Y-77574624D01*
X179706400Y-77701283D01*
X179706394Y-77701288D01*
X179703590Y-77703590D01*
X179701288Y-77706394D01*
X179701283Y-77706400D01*
X179574624Y-77860735D01*
X179574618Y-77860742D01*
X179572315Y-77863550D01*
X179570604Y-77866750D01*
X179570598Y-77866760D01*
X179476483Y-78042837D01*
X179474768Y-78046046D01*
X179473713Y-78049522D01*
X179473712Y-78049526D01*
X179415753Y-78240592D01*
X179415751Y-78240599D01*
X179414700Y-78244066D01*
X179394417Y-78450000D01*
X178965583Y-78450000D01*
X178945300Y-78244066D01*
X178885232Y-78046046D01*
X178787685Y-77863550D01*
X178656410Y-77703590D01*
X178545773Y-77612793D01*
X178499264Y-77574624D01*
X178499261Y-77574622D01*
X178496450Y-77572315D01*
X178493244Y-77570601D01*
X178493239Y-77570598D01*
X178331607Y-77484204D01*
X178313954Y-77474768D01*
X178310473Y-77473712D01*
X178119407Y-77415753D01*
X178119402Y-77415752D01*
X178115934Y-77414700D01*
X178112322Y-77414344D01*
X178112321Y-77414344D01*
X177913614Y-77394773D01*
X177910000Y-77394417D01*
X177906386Y-77394773D01*
X177707678Y-77414344D01*
X177707675Y-77414344D01*
X177704066Y-77414700D01*
X177700599Y-77415751D01*
X177700592Y-77415753D01*
X177509526Y-77473712D01*
X177509522Y-77473713D01*
X177506046Y-77474768D01*
X177502839Y-77476482D01*
X177502837Y-77476483D01*
X177326760Y-77570598D01*
X177326750Y-77570604D01*
X177323550Y-77572315D01*
X177320742Y-77574618D01*
X177320735Y-77574624D01*
X177166400Y-77701283D01*
X177166394Y-77701288D01*
X177163590Y-77703590D01*
X177161288Y-77706394D01*
X177161283Y-77706400D01*
X177034624Y-77860735D01*
X177034618Y-77860742D01*
X177032315Y-77863550D01*
X177030604Y-77866750D01*
X177030598Y-77866760D01*
X176936483Y-78042837D01*
X176934768Y-78046046D01*
X176933713Y-78049522D01*
X176933712Y-78049526D01*
X176875753Y-78240592D01*
X176875751Y-78240599D01*
X176874700Y-78244066D01*
X176854417Y-78450000D01*
X176425583Y-78450000D01*
X176405300Y-78244066D01*
X176345232Y-78046046D01*
X176247685Y-77863550D01*
X176116410Y-77703590D01*
X176005773Y-77612793D01*
X175959264Y-77574624D01*
X175959261Y-77574622D01*
X175956450Y-77572315D01*
X175953244Y-77570601D01*
X175953239Y-77570598D01*
X175791607Y-77484204D01*
X175773954Y-77474768D01*
X175770473Y-77473712D01*
X175579407Y-77415753D01*
X175579402Y-77415752D01*
X175575934Y-77414700D01*
X175572322Y-77414344D01*
X175572321Y-77414344D01*
X175373614Y-77394773D01*
X175370000Y-77394417D01*
X175366386Y-77394773D01*
X175167678Y-77414344D01*
X175167675Y-77414344D01*
X175164066Y-77414700D01*
X175160599Y-77415751D01*
X175160592Y-77415753D01*
X174969526Y-77473712D01*
X174969522Y-77473713D01*
X174966046Y-77474768D01*
X174962839Y-77476482D01*
X174962837Y-77476483D01*
X174786760Y-77570598D01*
X174786750Y-77570604D01*
X174783550Y-77572315D01*
X174780742Y-77574618D01*
X174780735Y-77574624D01*
X174626400Y-77701283D01*
X174626394Y-77701288D01*
X174623590Y-77703590D01*
X174621288Y-77706394D01*
X174621283Y-77706400D01*
X174494624Y-77860735D01*
X174494618Y-77860742D01*
X174492315Y-77863550D01*
X174490604Y-77866750D01*
X174490598Y-77866760D01*
X174396483Y-78042837D01*
X174394768Y-78046046D01*
X174393713Y-78049522D01*
X174393712Y-78049526D01*
X174335753Y-78240592D01*
X174335751Y-78240599D01*
X174334700Y-78244066D01*
X174314417Y-78450000D01*
X173885583Y-78450000D01*
X173865300Y-78244066D01*
X173805232Y-78046046D01*
X173707685Y-77863550D01*
X173576410Y-77703590D01*
X173465773Y-77612793D01*
X173419264Y-77574624D01*
X173419261Y-77574622D01*
X173416450Y-77572315D01*
X173413244Y-77570601D01*
X173413239Y-77570598D01*
X173251607Y-77484204D01*
X173233954Y-77474768D01*
X173230473Y-77473712D01*
X173039407Y-77415753D01*
X173039402Y-77415752D01*
X173035934Y-77414700D01*
X173032322Y-77414344D01*
X173032321Y-77414344D01*
X172833614Y-77394773D01*
X172830000Y-77394417D01*
X172826386Y-77394773D01*
X172627678Y-77414344D01*
X172627675Y-77414344D01*
X172624066Y-77414700D01*
X172620599Y-77415751D01*
X172620592Y-77415753D01*
X172429526Y-77473712D01*
X172429522Y-77473713D01*
X172426046Y-77474768D01*
X172422839Y-77476482D01*
X172422837Y-77476483D01*
X172246760Y-77570598D01*
X172246750Y-77570604D01*
X172243550Y-77572315D01*
X172240742Y-77574618D01*
X172240735Y-77574624D01*
X172086400Y-77701283D01*
X172086394Y-77701288D01*
X172083590Y-77703590D01*
X172081288Y-77706394D01*
X172081283Y-77706400D01*
X171954624Y-77860735D01*
X171954618Y-77860742D01*
X171952315Y-77863550D01*
X171950604Y-77866750D01*
X171950598Y-77866760D01*
X171856483Y-78042837D01*
X171854768Y-78046046D01*
X171853713Y-78049522D01*
X171853712Y-78049526D01*
X171795753Y-78240592D01*
X171795751Y-78240599D01*
X171794700Y-78244066D01*
X171774417Y-78450000D01*
X168800500Y-78450000D01*
X168800500Y-78188904D01*
X169324204Y-78188904D01*
X169324343Y-78197400D01*
X169332435Y-78200000D01*
X170030257Y-78200000D01*
X170037940Y-78197940D01*
X170040000Y-78190257D01*
X170540000Y-78190257D01*
X170542059Y-78197940D01*
X170549743Y-78200000D01*
X171247565Y-78200000D01*
X171255656Y-78197400D01*
X171255795Y-78188904D01*
X171219405Y-78068945D01*
X171216634Y-78062254D01*
X171127206Y-77894947D01*
X171123188Y-77888932D01*
X171002834Y-77742282D01*
X170997717Y-77737165D01*
X170851067Y-77616811D01*
X170845052Y-77612793D01*
X170677745Y-77523365D01*
X170671054Y-77520594D01*
X170551095Y-77484204D01*
X170542599Y-77484343D01*
X170540000Y-77492435D01*
X170540000Y-78190257D01*
X170040000Y-78190257D01*
X170040000Y-77492435D01*
X170037400Y-77484343D01*
X170028904Y-77484204D01*
X169908945Y-77520594D01*
X169902254Y-77523365D01*
X169734947Y-77612793D01*
X169728932Y-77616811D01*
X169582282Y-77737165D01*
X169577165Y-77742282D01*
X169456811Y-77888932D01*
X169452793Y-77894947D01*
X169363365Y-78062254D01*
X169360594Y-78068945D01*
X169324204Y-78188904D01*
X168800500Y-78188904D01*
X168800500Y-77580252D01*
X168788867Y-77521769D01*
X168744552Y-77455448D01*
X168678231Y-77411133D01*
X168671080Y-77409710D01*
X168671079Y-77409710D01*
X168623318Y-77400210D01*
X168623316Y-77400209D01*
X168619748Y-77399500D01*
X168616108Y-77399500D01*
X168174500Y-77399500D01*
X168137500Y-77389586D01*
X168110414Y-77362500D01*
X168100500Y-77325500D01*
X168100500Y-75675834D01*
X168106133Y-75647515D01*
X168122174Y-75623508D01*
X168873508Y-74872174D01*
X168897515Y-74856133D01*
X168925834Y-74850500D01*
X173592974Y-74850500D01*
X173608160Y-74852075D01*
X173622315Y-74855043D01*
X173654202Y-74851067D01*
X173661878Y-74850591D01*
X173662978Y-74850500D01*
X173666040Y-74850500D01*
X173669051Y-74849997D01*
X173669057Y-74849997D01*
X173686030Y-74847164D01*
X173689035Y-74846725D01*
X173738393Y-74840573D01*
X173743520Y-74838065D01*
X173743684Y-74838010D01*
X173746598Y-74837076D01*
X173746744Y-74837031D01*
X173752381Y-74836092D01*
X173796163Y-74812396D01*
X173798758Y-74811061D01*
X173843484Y-74789198D01*
X173847528Y-74785153D01*
X173847638Y-74785068D01*
X173850101Y-74783232D01*
X173850234Y-74783135D01*
X173855258Y-74780418D01*
X173888938Y-74743830D01*
X173891008Y-74741672D01*
X174532680Y-74100000D01*
X182494353Y-74100000D01*
X182495106Y-74105237D01*
X182512194Y-74224093D01*
X182514835Y-74242457D01*
X182574623Y-74373373D01*
X182668872Y-74482143D01*
X182789947Y-74559953D01*
X182795020Y-74561442D01*
X182795021Y-74561443D01*
X182841350Y-74575046D01*
X182928039Y-74600500D01*
X183066669Y-74600500D01*
X183071961Y-74600500D01*
X183210053Y-74559953D01*
X183331128Y-74482143D01*
X183425377Y-74373373D01*
X183485165Y-74242457D01*
X183505647Y-74100000D01*
X183485165Y-73957543D01*
X183425377Y-73826627D01*
X183389604Y-73785343D01*
X183334593Y-73721856D01*
X183331128Y-73717857D01*
X183303455Y-73700073D01*
X183224874Y-73649572D01*
X183210053Y-73640047D01*
X183204983Y-73638558D01*
X183204978Y-73638556D01*
X183077037Y-73600990D01*
X183077034Y-73600989D01*
X183071961Y-73599500D01*
X182928039Y-73599500D01*
X182922966Y-73600989D01*
X182922962Y-73600990D01*
X182795021Y-73638556D01*
X182795013Y-73638559D01*
X182789947Y-73640047D01*
X182785498Y-73642905D01*
X182785496Y-73642907D01*
X182673324Y-73714995D01*
X182673320Y-73714998D01*
X182668872Y-73717857D01*
X182665409Y-73721852D01*
X182665406Y-73721856D01*
X182578086Y-73822629D01*
X182578082Y-73822634D01*
X182574623Y-73826627D01*
X182572427Y-73831435D01*
X182572426Y-73831437D01*
X182553808Y-73872206D01*
X182514835Y-73957543D01*
X182514082Y-73962778D01*
X182514081Y-73962783D01*
X182505087Y-74025340D01*
X182494353Y-74100000D01*
X174532680Y-74100000D01*
X175466715Y-73165965D01*
X175478565Y-73156343D01*
X175490669Y-73148437D01*
X175510408Y-73123073D01*
X175515467Y-73117348D01*
X175516205Y-73116476D01*
X175518375Y-73114307D01*
X175530175Y-73097779D01*
X175531955Y-73095391D01*
X175562517Y-73056126D01*
X175564374Y-73050712D01*
X175564441Y-73050578D01*
X175565852Y-73047838D01*
X175565914Y-73047721D01*
X175569239Y-73043067D01*
X175583427Y-72995408D01*
X175584345Y-72992542D01*
X175600500Y-72945488D01*
X175600500Y-72939772D01*
X175600517Y-72939640D01*
X175600964Y-72936570D01*
X175600987Y-72936427D01*
X175602617Y-72930954D01*
X175600563Y-72881292D01*
X175600500Y-72878234D01*
X175600500Y-69723724D01*
X175610859Y-69685964D01*
X175639035Y-69658776D01*
X175677141Y-69649771D01*
X175714507Y-69661471D01*
X175789947Y-69709953D01*
X175795020Y-69711442D01*
X175795021Y-69711443D01*
X175836847Y-69723724D01*
X175928039Y-69750500D01*
X176066669Y-69750500D01*
X176071961Y-69750500D01*
X176210053Y-69709953D01*
X176331128Y-69632143D01*
X176425377Y-69523373D01*
X176485165Y-69392457D01*
X176505647Y-69250000D01*
X176485165Y-69107543D01*
X176425377Y-68976627D01*
X176331128Y-68867857D01*
X176210053Y-68790047D01*
X176204983Y-68788558D01*
X176204978Y-68788556D01*
X176077037Y-68750990D01*
X176077034Y-68750989D01*
X176071961Y-68749500D01*
X175928039Y-68749500D01*
X175922966Y-68750989D01*
X175922962Y-68750990D01*
X175795021Y-68788556D01*
X175795013Y-68788559D01*
X175789947Y-68790047D01*
X175785498Y-68792905D01*
X175785496Y-68792907D01*
X175714507Y-68838529D01*
X175677141Y-68850229D01*
X175639035Y-68841224D01*
X175610859Y-68814036D01*
X175600500Y-68776276D01*
X175600500Y-64750000D01*
X193494353Y-64750000D01*
X193514835Y-64892457D01*
X193574623Y-65023373D01*
X193668872Y-65132143D01*
X193789947Y-65209953D01*
X193795020Y-65211442D01*
X193795021Y-65211443D01*
X193841350Y-65225046D01*
X193928039Y-65250500D01*
X194066669Y-65250500D01*
X194071961Y-65250500D01*
X194210053Y-65209953D01*
X194331128Y-65132143D01*
X194425377Y-65023373D01*
X194485165Y-64892457D01*
X194505647Y-64750000D01*
X194485165Y-64607543D01*
X194425377Y-64476627D01*
X194331128Y-64367857D01*
X194210053Y-64290047D01*
X194204983Y-64288558D01*
X194204978Y-64288556D01*
X194077037Y-64250990D01*
X194077034Y-64250989D01*
X194071961Y-64249500D01*
X193928039Y-64249500D01*
X193922966Y-64250989D01*
X193922962Y-64250990D01*
X193795021Y-64288556D01*
X193795013Y-64288559D01*
X193789947Y-64290047D01*
X193785498Y-64292905D01*
X193785496Y-64292907D01*
X193673324Y-64364995D01*
X193673320Y-64364998D01*
X193668872Y-64367857D01*
X193665409Y-64371852D01*
X193665406Y-64371856D01*
X193578086Y-64472629D01*
X193578082Y-64472634D01*
X193574623Y-64476627D01*
X193514835Y-64607543D01*
X193514082Y-64612778D01*
X193514081Y-64612783D01*
X193496309Y-64736389D01*
X193494353Y-64750000D01*
X175600500Y-64750000D01*
X175600500Y-60723724D01*
X175610859Y-60685964D01*
X175639035Y-60658776D01*
X175677141Y-60649771D01*
X175714507Y-60661471D01*
X175789947Y-60709953D01*
X175795020Y-60711442D01*
X175795021Y-60711443D01*
X175836847Y-60723724D01*
X175928039Y-60750500D01*
X176066669Y-60750500D01*
X176071961Y-60750500D01*
X176210053Y-60709953D01*
X176331128Y-60632143D01*
X176425377Y-60523373D01*
X176485165Y-60392457D01*
X176505647Y-60250000D01*
X176485165Y-60107543D01*
X176425377Y-59976627D01*
X176331128Y-59867857D01*
X176210053Y-59790047D01*
X176204983Y-59788558D01*
X176204978Y-59788556D01*
X176077037Y-59750990D01*
X176077034Y-59750989D01*
X176071961Y-59749500D01*
X175928039Y-59749500D01*
X175922966Y-59750989D01*
X175922962Y-59750990D01*
X175795021Y-59788556D01*
X175795013Y-59788559D01*
X175789947Y-59790047D01*
X175785498Y-59792905D01*
X175785496Y-59792907D01*
X175714507Y-59838529D01*
X175677141Y-59850229D01*
X175639035Y-59841224D01*
X175610859Y-59814036D01*
X175600500Y-59776276D01*
X175600500Y-57000000D01*
X201469819Y-57000000D01*
X201470101Y-57003223D01*
X201488225Y-57210392D01*
X201488226Y-57210399D01*
X201488508Y-57213619D01*
X201489345Y-57216745D01*
X201489346Y-57216747D01*
X201543169Y-57417619D01*
X201543172Y-57417627D01*
X201544008Y-57420747D01*
X201545371Y-57423670D01*
X201545374Y-57423678D01*
X201633266Y-57612162D01*
X201634632Y-57615091D01*
X201757627Y-57790745D01*
X201909255Y-57942373D01*
X202084909Y-58065368D01*
X202279253Y-58155992D01*
X202486381Y-58211492D01*
X202700000Y-58230181D01*
X202913619Y-58211492D01*
X203120747Y-58155992D01*
X203315091Y-58065368D01*
X203490745Y-57942373D01*
X203642373Y-57790745D01*
X203765368Y-57615091D01*
X203855992Y-57420747D01*
X203911492Y-57213619D01*
X203930181Y-57000000D01*
X203911492Y-56786381D01*
X203855992Y-56579253D01*
X203765368Y-56384910D01*
X203642373Y-56209255D01*
X203490745Y-56057627D01*
X203488098Y-56055773D01*
X203488095Y-56055771D01*
X203317739Y-55936486D01*
X203317737Y-55936485D01*
X203315091Y-55934632D01*
X203312162Y-55933266D01*
X203123678Y-55845374D01*
X203123670Y-55845371D01*
X203120747Y-55844008D01*
X203117627Y-55843172D01*
X203117619Y-55843169D01*
X202916747Y-55789346D01*
X202916745Y-55789345D01*
X202913619Y-55788508D01*
X202910399Y-55788226D01*
X202910392Y-55788225D01*
X202703223Y-55770101D01*
X202700000Y-55769819D01*
X202696777Y-55770101D01*
X202489607Y-55788225D01*
X202489598Y-55788226D01*
X202486381Y-55788508D01*
X202483256Y-55789345D01*
X202483252Y-55789346D01*
X202282380Y-55843169D01*
X202282368Y-55843173D01*
X202279253Y-55844008D01*
X202276332Y-55845369D01*
X202276321Y-55845374D01*
X202087838Y-55933266D01*
X202087832Y-55933269D01*
X202084910Y-55934632D01*
X202082267Y-55936482D01*
X202082261Y-55936486D01*
X201911904Y-56055771D01*
X201911895Y-56055777D01*
X201909255Y-56057627D01*
X201906974Y-56059907D01*
X201906968Y-56059913D01*
X201759913Y-56206968D01*
X201759907Y-56206974D01*
X201757627Y-56209255D01*
X201755777Y-56211895D01*
X201755771Y-56211904D01*
X201636486Y-56382261D01*
X201636482Y-56382267D01*
X201634632Y-56384910D01*
X201633269Y-56387832D01*
X201633266Y-56387838D01*
X201545374Y-56576321D01*
X201545369Y-56576332D01*
X201544008Y-56579253D01*
X201543173Y-56582368D01*
X201543169Y-56582380D01*
X201489346Y-56783252D01*
X201488508Y-56786381D01*
X201488226Y-56789598D01*
X201488225Y-56789607D01*
X201470733Y-56989546D01*
X201469819Y-57000000D01*
X175600500Y-57000000D01*
X175600500Y-47794026D01*
X175602075Y-47778840D01*
X175603784Y-47770687D01*
X175605043Y-47764685D01*
X175601067Y-47732797D01*
X175600591Y-47725121D01*
X175600500Y-47724022D01*
X175600500Y-47720960D01*
X175597164Y-47700969D01*
X175596723Y-47697943D01*
X175590573Y-47648607D01*
X175588064Y-47643477D01*
X175588012Y-47643322D01*
X175587076Y-47640400D01*
X175587031Y-47640250D01*
X175586092Y-47634619D01*
X175583174Y-47629227D01*
X175583173Y-47629224D01*
X175562432Y-47590899D01*
X175561030Y-47588177D01*
X175539198Y-47543516D01*
X175535160Y-47539478D01*
X175535066Y-47539357D01*
X175533240Y-47536908D01*
X175533130Y-47536753D01*
X175530418Y-47531742D01*
X175493857Y-47498085D01*
X175491650Y-47495968D01*
X174072174Y-46076492D01*
X174056133Y-46052485D01*
X174050500Y-46024166D01*
X174050500Y-44124500D01*
X174060414Y-44087500D01*
X174087500Y-44060414D01*
X174124500Y-44050500D01*
X179555974Y-44050500D01*
X179571160Y-44052075D01*
X179585315Y-44055043D01*
X179617202Y-44051067D01*
X179624878Y-44050591D01*
X179625978Y-44050500D01*
X179629040Y-44050500D01*
X179632051Y-44049997D01*
X179632057Y-44049997D01*
X179649030Y-44047164D01*
X179652035Y-44046725D01*
X179701393Y-44040573D01*
X179706520Y-44038065D01*
X179706684Y-44038010D01*
X179709598Y-44037076D01*
X179709744Y-44037031D01*
X179715381Y-44036092D01*
X179759163Y-44012396D01*
X179761758Y-44011061D01*
X179806484Y-43989198D01*
X179810528Y-43985153D01*
X179810638Y-43985068D01*
X179813101Y-43983232D01*
X179813234Y-43983135D01*
X179818258Y-43980418D01*
X179851938Y-43943830D01*
X179854008Y-43941672D01*
X180823507Y-42972174D01*
X180847514Y-42956133D01*
X180875833Y-42950500D01*
X196307659Y-42950500D01*
X196338401Y-42957188D01*
X196363584Y-42976040D01*
X196368872Y-42982143D01*
X196489947Y-43059953D01*
X196495020Y-43061442D01*
X196495021Y-43061443D01*
X196541350Y-43075046D01*
X196628039Y-43100500D01*
X196766669Y-43100500D01*
X196771961Y-43100500D01*
X196910053Y-43059953D01*
X197031128Y-42982143D01*
X197125377Y-42873373D01*
X197185165Y-42742457D01*
X197205647Y-42600000D01*
X197185165Y-42457543D01*
X197125377Y-42326627D01*
X197112600Y-42311882D01*
X197035549Y-42222959D01*
X197018228Y-42185031D01*
X197024162Y-42143759D01*
X197051468Y-42112247D01*
X197091475Y-42100500D01*
X204220500Y-42100500D01*
X204257500Y-42110414D01*
X204284586Y-42137500D01*
X204294500Y-42174500D01*
X204294500Y-43395149D01*
X204294519Y-43395744D01*
X204294520Y-43395776D01*
X204294919Y-43407972D01*
X204294921Y-43408023D01*
X204294940Y-43408588D01*
X204294975Y-43409132D01*
X204294978Y-43409180D01*
X204295536Y-43417686D01*
X204295573Y-43418247D01*
X204296891Y-43431630D01*
X204296965Y-43432197D01*
X204296966Y-43432200D01*
X204311866Y-43545386D01*
X204311869Y-43545407D01*
X204312023Y-43546573D01*
X204312258Y-43547754D01*
X204317029Y-43571746D01*
X204317033Y-43571767D01*
X204317267Y-43572939D01*
X204317577Y-43574096D01*
X204317581Y-43574113D01*
X204321947Y-43590407D01*
X204321949Y-43590414D01*
X204322267Y-43591599D01*
X204330908Y-43617053D01*
X204331369Y-43618168D01*
X204331374Y-43618179D01*
X204372938Y-43718524D01*
X204372946Y-43718542D01*
X204373401Y-43719640D01*
X204385289Y-43743747D01*
X204385902Y-43744808D01*
X204394343Y-43759430D01*
X204394350Y-43759441D01*
X204394948Y-43760477D01*
X204409883Y-43782829D01*
X204477482Y-43870925D01*
X204478276Y-43871831D01*
X204478284Y-43871840D01*
X204489830Y-43885004D01*
X204495206Y-43891134D01*
X204508865Y-43904793D01*
X204529074Y-43922517D01*
X204530035Y-43923255D01*
X204530037Y-43923256D01*
X204615973Y-43989198D01*
X204617170Y-43990116D01*
X204639522Y-44005051D01*
X204656252Y-44014710D01*
X204680359Y-44026598D01*
X204681470Y-44027058D01*
X204681474Y-44027060D01*
X204727193Y-44045997D01*
X204782946Y-44069091D01*
X204808400Y-44077732D01*
X204827060Y-44082732D01*
X204853424Y-44087976D01*
X204968368Y-44103109D01*
X204981753Y-44104427D01*
X204991412Y-44105060D01*
X205004851Y-44105500D01*
X206244533Y-44105500D01*
X206245149Y-44105500D01*
X206258588Y-44105060D01*
X206268247Y-44104427D01*
X206281632Y-44103109D01*
X206396575Y-44087976D01*
X206422939Y-44082732D01*
X206441599Y-44077732D01*
X206467053Y-44069091D01*
X206569640Y-44026598D01*
X206593747Y-44014710D01*
X206610477Y-44005051D01*
X206632829Y-43990116D01*
X206720925Y-43922517D01*
X206741134Y-43904793D01*
X206754793Y-43891134D01*
X206772517Y-43870925D01*
X206840116Y-43782829D01*
X206855051Y-43760477D01*
X206864710Y-43743747D01*
X206876598Y-43719640D01*
X206919091Y-43617053D01*
X206927732Y-43591599D01*
X206929022Y-43586783D01*
X206950985Y-43550945D01*
X206988925Y-43532849D01*
X207030599Y-43538336D01*
X207062562Y-43565635D01*
X207074500Y-43605938D01*
X207074500Y-77597764D01*
X207074365Y-77602232D01*
X207056728Y-77893798D01*
X207055651Y-77902669D01*
X207003402Y-78187788D01*
X207001263Y-78196464D01*
X206915032Y-78473188D01*
X206911864Y-78481544D01*
X206792896Y-78745878D01*
X206788743Y-78753790D01*
X206638789Y-79001844D01*
X206633713Y-79009198D01*
X206454950Y-79237373D01*
X206449024Y-79244062D01*
X206244062Y-79449024D01*
X206237373Y-79454950D01*
X206009198Y-79633713D01*
X206001844Y-79638789D01*
X205753790Y-79788743D01*
X205745878Y-79792896D01*
X205481544Y-79911864D01*
X205473188Y-79915032D01*
X205196464Y-80001263D01*
X205187788Y-80003402D01*
X204902669Y-80055651D01*
X204893798Y-80056728D01*
X204602232Y-80074365D01*
X204597764Y-80074500D01*
X161402236Y-80074500D01*
X161397768Y-80074365D01*
X161106201Y-80056728D01*
X161097330Y-80055651D01*
X160812211Y-80003402D01*
X160803535Y-80001263D01*
X160526811Y-79915032D01*
X160518455Y-79911864D01*
X160254121Y-79792896D01*
X160246209Y-79788743D01*
X159998155Y-79638789D01*
X159990801Y-79633713D01*
X159762626Y-79454950D01*
X159755937Y-79449024D01*
X159550975Y-79244062D01*
X159545049Y-79237373D01*
X159366286Y-79009198D01*
X159361210Y-79001844D01*
X159211256Y-78753790D01*
X159207103Y-78745878D01*
X159088131Y-78481536D01*
X159084970Y-78473197D01*
X158998733Y-78196452D01*
X158996600Y-78187801D01*
X158944347Y-77902660D01*
X158943272Y-77893808D01*
X158925634Y-77602231D01*
X158925500Y-77597764D01*
X158925500Y-74204851D01*
X158926133Y-74195193D01*
X158935002Y-74127826D01*
X158940396Y-74086846D01*
X158945394Y-74068193D01*
X158985346Y-73971742D01*
X158994995Y-73955028D01*
X159058551Y-73872201D01*
X159072201Y-73858551D01*
X159155028Y-73794995D01*
X159171742Y-73785346D01*
X159268193Y-73745394D01*
X159286846Y-73740396D01*
X159364109Y-73730225D01*
X159395193Y-73726133D01*
X159404851Y-73725500D01*
X171455054Y-73725500D01*
X171459210Y-73725500D01*
X171574660Y-73699149D01*
X171681352Y-73647769D01*
X171773936Y-73573936D01*
X171847769Y-73481352D01*
X171899149Y-73374660D01*
X171925500Y-73259210D01*
X171925500Y-73200000D01*
X171925500Y-73191715D01*
X171925500Y-71994928D01*
X171925500Y-65394928D01*
X171925500Y-48594928D01*
X171925500Y-48540790D01*
X171899149Y-48425340D01*
X171847769Y-48318648D01*
X171773936Y-48226064D01*
X171681352Y-48152231D01*
X171677610Y-48150429D01*
X171677607Y-48150427D01*
X171578403Y-48102653D01*
X171578398Y-48102651D01*
X171574660Y-48100851D01*
X171570614Y-48099927D01*
X171570610Y-48099926D01*
X171463260Y-48075424D01*
X171463256Y-48075423D01*
X171459210Y-48074500D01*
X171455054Y-48074500D01*
X167504851Y-48074500D01*
X167495192Y-48073867D01*
X167386848Y-48059603D01*
X167368188Y-48054603D01*
X167271748Y-48014656D01*
X167255023Y-48005000D01*
X167172205Y-47941451D01*
X167158547Y-47927793D01*
X167157044Y-47925834D01*
X167094998Y-47844974D01*
X167085343Y-47828251D01*
X167071166Y-47794026D01*
X167045395Y-47731808D01*
X167040396Y-47713151D01*
X167038792Y-47700969D01*
X167026133Y-47604808D01*
X167025500Y-47595149D01*
X167025500Y-42244946D01*
X167025500Y-42240790D01*
X166999149Y-42125340D01*
X166947769Y-42018648D01*
X166873936Y-41926064D01*
X166825394Y-41887353D01*
X166784600Y-41854821D01*
X166784598Y-41854820D01*
X166781352Y-41852231D01*
X166777610Y-41850429D01*
X166777607Y-41850427D01*
X166678403Y-41802653D01*
X166678398Y-41802651D01*
X166674660Y-41800851D01*
X166670614Y-41799927D01*
X166670610Y-41799926D01*
X166563260Y-41775424D01*
X166563256Y-41775423D01*
X166559210Y-41774500D01*
X166555054Y-41774500D01*
X159404851Y-41774500D01*
X159395192Y-41773867D01*
X159286848Y-41759603D01*
X159268188Y-41754603D01*
X159171748Y-41714656D01*
X159155023Y-41705000D01*
X159072205Y-41641451D01*
X159058547Y-41627793D01*
X158994998Y-41544974D01*
X158985343Y-41528251D01*
X158945396Y-41431811D01*
X158940396Y-41413151D01*
X158926133Y-41304808D01*
X158925500Y-41295149D01*
X158925500Y-37790000D01*
X166714417Y-37790000D01*
X166734700Y-37995934D01*
X166735752Y-37999402D01*
X166735753Y-37999407D01*
X166787821Y-38171054D01*
X166794768Y-38193954D01*
X166796483Y-38197162D01*
X166890598Y-38373239D01*
X166890601Y-38373244D01*
X166892315Y-38376450D01*
X166894622Y-38379261D01*
X166894624Y-38379264D01*
X166991836Y-38497717D01*
X167023590Y-38536410D01*
X167183550Y-38667685D01*
X167366046Y-38765232D01*
X167564066Y-38825300D01*
X167770000Y-38845583D01*
X167975934Y-38825300D01*
X168173954Y-38765232D01*
X168356450Y-38667685D01*
X168516410Y-38536410D01*
X168647685Y-38376450D01*
X168745232Y-38193954D01*
X168805300Y-37995934D01*
X168825583Y-37790000D01*
X169254417Y-37790000D01*
X169274700Y-37995934D01*
X169275752Y-37999402D01*
X169275753Y-37999407D01*
X169327821Y-38171054D01*
X169334768Y-38193954D01*
X169336483Y-38197162D01*
X169430598Y-38373239D01*
X169430601Y-38373244D01*
X169432315Y-38376450D01*
X169434622Y-38379261D01*
X169434624Y-38379264D01*
X169531836Y-38497717D01*
X169563590Y-38536410D01*
X169723550Y-38667685D01*
X169906046Y-38765232D01*
X170104066Y-38825300D01*
X170310000Y-38845583D01*
X170515934Y-38825300D01*
X170713954Y-38765232D01*
X170896450Y-38667685D01*
X171056410Y-38536410D01*
X171187685Y-38376450D01*
X171285232Y-38193954D01*
X171345300Y-37995934D01*
X171365583Y-37790000D01*
X171794417Y-37790000D01*
X171814700Y-37995934D01*
X171815752Y-37999402D01*
X171815753Y-37999407D01*
X171867821Y-38171054D01*
X171874768Y-38193954D01*
X171876483Y-38197162D01*
X171970598Y-38373239D01*
X171970601Y-38373244D01*
X171972315Y-38376450D01*
X171974622Y-38379261D01*
X171974624Y-38379264D01*
X172071836Y-38497717D01*
X172103590Y-38536410D01*
X172263550Y-38667685D01*
X172446046Y-38765232D01*
X172644066Y-38825300D01*
X172850000Y-38845583D01*
X173055934Y-38825300D01*
X173253954Y-38765232D01*
X173436450Y-38667685D01*
X173596410Y-38536410D01*
X173727685Y-38376450D01*
X173825232Y-38193954D01*
X173868567Y-38051095D01*
X174424204Y-38051095D01*
X174460594Y-38171054D01*
X174463365Y-38177745D01*
X174552793Y-38345052D01*
X174556811Y-38351067D01*
X174677165Y-38497717D01*
X174682282Y-38502834D01*
X174828932Y-38623188D01*
X174834947Y-38627206D01*
X175002254Y-38716634D01*
X175008945Y-38719405D01*
X175128904Y-38755795D01*
X175137400Y-38755656D01*
X175140000Y-38747565D01*
X175140000Y-38049743D01*
X175137940Y-38042059D01*
X175130257Y-38040000D01*
X174432435Y-38040000D01*
X174424343Y-38042599D01*
X174424204Y-38051095D01*
X173868567Y-38051095D01*
X173885300Y-37995934D01*
X173905583Y-37790000D01*
X173885300Y-37584066D01*
X173868567Y-37528904D01*
X174424204Y-37528904D01*
X174424343Y-37537400D01*
X174432435Y-37540000D01*
X175130257Y-37540000D01*
X175137940Y-37537940D01*
X175140000Y-37530257D01*
X175140000Y-36832435D01*
X175137400Y-36824343D01*
X175128904Y-36824204D01*
X175008945Y-36860594D01*
X175002254Y-36863365D01*
X174834947Y-36952793D01*
X174828932Y-36956811D01*
X174682282Y-37077165D01*
X174677165Y-37082282D01*
X174556811Y-37228932D01*
X174552793Y-37234947D01*
X174463365Y-37402254D01*
X174460594Y-37408945D01*
X174424204Y-37528904D01*
X173868567Y-37528904D01*
X173825232Y-37386046D01*
X173727685Y-37203550D01*
X173705098Y-37176028D01*
X173639533Y-37096136D01*
X173596410Y-37043590D01*
X173593599Y-37041283D01*
X173439264Y-36914624D01*
X173439261Y-36914622D01*
X173436450Y-36912315D01*
X173433244Y-36910601D01*
X173433239Y-36910598D01*
X173271607Y-36824204D01*
X173253954Y-36814768D01*
X173250473Y-36813712D01*
X173059407Y-36755753D01*
X173059402Y-36755752D01*
X173055934Y-36754700D01*
X173052322Y-36754344D01*
X173052321Y-36754344D01*
X172853614Y-36734773D01*
X172850000Y-36734417D01*
X172846386Y-36734773D01*
X172647678Y-36754344D01*
X172647675Y-36754344D01*
X172644066Y-36754700D01*
X172640599Y-36755751D01*
X172640592Y-36755753D01*
X172449526Y-36813712D01*
X172449522Y-36813713D01*
X172446046Y-36814768D01*
X172442839Y-36816482D01*
X172442837Y-36816483D01*
X172266760Y-36910598D01*
X172266750Y-36910604D01*
X172263550Y-36912315D01*
X172260742Y-36914618D01*
X172260735Y-36914624D01*
X172106400Y-37041283D01*
X172106394Y-37041288D01*
X172103590Y-37043590D01*
X172101288Y-37046394D01*
X172101283Y-37046400D01*
X171974624Y-37200735D01*
X171974618Y-37200742D01*
X171972315Y-37203550D01*
X171970604Y-37206750D01*
X171970598Y-37206760D01*
X171876483Y-37382837D01*
X171874768Y-37386046D01*
X171873713Y-37389522D01*
X171873712Y-37389526D01*
X171815753Y-37580592D01*
X171815751Y-37580599D01*
X171814700Y-37584066D01*
X171794417Y-37790000D01*
X171365583Y-37790000D01*
X171345300Y-37584066D01*
X171285232Y-37386046D01*
X171187685Y-37203550D01*
X171165098Y-37176028D01*
X171099533Y-37096136D01*
X171056410Y-37043590D01*
X171053599Y-37041283D01*
X170899264Y-36914624D01*
X170899261Y-36914622D01*
X170896450Y-36912315D01*
X170893244Y-36910601D01*
X170893239Y-36910598D01*
X170731607Y-36824204D01*
X170713954Y-36814768D01*
X170710473Y-36813712D01*
X170519407Y-36755753D01*
X170519402Y-36755752D01*
X170515934Y-36754700D01*
X170512322Y-36754344D01*
X170512321Y-36754344D01*
X170313614Y-36734773D01*
X170310000Y-36734417D01*
X170306386Y-36734773D01*
X170107678Y-36754344D01*
X170107675Y-36754344D01*
X170104066Y-36754700D01*
X170100599Y-36755751D01*
X170100592Y-36755753D01*
X169909526Y-36813712D01*
X169909522Y-36813713D01*
X169906046Y-36814768D01*
X169902839Y-36816482D01*
X169902837Y-36816483D01*
X169726760Y-36910598D01*
X169726750Y-36910604D01*
X169723550Y-36912315D01*
X169720742Y-36914618D01*
X169720735Y-36914624D01*
X169566400Y-37041283D01*
X169566394Y-37041288D01*
X169563590Y-37043590D01*
X169561288Y-37046394D01*
X169561283Y-37046400D01*
X169434624Y-37200735D01*
X169434618Y-37200742D01*
X169432315Y-37203550D01*
X169430604Y-37206750D01*
X169430598Y-37206760D01*
X169336483Y-37382837D01*
X169334768Y-37386046D01*
X169333713Y-37389522D01*
X169333712Y-37389526D01*
X169275753Y-37580592D01*
X169275751Y-37580599D01*
X169274700Y-37584066D01*
X169254417Y-37790000D01*
X168825583Y-37790000D01*
X168805300Y-37584066D01*
X168745232Y-37386046D01*
X168647685Y-37203550D01*
X168625098Y-37176028D01*
X168559533Y-37096136D01*
X168516410Y-37043590D01*
X168513599Y-37041283D01*
X168359264Y-36914624D01*
X168359261Y-36914622D01*
X168356450Y-36912315D01*
X168353244Y-36910601D01*
X168353239Y-36910598D01*
X168191607Y-36824204D01*
X168173954Y-36814768D01*
X168170473Y-36813712D01*
X167979407Y-36755753D01*
X167979402Y-36755752D01*
X167975934Y-36754700D01*
X167972322Y-36754344D01*
X167972321Y-36754344D01*
X167773614Y-36734773D01*
X167770000Y-36734417D01*
X167766386Y-36734773D01*
X167567678Y-36754344D01*
X167567675Y-36754344D01*
X167564066Y-36754700D01*
X167560599Y-36755751D01*
X167560592Y-36755753D01*
X167369526Y-36813712D01*
X167369522Y-36813713D01*
X167366046Y-36814768D01*
X167362839Y-36816482D01*
X167362837Y-36816483D01*
X167186760Y-36910598D01*
X167186750Y-36910604D01*
X167183550Y-36912315D01*
X167180742Y-36914618D01*
X167180735Y-36914624D01*
X167026400Y-37041283D01*
X167026394Y-37041288D01*
X167023590Y-37043590D01*
X167021288Y-37046394D01*
X167021283Y-37046400D01*
X166894624Y-37200735D01*
X166894618Y-37200742D01*
X166892315Y-37203550D01*
X166890604Y-37206750D01*
X166890598Y-37206760D01*
X166796483Y-37382837D01*
X166794768Y-37386046D01*
X166793713Y-37389522D01*
X166793712Y-37389526D01*
X166735753Y-37580592D01*
X166735751Y-37580599D01*
X166734700Y-37584066D01*
X166714417Y-37790000D01*
X158925500Y-37790000D01*
X158925500Y-36402236D01*
X158925635Y-36397768D01*
X158930380Y-36319324D01*
X158943272Y-36106189D01*
X158944346Y-36097341D01*
X158996601Y-35812194D01*
X158998731Y-35803551D01*
X159084972Y-35526796D01*
X159088129Y-35518469D01*
X159091448Y-35511095D01*
X166804204Y-35511095D01*
X166840594Y-35631054D01*
X166843365Y-35637745D01*
X166932793Y-35805052D01*
X166936811Y-35811067D01*
X167057165Y-35957717D01*
X167062282Y-35962834D01*
X167208932Y-36083188D01*
X167214947Y-36087206D01*
X167382254Y-36176634D01*
X167388945Y-36179405D01*
X167508904Y-36215795D01*
X167517400Y-36215656D01*
X167520000Y-36207565D01*
X168020000Y-36207565D01*
X168022599Y-36215656D01*
X168031095Y-36215795D01*
X168151054Y-36179405D01*
X168157745Y-36176634D01*
X168325052Y-36087206D01*
X168331067Y-36083188D01*
X168477717Y-35962834D01*
X168482834Y-35957717D01*
X168603188Y-35811067D01*
X168607206Y-35805052D01*
X168696634Y-35637745D01*
X168699405Y-35631054D01*
X168735795Y-35511095D01*
X168735656Y-35502599D01*
X168727565Y-35500000D01*
X168029743Y-35500000D01*
X168022059Y-35502059D01*
X168020000Y-35509743D01*
X168020000Y-36207565D01*
X167520000Y-36207565D01*
X167520000Y-35509743D01*
X167517940Y-35502059D01*
X167510257Y-35500000D01*
X166812435Y-35500000D01*
X166804343Y-35502599D01*
X166804204Y-35511095D01*
X159091448Y-35511095D01*
X159207107Y-35254112D01*
X159209266Y-35250000D01*
X169254417Y-35250000D01*
X169274700Y-35455934D01*
X169275752Y-35459402D01*
X169275753Y-35459407D01*
X169293665Y-35518455D01*
X169334768Y-35653954D01*
X169336483Y-35657162D01*
X169430598Y-35833239D01*
X169430601Y-35833244D01*
X169432315Y-35836450D01*
X169434622Y-35839261D01*
X169434624Y-35839264D01*
X169516664Y-35939230D01*
X169563590Y-35996410D01*
X169566400Y-35998716D01*
X169713878Y-36119748D01*
X169723550Y-36127685D01*
X169726758Y-36129399D01*
X169726760Y-36129401D01*
X169755240Y-36144624D01*
X169906046Y-36225232D01*
X170104066Y-36285300D01*
X170310000Y-36305583D01*
X170515934Y-36285300D01*
X170713954Y-36225232D01*
X170896450Y-36127685D01*
X171056410Y-35996410D01*
X171187685Y-35836450D01*
X171285232Y-35653954D01*
X171345300Y-35455934D01*
X171365583Y-35250000D01*
X171794417Y-35250000D01*
X171814700Y-35455934D01*
X171815752Y-35459402D01*
X171815753Y-35459407D01*
X171833665Y-35518455D01*
X171874768Y-35653954D01*
X171876483Y-35657162D01*
X171970598Y-35833239D01*
X171970601Y-35833244D01*
X171972315Y-35836450D01*
X171974622Y-35839261D01*
X171974624Y-35839264D01*
X172056664Y-35939230D01*
X172103590Y-35996410D01*
X172106400Y-35998716D01*
X172253878Y-36119748D01*
X172263550Y-36127685D01*
X172266758Y-36129399D01*
X172266760Y-36129401D01*
X172295240Y-36144624D01*
X172446046Y-36225232D01*
X172644066Y-36285300D01*
X172850000Y-36305583D01*
X173055934Y-36285300D01*
X173253954Y-36225232D01*
X173436450Y-36127685D01*
X173596410Y-35996410D01*
X173727685Y-35836450D01*
X173825232Y-35653954D01*
X173885300Y-35455934D01*
X173905583Y-35250000D01*
X174334417Y-35250000D01*
X174354700Y-35455934D01*
X174355752Y-35459402D01*
X174355753Y-35459407D01*
X174373665Y-35518455D01*
X174414768Y-35653954D01*
X174416483Y-35657162D01*
X174510598Y-35833239D01*
X174510601Y-35833244D01*
X174512315Y-35836450D01*
X174514622Y-35839261D01*
X174514624Y-35839264D01*
X174596664Y-35939230D01*
X174643590Y-35996410D01*
X174646400Y-35998716D01*
X174793878Y-36119748D01*
X174803550Y-36127685D01*
X174806758Y-36129399D01*
X174806760Y-36129401D01*
X174835240Y-36144624D01*
X174986046Y-36225232D01*
X175184066Y-36285300D01*
X175390000Y-36305583D01*
X175595934Y-36285300D01*
X175793954Y-36225232D01*
X175976450Y-36127685D01*
X176136410Y-35996410D01*
X176267685Y-35836450D01*
X176365232Y-35653954D01*
X176425300Y-35455934D01*
X176445583Y-35250000D01*
X176425300Y-35044066D01*
X176365232Y-34846046D01*
X176267685Y-34663550D01*
X176136410Y-34503590D01*
X175990557Y-34383892D01*
X175979264Y-34374624D01*
X175979261Y-34374622D01*
X175976450Y-34372315D01*
X175973244Y-34370601D01*
X175973239Y-34370598D01*
X175811607Y-34284204D01*
X175793954Y-34274768D01*
X175790473Y-34273712D01*
X175599407Y-34215753D01*
X175599402Y-34215752D01*
X175595934Y-34214700D01*
X175592322Y-34214344D01*
X175592321Y-34214344D01*
X175393614Y-34194773D01*
X175390000Y-34194417D01*
X175386386Y-34194773D01*
X175187678Y-34214344D01*
X175187675Y-34214344D01*
X175184066Y-34214700D01*
X175180599Y-34215751D01*
X175180592Y-34215753D01*
X174989526Y-34273712D01*
X174989522Y-34273713D01*
X174986046Y-34274768D01*
X174982839Y-34276482D01*
X174982837Y-34276483D01*
X174806760Y-34370598D01*
X174806750Y-34370604D01*
X174803550Y-34372315D01*
X174800742Y-34374618D01*
X174800735Y-34374624D01*
X174646400Y-34501283D01*
X174646394Y-34501288D01*
X174643590Y-34503590D01*
X174641288Y-34506394D01*
X174641283Y-34506400D01*
X174514624Y-34660735D01*
X174514618Y-34660742D01*
X174512315Y-34663550D01*
X174510604Y-34666750D01*
X174510598Y-34666760D01*
X174418197Y-34839630D01*
X174414768Y-34846046D01*
X174413713Y-34849522D01*
X174413712Y-34849526D01*
X174355753Y-35040592D01*
X174355751Y-35040599D01*
X174354700Y-35044066D01*
X174334417Y-35250000D01*
X173905583Y-35250000D01*
X173885300Y-35044066D01*
X173825232Y-34846046D01*
X173727685Y-34663550D01*
X173596410Y-34503590D01*
X173450557Y-34383892D01*
X173439264Y-34374624D01*
X173439261Y-34374622D01*
X173436450Y-34372315D01*
X173433244Y-34370601D01*
X173433239Y-34370598D01*
X173271607Y-34284204D01*
X173253954Y-34274768D01*
X173250473Y-34273712D01*
X173059407Y-34215753D01*
X173059402Y-34215752D01*
X173055934Y-34214700D01*
X173052322Y-34214344D01*
X173052321Y-34214344D01*
X172853614Y-34194773D01*
X172850000Y-34194417D01*
X172846386Y-34194773D01*
X172647678Y-34214344D01*
X172647675Y-34214344D01*
X172644066Y-34214700D01*
X172640599Y-34215751D01*
X172640592Y-34215753D01*
X172449526Y-34273712D01*
X172449522Y-34273713D01*
X172446046Y-34274768D01*
X172442839Y-34276482D01*
X172442837Y-34276483D01*
X172266760Y-34370598D01*
X172266750Y-34370604D01*
X172263550Y-34372315D01*
X172260742Y-34374618D01*
X172260735Y-34374624D01*
X172106400Y-34501283D01*
X172106394Y-34501288D01*
X172103590Y-34503590D01*
X172101288Y-34506394D01*
X172101283Y-34506400D01*
X171974624Y-34660735D01*
X171974618Y-34660742D01*
X171972315Y-34663550D01*
X171970604Y-34666750D01*
X171970598Y-34666760D01*
X171878197Y-34839630D01*
X171874768Y-34846046D01*
X171873713Y-34849522D01*
X171873712Y-34849526D01*
X171815753Y-35040592D01*
X171815751Y-35040599D01*
X171814700Y-35044066D01*
X171794417Y-35250000D01*
X171365583Y-35250000D01*
X171345300Y-35044066D01*
X171285232Y-34846046D01*
X171187685Y-34663550D01*
X171056410Y-34503590D01*
X170910557Y-34383892D01*
X170899264Y-34374624D01*
X170899261Y-34374622D01*
X170896450Y-34372315D01*
X170893244Y-34370601D01*
X170893239Y-34370598D01*
X170731607Y-34284204D01*
X170713954Y-34274768D01*
X170710473Y-34273712D01*
X170519407Y-34215753D01*
X170519402Y-34215752D01*
X170515934Y-34214700D01*
X170512322Y-34214344D01*
X170512321Y-34214344D01*
X170313614Y-34194773D01*
X170310000Y-34194417D01*
X170306386Y-34194773D01*
X170107678Y-34214344D01*
X170107675Y-34214344D01*
X170104066Y-34214700D01*
X170100599Y-34215751D01*
X170100592Y-34215753D01*
X169909526Y-34273712D01*
X169909522Y-34273713D01*
X169906046Y-34274768D01*
X169902839Y-34276482D01*
X169902837Y-34276483D01*
X169726760Y-34370598D01*
X169726750Y-34370604D01*
X169723550Y-34372315D01*
X169720742Y-34374618D01*
X169720735Y-34374624D01*
X169566400Y-34501283D01*
X169566394Y-34501288D01*
X169563590Y-34503590D01*
X169561288Y-34506394D01*
X169561283Y-34506400D01*
X169434624Y-34660735D01*
X169434618Y-34660742D01*
X169432315Y-34663550D01*
X169430604Y-34666750D01*
X169430598Y-34666760D01*
X169338197Y-34839630D01*
X169334768Y-34846046D01*
X169333713Y-34849522D01*
X169333712Y-34849526D01*
X169275753Y-35040592D01*
X169275751Y-35040599D01*
X169274700Y-35044066D01*
X169254417Y-35250000D01*
X159209266Y-35250000D01*
X159211251Y-35246218D01*
X159361210Y-34998153D01*
X159366286Y-34990801D01*
X159367772Y-34988904D01*
X166804204Y-34988904D01*
X166804343Y-34997400D01*
X166812435Y-35000000D01*
X167510257Y-35000000D01*
X167517940Y-34997940D01*
X167520000Y-34990257D01*
X168020000Y-34990257D01*
X168022059Y-34997940D01*
X168029743Y-35000000D01*
X168727565Y-35000000D01*
X168735656Y-34997400D01*
X168735795Y-34988904D01*
X168699405Y-34868945D01*
X168696634Y-34862254D01*
X168607206Y-34694947D01*
X168603188Y-34688932D01*
X168482834Y-34542282D01*
X168477717Y-34537165D01*
X168331067Y-34416811D01*
X168325052Y-34412793D01*
X168157745Y-34323365D01*
X168151054Y-34320594D01*
X168031095Y-34284204D01*
X168022599Y-34284343D01*
X168020000Y-34292435D01*
X168020000Y-34990257D01*
X167520000Y-34990257D01*
X167520000Y-34292435D01*
X167517400Y-34284343D01*
X167508904Y-34284204D01*
X167388945Y-34320594D01*
X167382254Y-34323365D01*
X167214947Y-34412793D01*
X167208932Y-34416811D01*
X167062282Y-34537165D01*
X167057165Y-34542282D01*
X166936811Y-34688932D01*
X166932793Y-34694947D01*
X166843365Y-34862254D01*
X166840594Y-34868945D01*
X166804204Y-34988904D01*
X159367772Y-34988904D01*
X159396467Y-34952278D01*
X159545056Y-34762617D01*
X159550967Y-34755945D01*
X159755945Y-34550967D01*
X159762617Y-34545056D01*
X159990802Y-34366285D01*
X159998155Y-34361210D01*
X160246218Y-34211251D01*
X160254112Y-34207107D01*
X160518469Y-34088129D01*
X160526796Y-34084972D01*
X160803551Y-33998731D01*
X160812194Y-33996601D01*
X161097341Y-33944346D01*
X161106189Y-33943272D01*
X161397768Y-33925634D01*
X161402236Y-33925500D01*
X161408285Y-33925500D01*
X204591715Y-33925500D01*
X204597764Y-33925500D01*
X204602231Y-33925634D01*
G37*
G04 #@! TD.AperFunction*
G04 #@! TD*
G04 #@! TA.AperFunction,Conductor*
G04 #@! TO.N,Net-(D2-K)*
G36*
X206254808Y-40200633D02*
G01*
X206369753Y-40215765D01*
X206388408Y-40220764D01*
X206490999Y-40263258D01*
X206507728Y-40272917D01*
X206595824Y-40340516D01*
X206609483Y-40354175D01*
X206677082Y-40442271D01*
X206686741Y-40459001D01*
X206729234Y-40561588D01*
X206734234Y-40580248D01*
X206749367Y-40695192D01*
X206750000Y-40704851D01*
X206750000Y-43395149D01*
X206749367Y-43404808D01*
X206734234Y-43519751D01*
X206729234Y-43538411D01*
X206686741Y-43640998D01*
X206677082Y-43657728D01*
X206609483Y-43745824D01*
X206595824Y-43759483D01*
X206507728Y-43827082D01*
X206490998Y-43836741D01*
X206388411Y-43879234D01*
X206369751Y-43884234D01*
X206254808Y-43899367D01*
X206245149Y-43900000D01*
X205004851Y-43900000D01*
X204995192Y-43899367D01*
X204880248Y-43884234D01*
X204861588Y-43879234D01*
X204759001Y-43836741D01*
X204742271Y-43827082D01*
X204654175Y-43759483D01*
X204640516Y-43745824D01*
X204572917Y-43657728D01*
X204563258Y-43640998D01*
X204520765Y-43538411D01*
X204515765Y-43519751D01*
X204500633Y-43404808D01*
X204500000Y-43395149D01*
X204500000Y-40704851D01*
X204500633Y-40695192D01*
X204501212Y-40690791D01*
X204515766Y-40580244D01*
X204520763Y-40561593D01*
X204563260Y-40458996D01*
X204572914Y-40442274D01*
X204640520Y-40354170D01*
X204654170Y-40340520D01*
X204742274Y-40272914D01*
X204758996Y-40263260D01*
X204861593Y-40220763D01*
X204880244Y-40215766D01*
X204995191Y-40200633D01*
X205004851Y-40200000D01*
X206245149Y-40200000D01*
X206254808Y-40200633D01*
G37*
G04 #@! TD.AperFunction*
G04 #@! TD*
G04 #@! TA.AperFunction,Conductor*
G04 #@! TO.N,Net-(D2-K)*
G36*
X179004808Y-40000633D02*
G01*
X179119753Y-40015765D01*
X179138408Y-40020764D01*
X179240999Y-40063258D01*
X179257728Y-40072917D01*
X179345824Y-40140516D01*
X179359483Y-40154175D01*
X179427082Y-40242271D01*
X179436741Y-40259001D01*
X179479234Y-40361588D01*
X179484234Y-40380248D01*
X179499367Y-40495192D01*
X179500000Y-40504851D01*
X179500000Y-42289345D01*
X179499367Y-42299004D01*
X179484234Y-42413947D01*
X179479234Y-42432607D01*
X179436741Y-42535194D01*
X179427082Y-42551924D01*
X179359483Y-42640020D01*
X179345824Y-42653679D01*
X179257728Y-42721278D01*
X179240998Y-42730937D01*
X179138411Y-42773430D01*
X179119751Y-42778430D01*
X179004808Y-42793563D01*
X178995149Y-42794196D01*
X178004851Y-42794196D01*
X177995192Y-42793563D01*
X177880248Y-42778430D01*
X177861588Y-42773430D01*
X177759001Y-42730937D01*
X177742271Y-42721278D01*
X177654175Y-42653679D01*
X177640516Y-42640020D01*
X177572917Y-42551924D01*
X177563258Y-42535194D01*
X177520765Y-42432607D01*
X177515765Y-42413947D01*
X177500633Y-42299004D01*
X177500000Y-42289345D01*
X177500000Y-40504851D01*
X177500633Y-40495192D01*
X177501212Y-40490791D01*
X177515766Y-40380244D01*
X177520763Y-40361593D01*
X177563260Y-40258996D01*
X177572914Y-40242274D01*
X177640520Y-40154170D01*
X177654170Y-40140520D01*
X177742274Y-40072914D01*
X177758996Y-40063260D01*
X177861593Y-40020763D01*
X177880244Y-40015766D01*
X177995191Y-40000633D01*
X178004851Y-40000000D01*
X178995149Y-40000000D01*
X179004808Y-40000633D01*
G37*
G04 #@! TD.AperFunction*
G04 #@! TD*
M02*
