%TF.GenerationSoftware,KiCad,Pcbnew,(5.1.9)-1*%
%TF.CreationDate,2021-09-15T13:57:53+03:00*%
%TF.ProjectId,voltlog UHF repeater,766f6c74-6c6f-4672-9055-484620726570,rev?*%
%TF.SameCoordinates,Original*%
%TF.FileFunction,Legend,Top*%
%TF.FilePolarity,Positive*%
%FSLAX46Y46*%
G04 Gerber Fmt 4.6, Leading zero omitted, Abs format (unit mm)*
G04 Created by KiCad (PCBNEW (5.1.9)-1) date 2021-09-15 13:57:53*
%MOMM*%
%LPD*%
G01*
G04 APERTURE LIST*
%ADD10C,0.225000*%
%ADD11C,0.150000*%
%ADD12C,0.100000*%
%ADD13C,0.250000*%
%ADD14C,0.120000*%
G04 APERTURE END LIST*
D10*
X172981272Y-48907142D02*
X173093772Y-48007142D01*
X173436629Y-48007142D01*
X173516986Y-48050000D01*
X173554486Y-48092857D01*
X173586629Y-48178571D01*
X173570558Y-48307142D01*
X173516986Y-48392857D01*
X173468772Y-48435714D01*
X173377700Y-48478571D01*
X173034843Y-48478571D01*
X173865200Y-48007142D02*
X174379486Y-48007142D01*
X174009843Y-48907142D02*
X174122343Y-48007142D01*
X174550915Y-48007142D02*
X175065200Y-48007142D01*
X174695558Y-48907142D02*
X174808058Y-48007142D01*
X167093772Y-74007142D02*
X166665200Y-74007142D01*
X166568772Y-74435714D01*
X166616986Y-74392857D01*
X166708058Y-74350000D01*
X166922343Y-74350000D01*
X167002700Y-74392857D01*
X167040200Y-74435714D01*
X167072343Y-74521428D01*
X167045558Y-74735714D01*
X166991986Y-74821428D01*
X166943772Y-74864285D01*
X166852700Y-74907142D01*
X166638415Y-74907142D01*
X166558058Y-74864285D01*
X166520558Y-74821428D01*
X167393772Y-74007142D02*
X167581272Y-74907142D01*
X167993772Y-74007142D01*
D11*
X168340476Y-44136904D02*
X168492857Y-44136904D01*
X168569047Y-44175000D01*
X168645238Y-44251190D01*
X168683333Y-44403571D01*
X168683333Y-44670238D01*
X168645238Y-44822619D01*
X168569047Y-44898809D01*
X168492857Y-44936904D01*
X168340476Y-44936904D01*
X168264285Y-44898809D01*
X168188095Y-44822619D01*
X168150000Y-44670238D01*
X168150000Y-44403571D01*
X168188095Y-44251190D01*
X168264285Y-44175000D01*
X168340476Y-44136904D01*
X169026190Y-44517857D02*
X169635714Y-44517857D01*
X169635714Y-44746428D02*
X169026190Y-44746428D01*
X170435714Y-44936904D02*
X169978571Y-44936904D01*
X170207142Y-44936904D02*
X170207142Y-44136904D01*
X170130952Y-44251190D01*
X170054761Y-44327380D01*
X169978571Y-44365476D01*
X170702380Y-44136904D02*
X170892857Y-44936904D01*
X171045238Y-44365476D01*
X171197619Y-44936904D01*
X171388095Y-44136904D01*
X168092857Y-46210714D02*
X168054761Y-46248809D01*
X167940476Y-46286904D01*
X167864285Y-46286904D01*
X167750000Y-46248809D01*
X167673809Y-46172619D01*
X167635714Y-46096428D01*
X167597619Y-45944047D01*
X167597619Y-45829761D01*
X167635714Y-45677380D01*
X167673809Y-45601190D01*
X167750000Y-45525000D01*
X167864285Y-45486904D01*
X167940476Y-45486904D01*
X168054761Y-45525000D01*
X168092857Y-45563095D01*
X168435714Y-45867857D02*
X169045238Y-45867857D01*
X169045238Y-46096428D02*
X168435714Y-46096428D01*
X169578571Y-45486904D02*
X169654761Y-45486904D01*
X169730952Y-45525000D01*
X169769047Y-45563095D01*
X169807142Y-45639285D01*
X169845238Y-45791666D01*
X169845238Y-45982142D01*
X169807142Y-46134523D01*
X169769047Y-46210714D01*
X169730952Y-46248809D01*
X169654761Y-46286904D01*
X169578571Y-46286904D01*
X169502380Y-46248809D01*
X169464285Y-46210714D01*
X169426190Y-46134523D01*
X169388095Y-45982142D01*
X169388095Y-45791666D01*
X169426190Y-45639285D01*
X169464285Y-45563095D01*
X169502380Y-45525000D01*
X169578571Y-45486904D01*
X170188095Y-46210714D02*
X170226190Y-46248809D01*
X170188095Y-46286904D01*
X170150000Y-46248809D01*
X170188095Y-46210714D01*
X170188095Y-46286904D01*
X170950000Y-45486904D02*
X170569047Y-45486904D01*
X170530952Y-45867857D01*
X170569047Y-45829761D01*
X170645238Y-45791666D01*
X170835714Y-45791666D01*
X170911904Y-45829761D01*
X170950000Y-45867857D01*
X170988095Y-45944047D01*
X170988095Y-46134523D01*
X170950000Y-46210714D01*
X170911904Y-46248809D01*
X170835714Y-46286904D01*
X170645238Y-46286904D01*
X170569047Y-46248809D01*
X170530952Y-46210714D01*
X171254761Y-45486904D02*
X171445238Y-46286904D01*
X171597619Y-45715476D01*
X171750000Y-46286904D01*
X171940476Y-45486904D01*
D12*
%TO.C,U1*%
G36*
X181950000Y-70675000D02*
G01*
X181950000Y-73175000D01*
X180200000Y-71925000D01*
X181950000Y-70675000D01*
G37*
X181950000Y-70675000D02*
X181950000Y-73175000D01*
X180200000Y-71925000D01*
X181950000Y-70675000D01*
D13*
X195450000Y-40500000D02*
X196950000Y-40500000D01*
X196950000Y-40500000D02*
X196950000Y-43800000D01*
X177550000Y-40500000D02*
X177550000Y-43800000D01*
X177550000Y-40500000D02*
X179050000Y-40500000D01*
X177550000Y-73200000D02*
X177550000Y-76500000D01*
X177550000Y-76500000D02*
X196950000Y-76500000D01*
X196950000Y-73200000D02*
X196950000Y-76500000D01*
D14*
%TO.C,Q2*%
X174760000Y-73330000D02*
X174760000Y-72400000D01*
X174760000Y-70170000D02*
X174760000Y-71100000D01*
X174760000Y-70170000D02*
X172600000Y-70170000D01*
X174760000Y-73330000D02*
X173300000Y-73330000D01*
%TO.C,Q1*%
X174760000Y-59330000D02*
X174760000Y-58400000D01*
X174760000Y-56170000D02*
X174760000Y-57100000D01*
X174760000Y-56170000D02*
X172600000Y-56170000D01*
X174760000Y-59330000D02*
X173300000Y-59330000D01*
%TO.C,FL1*%
X203600000Y-50000000D02*
X201900000Y-50000000D01*
X203600000Y-47600000D02*
X203600000Y-50000000D01*
X201900000Y-47600000D02*
X203600000Y-47600000D01*
X201900000Y-50000000D02*
X201900000Y-47600000D01*
D12*
G36*
X203000000Y-48300000D02*
G01*
X203000000Y-48675000D01*
X202525000Y-48675000D01*
X202525000Y-48300000D01*
X203000000Y-48300000D01*
G37*
X203000000Y-48300000D02*
X203000000Y-48675000D01*
X202525000Y-48675000D01*
X202525000Y-48300000D01*
X203000000Y-48300000D01*
D14*
%TO.C,J3*%
X199020000Y-55200000D02*
X199020000Y-58800000D01*
X206380000Y-55200000D02*
X206380000Y-58800000D01*
X200900000Y-60680000D02*
X204500000Y-60680000D01*
X200900000Y-53320000D02*
X204500000Y-53320000D01*
%TO.C,J1*%
X199580000Y-33920000D02*
X199580000Y-35250000D01*
X198250000Y-33920000D02*
X199580000Y-33920000D01*
X199580000Y-36520000D02*
X199580000Y-39120000D01*
X196980000Y-36520000D02*
X199580000Y-36520000D01*
X196980000Y-33920000D02*
X196980000Y-36520000D01*
X199580000Y-39120000D02*
X166440000Y-39120000D01*
X196980000Y-33920000D02*
X166440000Y-33920000D01*
X166440000Y-33920000D02*
X166440000Y-39120000D01*
%TO.C,R14*%
X170262742Y-76272500D02*
X170737258Y-76272500D01*
X170262742Y-75227500D02*
X170737258Y-75227500D01*
%TO.C,R13*%
X174237258Y-67227500D02*
X173762742Y-67227500D01*
X174237258Y-68272500D02*
X173762742Y-68272500D01*
%TO.C,R12*%
X174237258Y-68727500D02*
X173762742Y-68727500D01*
X174237258Y-69772500D02*
X173762742Y-69772500D01*
%TO.C,R11*%
X174237258Y-61227500D02*
X173762742Y-61227500D01*
X174237258Y-62272500D02*
X173762742Y-62272500D01*
%TO.C,R10*%
X174237258Y-64227500D02*
X173762742Y-64227500D01*
X174237258Y-65272500D02*
X173762742Y-65272500D01*
%TO.C,R9*%
X175012742Y-74772500D02*
X175487258Y-74772500D01*
X175012742Y-73727500D02*
X175487258Y-73727500D01*
%TO.C,R8*%
X175487258Y-75227500D02*
X175012742Y-75227500D01*
X175487258Y-76272500D02*
X175012742Y-76272500D01*
%TO.C,R7*%
X173762742Y-43022500D02*
X174237258Y-43022500D01*
X173762742Y-41977500D02*
X174237258Y-41977500D01*
%TO.C,R6*%
X174237258Y-59727500D02*
X173762742Y-59727500D01*
X174237258Y-60772500D02*
X173762742Y-60772500D01*
%TO.C,R5*%
X173762742Y-55772500D02*
X174237258Y-55772500D01*
X173762742Y-54727500D02*
X174237258Y-54727500D01*
%TO.C,R4*%
X201262742Y-71022500D02*
X201737258Y-71022500D01*
X201262742Y-69977500D02*
X201737258Y-69977500D01*
%TO.C,R3*%
X201262742Y-69522500D02*
X201737258Y-69522500D01*
X201262742Y-68477500D02*
X201737258Y-68477500D01*
%TO.C,R2*%
X174237258Y-53227500D02*
X173762742Y-53227500D01*
X174237258Y-54272500D02*
X173762742Y-54272500D01*
%TO.C,R1*%
X173762742Y-51772500D02*
X174237258Y-51772500D01*
X173762742Y-50727500D02*
X174237258Y-50727500D01*
%TO.C,JP1*%
X175400000Y-46250000D02*
X172600000Y-46250000D01*
X172600000Y-46250000D02*
X172600000Y-44250000D01*
X172600000Y-44250000D02*
X175400000Y-44250000D01*
X175400000Y-44250000D02*
X175400000Y-46250000D01*
%TO.C,J2*%
X166420000Y-79780000D02*
X166420000Y-78450000D01*
X167750000Y-79780000D02*
X166420000Y-79780000D01*
X169020000Y-79780000D02*
X169020000Y-77120000D01*
X169020000Y-77120000D02*
X199560000Y-77120000D01*
X169020000Y-79780000D02*
X199560000Y-79780000D01*
X199560000Y-79780000D02*
X199560000Y-77120000D01*
%TO.C,D4*%
X168885000Y-75015000D02*
X166600000Y-75015000D01*
X168885000Y-76485000D02*
X168885000Y-75015000D01*
X166600000Y-76485000D02*
X168885000Y-76485000D01*
%TO.C,D3*%
X172515000Y-66985000D02*
X174800000Y-66985000D01*
X172515000Y-65515000D02*
X172515000Y-66985000D01*
X174800000Y-65515000D02*
X172515000Y-65515000D01*
%TO.C,D2*%
X204400000Y-43650000D02*
X199000000Y-43650000D01*
X204400000Y-40350000D02*
X199000000Y-40350000D01*
X204400000Y-43650000D02*
X204400000Y-40350000D01*
%TO.C,D1*%
X172515000Y-50485000D02*
X174800000Y-50485000D01*
X172515000Y-49015000D02*
X172515000Y-50485000D01*
X174800000Y-49015000D02*
X172515000Y-49015000D01*
%TO.C,C4*%
X172490000Y-74859420D02*
X172490000Y-75140580D01*
X173510000Y-74859420D02*
X173510000Y-75140580D01*
%TO.C,C3*%
X173859420Y-63760000D02*
X174140580Y-63760000D01*
X173859420Y-62740000D02*
X174140580Y-62740000D01*
%TO.C,C2*%
X174140580Y-40490000D02*
X173859420Y-40490000D01*
X174140580Y-41510000D02*
X173859420Y-41510000D01*
%TO.C,C1*%
X201640580Y-71740000D02*
X201359420Y-71740000D01*
X201640580Y-72760000D02*
X201359420Y-72760000D01*
%TO.C,U1*%
D11*
X193988095Y-76802380D02*
X193988095Y-77611904D01*
X194035714Y-77707142D01*
X194083333Y-77754761D01*
X194178571Y-77802380D01*
X194369047Y-77802380D01*
X194464285Y-77754761D01*
X194511904Y-77707142D01*
X194559523Y-77611904D01*
X194559523Y-76802380D01*
X195559523Y-77802380D02*
X194988095Y-77802380D01*
X195273809Y-77802380D02*
X195273809Y-76802380D01*
X195178571Y-76945238D01*
X195083333Y-77040476D01*
X194988095Y-77088095D01*
%TO.C,Q2*%
X175523809Y-73338095D02*
X175447619Y-73300000D01*
X175371428Y-73223809D01*
X175257142Y-73109523D01*
X175180952Y-73071428D01*
X175104761Y-73071428D01*
X175142857Y-73261904D02*
X175066666Y-73223809D01*
X174990476Y-73147619D01*
X174952380Y-72995238D01*
X174952380Y-72728571D01*
X174990476Y-72576190D01*
X175066666Y-72500000D01*
X175142857Y-72461904D01*
X175295238Y-72461904D01*
X175371428Y-72500000D01*
X175447619Y-72576190D01*
X175485714Y-72728571D01*
X175485714Y-72995238D01*
X175447619Y-73147619D01*
X175371428Y-73223809D01*
X175295238Y-73261904D01*
X175142857Y-73261904D01*
X175790476Y-72538095D02*
X175828571Y-72500000D01*
X175904761Y-72461904D01*
X176095238Y-72461904D01*
X176171428Y-72500000D01*
X176209523Y-72538095D01*
X176247619Y-72614285D01*
X176247619Y-72690476D01*
X176209523Y-72804761D01*
X175752380Y-73261904D01*
X176247619Y-73261904D01*
%TO.C,Q1*%
X175938095Y-58976190D02*
X175900000Y-59052380D01*
X175823809Y-59128571D01*
X175709523Y-59242857D01*
X175671428Y-59319047D01*
X175671428Y-59395238D01*
X175861904Y-59357142D02*
X175823809Y-59433333D01*
X175747619Y-59509523D01*
X175595238Y-59547619D01*
X175328571Y-59547619D01*
X175176190Y-59509523D01*
X175100000Y-59433333D01*
X175061904Y-59357142D01*
X175061904Y-59204761D01*
X175100000Y-59128571D01*
X175176190Y-59052380D01*
X175328571Y-59014285D01*
X175595238Y-59014285D01*
X175747619Y-59052380D01*
X175823809Y-59128571D01*
X175861904Y-59204761D01*
X175861904Y-59357142D01*
X175861904Y-58252380D02*
X175861904Y-58709523D01*
X175861904Y-58480952D02*
X175061904Y-58480952D01*
X175176190Y-58557142D01*
X175252380Y-58633333D01*
X175290476Y-58709523D01*
%TO.C,FL1*%
X204761904Y-47178571D02*
X204428571Y-47178571D01*
X204428571Y-47702380D02*
X204428571Y-46702380D01*
X204904761Y-46702380D01*
X205761904Y-47702380D02*
X205285714Y-47702380D01*
X205285714Y-46702380D01*
X206619047Y-47702380D02*
X206047619Y-47702380D01*
X206333333Y-47702380D02*
X206333333Y-46702380D01*
X206238095Y-46845238D01*
X206142857Y-46940476D01*
X206047619Y-46988095D01*
%TO.C,J3*%
X199666666Y-51452380D02*
X199666666Y-52166666D01*
X199619047Y-52309523D01*
X199523809Y-52404761D01*
X199380952Y-52452380D01*
X199285714Y-52452380D01*
X200047619Y-51452380D02*
X200666666Y-51452380D01*
X200333333Y-51833333D01*
X200476190Y-51833333D01*
X200571428Y-51880952D01*
X200619047Y-51928571D01*
X200666666Y-52023809D01*
X200666666Y-52261904D01*
X200619047Y-52357142D01*
X200571428Y-52404761D01*
X200476190Y-52452380D01*
X200190476Y-52452380D01*
X200095238Y-52404761D01*
X200047619Y-52357142D01*
%TO.C,J1*%
X200032380Y-36853333D02*
X200746666Y-36853333D01*
X200889523Y-36900952D01*
X200984761Y-36996190D01*
X201032380Y-37139047D01*
X201032380Y-37234285D01*
X201032380Y-35853333D02*
X201032380Y-36424761D01*
X201032380Y-36139047D02*
X200032380Y-36139047D01*
X200175238Y-36234285D01*
X200270476Y-36329523D01*
X200318095Y-36424761D01*
%TO.C,R14*%
X169485714Y-74861904D02*
X169219047Y-74480952D01*
X169028571Y-74861904D02*
X169028571Y-74061904D01*
X169333333Y-74061904D01*
X169409523Y-74100000D01*
X169447619Y-74138095D01*
X169485714Y-74214285D01*
X169485714Y-74328571D01*
X169447619Y-74404761D01*
X169409523Y-74442857D01*
X169333333Y-74480952D01*
X169028571Y-74480952D01*
X170247619Y-74861904D02*
X169790476Y-74861904D01*
X170019047Y-74861904D02*
X170019047Y-74061904D01*
X169942857Y-74176190D01*
X169866666Y-74252380D01*
X169790476Y-74290476D01*
X170933333Y-74328571D02*
X170933333Y-74861904D01*
X170742857Y-74023809D02*
X170552380Y-74595238D01*
X171047619Y-74595238D01*
%TO.C,R13*%
X176085714Y-69561904D02*
X175819047Y-69180952D01*
X175628571Y-69561904D02*
X175628571Y-68761904D01*
X175933333Y-68761904D01*
X176009523Y-68800000D01*
X176047619Y-68838095D01*
X176085714Y-68914285D01*
X176085714Y-69028571D01*
X176047619Y-69104761D01*
X176009523Y-69142857D01*
X175933333Y-69180952D01*
X175628571Y-69180952D01*
X176847619Y-69561904D02*
X176390476Y-69561904D01*
X176619047Y-69561904D02*
X176619047Y-68761904D01*
X176542857Y-68876190D01*
X176466666Y-68952380D01*
X176390476Y-68990476D01*
X177114285Y-68761904D02*
X177609523Y-68761904D01*
X177342857Y-69066666D01*
X177457142Y-69066666D01*
X177533333Y-69104761D01*
X177571428Y-69142857D01*
X177609523Y-69219047D01*
X177609523Y-69409523D01*
X177571428Y-69485714D01*
X177533333Y-69523809D01*
X177457142Y-69561904D01*
X177228571Y-69561904D01*
X177152380Y-69523809D01*
X177114285Y-69485714D01*
%TO.C,R12*%
X176085714Y-70561904D02*
X175819047Y-70180952D01*
X175628571Y-70561904D02*
X175628571Y-69761904D01*
X175933333Y-69761904D01*
X176009523Y-69800000D01*
X176047619Y-69838095D01*
X176085714Y-69914285D01*
X176085714Y-70028571D01*
X176047619Y-70104761D01*
X176009523Y-70142857D01*
X175933333Y-70180952D01*
X175628571Y-70180952D01*
X176847619Y-70561904D02*
X176390476Y-70561904D01*
X176619047Y-70561904D02*
X176619047Y-69761904D01*
X176542857Y-69876190D01*
X176466666Y-69952380D01*
X176390476Y-69990476D01*
X177152380Y-69838095D02*
X177190476Y-69800000D01*
X177266666Y-69761904D01*
X177457142Y-69761904D01*
X177533333Y-69800000D01*
X177571428Y-69838095D01*
X177609523Y-69914285D01*
X177609523Y-69990476D01*
X177571428Y-70104761D01*
X177114285Y-70561904D01*
X177609523Y-70561904D01*
%TO.C,R11*%
X176085714Y-61661904D02*
X175819047Y-61280952D01*
X175628571Y-61661904D02*
X175628571Y-60861904D01*
X175933333Y-60861904D01*
X176009523Y-60900000D01*
X176047619Y-60938095D01*
X176085714Y-61014285D01*
X176085714Y-61128571D01*
X176047619Y-61204761D01*
X176009523Y-61242857D01*
X175933333Y-61280952D01*
X175628571Y-61280952D01*
X176847619Y-61661904D02*
X176390476Y-61661904D01*
X176619047Y-61661904D02*
X176619047Y-60861904D01*
X176542857Y-60976190D01*
X176466666Y-61052380D01*
X176390476Y-61090476D01*
X177609523Y-61661904D02*
X177152380Y-61661904D01*
X177380952Y-61661904D02*
X177380952Y-60861904D01*
X177304761Y-60976190D01*
X177228571Y-61052380D01*
X177152380Y-61090476D01*
%TO.C,R10*%
X176085714Y-65161904D02*
X175819047Y-64780952D01*
X175628571Y-65161904D02*
X175628571Y-64361904D01*
X175933333Y-64361904D01*
X176009523Y-64400000D01*
X176047619Y-64438095D01*
X176085714Y-64514285D01*
X176085714Y-64628571D01*
X176047619Y-64704761D01*
X176009523Y-64742857D01*
X175933333Y-64780952D01*
X175628571Y-64780952D01*
X176847619Y-65161904D02*
X176390476Y-65161904D01*
X176619047Y-65161904D02*
X176619047Y-64361904D01*
X176542857Y-64476190D01*
X176466666Y-64552380D01*
X176390476Y-64590476D01*
X177342857Y-64361904D02*
X177419047Y-64361904D01*
X177495238Y-64400000D01*
X177533333Y-64438095D01*
X177571428Y-64514285D01*
X177609523Y-64666666D01*
X177609523Y-64857142D01*
X177571428Y-65009523D01*
X177533333Y-65085714D01*
X177495238Y-65123809D01*
X177419047Y-65161904D01*
X177342857Y-65161904D01*
X177266666Y-65123809D01*
X177228571Y-65085714D01*
X177190476Y-65009523D01*
X177152380Y-64857142D01*
X177152380Y-64666666D01*
X177190476Y-64514285D01*
X177228571Y-64438095D01*
X177266666Y-64400000D01*
X177342857Y-64361904D01*
%TO.C,R9*%
X177561904Y-74333333D02*
X177180952Y-74600000D01*
X177561904Y-74790476D02*
X176761904Y-74790476D01*
X176761904Y-74485714D01*
X176800000Y-74409523D01*
X176838095Y-74371428D01*
X176914285Y-74333333D01*
X177028571Y-74333333D01*
X177104761Y-74371428D01*
X177142857Y-74409523D01*
X177180952Y-74485714D01*
X177180952Y-74790476D01*
X177561904Y-73952380D02*
X177561904Y-73800000D01*
X177523809Y-73723809D01*
X177485714Y-73685714D01*
X177371428Y-73609523D01*
X177219047Y-73571428D01*
X176914285Y-73571428D01*
X176838095Y-73609523D01*
X176800000Y-73647619D01*
X176761904Y-73723809D01*
X176761904Y-73876190D01*
X176800000Y-73952380D01*
X176838095Y-73990476D01*
X176914285Y-74028571D01*
X177104761Y-74028571D01*
X177180952Y-73990476D01*
X177219047Y-73952380D01*
X177257142Y-73876190D01*
X177257142Y-73723809D01*
X177219047Y-73647619D01*
X177180952Y-73609523D01*
X177104761Y-73571428D01*
%TO.C,R8*%
X177561904Y-76133333D02*
X177180952Y-76400000D01*
X177561904Y-76590476D02*
X176761904Y-76590476D01*
X176761904Y-76285714D01*
X176800000Y-76209523D01*
X176838095Y-76171428D01*
X176914285Y-76133333D01*
X177028571Y-76133333D01*
X177104761Y-76171428D01*
X177142857Y-76209523D01*
X177180952Y-76285714D01*
X177180952Y-76590476D01*
X177104761Y-75676190D02*
X177066666Y-75752380D01*
X177028571Y-75790476D01*
X176952380Y-75828571D01*
X176914285Y-75828571D01*
X176838095Y-75790476D01*
X176800000Y-75752380D01*
X176761904Y-75676190D01*
X176761904Y-75523809D01*
X176800000Y-75447619D01*
X176838095Y-75409523D01*
X176914285Y-75371428D01*
X176952380Y-75371428D01*
X177028571Y-75409523D01*
X177066666Y-75447619D01*
X177104761Y-75523809D01*
X177104761Y-75676190D01*
X177142857Y-75752380D01*
X177180952Y-75790476D01*
X177257142Y-75828571D01*
X177409523Y-75828571D01*
X177485714Y-75790476D01*
X177523809Y-75752380D01*
X177561904Y-75676190D01*
X177561904Y-75523809D01*
X177523809Y-75447619D01*
X177485714Y-75409523D01*
X177409523Y-75371428D01*
X177257142Y-75371428D01*
X177180952Y-75409523D01*
X177142857Y-75447619D01*
X177104761Y-75523809D01*
%TO.C,R7*%
X171333333Y-43002380D02*
X171000000Y-42526190D01*
X170761904Y-43002380D02*
X170761904Y-42002380D01*
X171142857Y-42002380D01*
X171238095Y-42050000D01*
X171285714Y-42097619D01*
X171333333Y-42192857D01*
X171333333Y-42335714D01*
X171285714Y-42430952D01*
X171238095Y-42478571D01*
X171142857Y-42526190D01*
X170761904Y-42526190D01*
X171666666Y-42002380D02*
X172333333Y-42002380D01*
X171904761Y-43002380D01*
%TO.C,R6*%
X176066666Y-60661904D02*
X175800000Y-60280952D01*
X175609523Y-60661904D02*
X175609523Y-59861904D01*
X175914285Y-59861904D01*
X175990476Y-59900000D01*
X176028571Y-59938095D01*
X176066666Y-60014285D01*
X176066666Y-60128571D01*
X176028571Y-60204761D01*
X175990476Y-60242857D01*
X175914285Y-60280952D01*
X175609523Y-60280952D01*
X176752380Y-59861904D02*
X176600000Y-59861904D01*
X176523809Y-59900000D01*
X176485714Y-59938095D01*
X176409523Y-60052380D01*
X176371428Y-60204761D01*
X176371428Y-60509523D01*
X176409523Y-60585714D01*
X176447619Y-60623809D01*
X176523809Y-60661904D01*
X176676190Y-60661904D01*
X176752380Y-60623809D01*
X176790476Y-60585714D01*
X176828571Y-60509523D01*
X176828571Y-60319047D01*
X176790476Y-60242857D01*
X176752380Y-60204761D01*
X176676190Y-60166666D01*
X176523809Y-60166666D01*
X176447619Y-60204761D01*
X176409523Y-60242857D01*
X176371428Y-60319047D01*
%TO.C,R5*%
X176066666Y-56061904D02*
X175800000Y-55680952D01*
X175609523Y-56061904D02*
X175609523Y-55261904D01*
X175914285Y-55261904D01*
X175990476Y-55300000D01*
X176028571Y-55338095D01*
X176066666Y-55414285D01*
X176066666Y-55528571D01*
X176028571Y-55604761D01*
X175990476Y-55642857D01*
X175914285Y-55680952D01*
X175609523Y-55680952D01*
X176790476Y-55261904D02*
X176409523Y-55261904D01*
X176371428Y-55642857D01*
X176409523Y-55604761D01*
X176485714Y-55566666D01*
X176676190Y-55566666D01*
X176752380Y-55604761D01*
X176790476Y-55642857D01*
X176828571Y-55719047D01*
X176828571Y-55909523D01*
X176790476Y-55985714D01*
X176752380Y-56023809D01*
X176676190Y-56061904D01*
X176485714Y-56061904D01*
X176409523Y-56023809D01*
X176371428Y-55985714D01*
%TO.C,R4*%
X203833333Y-70952380D02*
X203500000Y-70476190D01*
X203261904Y-70952380D02*
X203261904Y-69952380D01*
X203642857Y-69952380D01*
X203738095Y-70000000D01*
X203785714Y-70047619D01*
X203833333Y-70142857D01*
X203833333Y-70285714D01*
X203785714Y-70380952D01*
X203738095Y-70428571D01*
X203642857Y-70476190D01*
X203261904Y-70476190D01*
X204690476Y-70285714D02*
X204690476Y-70952380D01*
X204452380Y-69904761D02*
X204214285Y-70619047D01*
X204833333Y-70619047D01*
%TO.C,R3*%
X203833333Y-69452380D02*
X203500000Y-68976190D01*
X203261904Y-69452380D02*
X203261904Y-68452380D01*
X203642857Y-68452380D01*
X203738095Y-68500000D01*
X203785714Y-68547619D01*
X203833333Y-68642857D01*
X203833333Y-68785714D01*
X203785714Y-68880952D01*
X203738095Y-68928571D01*
X203642857Y-68976190D01*
X203261904Y-68976190D01*
X204166666Y-68452380D02*
X204785714Y-68452380D01*
X204452380Y-68833333D01*
X204595238Y-68833333D01*
X204690476Y-68880952D01*
X204738095Y-68928571D01*
X204785714Y-69023809D01*
X204785714Y-69261904D01*
X204738095Y-69357142D01*
X204690476Y-69404761D01*
X204595238Y-69452380D01*
X204309523Y-69452380D01*
X204214285Y-69404761D01*
X204166666Y-69357142D01*
%TO.C,R2*%
X176261904Y-53833333D02*
X175880952Y-54100000D01*
X176261904Y-54290476D02*
X175461904Y-54290476D01*
X175461904Y-53985714D01*
X175500000Y-53909523D01*
X175538095Y-53871428D01*
X175614285Y-53833333D01*
X175728571Y-53833333D01*
X175804761Y-53871428D01*
X175842857Y-53909523D01*
X175880952Y-53985714D01*
X175880952Y-54290476D01*
X175538095Y-53528571D02*
X175500000Y-53490476D01*
X175461904Y-53414285D01*
X175461904Y-53223809D01*
X175500000Y-53147619D01*
X175538095Y-53109523D01*
X175614285Y-53071428D01*
X175690476Y-53071428D01*
X175804761Y-53109523D01*
X176261904Y-53566666D01*
X176261904Y-53071428D01*
%TO.C,R1*%
X176066666Y-51761904D02*
X175800000Y-51380952D01*
X175609523Y-51761904D02*
X175609523Y-50961904D01*
X175914285Y-50961904D01*
X175990476Y-51000000D01*
X176028571Y-51038095D01*
X176066666Y-51114285D01*
X176066666Y-51228571D01*
X176028571Y-51304761D01*
X175990476Y-51342857D01*
X175914285Y-51380952D01*
X175609523Y-51380952D01*
X176828571Y-51761904D02*
X176371428Y-51761904D01*
X176600000Y-51761904D02*
X176600000Y-50961904D01*
X176523809Y-51076190D01*
X176447619Y-51152380D01*
X176371428Y-51190476D01*
%TO.C,JP1*%
X174333333Y-46561904D02*
X174333333Y-47133333D01*
X174295238Y-47247619D01*
X174219047Y-47323809D01*
X174104761Y-47361904D01*
X174028571Y-47361904D01*
X174714285Y-47361904D02*
X174714285Y-46561904D01*
X175019047Y-46561904D01*
X175095238Y-46600000D01*
X175133333Y-46638095D01*
X175171428Y-46714285D01*
X175171428Y-46828571D01*
X175133333Y-46904761D01*
X175095238Y-46942857D01*
X175019047Y-46980952D01*
X174714285Y-46980952D01*
X175933333Y-47361904D02*
X175476190Y-47361904D01*
X175704761Y-47361904D02*
X175704761Y-46561904D01*
X175628571Y-46676190D01*
X175552380Y-46752380D01*
X175476190Y-46790476D01*
%TO.C,J2*%
X164872380Y-78783333D02*
X165586666Y-78783333D01*
X165729523Y-78830952D01*
X165824761Y-78926190D01*
X165872380Y-79069047D01*
X165872380Y-79164285D01*
X164967619Y-78354761D02*
X164920000Y-78307142D01*
X164872380Y-78211904D01*
X164872380Y-77973809D01*
X164920000Y-77878571D01*
X164967619Y-77830952D01*
X165062857Y-77783333D01*
X165158095Y-77783333D01*
X165300952Y-77830952D01*
X165872380Y-78402380D01*
X165872380Y-77783333D01*
%TO.C,D4*%
X165861904Y-76340476D02*
X165061904Y-76340476D01*
X165061904Y-76150000D01*
X165100000Y-76035714D01*
X165176190Y-75959523D01*
X165252380Y-75921428D01*
X165404761Y-75883333D01*
X165519047Y-75883333D01*
X165671428Y-75921428D01*
X165747619Y-75959523D01*
X165823809Y-76035714D01*
X165861904Y-76150000D01*
X165861904Y-76340476D01*
X165328571Y-75197619D02*
X165861904Y-75197619D01*
X165023809Y-75388095D02*
X165595238Y-75578571D01*
X165595238Y-75083333D01*
%TO.C,D3*%
X176261904Y-66790476D02*
X175461904Y-66790476D01*
X175461904Y-66600000D01*
X175500000Y-66485714D01*
X175576190Y-66409523D01*
X175652380Y-66371428D01*
X175804761Y-66333333D01*
X175919047Y-66333333D01*
X176071428Y-66371428D01*
X176147619Y-66409523D01*
X176223809Y-66485714D01*
X176261904Y-66600000D01*
X176261904Y-66790476D01*
X175461904Y-66066666D02*
X175461904Y-65571428D01*
X175766666Y-65838095D01*
X175766666Y-65723809D01*
X175804761Y-65647619D01*
X175842857Y-65609523D01*
X175919047Y-65571428D01*
X176109523Y-65571428D01*
X176185714Y-65609523D01*
X176223809Y-65647619D01*
X176261904Y-65723809D01*
X176261904Y-65952380D01*
X176223809Y-66028571D01*
X176185714Y-66066666D01*
%TO.C,D2*%
X203761904Y-44952380D02*
X203761904Y-43952380D01*
X204000000Y-43952380D01*
X204142857Y-44000000D01*
X204238095Y-44095238D01*
X204285714Y-44190476D01*
X204333333Y-44380952D01*
X204333333Y-44523809D01*
X204285714Y-44714285D01*
X204238095Y-44809523D01*
X204142857Y-44904761D01*
X204000000Y-44952380D01*
X203761904Y-44952380D01*
X204714285Y-44047619D02*
X204761904Y-44000000D01*
X204857142Y-43952380D01*
X205095238Y-43952380D01*
X205190476Y-44000000D01*
X205238095Y-44047619D01*
X205285714Y-44142857D01*
X205285714Y-44238095D01*
X205238095Y-44380952D01*
X204666666Y-44952380D01*
X205285714Y-44952380D01*
%TO.C,D1*%
X176161904Y-50190476D02*
X175361904Y-50190476D01*
X175361904Y-50000000D01*
X175400000Y-49885714D01*
X175476190Y-49809523D01*
X175552380Y-49771428D01*
X175704761Y-49733333D01*
X175819047Y-49733333D01*
X175971428Y-49771428D01*
X176047619Y-49809523D01*
X176123809Y-49885714D01*
X176161904Y-50000000D01*
X176161904Y-50190476D01*
X176161904Y-48971428D02*
X176161904Y-49428571D01*
X176161904Y-49200000D02*
X175361904Y-49200000D01*
X175476190Y-49276190D01*
X175552380Y-49352380D01*
X175590476Y-49428571D01*
%TO.C,C4*%
X172185714Y-74333333D02*
X172223809Y-74371428D01*
X172261904Y-74485714D01*
X172261904Y-74561904D01*
X172223809Y-74676190D01*
X172147619Y-74752380D01*
X172071428Y-74790476D01*
X171919047Y-74828571D01*
X171804761Y-74828571D01*
X171652380Y-74790476D01*
X171576190Y-74752380D01*
X171500000Y-74676190D01*
X171461904Y-74561904D01*
X171461904Y-74485714D01*
X171500000Y-74371428D01*
X171538095Y-74333333D01*
X171728571Y-73647619D02*
X172261904Y-73647619D01*
X171423809Y-73838095D02*
X171995238Y-74028571D01*
X171995238Y-73533333D01*
%TO.C,C3*%
X176185714Y-63433333D02*
X176223809Y-63471428D01*
X176261904Y-63585714D01*
X176261904Y-63661904D01*
X176223809Y-63776190D01*
X176147619Y-63852380D01*
X176071428Y-63890476D01*
X175919047Y-63928571D01*
X175804761Y-63928571D01*
X175652380Y-63890476D01*
X175576190Y-63852380D01*
X175500000Y-63776190D01*
X175461904Y-63661904D01*
X175461904Y-63585714D01*
X175500000Y-63471428D01*
X175538095Y-63433333D01*
X175461904Y-63166666D02*
X175461904Y-62671428D01*
X175766666Y-62938095D01*
X175766666Y-62823809D01*
X175804761Y-62747619D01*
X175842857Y-62709523D01*
X175919047Y-62671428D01*
X176109523Y-62671428D01*
X176185714Y-62709523D01*
X176223809Y-62747619D01*
X176261904Y-62823809D01*
X176261904Y-63052380D01*
X176223809Y-63128571D01*
X176185714Y-63166666D01*
%TO.C,C2*%
X171333333Y-41507142D02*
X171285714Y-41554761D01*
X171142857Y-41602380D01*
X171047619Y-41602380D01*
X170904761Y-41554761D01*
X170809523Y-41459523D01*
X170761904Y-41364285D01*
X170714285Y-41173809D01*
X170714285Y-41030952D01*
X170761904Y-40840476D01*
X170809523Y-40745238D01*
X170904761Y-40650000D01*
X171047619Y-40602380D01*
X171142857Y-40602380D01*
X171285714Y-40650000D01*
X171333333Y-40697619D01*
X171714285Y-40697619D02*
X171761904Y-40650000D01*
X171857142Y-40602380D01*
X172095238Y-40602380D01*
X172190476Y-40650000D01*
X172238095Y-40697619D01*
X172285714Y-40792857D01*
X172285714Y-40888095D01*
X172238095Y-41030952D01*
X171666666Y-41602380D01*
X172285714Y-41602380D01*
%TO.C,C1*%
X203833333Y-72607142D02*
X203785714Y-72654761D01*
X203642857Y-72702380D01*
X203547619Y-72702380D01*
X203404761Y-72654761D01*
X203309523Y-72559523D01*
X203261904Y-72464285D01*
X203214285Y-72273809D01*
X203214285Y-72130952D01*
X203261904Y-71940476D01*
X203309523Y-71845238D01*
X203404761Y-71750000D01*
X203547619Y-71702380D01*
X203642857Y-71702380D01*
X203785714Y-71750000D01*
X203833333Y-71797619D01*
X204785714Y-72702380D02*
X204214285Y-72702380D01*
X204500000Y-72702380D02*
X204500000Y-71702380D01*
X204404761Y-71845238D01*
X204309523Y-71940476D01*
X204214285Y-71988095D01*
%TD*%
M02*
