%TF.GenerationSoftware,KiCad,Pcbnew,7.0.7*%
%TF.CreationDate,2023-10-03T13:10:00+02:00*%
%TF.ProjectId,voltlog UHF repeater,766f6c74-6c6f-4672-9055-484620726570,rev?*%
%TF.SameCoordinates,Original*%
%TF.FileFunction,Legend,Top*%
%TF.FilePolarity,Positive*%
%FSLAX46Y46*%
G04 Gerber Fmt 4.6, Leading zero omitted, Abs format (unit mm)*
G04 Created by KiCad (PCBNEW 7.0.7) date 2023-10-03 13:10:00*
%MOMM*%
%LPD*%
G01*
G04 APERTURE LIST*
%ADD10C,0.225000*%
%ADD11C,0.150000*%
%ADD12C,0.120000*%
%ADD13C,0.250000*%
%ADD14C,0.100000*%
G04 APERTURE END LIST*
D10*
X173073214Y-48904657D02*
X173185714Y-48004657D01*
X173185714Y-48004657D02*
X173528571Y-48004657D01*
X173528571Y-48004657D02*
X173608928Y-48047514D01*
X173608928Y-48047514D02*
X173646428Y-48090371D01*
X173646428Y-48090371D02*
X173678571Y-48176085D01*
X173678571Y-48176085D02*
X173662500Y-48304657D01*
X173662500Y-48304657D02*
X173608928Y-48390371D01*
X173608928Y-48390371D02*
X173560714Y-48433228D01*
X173560714Y-48433228D02*
X173469643Y-48476085D01*
X173469643Y-48476085D02*
X173126786Y-48476085D01*
X173957143Y-48004657D02*
X174471428Y-48004657D01*
X174101786Y-48904657D02*
X174214286Y-48004657D01*
X174642857Y-48004657D02*
X175157142Y-48004657D01*
X174787500Y-48904657D02*
X174900000Y-48004657D01*
D11*
X168340476Y-44168295D02*
X168492857Y-44168295D01*
X168492857Y-44168295D02*
X168569047Y-44206390D01*
X168569047Y-44206390D02*
X168645238Y-44282580D01*
X168645238Y-44282580D02*
X168683333Y-44434961D01*
X168683333Y-44434961D02*
X168683333Y-44701628D01*
X168683333Y-44701628D02*
X168645238Y-44854009D01*
X168645238Y-44854009D02*
X168569047Y-44930200D01*
X168569047Y-44930200D02*
X168492857Y-44968295D01*
X168492857Y-44968295D02*
X168340476Y-44968295D01*
X168340476Y-44968295D02*
X168264285Y-44930200D01*
X168264285Y-44930200D02*
X168188095Y-44854009D01*
X168188095Y-44854009D02*
X168149999Y-44701628D01*
X168149999Y-44701628D02*
X168149999Y-44434961D01*
X168149999Y-44434961D02*
X168188095Y-44282580D01*
X168188095Y-44282580D02*
X168264285Y-44206390D01*
X168264285Y-44206390D02*
X168340476Y-44168295D01*
X169026190Y-44549247D02*
X169635714Y-44549247D01*
X169635714Y-44777819D02*
X169026190Y-44777819D01*
X170435713Y-44968295D02*
X169978570Y-44968295D01*
X170207142Y-44968295D02*
X170207142Y-44168295D01*
X170207142Y-44168295D02*
X170130951Y-44282580D01*
X170130951Y-44282580D02*
X170054761Y-44358771D01*
X170054761Y-44358771D02*
X169978570Y-44396866D01*
X170702380Y-44168295D02*
X170892856Y-44968295D01*
X170892856Y-44968295D02*
X171045237Y-44396866D01*
X171045237Y-44396866D02*
X171197618Y-44968295D01*
X171197618Y-44968295D02*
X171388095Y-44168295D01*
X168092857Y-46180104D02*
X168054761Y-46218200D01*
X168054761Y-46218200D02*
X167940476Y-46256295D01*
X167940476Y-46256295D02*
X167864285Y-46256295D01*
X167864285Y-46256295D02*
X167749999Y-46218200D01*
X167749999Y-46218200D02*
X167673809Y-46142009D01*
X167673809Y-46142009D02*
X167635714Y-46065819D01*
X167635714Y-46065819D02*
X167597618Y-45913438D01*
X167597618Y-45913438D02*
X167597618Y-45799152D01*
X167597618Y-45799152D02*
X167635714Y-45646771D01*
X167635714Y-45646771D02*
X167673809Y-45570580D01*
X167673809Y-45570580D02*
X167749999Y-45494390D01*
X167749999Y-45494390D02*
X167864285Y-45456295D01*
X167864285Y-45456295D02*
X167940476Y-45456295D01*
X167940476Y-45456295D02*
X168054761Y-45494390D01*
X168054761Y-45494390D02*
X168092857Y-45532485D01*
X168435714Y-45837247D02*
X169045238Y-45837247D01*
X169045238Y-46065819D02*
X168435714Y-46065819D01*
X169578571Y-45456295D02*
X169654761Y-45456295D01*
X169654761Y-45456295D02*
X169730952Y-45494390D01*
X169730952Y-45494390D02*
X169769047Y-45532485D01*
X169769047Y-45532485D02*
X169807142Y-45608676D01*
X169807142Y-45608676D02*
X169845237Y-45761057D01*
X169845237Y-45761057D02*
X169845237Y-45951533D01*
X169845237Y-45951533D02*
X169807142Y-46103914D01*
X169807142Y-46103914D02*
X169769047Y-46180104D01*
X169769047Y-46180104D02*
X169730952Y-46218200D01*
X169730952Y-46218200D02*
X169654761Y-46256295D01*
X169654761Y-46256295D02*
X169578571Y-46256295D01*
X169578571Y-46256295D02*
X169502380Y-46218200D01*
X169502380Y-46218200D02*
X169464285Y-46180104D01*
X169464285Y-46180104D02*
X169426190Y-46103914D01*
X169426190Y-46103914D02*
X169388094Y-45951533D01*
X169388094Y-45951533D02*
X169388094Y-45761057D01*
X169388094Y-45761057D02*
X169426190Y-45608676D01*
X169426190Y-45608676D02*
X169464285Y-45532485D01*
X169464285Y-45532485D02*
X169502380Y-45494390D01*
X169502380Y-45494390D02*
X169578571Y-45456295D01*
X170188095Y-46180104D02*
X170226190Y-46218200D01*
X170226190Y-46218200D02*
X170188095Y-46256295D01*
X170188095Y-46256295D02*
X170149999Y-46218200D01*
X170149999Y-46218200D02*
X170188095Y-46180104D01*
X170188095Y-46180104D02*
X170188095Y-46256295D01*
X170949999Y-45456295D02*
X170569047Y-45456295D01*
X170569047Y-45456295D02*
X170530951Y-45837247D01*
X170530951Y-45837247D02*
X170569047Y-45799152D01*
X170569047Y-45799152D02*
X170645237Y-45761057D01*
X170645237Y-45761057D02*
X170835713Y-45761057D01*
X170835713Y-45761057D02*
X170911904Y-45799152D01*
X170911904Y-45799152D02*
X170949999Y-45837247D01*
X170949999Y-45837247D02*
X170988094Y-45913438D01*
X170988094Y-45913438D02*
X170988094Y-46103914D01*
X170988094Y-46103914D02*
X170949999Y-46180104D01*
X170949999Y-46180104D02*
X170911904Y-46218200D01*
X170911904Y-46218200D02*
X170835713Y-46256295D01*
X170835713Y-46256295D02*
X170645237Y-46256295D01*
X170645237Y-46256295D02*
X170569047Y-46218200D01*
X170569047Y-46218200D02*
X170530951Y-46180104D01*
X171254761Y-45456295D02*
X171445237Y-46256295D01*
X171445237Y-46256295D02*
X171597618Y-45684866D01*
X171597618Y-45684866D02*
X171749999Y-46256295D01*
X171749999Y-46256295D02*
X171940476Y-45456295D01*
D10*
X167185714Y-74004657D02*
X166757142Y-74004657D01*
X166757142Y-74004657D02*
X166660714Y-74433228D01*
X166660714Y-74433228D02*
X166708928Y-74390371D01*
X166708928Y-74390371D02*
X166799999Y-74347514D01*
X166799999Y-74347514D02*
X167014285Y-74347514D01*
X167014285Y-74347514D02*
X167094642Y-74390371D01*
X167094642Y-74390371D02*
X167132142Y-74433228D01*
X167132142Y-74433228D02*
X167164285Y-74518942D01*
X167164285Y-74518942D02*
X167137499Y-74733228D01*
X167137499Y-74733228D02*
X167083928Y-74818942D01*
X167083928Y-74818942D02*
X167035714Y-74861800D01*
X167035714Y-74861800D02*
X166944642Y-74904657D01*
X166944642Y-74904657D02*
X166730356Y-74904657D01*
X166730356Y-74904657D02*
X166649999Y-74861800D01*
X166649999Y-74861800D02*
X166612499Y-74818942D01*
X167485714Y-74004657D02*
X167673214Y-74904657D01*
X167673214Y-74904657D02*
X168085714Y-74004657D01*
D11*
X203833333Y-72609580D02*
X203785714Y-72657200D01*
X203785714Y-72657200D02*
X203642857Y-72704819D01*
X203642857Y-72704819D02*
X203547619Y-72704819D01*
X203547619Y-72704819D02*
X203404762Y-72657200D01*
X203404762Y-72657200D02*
X203309524Y-72561961D01*
X203309524Y-72561961D02*
X203261905Y-72466723D01*
X203261905Y-72466723D02*
X203214286Y-72276247D01*
X203214286Y-72276247D02*
X203214286Y-72133390D01*
X203214286Y-72133390D02*
X203261905Y-71942914D01*
X203261905Y-71942914D02*
X203309524Y-71847676D01*
X203309524Y-71847676D02*
X203404762Y-71752438D01*
X203404762Y-71752438D02*
X203547619Y-71704819D01*
X203547619Y-71704819D02*
X203642857Y-71704819D01*
X203642857Y-71704819D02*
X203785714Y-71752438D01*
X203785714Y-71752438D02*
X203833333Y-71800057D01*
X204785714Y-72704819D02*
X204214286Y-72704819D01*
X204500000Y-72704819D02*
X204500000Y-71704819D01*
X204500000Y-71704819D02*
X204404762Y-71847676D01*
X204404762Y-71847676D02*
X204309524Y-71942914D01*
X204309524Y-71942914D02*
X204214286Y-71990533D01*
X171333333Y-41509580D02*
X171285714Y-41557200D01*
X171285714Y-41557200D02*
X171142857Y-41604819D01*
X171142857Y-41604819D02*
X171047619Y-41604819D01*
X171047619Y-41604819D02*
X170904762Y-41557200D01*
X170904762Y-41557200D02*
X170809524Y-41461961D01*
X170809524Y-41461961D02*
X170761905Y-41366723D01*
X170761905Y-41366723D02*
X170714286Y-41176247D01*
X170714286Y-41176247D02*
X170714286Y-41033390D01*
X170714286Y-41033390D02*
X170761905Y-40842914D01*
X170761905Y-40842914D02*
X170809524Y-40747676D01*
X170809524Y-40747676D02*
X170904762Y-40652438D01*
X170904762Y-40652438D02*
X171047619Y-40604819D01*
X171047619Y-40604819D02*
X171142857Y-40604819D01*
X171142857Y-40604819D02*
X171285714Y-40652438D01*
X171285714Y-40652438D02*
X171333333Y-40700057D01*
X171714286Y-40700057D02*
X171761905Y-40652438D01*
X171761905Y-40652438D02*
X171857143Y-40604819D01*
X171857143Y-40604819D02*
X172095238Y-40604819D01*
X172095238Y-40604819D02*
X172190476Y-40652438D01*
X172190476Y-40652438D02*
X172238095Y-40700057D01*
X172238095Y-40700057D02*
X172285714Y-40795295D01*
X172285714Y-40795295D02*
X172285714Y-40890533D01*
X172285714Y-40890533D02*
X172238095Y-41033390D01*
X172238095Y-41033390D02*
X171666667Y-41604819D01*
X171666667Y-41604819D02*
X172285714Y-41604819D01*
X176186104Y-63433332D02*
X176224200Y-63471428D01*
X176224200Y-63471428D02*
X176262295Y-63585713D01*
X176262295Y-63585713D02*
X176262295Y-63661904D01*
X176262295Y-63661904D02*
X176224200Y-63776190D01*
X176224200Y-63776190D02*
X176148009Y-63852380D01*
X176148009Y-63852380D02*
X176071819Y-63890475D01*
X176071819Y-63890475D02*
X175919438Y-63928571D01*
X175919438Y-63928571D02*
X175805152Y-63928571D01*
X175805152Y-63928571D02*
X175652771Y-63890475D01*
X175652771Y-63890475D02*
X175576580Y-63852380D01*
X175576580Y-63852380D02*
X175500390Y-63776190D01*
X175500390Y-63776190D02*
X175462295Y-63661904D01*
X175462295Y-63661904D02*
X175462295Y-63585713D01*
X175462295Y-63585713D02*
X175500390Y-63471428D01*
X175500390Y-63471428D02*
X175538485Y-63433332D01*
X175462295Y-63166666D02*
X175462295Y-62671428D01*
X175462295Y-62671428D02*
X175767057Y-62938094D01*
X175767057Y-62938094D02*
X175767057Y-62823809D01*
X175767057Y-62823809D02*
X175805152Y-62747618D01*
X175805152Y-62747618D02*
X175843247Y-62709523D01*
X175843247Y-62709523D02*
X175919438Y-62671428D01*
X175919438Y-62671428D02*
X176109914Y-62671428D01*
X176109914Y-62671428D02*
X176186104Y-62709523D01*
X176186104Y-62709523D02*
X176224200Y-62747618D01*
X176224200Y-62747618D02*
X176262295Y-62823809D01*
X176262295Y-62823809D02*
X176262295Y-63052380D01*
X176262295Y-63052380D02*
X176224200Y-63128571D01*
X176224200Y-63128571D02*
X176186104Y-63166666D01*
X172186104Y-74333332D02*
X172224200Y-74371428D01*
X172224200Y-74371428D02*
X172262295Y-74485713D01*
X172262295Y-74485713D02*
X172262295Y-74561904D01*
X172262295Y-74561904D02*
X172224200Y-74676190D01*
X172224200Y-74676190D02*
X172148009Y-74752380D01*
X172148009Y-74752380D02*
X172071819Y-74790475D01*
X172071819Y-74790475D02*
X171919438Y-74828571D01*
X171919438Y-74828571D02*
X171805152Y-74828571D01*
X171805152Y-74828571D02*
X171652771Y-74790475D01*
X171652771Y-74790475D02*
X171576580Y-74752380D01*
X171576580Y-74752380D02*
X171500390Y-74676190D01*
X171500390Y-74676190D02*
X171462295Y-74561904D01*
X171462295Y-74561904D02*
X171462295Y-74485713D01*
X171462295Y-74485713D02*
X171500390Y-74371428D01*
X171500390Y-74371428D02*
X171538485Y-74333332D01*
X171728961Y-73647618D02*
X172262295Y-73647618D01*
X171424200Y-73838094D02*
X171995628Y-74028571D01*
X171995628Y-74028571D02*
X171995628Y-73533332D01*
X176162295Y-50190475D02*
X175362295Y-50190475D01*
X175362295Y-50190475D02*
X175362295Y-49999999D01*
X175362295Y-49999999D02*
X175400390Y-49885713D01*
X175400390Y-49885713D02*
X175476580Y-49809523D01*
X175476580Y-49809523D02*
X175552771Y-49771428D01*
X175552771Y-49771428D02*
X175705152Y-49733332D01*
X175705152Y-49733332D02*
X175819438Y-49733332D01*
X175819438Y-49733332D02*
X175971819Y-49771428D01*
X175971819Y-49771428D02*
X176048009Y-49809523D01*
X176048009Y-49809523D02*
X176124200Y-49885713D01*
X176124200Y-49885713D02*
X176162295Y-49999999D01*
X176162295Y-49999999D02*
X176162295Y-50190475D01*
X176162295Y-48971428D02*
X176162295Y-49428571D01*
X176162295Y-49199999D02*
X175362295Y-49199999D01*
X175362295Y-49199999D02*
X175476580Y-49276190D01*
X175476580Y-49276190D02*
X175552771Y-49352380D01*
X175552771Y-49352380D02*
X175590866Y-49428571D01*
X203761905Y-44954819D02*
X203761905Y-43954819D01*
X203761905Y-43954819D02*
X204000000Y-43954819D01*
X204000000Y-43954819D02*
X204142857Y-44002438D01*
X204142857Y-44002438D02*
X204238095Y-44097676D01*
X204238095Y-44097676D02*
X204285714Y-44192914D01*
X204285714Y-44192914D02*
X204333333Y-44383390D01*
X204333333Y-44383390D02*
X204333333Y-44526247D01*
X204333333Y-44526247D02*
X204285714Y-44716723D01*
X204285714Y-44716723D02*
X204238095Y-44811961D01*
X204238095Y-44811961D02*
X204142857Y-44907200D01*
X204142857Y-44907200D02*
X204000000Y-44954819D01*
X204000000Y-44954819D02*
X203761905Y-44954819D01*
X204714286Y-44050057D02*
X204761905Y-44002438D01*
X204761905Y-44002438D02*
X204857143Y-43954819D01*
X204857143Y-43954819D02*
X205095238Y-43954819D01*
X205095238Y-43954819D02*
X205190476Y-44002438D01*
X205190476Y-44002438D02*
X205238095Y-44050057D01*
X205238095Y-44050057D02*
X205285714Y-44145295D01*
X205285714Y-44145295D02*
X205285714Y-44240533D01*
X205285714Y-44240533D02*
X205238095Y-44383390D01*
X205238095Y-44383390D02*
X204666667Y-44954819D01*
X204666667Y-44954819D02*
X205285714Y-44954819D01*
X176262295Y-66790475D02*
X175462295Y-66790475D01*
X175462295Y-66790475D02*
X175462295Y-66599999D01*
X175462295Y-66599999D02*
X175500390Y-66485713D01*
X175500390Y-66485713D02*
X175576580Y-66409523D01*
X175576580Y-66409523D02*
X175652771Y-66371428D01*
X175652771Y-66371428D02*
X175805152Y-66333332D01*
X175805152Y-66333332D02*
X175919438Y-66333332D01*
X175919438Y-66333332D02*
X176071819Y-66371428D01*
X176071819Y-66371428D02*
X176148009Y-66409523D01*
X176148009Y-66409523D02*
X176224200Y-66485713D01*
X176224200Y-66485713D02*
X176262295Y-66599999D01*
X176262295Y-66599999D02*
X176262295Y-66790475D01*
X175462295Y-66066666D02*
X175462295Y-65571428D01*
X175462295Y-65571428D02*
X175767057Y-65838094D01*
X175767057Y-65838094D02*
X175767057Y-65723809D01*
X175767057Y-65723809D02*
X175805152Y-65647618D01*
X175805152Y-65647618D02*
X175843247Y-65609523D01*
X175843247Y-65609523D02*
X175919438Y-65571428D01*
X175919438Y-65571428D02*
X176109914Y-65571428D01*
X176109914Y-65571428D02*
X176186104Y-65609523D01*
X176186104Y-65609523D02*
X176224200Y-65647618D01*
X176224200Y-65647618D02*
X176262295Y-65723809D01*
X176262295Y-65723809D02*
X176262295Y-65952380D01*
X176262295Y-65952380D02*
X176224200Y-66028571D01*
X176224200Y-66028571D02*
X176186104Y-66066666D01*
X165862295Y-76340475D02*
X165062295Y-76340475D01*
X165062295Y-76340475D02*
X165062295Y-76149999D01*
X165062295Y-76149999D02*
X165100390Y-76035713D01*
X165100390Y-76035713D02*
X165176580Y-75959523D01*
X165176580Y-75959523D02*
X165252771Y-75921428D01*
X165252771Y-75921428D02*
X165405152Y-75883332D01*
X165405152Y-75883332D02*
X165519438Y-75883332D01*
X165519438Y-75883332D02*
X165671819Y-75921428D01*
X165671819Y-75921428D02*
X165748009Y-75959523D01*
X165748009Y-75959523D02*
X165824200Y-76035713D01*
X165824200Y-76035713D02*
X165862295Y-76149999D01*
X165862295Y-76149999D02*
X165862295Y-76340475D01*
X165328961Y-75197618D02*
X165862295Y-75197618D01*
X165024200Y-75388094D02*
X165595628Y-75578571D01*
X165595628Y-75578571D02*
X165595628Y-75083332D01*
X164874819Y-78783333D02*
X165589104Y-78783333D01*
X165589104Y-78783333D02*
X165731961Y-78830952D01*
X165731961Y-78830952D02*
X165827200Y-78926190D01*
X165827200Y-78926190D02*
X165874819Y-79069047D01*
X165874819Y-79069047D02*
X165874819Y-79164285D01*
X164970057Y-78354761D02*
X164922438Y-78307142D01*
X164922438Y-78307142D02*
X164874819Y-78211904D01*
X164874819Y-78211904D02*
X164874819Y-77973809D01*
X164874819Y-77973809D02*
X164922438Y-77878571D01*
X164922438Y-77878571D02*
X164970057Y-77830952D01*
X164970057Y-77830952D02*
X165065295Y-77783333D01*
X165065295Y-77783333D02*
X165160533Y-77783333D01*
X165160533Y-77783333D02*
X165303390Y-77830952D01*
X165303390Y-77830952D02*
X165874819Y-78402380D01*
X165874819Y-78402380D02*
X165874819Y-77783333D01*
X174333333Y-46562295D02*
X174333333Y-47133723D01*
X174333333Y-47133723D02*
X174295238Y-47248009D01*
X174295238Y-47248009D02*
X174219047Y-47324200D01*
X174219047Y-47324200D02*
X174104762Y-47362295D01*
X174104762Y-47362295D02*
X174028571Y-47362295D01*
X174714286Y-47362295D02*
X174714286Y-46562295D01*
X174714286Y-46562295D02*
X175019048Y-46562295D01*
X175019048Y-46562295D02*
X175095238Y-46600390D01*
X175095238Y-46600390D02*
X175133333Y-46638485D01*
X175133333Y-46638485D02*
X175171429Y-46714676D01*
X175171429Y-46714676D02*
X175171429Y-46828961D01*
X175171429Y-46828961D02*
X175133333Y-46905152D01*
X175133333Y-46905152D02*
X175095238Y-46943247D01*
X175095238Y-46943247D02*
X175019048Y-46981342D01*
X175019048Y-46981342D02*
X174714286Y-46981342D01*
X175933333Y-47362295D02*
X175476190Y-47362295D01*
X175704762Y-47362295D02*
X175704762Y-46562295D01*
X175704762Y-46562295D02*
X175628571Y-46676580D01*
X175628571Y-46676580D02*
X175552381Y-46752771D01*
X175552381Y-46752771D02*
X175476190Y-46790866D01*
X176066667Y-51762295D02*
X175800000Y-51381342D01*
X175609524Y-51762295D02*
X175609524Y-50962295D01*
X175609524Y-50962295D02*
X175914286Y-50962295D01*
X175914286Y-50962295D02*
X175990476Y-51000390D01*
X175990476Y-51000390D02*
X176028571Y-51038485D01*
X176028571Y-51038485D02*
X176066667Y-51114676D01*
X176066667Y-51114676D02*
X176066667Y-51228961D01*
X176066667Y-51228961D02*
X176028571Y-51305152D01*
X176028571Y-51305152D02*
X175990476Y-51343247D01*
X175990476Y-51343247D02*
X175914286Y-51381342D01*
X175914286Y-51381342D02*
X175609524Y-51381342D01*
X176828571Y-51762295D02*
X176371428Y-51762295D01*
X176600000Y-51762295D02*
X176600000Y-50962295D01*
X176600000Y-50962295D02*
X176523809Y-51076580D01*
X176523809Y-51076580D02*
X176447619Y-51152771D01*
X176447619Y-51152771D02*
X176371428Y-51190866D01*
X203833333Y-69454819D02*
X203500000Y-68978628D01*
X203261905Y-69454819D02*
X203261905Y-68454819D01*
X203261905Y-68454819D02*
X203642857Y-68454819D01*
X203642857Y-68454819D02*
X203738095Y-68502438D01*
X203738095Y-68502438D02*
X203785714Y-68550057D01*
X203785714Y-68550057D02*
X203833333Y-68645295D01*
X203833333Y-68645295D02*
X203833333Y-68788152D01*
X203833333Y-68788152D02*
X203785714Y-68883390D01*
X203785714Y-68883390D02*
X203738095Y-68931009D01*
X203738095Y-68931009D02*
X203642857Y-68978628D01*
X203642857Y-68978628D02*
X203261905Y-68978628D01*
X204166667Y-68454819D02*
X204785714Y-68454819D01*
X204785714Y-68454819D02*
X204452381Y-68835771D01*
X204452381Y-68835771D02*
X204595238Y-68835771D01*
X204595238Y-68835771D02*
X204690476Y-68883390D01*
X204690476Y-68883390D02*
X204738095Y-68931009D01*
X204738095Y-68931009D02*
X204785714Y-69026247D01*
X204785714Y-69026247D02*
X204785714Y-69264342D01*
X204785714Y-69264342D02*
X204738095Y-69359580D01*
X204738095Y-69359580D02*
X204690476Y-69407200D01*
X204690476Y-69407200D02*
X204595238Y-69454819D01*
X204595238Y-69454819D02*
X204309524Y-69454819D01*
X204309524Y-69454819D02*
X204214286Y-69407200D01*
X204214286Y-69407200D02*
X204166667Y-69359580D01*
X203833333Y-70954819D02*
X203500000Y-70478628D01*
X203261905Y-70954819D02*
X203261905Y-69954819D01*
X203261905Y-69954819D02*
X203642857Y-69954819D01*
X203642857Y-69954819D02*
X203738095Y-70002438D01*
X203738095Y-70002438D02*
X203785714Y-70050057D01*
X203785714Y-70050057D02*
X203833333Y-70145295D01*
X203833333Y-70145295D02*
X203833333Y-70288152D01*
X203833333Y-70288152D02*
X203785714Y-70383390D01*
X203785714Y-70383390D02*
X203738095Y-70431009D01*
X203738095Y-70431009D02*
X203642857Y-70478628D01*
X203642857Y-70478628D02*
X203261905Y-70478628D01*
X204690476Y-70288152D02*
X204690476Y-70954819D01*
X204452381Y-69907200D02*
X204214286Y-70621485D01*
X204214286Y-70621485D02*
X204833333Y-70621485D01*
X176066667Y-56062295D02*
X175800000Y-55681342D01*
X175609524Y-56062295D02*
X175609524Y-55262295D01*
X175609524Y-55262295D02*
X175914286Y-55262295D01*
X175914286Y-55262295D02*
X175990476Y-55300390D01*
X175990476Y-55300390D02*
X176028571Y-55338485D01*
X176028571Y-55338485D02*
X176066667Y-55414676D01*
X176066667Y-55414676D02*
X176066667Y-55528961D01*
X176066667Y-55528961D02*
X176028571Y-55605152D01*
X176028571Y-55605152D02*
X175990476Y-55643247D01*
X175990476Y-55643247D02*
X175914286Y-55681342D01*
X175914286Y-55681342D02*
X175609524Y-55681342D01*
X176790476Y-55262295D02*
X176409524Y-55262295D01*
X176409524Y-55262295D02*
X176371428Y-55643247D01*
X176371428Y-55643247D02*
X176409524Y-55605152D01*
X176409524Y-55605152D02*
X176485714Y-55567057D01*
X176485714Y-55567057D02*
X176676190Y-55567057D01*
X176676190Y-55567057D02*
X176752381Y-55605152D01*
X176752381Y-55605152D02*
X176790476Y-55643247D01*
X176790476Y-55643247D02*
X176828571Y-55719438D01*
X176828571Y-55719438D02*
X176828571Y-55909914D01*
X176828571Y-55909914D02*
X176790476Y-55986104D01*
X176790476Y-55986104D02*
X176752381Y-56024200D01*
X176752381Y-56024200D02*
X176676190Y-56062295D01*
X176676190Y-56062295D02*
X176485714Y-56062295D01*
X176485714Y-56062295D02*
X176409524Y-56024200D01*
X176409524Y-56024200D02*
X176371428Y-55986104D01*
X176066667Y-60662295D02*
X175800000Y-60281342D01*
X175609524Y-60662295D02*
X175609524Y-59862295D01*
X175609524Y-59862295D02*
X175914286Y-59862295D01*
X175914286Y-59862295D02*
X175990476Y-59900390D01*
X175990476Y-59900390D02*
X176028571Y-59938485D01*
X176028571Y-59938485D02*
X176066667Y-60014676D01*
X176066667Y-60014676D02*
X176066667Y-60128961D01*
X176066667Y-60128961D02*
X176028571Y-60205152D01*
X176028571Y-60205152D02*
X175990476Y-60243247D01*
X175990476Y-60243247D02*
X175914286Y-60281342D01*
X175914286Y-60281342D02*
X175609524Y-60281342D01*
X176752381Y-59862295D02*
X176600000Y-59862295D01*
X176600000Y-59862295D02*
X176523809Y-59900390D01*
X176523809Y-59900390D02*
X176485714Y-59938485D01*
X176485714Y-59938485D02*
X176409524Y-60052771D01*
X176409524Y-60052771D02*
X176371428Y-60205152D01*
X176371428Y-60205152D02*
X176371428Y-60509914D01*
X176371428Y-60509914D02*
X176409524Y-60586104D01*
X176409524Y-60586104D02*
X176447619Y-60624200D01*
X176447619Y-60624200D02*
X176523809Y-60662295D01*
X176523809Y-60662295D02*
X176676190Y-60662295D01*
X176676190Y-60662295D02*
X176752381Y-60624200D01*
X176752381Y-60624200D02*
X176790476Y-60586104D01*
X176790476Y-60586104D02*
X176828571Y-60509914D01*
X176828571Y-60509914D02*
X176828571Y-60319438D01*
X176828571Y-60319438D02*
X176790476Y-60243247D01*
X176790476Y-60243247D02*
X176752381Y-60205152D01*
X176752381Y-60205152D02*
X176676190Y-60167057D01*
X176676190Y-60167057D02*
X176523809Y-60167057D01*
X176523809Y-60167057D02*
X176447619Y-60205152D01*
X176447619Y-60205152D02*
X176409524Y-60243247D01*
X176409524Y-60243247D02*
X176371428Y-60319438D01*
X171333333Y-43004819D02*
X171000000Y-42528628D01*
X170761905Y-43004819D02*
X170761905Y-42004819D01*
X170761905Y-42004819D02*
X171142857Y-42004819D01*
X171142857Y-42004819D02*
X171238095Y-42052438D01*
X171238095Y-42052438D02*
X171285714Y-42100057D01*
X171285714Y-42100057D02*
X171333333Y-42195295D01*
X171333333Y-42195295D02*
X171333333Y-42338152D01*
X171333333Y-42338152D02*
X171285714Y-42433390D01*
X171285714Y-42433390D02*
X171238095Y-42481009D01*
X171238095Y-42481009D02*
X171142857Y-42528628D01*
X171142857Y-42528628D02*
X170761905Y-42528628D01*
X171666667Y-42004819D02*
X172333333Y-42004819D01*
X172333333Y-42004819D02*
X171904762Y-43004819D01*
X177562295Y-76133332D02*
X177181342Y-76399999D01*
X177562295Y-76590475D02*
X176762295Y-76590475D01*
X176762295Y-76590475D02*
X176762295Y-76285713D01*
X176762295Y-76285713D02*
X176800390Y-76209523D01*
X176800390Y-76209523D02*
X176838485Y-76171428D01*
X176838485Y-76171428D02*
X176914676Y-76133332D01*
X176914676Y-76133332D02*
X177028961Y-76133332D01*
X177028961Y-76133332D02*
X177105152Y-76171428D01*
X177105152Y-76171428D02*
X177143247Y-76209523D01*
X177143247Y-76209523D02*
X177181342Y-76285713D01*
X177181342Y-76285713D02*
X177181342Y-76590475D01*
X177105152Y-75676190D02*
X177067057Y-75752380D01*
X177067057Y-75752380D02*
X177028961Y-75790475D01*
X177028961Y-75790475D02*
X176952771Y-75828571D01*
X176952771Y-75828571D02*
X176914676Y-75828571D01*
X176914676Y-75828571D02*
X176838485Y-75790475D01*
X176838485Y-75790475D02*
X176800390Y-75752380D01*
X176800390Y-75752380D02*
X176762295Y-75676190D01*
X176762295Y-75676190D02*
X176762295Y-75523809D01*
X176762295Y-75523809D02*
X176800390Y-75447618D01*
X176800390Y-75447618D02*
X176838485Y-75409523D01*
X176838485Y-75409523D02*
X176914676Y-75371428D01*
X176914676Y-75371428D02*
X176952771Y-75371428D01*
X176952771Y-75371428D02*
X177028961Y-75409523D01*
X177028961Y-75409523D02*
X177067057Y-75447618D01*
X177067057Y-75447618D02*
X177105152Y-75523809D01*
X177105152Y-75523809D02*
X177105152Y-75676190D01*
X177105152Y-75676190D02*
X177143247Y-75752380D01*
X177143247Y-75752380D02*
X177181342Y-75790475D01*
X177181342Y-75790475D02*
X177257533Y-75828571D01*
X177257533Y-75828571D02*
X177409914Y-75828571D01*
X177409914Y-75828571D02*
X177486104Y-75790475D01*
X177486104Y-75790475D02*
X177524200Y-75752380D01*
X177524200Y-75752380D02*
X177562295Y-75676190D01*
X177562295Y-75676190D02*
X177562295Y-75523809D01*
X177562295Y-75523809D02*
X177524200Y-75447618D01*
X177524200Y-75447618D02*
X177486104Y-75409523D01*
X177486104Y-75409523D02*
X177409914Y-75371428D01*
X177409914Y-75371428D02*
X177257533Y-75371428D01*
X177257533Y-75371428D02*
X177181342Y-75409523D01*
X177181342Y-75409523D02*
X177143247Y-75447618D01*
X177143247Y-75447618D02*
X177105152Y-75523809D01*
X177562295Y-74333332D02*
X177181342Y-74599999D01*
X177562295Y-74790475D02*
X176762295Y-74790475D01*
X176762295Y-74790475D02*
X176762295Y-74485713D01*
X176762295Y-74485713D02*
X176800390Y-74409523D01*
X176800390Y-74409523D02*
X176838485Y-74371428D01*
X176838485Y-74371428D02*
X176914676Y-74333332D01*
X176914676Y-74333332D02*
X177028961Y-74333332D01*
X177028961Y-74333332D02*
X177105152Y-74371428D01*
X177105152Y-74371428D02*
X177143247Y-74409523D01*
X177143247Y-74409523D02*
X177181342Y-74485713D01*
X177181342Y-74485713D02*
X177181342Y-74790475D01*
X177562295Y-73952380D02*
X177562295Y-73799999D01*
X177562295Y-73799999D02*
X177524200Y-73723809D01*
X177524200Y-73723809D02*
X177486104Y-73685713D01*
X177486104Y-73685713D02*
X177371819Y-73609523D01*
X177371819Y-73609523D02*
X177219438Y-73571428D01*
X177219438Y-73571428D02*
X176914676Y-73571428D01*
X176914676Y-73571428D02*
X176838485Y-73609523D01*
X176838485Y-73609523D02*
X176800390Y-73647618D01*
X176800390Y-73647618D02*
X176762295Y-73723809D01*
X176762295Y-73723809D02*
X176762295Y-73876190D01*
X176762295Y-73876190D02*
X176800390Y-73952380D01*
X176800390Y-73952380D02*
X176838485Y-73990475D01*
X176838485Y-73990475D02*
X176914676Y-74028571D01*
X176914676Y-74028571D02*
X177105152Y-74028571D01*
X177105152Y-74028571D02*
X177181342Y-73990475D01*
X177181342Y-73990475D02*
X177219438Y-73952380D01*
X177219438Y-73952380D02*
X177257533Y-73876190D01*
X177257533Y-73876190D02*
X177257533Y-73723809D01*
X177257533Y-73723809D02*
X177219438Y-73647618D01*
X177219438Y-73647618D02*
X177181342Y-73609523D01*
X177181342Y-73609523D02*
X177105152Y-73571428D01*
X176085714Y-65162295D02*
X175819047Y-64781342D01*
X175628571Y-65162295D02*
X175628571Y-64362295D01*
X175628571Y-64362295D02*
X175933333Y-64362295D01*
X175933333Y-64362295D02*
X176009523Y-64400390D01*
X176009523Y-64400390D02*
X176047618Y-64438485D01*
X176047618Y-64438485D02*
X176085714Y-64514676D01*
X176085714Y-64514676D02*
X176085714Y-64628961D01*
X176085714Y-64628961D02*
X176047618Y-64705152D01*
X176047618Y-64705152D02*
X176009523Y-64743247D01*
X176009523Y-64743247D02*
X175933333Y-64781342D01*
X175933333Y-64781342D02*
X175628571Y-64781342D01*
X176847618Y-65162295D02*
X176390475Y-65162295D01*
X176619047Y-65162295D02*
X176619047Y-64362295D01*
X176619047Y-64362295D02*
X176542856Y-64476580D01*
X176542856Y-64476580D02*
X176466666Y-64552771D01*
X176466666Y-64552771D02*
X176390475Y-64590866D01*
X177342857Y-64362295D02*
X177419047Y-64362295D01*
X177419047Y-64362295D02*
X177495238Y-64400390D01*
X177495238Y-64400390D02*
X177533333Y-64438485D01*
X177533333Y-64438485D02*
X177571428Y-64514676D01*
X177571428Y-64514676D02*
X177609523Y-64667057D01*
X177609523Y-64667057D02*
X177609523Y-64857533D01*
X177609523Y-64857533D02*
X177571428Y-65009914D01*
X177571428Y-65009914D02*
X177533333Y-65086104D01*
X177533333Y-65086104D02*
X177495238Y-65124200D01*
X177495238Y-65124200D02*
X177419047Y-65162295D01*
X177419047Y-65162295D02*
X177342857Y-65162295D01*
X177342857Y-65162295D02*
X177266666Y-65124200D01*
X177266666Y-65124200D02*
X177228571Y-65086104D01*
X177228571Y-65086104D02*
X177190476Y-65009914D01*
X177190476Y-65009914D02*
X177152380Y-64857533D01*
X177152380Y-64857533D02*
X177152380Y-64667057D01*
X177152380Y-64667057D02*
X177190476Y-64514676D01*
X177190476Y-64514676D02*
X177228571Y-64438485D01*
X177228571Y-64438485D02*
X177266666Y-64400390D01*
X177266666Y-64400390D02*
X177342857Y-64362295D01*
X176085714Y-70562295D02*
X175819047Y-70181342D01*
X175628571Y-70562295D02*
X175628571Y-69762295D01*
X175628571Y-69762295D02*
X175933333Y-69762295D01*
X175933333Y-69762295D02*
X176009523Y-69800390D01*
X176009523Y-69800390D02*
X176047618Y-69838485D01*
X176047618Y-69838485D02*
X176085714Y-69914676D01*
X176085714Y-69914676D02*
X176085714Y-70028961D01*
X176085714Y-70028961D02*
X176047618Y-70105152D01*
X176047618Y-70105152D02*
X176009523Y-70143247D01*
X176009523Y-70143247D02*
X175933333Y-70181342D01*
X175933333Y-70181342D02*
X175628571Y-70181342D01*
X176847618Y-70562295D02*
X176390475Y-70562295D01*
X176619047Y-70562295D02*
X176619047Y-69762295D01*
X176619047Y-69762295D02*
X176542856Y-69876580D01*
X176542856Y-69876580D02*
X176466666Y-69952771D01*
X176466666Y-69952771D02*
X176390475Y-69990866D01*
X177152380Y-69838485D02*
X177190476Y-69800390D01*
X177190476Y-69800390D02*
X177266666Y-69762295D01*
X177266666Y-69762295D02*
X177457142Y-69762295D01*
X177457142Y-69762295D02*
X177533333Y-69800390D01*
X177533333Y-69800390D02*
X177571428Y-69838485D01*
X177571428Y-69838485D02*
X177609523Y-69914676D01*
X177609523Y-69914676D02*
X177609523Y-69990866D01*
X177609523Y-69990866D02*
X177571428Y-70105152D01*
X177571428Y-70105152D02*
X177114285Y-70562295D01*
X177114285Y-70562295D02*
X177609523Y-70562295D01*
X176085714Y-69562295D02*
X175819047Y-69181342D01*
X175628571Y-69562295D02*
X175628571Y-68762295D01*
X175628571Y-68762295D02*
X175933333Y-68762295D01*
X175933333Y-68762295D02*
X176009523Y-68800390D01*
X176009523Y-68800390D02*
X176047618Y-68838485D01*
X176047618Y-68838485D02*
X176085714Y-68914676D01*
X176085714Y-68914676D02*
X176085714Y-69028961D01*
X176085714Y-69028961D02*
X176047618Y-69105152D01*
X176047618Y-69105152D02*
X176009523Y-69143247D01*
X176009523Y-69143247D02*
X175933333Y-69181342D01*
X175933333Y-69181342D02*
X175628571Y-69181342D01*
X176847618Y-69562295D02*
X176390475Y-69562295D01*
X176619047Y-69562295D02*
X176619047Y-68762295D01*
X176619047Y-68762295D02*
X176542856Y-68876580D01*
X176542856Y-68876580D02*
X176466666Y-68952771D01*
X176466666Y-68952771D02*
X176390475Y-68990866D01*
X177114285Y-68762295D02*
X177609523Y-68762295D01*
X177609523Y-68762295D02*
X177342857Y-69067057D01*
X177342857Y-69067057D02*
X177457142Y-69067057D01*
X177457142Y-69067057D02*
X177533333Y-69105152D01*
X177533333Y-69105152D02*
X177571428Y-69143247D01*
X177571428Y-69143247D02*
X177609523Y-69219438D01*
X177609523Y-69219438D02*
X177609523Y-69409914D01*
X177609523Y-69409914D02*
X177571428Y-69486104D01*
X177571428Y-69486104D02*
X177533333Y-69524200D01*
X177533333Y-69524200D02*
X177457142Y-69562295D01*
X177457142Y-69562295D02*
X177228571Y-69562295D01*
X177228571Y-69562295D02*
X177152380Y-69524200D01*
X177152380Y-69524200D02*
X177114285Y-69486104D01*
X169485714Y-74862295D02*
X169219047Y-74481342D01*
X169028571Y-74862295D02*
X169028571Y-74062295D01*
X169028571Y-74062295D02*
X169333333Y-74062295D01*
X169333333Y-74062295D02*
X169409523Y-74100390D01*
X169409523Y-74100390D02*
X169447618Y-74138485D01*
X169447618Y-74138485D02*
X169485714Y-74214676D01*
X169485714Y-74214676D02*
X169485714Y-74328961D01*
X169485714Y-74328961D02*
X169447618Y-74405152D01*
X169447618Y-74405152D02*
X169409523Y-74443247D01*
X169409523Y-74443247D02*
X169333333Y-74481342D01*
X169333333Y-74481342D02*
X169028571Y-74481342D01*
X170247618Y-74862295D02*
X169790475Y-74862295D01*
X170019047Y-74862295D02*
X170019047Y-74062295D01*
X170019047Y-74062295D02*
X169942856Y-74176580D01*
X169942856Y-74176580D02*
X169866666Y-74252771D01*
X169866666Y-74252771D02*
X169790475Y-74290866D01*
X170933333Y-74328961D02*
X170933333Y-74862295D01*
X170742857Y-74024200D02*
X170552380Y-74595628D01*
X170552380Y-74595628D02*
X171047619Y-74595628D01*
X193988095Y-76804819D02*
X193988095Y-77614342D01*
X193988095Y-77614342D02*
X194035714Y-77709580D01*
X194035714Y-77709580D02*
X194083333Y-77757200D01*
X194083333Y-77757200D02*
X194178571Y-77804819D01*
X194178571Y-77804819D02*
X194369047Y-77804819D01*
X194369047Y-77804819D02*
X194464285Y-77757200D01*
X194464285Y-77757200D02*
X194511904Y-77709580D01*
X194511904Y-77709580D02*
X194559523Y-77614342D01*
X194559523Y-77614342D02*
X194559523Y-76804819D01*
X195559523Y-77804819D02*
X194988095Y-77804819D01*
X195273809Y-77804819D02*
X195273809Y-76804819D01*
X195273809Y-76804819D02*
X195178571Y-76947676D01*
X195178571Y-76947676D02*
X195083333Y-77042914D01*
X195083333Y-77042914D02*
X194988095Y-77090533D01*
X200034819Y-36853333D02*
X200749104Y-36853333D01*
X200749104Y-36853333D02*
X200891961Y-36900952D01*
X200891961Y-36900952D02*
X200987200Y-36996190D01*
X200987200Y-36996190D02*
X201034819Y-37139047D01*
X201034819Y-37139047D02*
X201034819Y-37234285D01*
X201034819Y-35853333D02*
X201034819Y-36424761D01*
X201034819Y-36139047D02*
X200034819Y-36139047D01*
X200034819Y-36139047D02*
X200177676Y-36234285D01*
X200177676Y-36234285D02*
X200272914Y-36329523D01*
X200272914Y-36329523D02*
X200320533Y-36424761D01*
X204761904Y-47181009D02*
X204428571Y-47181009D01*
X204428571Y-47704819D02*
X204428571Y-46704819D01*
X204428571Y-46704819D02*
X204904761Y-46704819D01*
X205761904Y-47704819D02*
X205285714Y-47704819D01*
X205285714Y-47704819D02*
X205285714Y-46704819D01*
X206619047Y-47704819D02*
X206047619Y-47704819D01*
X206333333Y-47704819D02*
X206333333Y-46704819D01*
X206333333Y-46704819D02*
X206238095Y-46847676D01*
X206238095Y-46847676D02*
X206142857Y-46942914D01*
X206142857Y-46942914D02*
X206047619Y-46990533D01*
X199666666Y-51454819D02*
X199666666Y-52169104D01*
X199666666Y-52169104D02*
X199619047Y-52311961D01*
X199619047Y-52311961D02*
X199523809Y-52407200D01*
X199523809Y-52407200D02*
X199380952Y-52454819D01*
X199380952Y-52454819D02*
X199285714Y-52454819D01*
X200047619Y-51454819D02*
X200666666Y-51454819D01*
X200666666Y-51454819D02*
X200333333Y-51835771D01*
X200333333Y-51835771D02*
X200476190Y-51835771D01*
X200476190Y-51835771D02*
X200571428Y-51883390D01*
X200571428Y-51883390D02*
X200619047Y-51931009D01*
X200619047Y-51931009D02*
X200666666Y-52026247D01*
X200666666Y-52026247D02*
X200666666Y-52264342D01*
X200666666Y-52264342D02*
X200619047Y-52359580D01*
X200619047Y-52359580D02*
X200571428Y-52407200D01*
X200571428Y-52407200D02*
X200476190Y-52454819D01*
X200476190Y-52454819D02*
X200190476Y-52454819D01*
X200190476Y-52454819D02*
X200095238Y-52407200D01*
X200095238Y-52407200D02*
X200047619Y-52359580D01*
X175938485Y-58976190D02*
X175900390Y-59052380D01*
X175900390Y-59052380D02*
X175824200Y-59128571D01*
X175824200Y-59128571D02*
X175709914Y-59242857D01*
X175709914Y-59242857D02*
X175671819Y-59319047D01*
X175671819Y-59319047D02*
X175671819Y-59395238D01*
X175862295Y-59357142D02*
X175824200Y-59433333D01*
X175824200Y-59433333D02*
X175748009Y-59509523D01*
X175748009Y-59509523D02*
X175595628Y-59547619D01*
X175595628Y-59547619D02*
X175328961Y-59547619D01*
X175328961Y-59547619D02*
X175176580Y-59509523D01*
X175176580Y-59509523D02*
X175100390Y-59433333D01*
X175100390Y-59433333D02*
X175062295Y-59357142D01*
X175062295Y-59357142D02*
X175062295Y-59204761D01*
X175062295Y-59204761D02*
X175100390Y-59128571D01*
X175100390Y-59128571D02*
X175176580Y-59052380D01*
X175176580Y-59052380D02*
X175328961Y-59014285D01*
X175328961Y-59014285D02*
X175595628Y-59014285D01*
X175595628Y-59014285D02*
X175748009Y-59052380D01*
X175748009Y-59052380D02*
X175824200Y-59128571D01*
X175824200Y-59128571D02*
X175862295Y-59204761D01*
X175862295Y-59204761D02*
X175862295Y-59357142D01*
X175862295Y-58252381D02*
X175862295Y-58709524D01*
X175862295Y-58480952D02*
X175062295Y-58480952D01*
X175062295Y-58480952D02*
X175176580Y-58557143D01*
X175176580Y-58557143D02*
X175252771Y-58633333D01*
X175252771Y-58633333D02*
X175290866Y-58709524D01*
X175523809Y-73338485D02*
X175447619Y-73300390D01*
X175447619Y-73300390D02*
X175371428Y-73224200D01*
X175371428Y-73224200D02*
X175257142Y-73109914D01*
X175257142Y-73109914D02*
X175180952Y-73071819D01*
X175180952Y-73071819D02*
X175104761Y-73071819D01*
X175142857Y-73262295D02*
X175066666Y-73224200D01*
X175066666Y-73224200D02*
X174990476Y-73148009D01*
X174990476Y-73148009D02*
X174952380Y-72995628D01*
X174952380Y-72995628D02*
X174952380Y-72728961D01*
X174952380Y-72728961D02*
X174990476Y-72576580D01*
X174990476Y-72576580D02*
X175066666Y-72500390D01*
X175066666Y-72500390D02*
X175142857Y-72462295D01*
X175142857Y-72462295D02*
X175295238Y-72462295D01*
X175295238Y-72462295D02*
X175371428Y-72500390D01*
X175371428Y-72500390D02*
X175447619Y-72576580D01*
X175447619Y-72576580D02*
X175485714Y-72728961D01*
X175485714Y-72728961D02*
X175485714Y-72995628D01*
X175485714Y-72995628D02*
X175447619Y-73148009D01*
X175447619Y-73148009D02*
X175371428Y-73224200D01*
X175371428Y-73224200D02*
X175295238Y-73262295D01*
X175295238Y-73262295D02*
X175142857Y-73262295D01*
X175790475Y-72538485D02*
X175828571Y-72500390D01*
X175828571Y-72500390D02*
X175904761Y-72462295D01*
X175904761Y-72462295D02*
X176095237Y-72462295D01*
X176095237Y-72462295D02*
X176171428Y-72500390D01*
X176171428Y-72500390D02*
X176209523Y-72538485D01*
X176209523Y-72538485D02*
X176247618Y-72614676D01*
X176247618Y-72614676D02*
X176247618Y-72690866D01*
X176247618Y-72690866D02*
X176209523Y-72805152D01*
X176209523Y-72805152D02*
X175752380Y-73262295D01*
X175752380Y-73262295D02*
X176247618Y-73262295D01*
X176085714Y-61662295D02*
X175819047Y-61281342D01*
X175628571Y-61662295D02*
X175628571Y-60862295D01*
X175628571Y-60862295D02*
X175933333Y-60862295D01*
X175933333Y-60862295D02*
X176009523Y-60900390D01*
X176009523Y-60900390D02*
X176047618Y-60938485D01*
X176047618Y-60938485D02*
X176085714Y-61014676D01*
X176085714Y-61014676D02*
X176085714Y-61128961D01*
X176085714Y-61128961D02*
X176047618Y-61205152D01*
X176047618Y-61205152D02*
X176009523Y-61243247D01*
X176009523Y-61243247D02*
X175933333Y-61281342D01*
X175933333Y-61281342D02*
X175628571Y-61281342D01*
X176847618Y-61662295D02*
X176390475Y-61662295D01*
X176619047Y-61662295D02*
X176619047Y-60862295D01*
X176619047Y-60862295D02*
X176542856Y-60976580D01*
X176542856Y-60976580D02*
X176466666Y-61052771D01*
X176466666Y-61052771D02*
X176390475Y-61090866D01*
X177609523Y-61662295D02*
X177152380Y-61662295D01*
X177380952Y-61662295D02*
X177380952Y-60862295D01*
X177380952Y-60862295D02*
X177304761Y-60976580D01*
X177304761Y-60976580D02*
X177228571Y-61052771D01*
X177228571Y-61052771D02*
X177152380Y-61090866D01*
X176262295Y-53833332D02*
X175881342Y-54099999D01*
X176262295Y-54290475D02*
X175462295Y-54290475D01*
X175462295Y-54290475D02*
X175462295Y-53985713D01*
X175462295Y-53985713D02*
X175500390Y-53909523D01*
X175500390Y-53909523D02*
X175538485Y-53871428D01*
X175538485Y-53871428D02*
X175614676Y-53833332D01*
X175614676Y-53833332D02*
X175728961Y-53833332D01*
X175728961Y-53833332D02*
X175805152Y-53871428D01*
X175805152Y-53871428D02*
X175843247Y-53909523D01*
X175843247Y-53909523D02*
X175881342Y-53985713D01*
X175881342Y-53985713D02*
X175881342Y-54290475D01*
X175538485Y-53528571D02*
X175500390Y-53490475D01*
X175500390Y-53490475D02*
X175462295Y-53414285D01*
X175462295Y-53414285D02*
X175462295Y-53223809D01*
X175462295Y-53223809D02*
X175500390Y-53147618D01*
X175500390Y-53147618D02*
X175538485Y-53109523D01*
X175538485Y-53109523D02*
X175614676Y-53071428D01*
X175614676Y-53071428D02*
X175690866Y-53071428D01*
X175690866Y-53071428D02*
X175805152Y-53109523D01*
X175805152Y-53109523D02*
X176262295Y-53566666D01*
X176262295Y-53566666D02*
X176262295Y-53071428D01*
X203810308Y-65518900D02*
X203762689Y-65566520D01*
X203762689Y-65566520D02*
X203619832Y-65614139D01*
X203619832Y-65614139D02*
X203524594Y-65614139D01*
X203524594Y-65614139D02*
X203381737Y-65566520D01*
X203381737Y-65566520D02*
X203286499Y-65471281D01*
X203286499Y-65471281D02*
X203238880Y-65376043D01*
X203238880Y-65376043D02*
X203191261Y-65185567D01*
X203191261Y-65185567D02*
X203191261Y-65042710D01*
X203191261Y-65042710D02*
X203238880Y-64852234D01*
X203238880Y-64852234D02*
X203286499Y-64756996D01*
X203286499Y-64756996D02*
X203381737Y-64661758D01*
X203381737Y-64661758D02*
X203524594Y-64614139D01*
X203524594Y-64614139D02*
X203619832Y-64614139D01*
X203619832Y-64614139D02*
X203762689Y-64661758D01*
X203762689Y-64661758D02*
X203810308Y-64709377D01*
X204715070Y-64614139D02*
X204238880Y-64614139D01*
X204238880Y-64614139D02*
X204191261Y-65090329D01*
X204191261Y-65090329D02*
X204238880Y-65042710D01*
X204238880Y-65042710D02*
X204334118Y-64995091D01*
X204334118Y-64995091D02*
X204572213Y-64995091D01*
X204572213Y-64995091D02*
X204667451Y-65042710D01*
X204667451Y-65042710D02*
X204715070Y-65090329D01*
X204715070Y-65090329D02*
X204762689Y-65185567D01*
X204762689Y-65185567D02*
X204762689Y-65423662D01*
X204762689Y-65423662D02*
X204715070Y-65518900D01*
X204715070Y-65518900D02*
X204667451Y-65566520D01*
X204667451Y-65566520D02*
X204572213Y-65614139D01*
X204572213Y-65614139D02*
X204334118Y-65614139D01*
X204334118Y-65614139D02*
X204238880Y-65566520D01*
X204238880Y-65566520D02*
X204191261Y-65518900D01*
X203788112Y-67120198D02*
X203454779Y-66644007D01*
X203216684Y-67120198D02*
X203216684Y-66120198D01*
X203216684Y-66120198D02*
X203597636Y-66120198D01*
X203597636Y-66120198D02*
X203692874Y-66167817D01*
X203692874Y-66167817D02*
X203740493Y-66215436D01*
X203740493Y-66215436D02*
X203788112Y-66310674D01*
X203788112Y-66310674D02*
X203788112Y-66453531D01*
X203788112Y-66453531D02*
X203740493Y-66548769D01*
X203740493Y-66548769D02*
X203692874Y-66596388D01*
X203692874Y-66596388D02*
X203597636Y-66644007D01*
X203597636Y-66644007D02*
X203216684Y-66644007D01*
X204740493Y-67120198D02*
X204169065Y-67120198D01*
X204454779Y-67120198D02*
X204454779Y-66120198D01*
X204454779Y-66120198D02*
X204359541Y-66263055D01*
X204359541Y-66263055D02*
X204264303Y-66358293D01*
X204264303Y-66358293D02*
X204169065Y-66405912D01*
X205645255Y-66120198D02*
X205169065Y-66120198D01*
X205169065Y-66120198D02*
X205121446Y-66596388D01*
X205121446Y-66596388D02*
X205169065Y-66548769D01*
X205169065Y-66548769D02*
X205264303Y-66501150D01*
X205264303Y-66501150D02*
X205502398Y-66501150D01*
X205502398Y-66501150D02*
X205597636Y-66548769D01*
X205597636Y-66548769D02*
X205645255Y-66596388D01*
X205645255Y-66596388D02*
X205692874Y-66691626D01*
X205692874Y-66691626D02*
X205692874Y-66929721D01*
X205692874Y-66929721D02*
X205645255Y-67024959D01*
X205645255Y-67024959D02*
X205597636Y-67072579D01*
X205597636Y-67072579D02*
X205502398Y-67120198D01*
X205502398Y-67120198D02*
X205264303Y-67120198D01*
X205264303Y-67120198D02*
X205169065Y-67072579D01*
X205169065Y-67072579D02*
X205121446Y-67024959D01*
D12*
%TO.C,C1*%
X201640580Y-72760000D02*
X201359420Y-72760000D01*
X201640580Y-71740000D02*
X201359420Y-71740000D01*
%TO.C,C2*%
X174140580Y-41510000D02*
X173859420Y-41510000D01*
X174140580Y-40490000D02*
X173859420Y-40490000D01*
%TO.C,C3*%
X173859420Y-62740000D02*
X174140580Y-62740000D01*
X173859420Y-63760000D02*
X174140580Y-63760000D01*
%TO.C,C4*%
X173510000Y-74859420D02*
X173510000Y-75140580D01*
X172490000Y-74859420D02*
X172490000Y-75140580D01*
%TO.C,D1*%
X172515000Y-49015000D02*
X172515000Y-50485000D01*
X172515000Y-50485000D02*
X174800000Y-50485000D01*
X174800000Y-49015000D02*
X172515000Y-49015000D01*
%TO.C,D2*%
X204400000Y-43650000D02*
X204400000Y-40350000D01*
X204400000Y-43650000D02*
X199000000Y-43650000D01*
X204400000Y-40350000D02*
X199000000Y-40350000D01*
%TO.C,D3*%
X172515000Y-65515000D02*
X172515000Y-66985000D01*
X172515000Y-66985000D02*
X174800000Y-66985000D01*
X174800000Y-65515000D02*
X172515000Y-65515000D01*
%TO.C,D4*%
X168885000Y-76485000D02*
X168885000Y-75015000D01*
X168885000Y-75015000D02*
X166600000Y-75015000D01*
X166600000Y-76485000D02*
X168885000Y-76485000D01*
%TO.C,J2*%
X166420000Y-79780000D02*
X166420000Y-78450000D01*
X167750000Y-79780000D02*
X166420000Y-79780000D01*
X169020000Y-79780000D02*
X199560000Y-79780000D01*
X169020000Y-79780000D02*
X169020000Y-77120000D01*
X199560000Y-79780000D02*
X199560000Y-77120000D01*
X169020000Y-77120000D02*
X199560000Y-77120000D01*
%TO.C,JP1*%
X175400000Y-46250000D02*
X172600000Y-46250000D01*
X175400000Y-44250000D02*
X175400000Y-46250000D01*
X172600000Y-46250000D02*
X172600000Y-44250000D01*
X172600000Y-44250000D02*
X175400000Y-44250000D01*
%TO.C,R1*%
X173762742Y-50727500D02*
X174237258Y-50727500D01*
X173762742Y-51772500D02*
X174237258Y-51772500D01*
%TO.C,R3*%
X201262742Y-68477500D02*
X201737258Y-68477500D01*
X201262742Y-69522500D02*
X201737258Y-69522500D01*
%TO.C,R4*%
X201262742Y-69977500D02*
X201737258Y-69977500D01*
X201262742Y-71022500D02*
X201737258Y-71022500D01*
%TO.C,R5*%
X173762742Y-54727500D02*
X174237258Y-54727500D01*
X173762742Y-55772500D02*
X174237258Y-55772500D01*
%TO.C,R6*%
X174237258Y-60772500D02*
X173762742Y-60772500D01*
X174237258Y-59727500D02*
X173762742Y-59727500D01*
%TO.C,R7*%
X173762742Y-41977500D02*
X174237258Y-41977500D01*
X173762742Y-43022500D02*
X174237258Y-43022500D01*
%TO.C,R8*%
X175487258Y-76272500D02*
X175012742Y-76272500D01*
X175487258Y-75227500D02*
X175012742Y-75227500D01*
%TO.C,R9*%
X175012742Y-73727500D02*
X175487258Y-73727500D01*
X175012742Y-74772500D02*
X175487258Y-74772500D01*
%TO.C,R10*%
X174237258Y-65272500D02*
X173762742Y-65272500D01*
X174237258Y-64227500D02*
X173762742Y-64227500D01*
%TO.C,R12*%
X174237258Y-69772500D02*
X173762742Y-69772500D01*
X174237258Y-68727500D02*
X173762742Y-68727500D01*
%TO.C,R13*%
X174237258Y-68272500D02*
X173762742Y-68272500D01*
X174237258Y-67227500D02*
X173762742Y-67227500D01*
%TO.C,R14*%
X170262742Y-75227500D02*
X170737258Y-75227500D01*
X170262742Y-76272500D02*
X170737258Y-76272500D01*
D13*
%TO.C,U1*%
X196950000Y-40500000D02*
X196950000Y-43800000D01*
X195450000Y-40500000D02*
X196950000Y-40500000D01*
X177550000Y-40500000D02*
X179050000Y-40500000D01*
X177550000Y-40500000D02*
X177550000Y-43800000D01*
X196950000Y-73200000D02*
X196950000Y-76500000D01*
X177550000Y-73200000D02*
X177550000Y-76500000D01*
X177550000Y-76500000D02*
X196950000Y-76500000D01*
D14*
X181950000Y-73175000D02*
X180200000Y-71925000D01*
X181950000Y-70675000D01*
X181950000Y-73175000D01*
G36*
X181950000Y-73175000D02*
G01*
X180200000Y-71925000D01*
X181950000Y-70675000D01*
X181950000Y-73175000D01*
G37*
D12*
%TO.C,J1*%
X199580000Y-33920000D02*
X199580000Y-35250000D01*
X198250000Y-33920000D02*
X199580000Y-33920000D01*
X196980000Y-33920000D02*
X166440000Y-33920000D01*
X196980000Y-33920000D02*
X196980000Y-36520000D01*
X166440000Y-33920000D02*
X166440000Y-39120000D01*
X199580000Y-36520000D02*
X199580000Y-39120000D01*
X196980000Y-36520000D02*
X199580000Y-36520000D01*
X199580000Y-39120000D02*
X166440000Y-39120000D01*
%TO.C,FL1*%
X201900000Y-50000000D02*
X201900000Y-47600000D01*
X203600000Y-50000000D02*
X201900000Y-50000000D01*
X201900000Y-47600000D02*
X203600000Y-47600000D01*
X203600000Y-47600000D02*
X203600000Y-50000000D01*
D14*
X203000000Y-48675000D02*
X202525000Y-48675000D01*
X202525000Y-48300000D01*
X203000000Y-48300000D01*
X203000000Y-48675000D01*
G36*
X203000000Y-48675000D02*
G01*
X202525000Y-48675000D01*
X202525000Y-48300000D01*
X203000000Y-48300000D01*
X203000000Y-48675000D01*
G37*
D12*
%TO.C,J3*%
X199020000Y-55200000D02*
X199020000Y-58800000D01*
X200900000Y-53320000D02*
X204500000Y-53320000D01*
X200900000Y-60680000D02*
X204500000Y-60680000D01*
X206380000Y-55200000D02*
X206380000Y-58800000D01*
%TO.C,Q1*%
X174760000Y-56170000D02*
X172600000Y-56170000D01*
X174760000Y-56170000D02*
X174760000Y-57100000D01*
X174760000Y-59330000D02*
X173300000Y-59330000D01*
X174760000Y-59330000D02*
X174760000Y-58400000D01*
%TO.C,Q2*%
X174760000Y-70170000D02*
X172600000Y-70170000D01*
X174760000Y-70170000D02*
X174760000Y-71100000D01*
X174760000Y-73330000D02*
X173300000Y-73330000D01*
X174760000Y-73330000D02*
X174760000Y-72400000D01*
%TO.C,R11*%
X174237258Y-62272500D02*
X173762742Y-62272500D01*
X174237258Y-61227500D02*
X173762742Y-61227500D01*
%TO.C,R2*%
X174237258Y-54272500D02*
X173762742Y-54272500D01*
X174237258Y-53227500D02*
X173762742Y-53227500D01*
%TO.C,C5*%
X201399820Y-64514000D02*
X201680980Y-64514000D01*
X201399820Y-65534000D02*
X201680980Y-65534000D01*
%TO.C,R15*%
X201773558Y-67130000D02*
X201299042Y-67130000D01*
X201773558Y-66085000D02*
X201299042Y-66085000D01*
%TD*%
M02*
